G75*
G70*
%OFA0B0*%
%FSLAX24Y24*%
%IPPOS*%
%LPD*%
%AMOC8*
5,1,8,0,0,1.08239X$1,22.5*
%
%ADD10C,0.0780*%
%ADD11C,0.1261*%
%ADD12OC8,0.0740*%
%ADD13C,0.0680*%
%ADD14C,0.0820*%
%ADD15C,0.0740*%
%ADD16OC8,0.0780*%
%ADD17C,0.0946*%
%ADD18OC8,0.0560*%
%ADD19C,0.0611*%
%ADD20C,0.0560*%
%ADD21R,0.0820X0.0820*%
%ADD22C,0.1661*%
%ADD23C,0.1080*%
%ADD24C,0.0966*%
%ADD25C,0.0671*%
%ADD26C,0.0552*%
%ADD27C,0.0456*%
D10*
X018660Y002010D03*
X018660Y003010D03*
X018660Y004010D03*
X018660Y005010D03*
X018660Y006010D03*
X018660Y007010D03*
X018660Y008010D03*
X018660Y009010D03*
X018660Y010010D03*
X003510Y019980D03*
X003510Y022540D03*
D11*
X030666Y010010D03*
X030666Y002010D03*
D12*
X039510Y010510D03*
X040510Y010510D03*
X008260Y020760D03*
X007260Y020760D03*
X007260Y024260D03*
X008260Y024260D03*
D13*
X034885Y002560D02*
X034885Y001960D01*
X035885Y001960D02*
X035885Y002560D01*
X036885Y002560D02*
X036885Y001960D01*
D14*
X034260Y003760D03*
X034260Y004760D03*
X034260Y005760D03*
X034260Y006760D03*
X034260Y007760D03*
X034260Y008760D03*
X040760Y006760D03*
X040760Y005760D03*
X040760Y004760D03*
X029760Y013260D03*
X028760Y013260D03*
X027760Y013260D03*
X026760Y013260D03*
X025760Y013260D03*
X024760Y013260D03*
X023760Y013260D03*
X022760Y013260D03*
X021760Y013260D03*
X020760Y013260D03*
X019760Y013260D03*
X018760Y013260D03*
X017760Y013260D03*
X016760Y013260D03*
X016760Y022260D03*
X017760Y022260D03*
X018760Y022260D03*
X019760Y022260D03*
X020760Y022260D03*
X021760Y022260D03*
X022760Y022260D03*
X023760Y022260D03*
X024760Y022260D03*
X025760Y022260D03*
X026760Y022260D03*
X027760Y022260D03*
X028760Y022260D03*
X029760Y022260D03*
X031760Y019010D03*
X032760Y019010D03*
X032760Y016260D03*
X031760Y016260D03*
X037260Y015760D03*
X037260Y016760D03*
X037260Y019260D03*
X037260Y020260D03*
X015040Y003650D03*
X012480Y003650D03*
X012480Y001870D03*
X015040Y001870D03*
D15*
X035260Y025260D03*
X036260Y025260D03*
X037260Y025260D03*
D16*
X013260Y005010D03*
X012260Y005010D03*
X011260Y005010D03*
X010260Y005010D03*
X009260Y005010D03*
X008260Y005010D03*
X007260Y005010D03*
X006260Y005010D03*
X005260Y005010D03*
X004260Y005010D03*
D17*
X003010Y005260D03*
X014510Y005260D03*
X014510Y017760D03*
X003010Y017760D03*
D18*
X004760Y017760D03*
X006260Y017760D03*
X007760Y017760D03*
X009260Y017635D03*
X009760Y019260D03*
X011760Y019260D03*
X012260Y017760D03*
X014760Y016260D03*
X015760Y016260D03*
X014760Y014260D03*
X012260Y013760D03*
X009260Y013635D03*
X007760Y013760D03*
X006260Y013760D03*
X004760Y013760D03*
X015760Y020260D03*
X016760Y023510D03*
X020760Y023510D03*
X021760Y023510D03*
X025760Y023510D03*
X026760Y023510D03*
X030760Y023510D03*
X029760Y012010D03*
X031760Y012010D03*
X034385Y010510D03*
X038385Y010510D03*
X016260Y007760D03*
X016260Y003760D03*
X006260Y022135D03*
X006260Y026135D03*
D19*
X010760Y017260D03*
X010760Y014260D03*
D20*
X014260Y021270D02*
X014260Y021750D01*
X015260Y021750D02*
X015260Y021270D01*
X015260Y024270D02*
X015260Y024750D01*
X014260Y024750D02*
X014260Y024270D01*
X005125Y024760D02*
X004645Y024760D01*
X004645Y025760D02*
X005125Y025760D01*
X005125Y023760D02*
X004645Y023760D01*
D21*
X040760Y007760D03*
D22*
X002760Y002760D03*
X032760Y002760D03*
X032760Y025260D03*
X002760Y025260D03*
D23*
X006197Y009721D03*
D24*
X004229Y010666D03*
X004229Y011729D03*
X004229Y008776D03*
X004229Y007713D03*
D25*
X006197Y007752D03*
X004229Y009721D03*
X006197Y011689D03*
D26*
X010260Y020510D03*
X011260Y020510D03*
X012260Y020510D03*
X012260Y022510D03*
X010260Y022510D03*
D27*
X012760Y011260D03*
X016260Y009760D03*
X027760Y006510D03*
M02*
