%
M48
M72
T01C0.0236
T02C0.0315
T03C0.0320
T04C0.0354
T05C0.0394
T06C0.0400
T07C0.0591
T08C0.0787
T09C0.0866
T10C0.1181
%
T01
X16260Y9760
X12760Y11260
X27760Y6510
T02
X12260Y20510
X11260Y20510
X10260Y20510
X10260Y22510
X12260Y22510
T03
X14260Y21510
X15260Y21510
X15760Y20260
X11760Y19260
X12260Y17760
X14760Y16260
X15760Y16260
X14760Y14260
X12260Y13760
X9260Y13635
X7760Y13760
X6260Y13760
X4760Y13760
X9260Y17635
X7760Y17760
X6260Y17760
X4760Y17760
X7260Y20760
X8260Y20760
X6260Y22135
X4885Y23760
X4885Y24760
X4885Y25760
X6260Y26135
X7260Y24260
X8260Y24260
X14260Y24510
X15260Y24510
X16760Y23510
X20760Y23510
X21760Y23510
X25760Y23510
X26760Y23510
X30760Y23510
X29760Y12010
X31760Y12010
X34385Y10510
X38385Y10510
X39510Y10510
X40510Y10510
X16260Y7760
X16260Y3760
X9760Y19260
T04
X10760Y17260
X10760Y14260
X3510Y19980
X3510Y22540
X35260Y25260
X36260Y25260
X37260Y25260
T05
X18660Y10010
X18660Y9010
X18660Y8010
X18660Y7010
X18660Y6010
X18660Y5010
X18660Y4010
X18660Y3010
X18660Y2010
T06
X15040Y1870
X12480Y1870
X12480Y3650
X12260Y5010
X11260Y5010
X10260Y5010
X9260Y5010
X8260Y5010
X7260Y5010
X6260Y5010
X5260Y5010
X4260Y5010
X13260Y5010
X15040Y3650
X16760Y13260
X17760Y13260
X18760Y13260
X19760Y13260
X20760Y13260
X21760Y13260
X22760Y13260
X23760Y13260
X24760Y13260
X25760Y13260
X26760Y13260
X27760Y13260
X28760Y13260
X29760Y13260
X31760Y16260
X32760Y16260
X32760Y19010
X31760Y19010
X29760Y22260
X28760Y22260
X27760Y22260
X26760Y22260
X25760Y22260
X24760Y22260
X23760Y22260
X22760Y22260
X21760Y22260
X20760Y22260
X19760Y22260
X18760Y22260
X17760Y22260
X16760Y22260
X37260Y20260
X37260Y19260
X37260Y16760
X37260Y15760
X34260Y8760
X34260Y7760
X34260Y6760
X34260Y5760
X34260Y4760
X34260Y3760
X34885Y2260
X35885Y2260
X36885Y2260
X40760Y4760
X40760Y5760
X40760Y6760
X40760Y7760
T07
X6197Y7752
X4229Y7713
X4229Y8776
X4229Y9721
X4229Y10666
X4229Y11729
X6197Y11689
X6197Y9721
T08
X30666Y10010
X30666Y2010
T09
X14510Y5260
X3010Y5260
X3010Y17760
X14510Y17760
T10
X2760Y2760
X32760Y2760
X32760Y25260
X2760Y25260
M30
