G75*
G70*
%OFA0B0*%
%FSLAX24Y24*%
%IPPOS*%
%LPD*%
%AMOC8*
5,1,8,0,0,1.08239X$1,22.5*
%
%ADD10C,0.0840*%
%ADD11C,0.1261*%
%ADD12C,0.0780*%
%ADD13OC8,0.0740*%
%ADD14C,0.0680*%
%ADD15C,0.0820*%
%ADD16C,0.0740*%
%ADD17OC8,0.0780*%
%ADD18C,0.0946*%
%ADD19OC8,0.0600*%
%ADD20C,0.0634*%
%ADD21C,0.0600*%
%ADD22C,0.1661*%
%ADD23C,0.0552*%
D10*
X005274Y010325D03*
X006274Y010325D03*
X007274Y010325D03*
X008274Y010325D03*
X009274Y010325D03*
X010274Y010325D03*
X011274Y010325D03*
X012274Y010325D03*
X010709Y013497D03*
X011497Y014225D03*
X010709Y014953D03*
X008780Y014225D03*
D11*
X013829Y017131D03*
X013829Y010406D03*
X003656Y010406D03*
X003656Y017131D03*
X030631Y009975D03*
X030631Y001975D03*
D12*
X018625Y001975D03*
X018625Y002975D03*
X018625Y003975D03*
X018625Y004975D03*
X018625Y005975D03*
X018625Y006975D03*
X018625Y007975D03*
X018625Y008975D03*
X018625Y009975D03*
X010475Y022945D03*
X010475Y025505D03*
D13*
X006975Y025475D03*
X005975Y025475D03*
X005975Y022975D03*
X006975Y022975D03*
X035225Y024725D03*
X036225Y024725D03*
D14*
X029225Y005525D02*
X029225Y004925D01*
X028225Y004925D02*
X028225Y005525D01*
X027225Y005525D02*
X027225Y004925D01*
D15*
X034225Y004725D03*
X034225Y003725D03*
X034225Y005725D03*
X034225Y006725D03*
X034225Y007725D03*
X034225Y008725D03*
X029725Y013225D03*
X028725Y013225D03*
X027725Y013225D03*
X026725Y013225D03*
X025725Y013225D03*
X024725Y013225D03*
X023725Y013225D03*
X022725Y013225D03*
X021725Y013225D03*
X020725Y013225D03*
X019725Y013225D03*
X018725Y013225D03*
X017725Y013225D03*
X016725Y013225D03*
X015865Y005005D03*
X014085Y005005D03*
X014085Y002445D03*
X015865Y002445D03*
X031725Y016225D03*
X032725Y016225D03*
X032725Y018975D03*
X031725Y018975D03*
X029725Y022225D03*
X028725Y022225D03*
X027725Y022225D03*
X026725Y022225D03*
X025725Y022225D03*
X024725Y022225D03*
X023725Y022225D03*
X022725Y022225D03*
X021725Y022225D03*
X020725Y022225D03*
X019725Y022225D03*
X018725Y022225D03*
X017725Y022225D03*
X016725Y022225D03*
X037225Y020225D03*
X037225Y019225D03*
X037225Y016725D03*
X037225Y015725D03*
D16*
X037225Y010725D03*
X036225Y010725D03*
X035225Y010725D03*
X001725Y015725D03*
X001725Y016725D03*
X001725Y017725D03*
D17*
X003725Y007475D03*
X004725Y007475D03*
X005725Y007475D03*
X006725Y007475D03*
X007725Y007475D03*
X008725Y007475D03*
X009725Y007475D03*
X010725Y007475D03*
X011725Y007475D03*
X012725Y007475D03*
D18*
X013975Y007725D03*
X002475Y007725D03*
X002475Y020225D03*
X013975Y020225D03*
D19*
X015225Y018225D03*
X017225Y019475D03*
X019225Y019475D03*
X019225Y018225D03*
X015725Y016725D03*
X015725Y014725D03*
X010725Y015975D03*
X010725Y017225D03*
X010725Y018475D03*
X010725Y019725D03*
X010725Y020975D03*
X006725Y020975D03*
X005475Y020725D03*
X006725Y019725D03*
X006725Y018475D03*
X006725Y017225D03*
X005475Y016725D03*
X006725Y015975D03*
X020225Y011225D03*
X024225Y011225D03*
X029725Y011975D03*
X031725Y011975D03*
X024975Y015725D03*
X025975Y016725D03*
X025975Y018225D03*
X029975Y018225D03*
X029975Y016725D03*
X035725Y018225D03*
X035725Y022225D03*
X020975Y015725D03*
D20*
X019975Y015725D03*
X016975Y015725D03*
D21*
X014975Y022465D02*
X014975Y022985D01*
X013975Y022985D02*
X013975Y022465D01*
X013975Y025465D02*
X013975Y025985D01*
X014975Y025985D02*
X014975Y025465D01*
X003735Y023475D02*
X003215Y023475D01*
X003215Y022475D02*
X003735Y022475D01*
X003735Y021475D02*
X003215Y021475D01*
D22*
X002725Y002725D03*
X032725Y002725D03*
X032725Y025225D03*
X002725Y025225D03*
D23*
X009725Y014225D03*
M02*
