G75*
G70*
%OFA0B0*%
%FSLAX24Y24*%
%IPPOS*%
%LPD*%
%AMOC8*
5,1,8,0,0,1.08239X$1,22.5*
%
%ADD10C,0.0700*%
%ADD11C,0.1181*%
%ADD12OC8,0.0660*%
%ADD13C,0.0600*%
%ADD14C,0.0740*%
%ADD15C,0.0660*%
%ADD16OC8,0.0700*%
%ADD17OC8,0.0480*%
%ADD18C,0.0531*%
%ADD19C,0.0480*%
%ADD20R,0.0740X0.0740*%
%ADD21C,0.1581*%
%ADD22C,0.1000*%
%ADD23C,0.0886*%
%ADD24C,0.0472*%
%ADD25C,0.0560*%
%ADD26C,0.0320*%
%ADD27C,0.0160*%
%ADD28C,0.0376*%
D10*
X018660Y002010D03*
X018660Y003010D03*
X018660Y004010D03*
X018660Y005010D03*
X018660Y006010D03*
X018660Y007010D03*
X018660Y008010D03*
X018660Y009010D03*
X018660Y010010D03*
X003510Y019980D03*
X003510Y022540D03*
D11*
X030666Y010010D03*
X030666Y002010D03*
D12*
X039510Y010510D03*
X040510Y010510D03*
X008260Y020760D03*
X007260Y020760D03*
X007260Y024260D03*
X008260Y024260D03*
D13*
X034885Y002560D02*
X034885Y001960D01*
X035885Y001960D02*
X035885Y002560D01*
X036885Y002560D02*
X036885Y001960D01*
D14*
X034260Y003760D03*
X034260Y004760D03*
X034260Y005760D03*
X034260Y006760D03*
X034260Y007760D03*
X034260Y008760D03*
X040760Y006760D03*
X040760Y005760D03*
X040760Y004760D03*
X029760Y013260D03*
X028760Y013260D03*
X027760Y013260D03*
X026760Y013260D03*
X025760Y013260D03*
X024760Y013260D03*
X023760Y013260D03*
X022760Y013260D03*
X021760Y013260D03*
X020760Y013260D03*
X019760Y013260D03*
X018760Y013260D03*
X017760Y013260D03*
X016760Y013260D03*
X016760Y022260D03*
X017760Y022260D03*
X018760Y022260D03*
X019760Y022260D03*
X020760Y022260D03*
X021760Y022260D03*
X022760Y022260D03*
X023760Y022260D03*
X024760Y022260D03*
X025760Y022260D03*
X026760Y022260D03*
X027760Y022260D03*
X028760Y022260D03*
X029760Y022260D03*
X031760Y019010D03*
X032760Y019010D03*
X032760Y016260D03*
X031760Y016260D03*
X037260Y015760D03*
X037260Y016760D03*
X037260Y019260D03*
X037260Y020260D03*
X015040Y003650D03*
X012480Y003650D03*
X012480Y001870D03*
X015040Y001870D03*
D15*
X035260Y025260D03*
X036260Y025260D03*
X037260Y025260D03*
D16*
X013260Y005010D03*
X012260Y005010D03*
X011260Y005010D03*
X010260Y005010D03*
X009260Y005010D03*
X008260Y005010D03*
X007260Y005010D03*
X006260Y005010D03*
X005260Y005010D03*
X004260Y005010D03*
D17*
X016260Y003760D03*
X016260Y007760D03*
X009260Y013635D03*
X007760Y013760D03*
X006260Y013760D03*
X004760Y013760D03*
X009260Y017635D03*
X007760Y017760D03*
X006260Y017760D03*
X004760Y017760D03*
X009760Y019260D03*
X011760Y019260D03*
X012260Y017760D03*
X014760Y016260D03*
X015760Y016260D03*
X014760Y014260D03*
X012260Y013760D03*
X015760Y020260D03*
X016760Y023510D03*
X020760Y023510D03*
X021760Y023510D03*
X025760Y023510D03*
X026760Y023510D03*
X030760Y023510D03*
X029760Y012010D03*
X031760Y012010D03*
X034385Y010510D03*
X038385Y010510D03*
X006260Y022135D03*
X006260Y026135D03*
D18*
X010760Y017260D03*
X010760Y014260D03*
D19*
X014260Y021270D02*
X014260Y021750D01*
X015260Y021750D02*
X015260Y021270D01*
X015260Y024270D02*
X015260Y024750D01*
X014260Y024750D02*
X014260Y024270D01*
X005125Y024760D02*
X004645Y024760D01*
X004645Y025760D02*
X005125Y025760D01*
X005125Y023760D02*
X004645Y023760D01*
D20*
X040760Y007760D03*
D21*
X002760Y002760D03*
X032760Y002760D03*
X032760Y025260D03*
X002760Y025260D03*
D22*
X006197Y009721D03*
D23*
X004229Y010666D03*
X004229Y011729D03*
X004229Y008776D03*
X004229Y007713D03*
D24*
X010260Y020510D03*
X011260Y020510D03*
X012260Y020510D03*
X012260Y022510D03*
X010260Y022510D03*
D25*
X015260Y024510D02*
X015385Y024635D01*
X026885Y024635D01*
X027760Y023760D01*
X027760Y022260D01*
X027760Y016760D01*
X029760Y014760D01*
X029760Y013260D01*
X031260Y013260D01*
X031760Y012760D01*
X031760Y012010D01*
X034260Y005760D02*
X035260Y005760D01*
X036885Y004135D01*
X036885Y002260D01*
X032760Y019010D02*
X036260Y022510D01*
X036260Y025260D01*
X035260Y025260D02*
X035260Y023260D01*
X031760Y019760D01*
X031760Y019010D01*
D26*
X027760Y016760D02*
X027260Y016260D01*
X015760Y016260D01*
X014760Y016260D02*
X014760Y016135D01*
X016135Y014760D01*
X026760Y014760D01*
X027760Y013760D01*
X027760Y013260D01*
X034385Y014385D02*
X034385Y010510D01*
X038385Y010510D02*
X039510Y010510D01*
X034385Y014385D02*
X036760Y016760D01*
X037260Y016760D01*
X026760Y023510D02*
X025760Y023510D01*
X024510Y023510D01*
X023760Y022760D01*
X023760Y022260D01*
X021760Y022260D02*
X020760Y023260D01*
X020760Y023510D01*
X016760Y023510D02*
X014510Y023510D01*
X014260Y023760D01*
X014260Y024510D01*
X015010Y021510D02*
X011760Y018260D01*
X009760Y018260D01*
X009260Y017760D01*
X009260Y017635D01*
X008135Y018760D01*
X006760Y018760D01*
X003510Y022010D01*
X003510Y022540D01*
X006260Y023760D02*
X006260Y024260D01*
X005760Y024760D01*
X004885Y024760D01*
X004885Y025760D02*
X005260Y026135D01*
X006260Y026135D01*
X006260Y023760D02*
X007260Y022760D01*
X007260Y020760D01*
X004760Y018730D02*
X004760Y017760D01*
X004760Y018730D02*
X003510Y019980D01*
X006260Y017760D02*
X006260Y016760D01*
X007260Y015760D01*
X013260Y015760D01*
X014760Y014260D01*
X012260Y013760D02*
X011260Y013760D01*
X010760Y014260D01*
X007760Y013760D02*
X006260Y013760D01*
X006260Y012760D01*
X005260Y011760D01*
X004260Y011760D01*
X004229Y011729D01*
X004760Y013760D02*
X004760Y015260D01*
X006260Y016760D01*
X012260Y017760D02*
X013760Y016260D01*
X014760Y016260D01*
X015010Y021510D02*
X015260Y021510D01*
D27*
X017760Y013260D02*
X017760Y012760D01*
X017260Y012260D01*
X012760Y012260D01*
X007260Y006760D01*
X007260Y005010D01*
X008260Y005010D02*
X008260Y006760D01*
X012760Y011260D01*
X014260Y011760D02*
X009260Y006760D01*
X009260Y005010D01*
X010260Y005010D02*
X010260Y006760D01*
X014760Y011260D01*
X019260Y011260D01*
X019760Y011760D01*
X019760Y013260D01*
X018760Y013260D02*
X018760Y012260D01*
X018260Y011760D01*
X014260Y011760D01*
X015260Y010760D02*
X011260Y006760D01*
X011260Y005010D01*
X015040Y001870D02*
X016260Y003090D01*
X016260Y003760D01*
X018660Y005010D02*
X020010Y005010D01*
X022760Y007760D01*
X022760Y013260D01*
X021760Y013260D02*
X021760Y008260D01*
X019510Y006010D01*
X018660Y006010D01*
X016260Y007760D02*
X016260Y009760D01*
X015260Y010760D02*
X019760Y010760D01*
X020760Y011760D01*
X020760Y013260D01*
X023760Y013260D02*
X030260Y006760D01*
X034260Y006760D01*
X034260Y007760D02*
X030260Y007760D01*
X024760Y013260D01*
X025760Y013260D02*
X030260Y008760D01*
X034260Y008760D01*
X031635Y002635D02*
X027760Y006510D01*
X031635Y002635D02*
X031635Y001885D01*
X032260Y001260D01*
X035260Y001260D01*
X035885Y001885D01*
X035885Y002260D01*
D28*
X027760Y006510D03*
X016260Y009760D03*
X012760Y011260D03*
M02*
