%
M48
M72
T01C0.0320
T02C0.0354
T03C0.0394
T04C0.0400
T05C0.0433
T06C0.0472
T07C0.0787
T08C0.0866
T09C0.1181
%
T01
X20225Y11225
X24225Y11225
X29725Y11975
X31725Y11975
X24975Y15725
X25975Y16725
X25975Y18225
X29975Y18225
X29975Y16725
X35725Y18225
X35725Y22225
X35225Y24725
X36225Y24725
X20975Y15725
X19225Y18225
X19225Y19475
X17225Y19475
X15225Y18225
X15725Y16725
X15725Y14725
X10725Y15975
X10725Y17225
X10725Y18475
X10725Y19725
X10725Y20975
X13975Y22725
X14975Y22725
X14975Y25725
X13975Y25725
X6975Y25475
X5975Y25475
X3475Y23475
X3475Y22475
X3475Y21475
X5475Y20725
X6725Y20975
X6725Y19725
X6725Y18475
X6725Y17225
X5475Y16725
X6725Y15975
X6975Y22975
X5975Y22975
T02
X10475Y22945
X10475Y25505
X1725Y17725
X1725Y16725
X1725Y15725
X16975Y15725
X19975Y15725
X35225Y10725
X36225Y10725
X37225Y10725
T03
X18625Y9975
X18625Y8975
X18625Y7975
X18625Y6975
X18625Y5975
X18625Y4975
X18625Y3975
X18625Y2975
X18625Y1975
X12274Y10325
X11274Y10325
X10274Y10325
X9274Y10325
X8274Y10325
X7274Y10325
X6274Y10325
X5274Y10325
X8780Y14225
T04
X16725Y13225
X17725Y13225
X18725Y13225
X19725Y13225
X20725Y13225
X21725Y13225
X22725Y13225
X23725Y13225
X24725Y13225
X25725Y13225
X26725Y13225
X27725Y13225
X28725Y13225
X29725Y13225
X31725Y16225
X32725Y16225
X32725Y18975
X31725Y18975
X29725Y22225
X28725Y22225
X27725Y22225
X26725Y22225
X25725Y22225
X24725Y22225
X23725Y22225
X22725Y22225
X21725Y22225
X20725Y22225
X19725Y22225
X18725Y22225
X17725Y22225
X16725Y22225
X37225Y20225
X37225Y19225
X37225Y16725
X37225Y15725
X34225Y8725
X34225Y7725
X34225Y6725
X34225Y5725
X34225Y4725
X34225Y3725
X29225Y5225
X28225Y5225
X27225Y5225
X15865Y5005
X14085Y5005
X14085Y2445
X15865Y2445
X12725Y7475
X11725Y7475
X10725Y7475
X9725Y7475
X8725Y7475
X7725Y7475
X6725Y7475
X5725Y7475
X4725Y7475
X3725Y7475
T05
X10709Y13497
X11497Y14225
X10709Y14953
T06
X9725Y14225
T07
X13829Y17131
X13829Y10406
X3656Y10406
X3656Y17131
X30631Y9975
X30631Y1975
T08
X13975Y7725
X2475Y7725
X2475Y20225
X13975Y20225
T09
X2725Y2725
X32725Y2725
X32725Y25225
X2725Y25225
M30
