G75*
G70*
%OFA0B0*%
%FSLAX24Y24*%
%IPPOS*%
%LPD*%
%AMOC8*
5,1,8,0,0,1.08239X$1,22.5*
%
%ADD10C,0.0000*%
D10*
X003350Y000850D02*
X038725Y000850D01*
X038725Y027100D01*
X003350Y027100D01*
X003231Y027097D01*
X003112Y027089D01*
X002994Y027075D01*
X002877Y027055D01*
X002761Y027030D01*
X002646Y026999D01*
X002532Y026963D01*
X002421Y026921D01*
X002311Y026874D01*
X002204Y026822D01*
X002100Y026765D01*
X001998Y026703D01*
X001900Y026636D01*
X001805Y026565D01*
X001713Y026489D01*
X001625Y026409D01*
X001541Y026325D01*
X001461Y026237D01*
X001385Y026145D01*
X001314Y026050D01*
X001247Y025952D01*
X001185Y025850D01*
X001128Y025746D01*
X001076Y025639D01*
X001029Y025529D01*
X000987Y025418D01*
X000951Y025304D01*
X000920Y025189D01*
X000895Y025073D01*
X000875Y024956D01*
X000861Y024838D01*
X000853Y024719D01*
X000850Y024600D01*
X000850Y003350D01*
X000853Y003231D01*
X000861Y003112D01*
X000875Y002994D01*
X000895Y002877D01*
X000920Y002761D01*
X000951Y002646D01*
X000987Y002532D01*
X001029Y002421D01*
X001076Y002311D01*
X001128Y002204D01*
X001185Y002100D01*
X001247Y001998D01*
X001314Y001900D01*
X001385Y001805D01*
X001461Y001713D01*
X001541Y001625D01*
X001625Y001541D01*
X001713Y001461D01*
X001805Y001385D01*
X001900Y001314D01*
X001998Y001247D01*
X002100Y001185D01*
X002204Y001128D01*
X002311Y001076D01*
X002421Y001029D01*
X002532Y000987D01*
X002646Y000951D01*
X002761Y000920D01*
X002877Y000895D01*
X002994Y000875D01*
X003112Y000861D01*
X003231Y000853D01*
X003350Y000850D01*
X002042Y007725D02*
X002044Y007766D01*
X002050Y007807D01*
X002060Y007847D01*
X002073Y007886D01*
X002090Y007923D01*
X002111Y007959D01*
X002135Y007993D01*
X002162Y008024D01*
X002191Y008052D01*
X002224Y008078D01*
X002258Y008100D01*
X002295Y008119D01*
X002333Y008134D01*
X002373Y008146D01*
X002413Y008154D01*
X002454Y008158D01*
X002496Y008158D01*
X002537Y008154D01*
X002577Y008146D01*
X002617Y008134D01*
X002655Y008119D01*
X002691Y008100D01*
X002726Y008078D01*
X002759Y008052D01*
X002788Y008024D01*
X002815Y007993D01*
X002839Y007959D01*
X002860Y007923D01*
X002877Y007886D01*
X002890Y007847D01*
X002900Y007807D01*
X002906Y007766D01*
X002908Y007725D01*
X002906Y007684D01*
X002900Y007643D01*
X002890Y007603D01*
X002877Y007564D01*
X002860Y007527D01*
X002839Y007491D01*
X002815Y007457D01*
X002788Y007426D01*
X002759Y007398D01*
X002726Y007372D01*
X002692Y007350D01*
X002655Y007331D01*
X002617Y007316D01*
X002577Y007304D01*
X002537Y007296D01*
X002496Y007292D01*
X002454Y007292D01*
X002413Y007296D01*
X002373Y007304D01*
X002333Y007316D01*
X002295Y007331D01*
X002259Y007350D01*
X002224Y007372D01*
X002191Y007398D01*
X002162Y007426D01*
X002135Y007457D01*
X002111Y007491D01*
X002090Y007527D01*
X002073Y007564D01*
X002060Y007603D01*
X002050Y007643D01*
X002044Y007684D01*
X002042Y007725D01*
X009489Y014225D02*
X009491Y014255D01*
X009497Y014285D01*
X009506Y014314D01*
X009519Y014341D01*
X009536Y014366D01*
X009555Y014389D01*
X009578Y014410D01*
X009603Y014427D01*
X009629Y014441D01*
X009658Y014451D01*
X009687Y014458D01*
X009717Y014461D01*
X009748Y014460D01*
X009778Y014455D01*
X009807Y014446D01*
X009834Y014434D01*
X009860Y014419D01*
X009884Y014400D01*
X009905Y014378D01*
X009923Y014354D01*
X009938Y014327D01*
X009949Y014299D01*
X009957Y014270D01*
X009961Y014240D01*
X009961Y014210D01*
X009957Y014180D01*
X009949Y014151D01*
X009938Y014123D01*
X009923Y014096D01*
X009905Y014072D01*
X009884Y014050D01*
X009860Y014031D01*
X009834Y014016D01*
X009807Y014004D01*
X009778Y013995D01*
X009748Y013990D01*
X009717Y013989D01*
X009687Y013992D01*
X009658Y013999D01*
X009629Y014009D01*
X009603Y014023D01*
X009578Y014040D01*
X009555Y014061D01*
X009536Y014084D01*
X009519Y014109D01*
X009506Y014136D01*
X009497Y014165D01*
X009491Y014195D01*
X009489Y014225D01*
X013542Y020225D02*
X013544Y020266D01*
X013550Y020307D01*
X013560Y020347D01*
X013573Y020386D01*
X013590Y020423D01*
X013611Y020459D01*
X013635Y020493D01*
X013662Y020524D01*
X013691Y020552D01*
X013724Y020578D01*
X013758Y020600D01*
X013795Y020619D01*
X013833Y020634D01*
X013873Y020646D01*
X013913Y020654D01*
X013954Y020658D01*
X013996Y020658D01*
X014037Y020654D01*
X014077Y020646D01*
X014117Y020634D01*
X014155Y020619D01*
X014191Y020600D01*
X014226Y020578D01*
X014259Y020552D01*
X014288Y020524D01*
X014315Y020493D01*
X014339Y020459D01*
X014360Y020423D01*
X014377Y020386D01*
X014390Y020347D01*
X014400Y020307D01*
X014406Y020266D01*
X014408Y020225D01*
X014406Y020184D01*
X014400Y020143D01*
X014390Y020103D01*
X014377Y020064D01*
X014360Y020027D01*
X014339Y019991D01*
X014315Y019957D01*
X014288Y019926D01*
X014259Y019898D01*
X014226Y019872D01*
X014192Y019850D01*
X014155Y019831D01*
X014117Y019816D01*
X014077Y019804D01*
X014037Y019796D01*
X013996Y019792D01*
X013954Y019792D01*
X013913Y019796D01*
X013873Y019804D01*
X013833Y019816D01*
X013795Y019831D01*
X013759Y019850D01*
X013724Y019872D01*
X013691Y019898D01*
X013662Y019926D01*
X013635Y019957D01*
X013611Y019991D01*
X013590Y020027D01*
X013573Y020064D01*
X013560Y020103D01*
X013550Y020143D01*
X013544Y020184D01*
X013542Y020225D01*
X002042Y020225D02*
X002044Y020266D01*
X002050Y020307D01*
X002060Y020347D01*
X002073Y020386D01*
X002090Y020423D01*
X002111Y020459D01*
X002135Y020493D01*
X002162Y020524D01*
X002191Y020552D01*
X002224Y020578D01*
X002258Y020600D01*
X002295Y020619D01*
X002333Y020634D01*
X002373Y020646D01*
X002413Y020654D01*
X002454Y020658D01*
X002496Y020658D01*
X002537Y020654D01*
X002577Y020646D01*
X002617Y020634D01*
X002655Y020619D01*
X002691Y020600D01*
X002726Y020578D01*
X002759Y020552D01*
X002788Y020524D01*
X002815Y020493D01*
X002839Y020459D01*
X002860Y020423D01*
X002877Y020386D01*
X002890Y020347D01*
X002900Y020307D01*
X002906Y020266D01*
X002908Y020225D01*
X002906Y020184D01*
X002900Y020143D01*
X002890Y020103D01*
X002877Y020064D01*
X002860Y020027D01*
X002839Y019991D01*
X002815Y019957D01*
X002788Y019926D01*
X002759Y019898D01*
X002726Y019872D01*
X002692Y019850D01*
X002655Y019831D01*
X002617Y019816D01*
X002577Y019804D01*
X002537Y019796D01*
X002496Y019792D01*
X002454Y019792D01*
X002413Y019796D01*
X002373Y019804D01*
X002333Y019816D01*
X002295Y019831D01*
X002259Y019850D01*
X002224Y019872D01*
X002191Y019898D01*
X002162Y019926D01*
X002135Y019957D01*
X002111Y019991D01*
X002090Y020027D01*
X002073Y020064D01*
X002060Y020103D01*
X002050Y020143D01*
X002044Y020184D01*
X002042Y020225D01*
X013542Y007725D02*
X013544Y007766D01*
X013550Y007807D01*
X013560Y007847D01*
X013573Y007886D01*
X013590Y007923D01*
X013611Y007959D01*
X013635Y007993D01*
X013662Y008024D01*
X013691Y008052D01*
X013724Y008078D01*
X013758Y008100D01*
X013795Y008119D01*
X013833Y008134D01*
X013873Y008146D01*
X013913Y008154D01*
X013954Y008158D01*
X013996Y008158D01*
X014037Y008154D01*
X014077Y008146D01*
X014117Y008134D01*
X014155Y008119D01*
X014191Y008100D01*
X014226Y008078D01*
X014259Y008052D01*
X014288Y008024D01*
X014315Y007993D01*
X014339Y007959D01*
X014360Y007923D01*
X014377Y007886D01*
X014390Y007847D01*
X014400Y007807D01*
X014406Y007766D01*
X014408Y007725D01*
X014406Y007684D01*
X014400Y007643D01*
X014390Y007603D01*
X014377Y007564D01*
X014360Y007527D01*
X014339Y007491D01*
X014315Y007457D01*
X014288Y007426D01*
X014259Y007398D01*
X014226Y007372D01*
X014192Y007350D01*
X014155Y007331D01*
X014117Y007316D01*
X014077Y007304D01*
X014037Y007296D01*
X013996Y007292D01*
X013954Y007292D01*
X013913Y007296D01*
X013873Y007304D01*
X013833Y007316D01*
X013795Y007331D01*
X013759Y007350D01*
X013724Y007372D01*
X013691Y007398D01*
X013662Y007426D01*
X013635Y007457D01*
X013611Y007491D01*
X013590Y007527D01*
X013573Y007564D01*
X013560Y007603D01*
X013550Y007643D01*
X013544Y007684D01*
X013542Y007725D01*
M02*
