G75*
G70*
%OFA0B0*%
%FSLAX24Y24*%
%IPPOS*%
%LPD*%
%AMOC8*
5,1,8,0,0,1.08239X$1,22.5*
%
%ADD10C,0.0000*%
D10*
X003385Y000885D02*
X039635Y000885D01*
X039754Y000888D01*
X039873Y000896D01*
X039991Y000910D01*
X040108Y000930D01*
X040224Y000955D01*
X040339Y000986D01*
X040453Y001022D01*
X040564Y001064D01*
X040674Y001111D01*
X040781Y001163D01*
X040885Y001220D01*
X040987Y001282D01*
X041085Y001349D01*
X041180Y001420D01*
X041272Y001496D01*
X041360Y001576D01*
X041444Y001660D01*
X041524Y001748D01*
X041600Y001840D01*
X041671Y001935D01*
X041738Y002033D01*
X041800Y002135D01*
X041857Y002239D01*
X041909Y002346D01*
X041956Y002456D01*
X041998Y002567D01*
X042034Y002681D01*
X042065Y002796D01*
X042090Y002912D01*
X042110Y003029D01*
X042124Y003147D01*
X042132Y003266D01*
X042135Y003385D01*
X042135Y011760D01*
X038010Y011760D01*
X038010Y023760D01*
X042135Y023760D01*
X042135Y024635D01*
X042132Y024754D01*
X042124Y024873D01*
X042110Y024991D01*
X042090Y025108D01*
X042065Y025224D01*
X042034Y025339D01*
X041998Y025453D01*
X041956Y025564D01*
X041909Y025674D01*
X041857Y025781D01*
X041800Y025885D01*
X041738Y025987D01*
X041671Y026085D01*
X041600Y026180D01*
X041524Y026272D01*
X041444Y026360D01*
X041360Y026444D01*
X041272Y026524D01*
X041180Y026600D01*
X041085Y026671D01*
X040987Y026738D01*
X040885Y026800D01*
X040781Y026857D01*
X040674Y026909D01*
X040564Y026956D01*
X040453Y026998D01*
X040339Y027034D01*
X040224Y027065D01*
X040108Y027090D01*
X039991Y027110D01*
X039873Y027124D01*
X039754Y027132D01*
X039635Y027135D01*
X003385Y027135D01*
X003266Y027132D01*
X003147Y027124D01*
X003029Y027110D01*
X002912Y027090D01*
X002796Y027065D01*
X002681Y027034D01*
X002567Y026998D01*
X002456Y026956D01*
X002346Y026909D01*
X002239Y026857D01*
X002135Y026800D01*
X002033Y026738D01*
X001935Y026671D01*
X001840Y026600D01*
X001748Y026524D01*
X001660Y026444D01*
X001576Y026360D01*
X001496Y026272D01*
X001420Y026180D01*
X001349Y026085D01*
X001282Y025987D01*
X001220Y025885D01*
X001163Y025781D01*
X001111Y025674D01*
X001064Y025564D01*
X001022Y025453D01*
X000986Y025339D01*
X000955Y025224D01*
X000930Y025108D01*
X000910Y024991D01*
X000896Y024873D01*
X000888Y024754D01*
X000885Y024635D01*
X000885Y003385D01*
X000888Y003266D01*
X000896Y003147D01*
X000910Y003029D01*
X000930Y002912D01*
X000955Y002796D01*
X000986Y002681D01*
X001022Y002567D01*
X001064Y002456D01*
X001111Y002346D01*
X001163Y002239D01*
X001220Y002135D01*
X001282Y002033D01*
X001349Y001935D01*
X001420Y001840D01*
X001496Y001748D01*
X001576Y001660D01*
X001660Y001576D01*
X001748Y001496D01*
X001840Y001420D01*
X001935Y001349D01*
X002033Y001282D01*
X002135Y001220D01*
X002239Y001163D01*
X002346Y001111D01*
X002456Y001064D01*
X002567Y001022D01*
X002681Y000986D01*
X002796Y000955D01*
X002912Y000930D01*
X003029Y000910D01*
X003147Y000896D01*
X003266Y000888D01*
X003385Y000885D01*
X002577Y005260D02*
X002579Y005301D01*
X002585Y005342D01*
X002595Y005382D01*
X002608Y005421D01*
X002625Y005458D01*
X002646Y005494D01*
X002670Y005528D01*
X002697Y005559D01*
X002726Y005587D01*
X002759Y005613D01*
X002793Y005635D01*
X002830Y005654D01*
X002868Y005669D01*
X002908Y005681D01*
X002948Y005689D01*
X002989Y005693D01*
X003031Y005693D01*
X003072Y005689D01*
X003112Y005681D01*
X003152Y005669D01*
X003190Y005654D01*
X003226Y005635D01*
X003261Y005613D01*
X003294Y005587D01*
X003323Y005559D01*
X003350Y005528D01*
X003374Y005494D01*
X003395Y005458D01*
X003412Y005421D01*
X003425Y005382D01*
X003435Y005342D01*
X003441Y005301D01*
X003443Y005260D01*
X003441Y005219D01*
X003435Y005178D01*
X003425Y005138D01*
X003412Y005099D01*
X003395Y005062D01*
X003374Y005026D01*
X003350Y004992D01*
X003323Y004961D01*
X003294Y004933D01*
X003261Y004907D01*
X003227Y004885D01*
X003190Y004866D01*
X003152Y004851D01*
X003112Y004839D01*
X003072Y004831D01*
X003031Y004827D01*
X002989Y004827D01*
X002948Y004831D01*
X002908Y004839D01*
X002868Y004851D01*
X002830Y004866D01*
X002794Y004885D01*
X002759Y004907D01*
X002726Y004933D01*
X002697Y004961D01*
X002670Y004992D01*
X002646Y005026D01*
X002625Y005062D01*
X002608Y005099D01*
X002595Y005138D01*
X002585Y005178D01*
X002579Y005219D01*
X002577Y005260D01*
X005902Y007752D02*
X005904Y007786D01*
X005910Y007820D01*
X005920Y007853D01*
X005933Y007884D01*
X005951Y007914D01*
X005971Y007942D01*
X005995Y007967D01*
X006021Y007989D01*
X006049Y008007D01*
X006080Y008023D01*
X006112Y008035D01*
X006146Y008043D01*
X006180Y008047D01*
X006214Y008047D01*
X006248Y008043D01*
X006282Y008035D01*
X006314Y008023D01*
X006344Y008007D01*
X006373Y007989D01*
X006399Y007967D01*
X006423Y007942D01*
X006443Y007914D01*
X006461Y007884D01*
X006474Y007853D01*
X006484Y007820D01*
X006490Y007786D01*
X006492Y007752D01*
X006490Y007718D01*
X006484Y007684D01*
X006474Y007651D01*
X006461Y007620D01*
X006443Y007590D01*
X006423Y007562D01*
X006399Y007537D01*
X006373Y007515D01*
X006345Y007497D01*
X006314Y007481D01*
X006282Y007469D01*
X006248Y007461D01*
X006214Y007457D01*
X006180Y007457D01*
X006146Y007461D01*
X006112Y007469D01*
X006080Y007481D01*
X006049Y007497D01*
X006021Y007515D01*
X005995Y007537D01*
X005971Y007562D01*
X005951Y007590D01*
X005933Y007620D01*
X005920Y007651D01*
X005910Y007684D01*
X005904Y007718D01*
X005902Y007752D01*
X003934Y009721D02*
X003936Y009755D01*
X003942Y009789D01*
X003952Y009822D01*
X003965Y009853D01*
X003983Y009883D01*
X004003Y009911D01*
X004027Y009936D01*
X004053Y009958D01*
X004081Y009976D01*
X004112Y009992D01*
X004144Y010004D01*
X004178Y010012D01*
X004212Y010016D01*
X004246Y010016D01*
X004280Y010012D01*
X004314Y010004D01*
X004346Y009992D01*
X004376Y009976D01*
X004405Y009958D01*
X004431Y009936D01*
X004455Y009911D01*
X004475Y009883D01*
X004493Y009853D01*
X004506Y009822D01*
X004516Y009789D01*
X004522Y009755D01*
X004524Y009721D01*
X004522Y009687D01*
X004516Y009653D01*
X004506Y009620D01*
X004493Y009589D01*
X004475Y009559D01*
X004455Y009531D01*
X004431Y009506D01*
X004405Y009484D01*
X004377Y009466D01*
X004346Y009450D01*
X004314Y009438D01*
X004280Y009430D01*
X004246Y009426D01*
X004212Y009426D01*
X004178Y009430D01*
X004144Y009438D01*
X004112Y009450D01*
X004081Y009466D01*
X004053Y009484D01*
X004027Y009506D01*
X004003Y009531D01*
X003983Y009559D01*
X003965Y009589D01*
X003952Y009620D01*
X003942Y009653D01*
X003936Y009687D01*
X003934Y009721D01*
X005902Y011689D02*
X005904Y011723D01*
X005910Y011757D01*
X005920Y011790D01*
X005933Y011821D01*
X005951Y011851D01*
X005971Y011879D01*
X005995Y011904D01*
X006021Y011926D01*
X006049Y011944D01*
X006080Y011960D01*
X006112Y011972D01*
X006146Y011980D01*
X006180Y011984D01*
X006214Y011984D01*
X006248Y011980D01*
X006282Y011972D01*
X006314Y011960D01*
X006344Y011944D01*
X006373Y011926D01*
X006399Y011904D01*
X006423Y011879D01*
X006443Y011851D01*
X006461Y011821D01*
X006474Y011790D01*
X006484Y011757D01*
X006490Y011723D01*
X006492Y011689D01*
X006490Y011655D01*
X006484Y011621D01*
X006474Y011588D01*
X006461Y011557D01*
X006443Y011527D01*
X006423Y011499D01*
X006399Y011474D01*
X006373Y011452D01*
X006345Y011434D01*
X006314Y011418D01*
X006282Y011406D01*
X006248Y011398D01*
X006214Y011394D01*
X006180Y011394D01*
X006146Y011398D01*
X006112Y011406D01*
X006080Y011418D01*
X006049Y011434D01*
X006021Y011452D01*
X005995Y011474D01*
X005971Y011499D01*
X005951Y011527D01*
X005933Y011557D01*
X005920Y011588D01*
X005910Y011621D01*
X005904Y011655D01*
X005902Y011689D01*
X002577Y017760D02*
X002579Y017801D01*
X002585Y017842D01*
X002595Y017882D01*
X002608Y017921D01*
X002625Y017958D01*
X002646Y017994D01*
X002670Y018028D01*
X002697Y018059D01*
X002726Y018087D01*
X002759Y018113D01*
X002793Y018135D01*
X002830Y018154D01*
X002868Y018169D01*
X002908Y018181D01*
X002948Y018189D01*
X002989Y018193D01*
X003031Y018193D01*
X003072Y018189D01*
X003112Y018181D01*
X003152Y018169D01*
X003190Y018154D01*
X003226Y018135D01*
X003261Y018113D01*
X003294Y018087D01*
X003323Y018059D01*
X003350Y018028D01*
X003374Y017994D01*
X003395Y017958D01*
X003412Y017921D01*
X003425Y017882D01*
X003435Y017842D01*
X003441Y017801D01*
X003443Y017760D01*
X003441Y017719D01*
X003435Y017678D01*
X003425Y017638D01*
X003412Y017599D01*
X003395Y017562D01*
X003374Y017526D01*
X003350Y017492D01*
X003323Y017461D01*
X003294Y017433D01*
X003261Y017407D01*
X003227Y017385D01*
X003190Y017366D01*
X003152Y017351D01*
X003112Y017339D01*
X003072Y017331D01*
X003031Y017327D01*
X002989Y017327D01*
X002948Y017331D01*
X002908Y017339D01*
X002868Y017351D01*
X002830Y017366D01*
X002794Y017385D01*
X002759Y017407D01*
X002726Y017433D01*
X002697Y017461D01*
X002670Y017492D01*
X002646Y017526D01*
X002625Y017562D01*
X002608Y017599D01*
X002595Y017638D01*
X002585Y017678D01*
X002579Y017719D01*
X002577Y017760D01*
X014077Y017760D02*
X014079Y017801D01*
X014085Y017842D01*
X014095Y017882D01*
X014108Y017921D01*
X014125Y017958D01*
X014146Y017994D01*
X014170Y018028D01*
X014197Y018059D01*
X014226Y018087D01*
X014259Y018113D01*
X014293Y018135D01*
X014330Y018154D01*
X014368Y018169D01*
X014408Y018181D01*
X014448Y018189D01*
X014489Y018193D01*
X014531Y018193D01*
X014572Y018189D01*
X014612Y018181D01*
X014652Y018169D01*
X014690Y018154D01*
X014726Y018135D01*
X014761Y018113D01*
X014794Y018087D01*
X014823Y018059D01*
X014850Y018028D01*
X014874Y017994D01*
X014895Y017958D01*
X014912Y017921D01*
X014925Y017882D01*
X014935Y017842D01*
X014941Y017801D01*
X014943Y017760D01*
X014941Y017719D01*
X014935Y017678D01*
X014925Y017638D01*
X014912Y017599D01*
X014895Y017562D01*
X014874Y017526D01*
X014850Y017492D01*
X014823Y017461D01*
X014794Y017433D01*
X014761Y017407D01*
X014727Y017385D01*
X014690Y017366D01*
X014652Y017351D01*
X014612Y017339D01*
X014572Y017331D01*
X014531Y017327D01*
X014489Y017327D01*
X014448Y017331D01*
X014408Y017339D01*
X014368Y017351D01*
X014330Y017366D01*
X014294Y017385D01*
X014259Y017407D01*
X014226Y017433D01*
X014197Y017461D01*
X014170Y017492D01*
X014146Y017526D01*
X014125Y017562D01*
X014108Y017599D01*
X014095Y017638D01*
X014085Y017678D01*
X014079Y017719D01*
X014077Y017760D01*
X014077Y005260D02*
X014079Y005301D01*
X014085Y005342D01*
X014095Y005382D01*
X014108Y005421D01*
X014125Y005458D01*
X014146Y005494D01*
X014170Y005528D01*
X014197Y005559D01*
X014226Y005587D01*
X014259Y005613D01*
X014293Y005635D01*
X014330Y005654D01*
X014368Y005669D01*
X014408Y005681D01*
X014448Y005689D01*
X014489Y005693D01*
X014531Y005693D01*
X014572Y005689D01*
X014612Y005681D01*
X014652Y005669D01*
X014690Y005654D01*
X014726Y005635D01*
X014761Y005613D01*
X014794Y005587D01*
X014823Y005559D01*
X014850Y005528D01*
X014874Y005494D01*
X014895Y005458D01*
X014912Y005421D01*
X014925Y005382D01*
X014935Y005342D01*
X014941Y005301D01*
X014943Y005260D01*
X014941Y005219D01*
X014935Y005178D01*
X014925Y005138D01*
X014912Y005099D01*
X014895Y005062D01*
X014874Y005026D01*
X014850Y004992D01*
X014823Y004961D01*
X014794Y004933D01*
X014761Y004907D01*
X014727Y004885D01*
X014690Y004866D01*
X014652Y004851D01*
X014612Y004839D01*
X014572Y004831D01*
X014531Y004827D01*
X014489Y004827D01*
X014448Y004831D01*
X014408Y004839D01*
X014368Y004851D01*
X014330Y004866D01*
X014294Y004885D01*
X014259Y004907D01*
X014226Y004933D01*
X014197Y004961D01*
X014170Y004992D01*
X014146Y005026D01*
X014125Y005062D01*
X014108Y005099D01*
X014095Y005138D01*
X014085Y005178D01*
X014079Y005219D01*
X014077Y005260D01*
M02*
