%
M48
M72
T01C0.01300
T02C0.02362
T03C0.03150
T04C0.03200
T05C0.03543
T06C0.03937
T07C0.04000
T08C0.08661
T09C0.09843
T10C0.11811
%
T01
X75400Y116700
X76100Y136300
X67000Y95000
T02
X252600Y67600
X257600Y102600
X282600Y117600
X297600Y107600
X106350Y240100
T03
X103850Y206350
X113850Y206350
X123850Y206350
X123850Y226350
X103850Y226350
X348289Y248850
X360100Y248850
X371911Y248850
T04
X296350Y15100
X286350Y15100
X265100Y15100
X225100Y15100
X197600Y53850
X182600Y53850
X167600Y52600
X167600Y82600
X182600Y93850
X197600Y93850
X193850Y112600
X183850Y112600
X160100Y112600
X160100Y97600
X120100Y97600
X120100Y112600
X120100Y153850
X106350Y153850
X92600Y153850
X133850Y153850
X145100Y167600
X145100Y177600
X133850Y193850
X120100Y193850
X106350Y193850
X92600Y193850
X77600Y217600
X77600Y227600
X85100Y250100
X85100Y260100
X55100Y260100
X55100Y250100
X42600Y227600
X42600Y217600
X137600Y227600
X147600Y227600
X157600Y227600
X172600Y235100
X212600Y235100
X222600Y235100
X262600Y235100
T05
X139145Y67600
X118555Y67600
X113555Y67600
X113555Y67600
X108555Y67600
T06
X60100Y66350
X70100Y66350
X80100Y66350
X90100Y66350
X44923Y106148
X44923Y116148
X44923Y126148
X44923Y136148
X44923Y146148
X44923Y156148
X44923Y166148
X44923Y176148
X210600Y110100
X210600Y100100
X210600Y90100
X210600Y80100
X210600Y70100
X210600Y60100
X210600Y50100
X210600Y40100
X210600Y30100
T07
X383850Y27600
X373850Y27600
X363850Y27600
X352600Y47600
X352600Y57600
X352600Y67600
X352600Y77600
X352600Y87600
X352600Y97600
X18550Y48700
X44150Y48700
X44150Y66500
X18550Y66500
X167600Y132600
X177600Y132600
X187600Y132600
X197600Y132600
X207600Y132600
X217600Y132600
X227600Y132600
X237600Y132600
X247600Y132600
X257600Y132600
X267600Y132600
X277600Y132600
X287600Y132600
X297600Y132600
X317600Y162600
X327600Y162600
X327600Y190100
X317600Y190100
X297600Y222600
X287600Y222600
X277600Y222600
X267600Y222600
X257600Y222600
X247600Y222600
X237600Y222600
X227600Y222600
X217600Y222600
X207600Y222600
X197600Y222600
X187600Y222600
X177600Y222600
X167600Y222600
X372600Y202600
X372600Y192600
X372600Y167600
X372600Y157600
T08
X384706Y248850
X326163Y30100
X326163Y110100
X335494Y248850
T09
X44647Y84061
X44700Y89100
X44600Y193200
X44647Y198234
T10
X402600Y27600
X402600Y252600
X27600Y252600
X27600Y27600
M30
