G75*
%MOIN*%
%OFA0B0*%
%FSLAX25Y25*%
%IPPOS*%
%LPD*%
%AMOC8*
5,1,8,0,0,1.08239X$1,22.5*
%
%ADD10C,0.00000*%
%ADD11C,0.01000*%
%ADD12C,0.00500*%
%ADD13C,0.01400*%
%ADD14C,0.00600*%
%ADD15C,0.03000*%
%ADD16R,0.03000X0.02000*%
%ADD17R,0.03000X0.04000*%
%ADD18C,0.00100*%
%ADD19R,0.00500X1.35500*%
%ADD20R,0.00500X0.39500*%
%ADD21R,0.00500X0.91000*%
%ADD22R,0.00500X0.37000*%
%ADD23R,0.00500X0.18500*%
%ADD24R,0.00500X0.11500*%
%ADD25R,0.00500X0.33500*%
%ADD26R,0.00500X0.36500*%
%ADD27R,0.00500X0.17500*%
%ADD28R,0.00500X0.35500*%
%ADD29R,0.00500X0.17000*%
%ADD30R,0.00500X0.35000*%
%ADD31R,0.00500X0.16000*%
%ADD32R,0.00500X0.34000*%
%ADD33R,0.00500X0.15500*%
%ADD34R,0.00500X0.14500*%
%ADD35R,0.00500X0.33000*%
%ADD36R,0.00500X0.14000*%
%ADD37R,0.00500X0.32500*%
%ADD38R,0.00500X0.13500*%
%ADD39R,0.00500X0.32000*%
%ADD40R,0.00500X0.13000*%
%ADD41R,0.00500X0.31500*%
%ADD42R,0.00500X0.12500*%
%ADD43R,0.00500X0.31000*%
%ADD44R,0.00500X0.12000*%
%ADD45R,0.00500X0.30500*%
%ADD46R,0.00500X0.30000*%
%ADD47R,0.00500X0.15000*%
%ADD48R,0.00500X0.16500*%
%ADD49R,0.00500X0.18000*%
%ADD50R,0.00500X0.39000*%
%ADD51R,0.00500X0.20000*%
%ADD52R,0.00500X0.41500*%
%ADD53R,0.00500X0.22500*%
%ADD54R,0.00500X0.65000*%
%ADD55R,0.00500X0.64500*%
%ADD56R,0.00500X0.64000*%
%ADD57R,0.00500X0.63500*%
%ADD58R,0.00500X0.63000*%
%ADD59R,0.00500X0.62500*%
%ADD60R,0.00500X0.62000*%
%ADD61R,0.00500X0.61500*%
%ADD62R,0.00500X0.60500*%
%ADD63R,0.00500X0.59500*%
%ADD64R,0.00500X0.59000*%
%ADD65R,0.00500X0.58000*%
%ADD66R,0.00500X0.57000*%
%ADD67R,0.00500X0.56000*%
%ADD68R,0.00500X0.55000*%
%ADD69R,0.00500X0.54500*%
%ADD70R,0.00500X0.53500*%
%ADD71R,0.00500X0.52500*%
%ADD72R,0.00500X0.51500*%
%ADD73R,0.00500X0.51000*%
%ADD74R,0.00500X0.50000*%
%ADD75R,0.00500X0.49000*%
%ADD76R,0.00500X0.48000*%
%ADD77R,0.00500X0.47500*%
%ADD78R,0.00500X0.46500*%
%ADD79R,0.00500X0.19500*%
%ADD80R,0.00500X0.45500*%
%ADD81R,0.00500X0.44500*%
%ADD82R,0.00500X0.20500*%
%ADD83R,0.00500X0.44000*%
%ADD84R,0.00500X0.21500*%
%ADD85R,0.00500X0.43000*%
%ADD86R,0.00500X0.22000*%
%ADD87R,0.00500X0.42000*%
%ADD88R,0.00500X0.41000*%
%ADD89R,0.00500X0.23000*%
%ADD90R,0.00500X0.40000*%
%ADD91R,0.00500X0.24000*%
%ADD92R,0.00500X0.24500*%
%ADD93R,0.00500X0.38500*%
%ADD94R,0.00500X0.25000*%
%ADD95R,0.00500X0.37500*%
%ADD96R,0.00500X0.25500*%
%ADD97R,0.00500X0.26000*%
%ADD98R,0.00500X0.36000*%
%ADD99R,0.00500X0.26500*%
%ADD100R,0.00500X0.27000*%
%ADD101R,0.00500X0.34500*%
%ADD102R,0.00500X0.38000*%
%ADD103R,0.00500X0.42500*%
%ADD104R,0.00500X0.43500*%
%ADD105R,0.00500X0.45000*%
%ADD106R,0.00500X0.46000*%
%ADD107R,0.00500X0.47000*%
%ADD108R,0.00500X0.48500*%
%ADD109R,0.00500X0.49500*%
%ADD110R,0.00500X0.56500*%
%ADD111R,0.00500X0.50500*%
%ADD112R,0.00500X0.55500*%
%ADD113R,0.00500X0.52000*%
%ADD114R,0.00500X0.53000*%
%ADD115R,0.00500X0.54000*%
%ADD116R,0.00500X0.57500*%
%ADD117R,0.00500X0.58500*%
%ADD118R,0.00500X0.60000*%
%ADD119R,0.00500X0.61000*%
%ADD120R,0.00500X0.65500*%
%ADD121R,0.00500X0.40500*%
%ADD122R,0.00500X0.66000*%
%ADD123R,0.00500X0.67000*%
%ADD124R,0.00500X0.68000*%
%ADD125R,0.00500X0.69000*%
%ADD126R,0.00500X0.69500*%
%ADD127R,0.00500X0.70500*%
%ADD128R,0.00500X0.71500*%
%ADD129R,0.00500X0.72500*%
%ADD130R,0.00500X0.73000*%
%ADD131R,0.00500X0.74000*%
%ADD132R,0.00500X0.75000*%
%ADD133R,0.00500X0.76000*%
%ADD134R,0.00500X0.77000*%
%ADD135R,0.00500X0.77500*%
%ADD136R,0.00500X0.78500*%
%ADD137R,0.00500X0.79500*%
%ADD138R,0.00500X0.80500*%
%ADD139R,0.00500X0.81000*%
%ADD140R,0.00500X0.82000*%
%ADD141R,0.00500X0.83000*%
%ADD142R,0.00500X0.84000*%
%ADD143R,0.00500X0.84500*%
%ADD144R,0.00500X0.85500*%
%ADD145R,0.00500X0.86500*%
%ADD146R,0.00500X0.87500*%
%ADD147R,0.00500X0.88000*%
%ADD148R,0.00500X0.89000*%
%ADD149R,0.00500X0.90000*%
%ADD150R,0.00500X0.91500*%
%ADD151R,0.00500X0.92500*%
%ADD152R,0.00500X0.93500*%
%ADD153R,0.00500X0.94500*%
%ADD154R,0.00500X0.95000*%
%ADD155R,0.00500X0.96000*%
%ADD156R,0.00500X0.97000*%
%ADD157R,0.00500X0.98000*%
%ADD158R,0.00500X0.98500*%
%ADD159R,0.00500X0.99500*%
%ADD160R,0.00500X1.00500*%
%ADD161R,0.00500X1.01500*%
%ADD162R,0.00500X1.02000*%
%ADD163R,0.00500X1.03000*%
%ADD164R,0.00500X1.04000*%
D10*
X0033850Y0008850D02*
X0396350Y0008850D01*
X0396954Y0008857D01*
X0397558Y0008879D01*
X0398161Y0008916D01*
X0398763Y0008967D01*
X0399363Y0009032D01*
X0399962Y0009112D01*
X0400559Y0009207D01*
X0401153Y0009316D01*
X0401745Y0009439D01*
X0402333Y0009576D01*
X0402918Y0009728D01*
X0403499Y0009894D01*
X0404075Y0010074D01*
X0404648Y0010267D01*
X0405215Y0010475D01*
X0405777Y0010696D01*
X0406334Y0010930D01*
X0406885Y0011178D01*
X0407430Y0011439D01*
X0407968Y0011714D01*
X0408500Y0012001D01*
X0409024Y0012301D01*
X0409541Y0012613D01*
X0410050Y0012938D01*
X0410552Y0013275D01*
X0411045Y0013625D01*
X0411529Y0013986D01*
X0412005Y0014358D01*
X0412471Y0014742D01*
X0412928Y0015137D01*
X0413375Y0015543D01*
X0413813Y0015960D01*
X0414240Y0016387D01*
X0414657Y0016825D01*
X0415063Y0017272D01*
X0415458Y0017729D01*
X0415842Y0018195D01*
X0416214Y0018671D01*
X0416575Y0019155D01*
X0416925Y0019648D01*
X0417262Y0020150D01*
X0417587Y0020659D01*
X0417899Y0021176D01*
X0418199Y0021700D01*
X0418486Y0022232D01*
X0418761Y0022770D01*
X0419022Y0023315D01*
X0419270Y0023866D01*
X0419504Y0024423D01*
X0419725Y0024985D01*
X0419933Y0025552D01*
X0420126Y0026125D01*
X0420306Y0026701D01*
X0420472Y0027282D01*
X0420624Y0027867D01*
X0420761Y0028455D01*
X0420884Y0029047D01*
X0420993Y0029641D01*
X0421088Y0030238D01*
X0421168Y0030837D01*
X0421233Y0031437D01*
X0421284Y0032039D01*
X0421321Y0032642D01*
X0421343Y0033246D01*
X0421350Y0033850D01*
X0421350Y0117600D01*
X0380100Y0117600D01*
X0380100Y0237600D01*
X0421350Y0237600D01*
X0421350Y0246350D01*
X0421343Y0246954D01*
X0421321Y0247558D01*
X0421284Y0248161D01*
X0421233Y0248763D01*
X0421168Y0249363D01*
X0421088Y0249962D01*
X0420993Y0250559D01*
X0420884Y0251153D01*
X0420761Y0251745D01*
X0420624Y0252333D01*
X0420472Y0252918D01*
X0420306Y0253499D01*
X0420126Y0254075D01*
X0419933Y0254648D01*
X0419725Y0255215D01*
X0419504Y0255777D01*
X0419270Y0256334D01*
X0419022Y0256885D01*
X0418761Y0257430D01*
X0418486Y0257968D01*
X0418199Y0258500D01*
X0417899Y0259024D01*
X0417587Y0259541D01*
X0417262Y0260050D01*
X0416925Y0260552D01*
X0416575Y0261045D01*
X0416214Y0261529D01*
X0415842Y0262005D01*
X0415458Y0262471D01*
X0415063Y0262928D01*
X0414657Y0263375D01*
X0414240Y0263813D01*
X0413813Y0264240D01*
X0413375Y0264657D01*
X0412928Y0265063D01*
X0412471Y0265458D01*
X0412005Y0265842D01*
X0411529Y0266214D01*
X0411045Y0266575D01*
X0410552Y0266925D01*
X0410050Y0267262D01*
X0409541Y0267587D01*
X0409024Y0267899D01*
X0408500Y0268199D01*
X0407968Y0268486D01*
X0407430Y0268761D01*
X0406885Y0269022D01*
X0406334Y0269270D01*
X0405777Y0269504D01*
X0405215Y0269725D01*
X0404648Y0269933D01*
X0404075Y0270126D01*
X0403499Y0270306D01*
X0402918Y0270472D01*
X0402333Y0270624D01*
X0401745Y0270761D01*
X0401153Y0270884D01*
X0400559Y0270993D01*
X0399962Y0271088D01*
X0399363Y0271168D01*
X0398763Y0271233D01*
X0398161Y0271284D01*
X0397558Y0271321D01*
X0396954Y0271343D01*
X0396350Y0271350D01*
X0033850Y0271350D01*
X0033246Y0271343D01*
X0032642Y0271321D01*
X0032039Y0271284D01*
X0031437Y0271233D01*
X0030837Y0271168D01*
X0030238Y0271088D01*
X0029641Y0270993D01*
X0029047Y0270884D01*
X0028455Y0270761D01*
X0027867Y0270624D01*
X0027282Y0270472D01*
X0026701Y0270306D01*
X0026125Y0270126D01*
X0025552Y0269933D01*
X0024985Y0269725D01*
X0024423Y0269504D01*
X0023866Y0269270D01*
X0023315Y0269022D01*
X0022770Y0268761D01*
X0022232Y0268486D01*
X0021700Y0268199D01*
X0021176Y0267899D01*
X0020659Y0267587D01*
X0020150Y0267262D01*
X0019648Y0266925D01*
X0019155Y0266575D01*
X0018671Y0266214D01*
X0018195Y0265842D01*
X0017729Y0265458D01*
X0017272Y0265063D01*
X0016825Y0264657D01*
X0016387Y0264240D01*
X0015960Y0263813D01*
X0015543Y0263375D01*
X0015137Y0262928D01*
X0014742Y0262471D01*
X0014358Y0262005D01*
X0013986Y0261529D01*
X0013625Y0261045D01*
X0013275Y0260552D01*
X0012938Y0260050D01*
X0012613Y0259541D01*
X0012301Y0259024D01*
X0012001Y0258500D01*
X0011714Y0257968D01*
X0011439Y0257430D01*
X0011178Y0256885D01*
X0010930Y0256334D01*
X0010696Y0255777D01*
X0010475Y0255215D01*
X0010267Y0254648D01*
X0010074Y0254075D01*
X0009894Y0253499D01*
X0009728Y0252918D01*
X0009576Y0252333D01*
X0009439Y0251745D01*
X0009316Y0251153D01*
X0009207Y0250559D01*
X0009112Y0249962D01*
X0009032Y0249363D01*
X0008967Y0248763D01*
X0008916Y0248161D01*
X0008879Y0247558D01*
X0008857Y0246954D01*
X0008850Y0246350D01*
X0008850Y0033850D01*
X0008857Y0033246D01*
X0008879Y0032642D01*
X0008916Y0032039D01*
X0008967Y0031437D01*
X0009032Y0030837D01*
X0009112Y0030238D01*
X0009207Y0029641D01*
X0009316Y0029047D01*
X0009439Y0028455D01*
X0009576Y0027867D01*
X0009728Y0027282D01*
X0009894Y0026701D01*
X0010074Y0026125D01*
X0010267Y0025552D01*
X0010475Y0024985D01*
X0010696Y0024423D01*
X0010930Y0023866D01*
X0011178Y0023315D01*
X0011439Y0022770D01*
X0011714Y0022232D01*
X0012001Y0021700D01*
X0012301Y0021176D01*
X0012613Y0020659D01*
X0012938Y0020150D01*
X0013275Y0019648D01*
X0013625Y0019155D01*
X0013986Y0018671D01*
X0014358Y0018195D01*
X0014742Y0017729D01*
X0015137Y0017272D01*
X0015543Y0016825D01*
X0015960Y0016387D01*
X0016387Y0015960D01*
X0016825Y0015543D01*
X0017272Y0015137D01*
X0017729Y0014742D01*
X0018195Y0014358D01*
X0018671Y0013986D01*
X0019155Y0013625D01*
X0019648Y0013275D01*
X0020150Y0012938D01*
X0020659Y0012613D01*
X0021176Y0012301D01*
X0021700Y0012001D01*
X0022232Y0011714D01*
X0022770Y0011439D01*
X0023315Y0011178D01*
X0023866Y0010930D01*
X0024423Y0010696D01*
X0024985Y0010475D01*
X0025552Y0010267D01*
X0026125Y0010074D01*
X0026701Y0009894D01*
X0027282Y0009728D01*
X0027867Y0009576D01*
X0028455Y0009439D01*
X0029047Y0009316D01*
X0029641Y0009207D01*
X0030238Y0009112D01*
X0030837Y0009032D01*
X0031437Y0008967D01*
X0032039Y0008916D01*
X0032642Y0008879D01*
X0033246Y0008857D01*
X0033850Y0008850D01*
D11*
X0033350Y0036480D02*
X0027345Y0042485D01*
X0028846Y0045688D02*
X0031849Y0045688D01*
X0033350Y0047189D01*
X0033350Y0050192D01*
X0031849Y0051693D01*
X0028846Y0051693D02*
X0027345Y0048690D01*
X0027345Y0047189D01*
X0028846Y0045688D01*
X0024342Y0045688D02*
X0024342Y0051693D01*
X0028846Y0051693D01*
X0027345Y0054862D02*
X0027345Y0056363D01*
X0030347Y0059366D01*
X0027345Y0059366D02*
X0033350Y0059366D01*
X0033350Y0062569D02*
X0033350Y0068574D01*
X0033350Y0065571D02*
X0024342Y0065571D01*
X0027345Y0068574D01*
X0031849Y0071677D02*
X0033350Y0071677D01*
X0033350Y0073178D01*
X0031849Y0073178D01*
X0031849Y0071677D01*
X0033350Y0076381D02*
X0033350Y0082386D01*
X0033350Y0079383D02*
X0024342Y0079383D01*
X0027345Y0082386D01*
X0027345Y0085588D02*
X0033350Y0088591D01*
X0027345Y0091594D01*
X0027345Y0103937D02*
X0027345Y0106940D01*
X0025844Y0105439D02*
X0031849Y0105439D01*
X0033350Y0103937D01*
X0033350Y0110076D02*
X0033350Y0113079D01*
X0033350Y0111577D02*
X0027345Y0111577D01*
X0027345Y0113079D01*
X0024342Y0111577D02*
X0022841Y0111577D01*
X0024342Y0116281D02*
X0030347Y0122286D01*
X0028846Y0120785D02*
X0033350Y0116281D01*
X0033350Y0122286D02*
X0024342Y0122286D01*
X0028846Y0134697D02*
X0027345Y0136198D01*
X0027345Y0139201D01*
X0028846Y0140702D01*
X0031849Y0140702D01*
X0033350Y0139201D01*
X0033350Y0136198D01*
X0031849Y0134697D01*
X0028846Y0134697D01*
X0028846Y0143905D02*
X0033350Y0143905D01*
X0028846Y0143905D02*
X0027345Y0145406D01*
X0027345Y0149910D01*
X0033350Y0149910D01*
X0033350Y0153113D02*
X0028846Y0153113D01*
X0027345Y0154614D01*
X0027345Y0157617D01*
X0030347Y0157617D02*
X0030347Y0153113D01*
X0033350Y0153113D02*
X0033350Y0157617D01*
X0031849Y0159118D01*
X0030347Y0157617D01*
X0033350Y0162321D02*
X0024342Y0162321D01*
X0024342Y0168326D02*
X0033350Y0162321D01*
X0033350Y0168326D02*
X0024342Y0168326D01*
X0028846Y0180736D02*
X0030347Y0180736D01*
X0030347Y0186741D01*
X0028846Y0186741D02*
X0031849Y0186741D01*
X0033350Y0185240D01*
X0033350Y0182238D01*
X0028846Y0180736D02*
X0027345Y0182238D01*
X0027345Y0185240D01*
X0028846Y0186741D01*
X0033350Y0189877D02*
X0033350Y0192880D01*
X0033350Y0191379D02*
X0027345Y0191379D01*
X0027345Y0192880D01*
X0027345Y0196083D02*
X0027345Y0200587D01*
X0028846Y0202088D01*
X0031849Y0202088D01*
X0033350Y0200587D01*
X0033350Y0196083D01*
X0034851Y0196083D02*
X0036353Y0197584D01*
X0036353Y0199085D01*
X0034851Y0196083D02*
X0027345Y0196083D01*
X0024342Y0191379D02*
X0022841Y0191379D01*
X0022841Y0206725D02*
X0024342Y0206725D01*
X0027345Y0206725D02*
X0027345Y0208226D01*
X0027345Y0206725D02*
X0033350Y0206725D01*
X0033350Y0208226D02*
X0033350Y0205224D01*
X0030347Y0211429D02*
X0028846Y0211429D01*
X0027345Y0212930D01*
X0027345Y0215933D01*
X0028846Y0217434D01*
X0031849Y0217434D01*
X0033350Y0215933D01*
X0033350Y0212930D01*
X0030347Y0211429D02*
X0030347Y0217434D01*
X0028846Y0220637D02*
X0028846Y0223640D01*
X0028846Y0220637D02*
X0031849Y0220637D01*
X0033350Y0222138D01*
X0033350Y0225141D01*
X0031849Y0226642D01*
X0025844Y0226642D01*
X0024342Y0225141D01*
X0024342Y0222138D01*
X0025844Y0220637D01*
X0028846Y0229845D02*
X0027345Y0231346D01*
X0027345Y0235850D01*
X0024342Y0235850D02*
X0033350Y0235850D01*
X0033350Y0231346D01*
X0031849Y0229845D01*
X0028846Y0229845D01*
X0033350Y0042485D02*
X0027345Y0036480D01*
X0360600Y0016354D02*
X0366605Y0016354D01*
X0381095Y0016354D02*
X0387100Y0016354D01*
X0384097Y0019356D02*
X0384097Y0013351D01*
D12*
X0076662Y0073601D02*
X0075911Y0072850D01*
X0074410Y0072850D01*
X0073659Y0073601D01*
X0073659Y0074351D01*
X0074410Y0075102D01*
X0075911Y0075102D01*
X0076662Y0075853D01*
X0076662Y0076603D01*
X0075911Y0077354D01*
X0074410Y0077354D01*
X0073659Y0076603D01*
X0070557Y0077354D02*
X0069055Y0077354D01*
X0069806Y0077354D02*
X0069806Y0073601D01*
X0070557Y0072850D01*
X0071307Y0072850D01*
X0072058Y0073601D01*
X0067454Y0073601D02*
X0066703Y0072850D01*
X0065202Y0072850D01*
X0064451Y0073601D01*
X0064451Y0074351D01*
X0065202Y0075102D01*
X0067454Y0075102D01*
X0067454Y0073601D01*
X0067454Y0075102D02*
X0065953Y0076603D01*
X0064451Y0077354D01*
X0065202Y0092850D02*
X0064451Y0093601D01*
X0064451Y0095102D01*
X0065202Y0095853D01*
X0065953Y0095853D01*
X0067454Y0095102D01*
X0067454Y0097354D01*
X0064451Y0097354D01*
X0065202Y0092850D02*
X0066703Y0092850D01*
X0067454Y0093601D01*
X0069806Y0093601D02*
X0069806Y0097354D01*
X0070557Y0097354D02*
X0069055Y0097354D01*
X0069806Y0093601D02*
X0070557Y0092850D01*
X0071307Y0092850D01*
X0072058Y0093601D01*
X0073659Y0093601D02*
X0074410Y0092850D01*
X0075911Y0092850D01*
X0076662Y0093601D01*
X0075911Y0095102D02*
X0074410Y0095102D01*
X0073659Y0094351D01*
X0073659Y0093601D01*
X0075911Y0095102D02*
X0076662Y0095853D01*
X0076662Y0096603D01*
X0075911Y0097354D01*
X0074410Y0097354D01*
X0073659Y0096603D01*
X0074410Y0112850D02*
X0075911Y0112850D01*
X0076662Y0113601D01*
X0075911Y0115102D02*
X0074410Y0115102D01*
X0073659Y0114351D01*
X0073659Y0113601D01*
X0074410Y0112850D01*
X0072058Y0113601D02*
X0071307Y0112850D01*
X0070557Y0112850D01*
X0069806Y0113601D01*
X0069806Y0117354D01*
X0070557Y0117354D02*
X0069055Y0117354D01*
X0067454Y0115102D02*
X0064451Y0115102D01*
X0065202Y0112850D02*
X0065202Y0117354D01*
X0067454Y0115102D01*
X0073659Y0116603D02*
X0074410Y0117354D01*
X0075911Y0117354D01*
X0076662Y0116603D01*
X0076662Y0115853D01*
X0075911Y0115102D01*
X0075911Y0132850D02*
X0076662Y0133601D01*
X0075911Y0132850D02*
X0074410Y0132850D01*
X0073659Y0133601D01*
X0073659Y0134351D01*
X0074410Y0135102D01*
X0075911Y0135102D01*
X0076662Y0135853D01*
X0076662Y0136603D01*
X0075911Y0137354D01*
X0074410Y0137354D01*
X0073659Y0136603D01*
X0070557Y0137354D02*
X0069055Y0137354D01*
X0069806Y0137354D02*
X0069806Y0133601D01*
X0070557Y0132850D01*
X0071307Y0132850D01*
X0072058Y0133601D01*
X0067454Y0133601D02*
X0066703Y0132850D01*
X0065202Y0132850D01*
X0064451Y0133601D01*
X0064451Y0134351D01*
X0065202Y0135102D01*
X0065953Y0135102D01*
X0065202Y0135102D02*
X0064451Y0135853D01*
X0064451Y0136603D01*
X0065202Y0137354D01*
X0066703Y0137354D01*
X0067454Y0136603D01*
X0067454Y0152850D02*
X0064451Y0152850D01*
X0064451Y0155853D02*
X0064451Y0156603D01*
X0065202Y0157354D01*
X0066703Y0157354D01*
X0067454Y0156603D01*
X0069055Y0157354D02*
X0070557Y0157354D01*
X0069806Y0157354D02*
X0069806Y0153601D01*
X0070557Y0152850D01*
X0071307Y0152850D01*
X0072058Y0153601D01*
X0073659Y0153601D02*
X0073659Y0154351D01*
X0074410Y0155102D01*
X0075911Y0155102D01*
X0076662Y0155853D01*
X0076662Y0156603D01*
X0075911Y0157354D01*
X0074410Y0157354D01*
X0073659Y0156603D01*
X0073659Y0153601D02*
X0074410Y0152850D01*
X0075911Y0152850D01*
X0076662Y0153601D01*
X0067454Y0152850D02*
X0064451Y0155853D01*
X0064451Y0172850D02*
X0067454Y0172850D01*
X0065953Y0172850D02*
X0065953Y0177354D01*
X0067454Y0175853D01*
X0069055Y0177354D02*
X0070557Y0177354D01*
X0069806Y0177354D02*
X0069806Y0173601D01*
X0070557Y0172850D01*
X0071307Y0172850D01*
X0072058Y0173601D01*
X0073659Y0173601D02*
X0073659Y0174351D01*
X0074410Y0175102D01*
X0075911Y0175102D01*
X0076662Y0175853D01*
X0076662Y0176603D01*
X0075911Y0177354D01*
X0074410Y0177354D01*
X0073659Y0176603D01*
X0073659Y0173601D02*
X0074410Y0172850D01*
X0075911Y0172850D01*
X0076662Y0173601D01*
X0116139Y0242849D02*
X0116139Y0247353D01*
X0113887Y0247353D01*
X0113136Y0246602D01*
X0113136Y0245101D01*
X0113887Y0244350D01*
X0116139Y0244350D01*
X0117740Y0245101D02*
X0118491Y0244350D01*
X0119992Y0244350D01*
X0120743Y0245101D01*
X0122311Y0245101D02*
X0123061Y0245101D01*
X0123061Y0244350D01*
X0122311Y0244350D01*
X0122311Y0245101D01*
X0122311Y0244350D02*
X0123812Y0242849D01*
X0125380Y0244350D02*
X0126131Y0245101D01*
X0126131Y0248103D01*
X0126881Y0247353D02*
X0125380Y0247353D01*
X0129200Y0247353D02*
X0129200Y0244350D01*
X0129951Y0244350D02*
X0128449Y0244350D01*
X0129200Y0247353D02*
X0129951Y0247353D01*
X0131552Y0247353D02*
X0131552Y0244350D01*
X0133804Y0244350D01*
X0134554Y0245101D01*
X0134554Y0247353D01*
X0136139Y0247353D02*
X0136890Y0247353D01*
X0138391Y0245851D01*
X0138391Y0244350D02*
X0138391Y0247353D01*
X0139959Y0246602D02*
X0141460Y0246602D01*
X0143062Y0246602D02*
X0143062Y0244350D01*
X0145314Y0244350D01*
X0146064Y0245101D01*
X0145314Y0245851D01*
X0143062Y0245851D01*
X0143062Y0246602D02*
X0143812Y0247353D01*
X0145314Y0247353D01*
X0147666Y0247353D02*
X0149918Y0247353D01*
X0150668Y0246602D01*
X0150668Y0245101D01*
X0149918Y0244350D01*
X0147666Y0244350D01*
X0147666Y0248854D01*
X0152270Y0247353D02*
X0152270Y0244350D01*
X0152270Y0246602D02*
X0155272Y0246602D01*
X0155272Y0247353D02*
X0153771Y0248854D01*
X0152270Y0247353D01*
X0155272Y0247353D02*
X0155272Y0244350D01*
X0156840Y0244350D02*
X0157591Y0244350D01*
X0157591Y0245101D01*
X0156840Y0245101D01*
X0156840Y0244350D01*
X0158341Y0242849D01*
X0160693Y0244350D02*
X0162195Y0244350D01*
X0162945Y0245101D01*
X0162945Y0246602D01*
X0162195Y0247353D01*
X0160693Y0247353D01*
X0159943Y0246602D01*
X0159943Y0245851D01*
X0162945Y0245851D01*
X0164547Y0244350D02*
X0166799Y0244350D01*
X0167549Y0245101D01*
X0167549Y0246602D01*
X0166799Y0247353D01*
X0164547Y0247353D01*
X0169151Y0246602D02*
X0169151Y0244350D01*
X0171403Y0244350D01*
X0172153Y0245101D01*
X0171403Y0245851D01*
X0169151Y0245851D01*
X0169151Y0246602D02*
X0169901Y0247353D01*
X0171403Y0247353D01*
X0173755Y0246602D02*
X0173755Y0245101D01*
X0174505Y0244350D01*
X0176757Y0244350D01*
X0176757Y0242849D02*
X0176757Y0247353D01*
X0174505Y0247353D01*
X0173755Y0246602D01*
X0178358Y0245851D02*
X0178358Y0245101D01*
X0179109Y0244350D01*
X0180610Y0244350D01*
X0181361Y0245101D01*
X0180610Y0246602D02*
X0179109Y0246602D01*
X0178358Y0245851D01*
X0178358Y0248103D02*
X0179109Y0248854D01*
X0180610Y0248854D01*
X0181361Y0248103D01*
X0181361Y0247353D01*
X0180610Y0246602D01*
X0177524Y0250849D02*
X0176023Y0252350D01*
X0176774Y0252350D01*
X0176774Y0253101D01*
X0176023Y0253101D01*
X0176023Y0252350D01*
X0174455Y0252350D02*
X0171453Y0252350D01*
X0169851Y0253101D02*
X0169101Y0252350D01*
X0167599Y0252350D01*
X0166849Y0253101D01*
X0166849Y0254602D01*
X0167599Y0255353D01*
X0169101Y0255353D01*
X0169851Y0254602D01*
X0169851Y0253101D01*
X0174455Y0252350D02*
X0174455Y0256854D01*
X0172937Y0260350D02*
X0170685Y0260350D01*
X0170685Y0262602D01*
X0171436Y0263353D01*
X0172937Y0263353D01*
X0172937Y0261851D02*
X0170685Y0261851D01*
X0169084Y0260350D02*
X0169084Y0263353D01*
X0166832Y0263353D01*
X0166081Y0262602D01*
X0166081Y0260350D01*
X0164480Y0258849D02*
X0162979Y0260350D01*
X0163729Y0260350D01*
X0163729Y0261101D01*
X0162979Y0261101D01*
X0162979Y0260350D01*
X0161411Y0260350D02*
X0161411Y0264854D01*
X0159159Y0264854D01*
X0158408Y0264103D01*
X0158408Y0262602D01*
X0159159Y0261851D01*
X0161411Y0261851D01*
X0159909Y0261851D02*
X0158408Y0260350D01*
X0156807Y0261101D02*
X0156056Y0260350D01*
X0154555Y0260350D01*
X0153804Y0261101D01*
X0153804Y0262602D01*
X0154555Y0263353D01*
X0156056Y0263353D01*
X0156807Y0262602D01*
X0156807Y0261101D01*
X0152203Y0260350D02*
X0149951Y0260350D01*
X0149200Y0261101D01*
X0149200Y0262602D01*
X0149951Y0263353D01*
X0152203Y0263353D01*
X0152203Y0264854D02*
X0152203Y0260350D01*
X0147599Y0260350D02*
X0146098Y0260350D01*
X0146848Y0260350D02*
X0146848Y0263353D01*
X0147599Y0263353D01*
X0146848Y0264854D02*
X0146848Y0265604D01*
X0144530Y0263353D02*
X0142278Y0263353D01*
X0141527Y0262602D01*
X0141527Y0260350D01*
X0139926Y0258849D02*
X0138424Y0260350D01*
X0139175Y0260350D01*
X0139175Y0261101D01*
X0138424Y0261101D01*
X0138424Y0260350D01*
X0136856Y0260350D02*
X0136856Y0263353D01*
X0135355Y0264854D01*
X0133854Y0263353D01*
X0133854Y0260350D01*
X0132253Y0260350D02*
X0132253Y0264854D01*
X0130001Y0263353D02*
X0132253Y0261851D01*
X0130001Y0260350D01*
X0128416Y0260350D02*
X0126915Y0260350D01*
X0127665Y0260350D02*
X0127665Y0263353D01*
X0128416Y0263353D01*
X0127665Y0264854D02*
X0127665Y0265604D01*
X0125347Y0264854D02*
X0125347Y0260350D01*
X0123095Y0260350D01*
X0122344Y0261101D01*
X0122344Y0262602D01*
X0123095Y0263353D01*
X0125347Y0263353D01*
X0120743Y0261101D02*
X0119992Y0261851D01*
X0117740Y0261851D01*
X0117740Y0262602D02*
X0117740Y0260350D01*
X0119992Y0260350D01*
X0120743Y0261101D01*
X0119992Y0263353D02*
X0118491Y0263353D01*
X0117740Y0262602D01*
X0115388Y0261101D02*
X0115388Y0260350D01*
X0114638Y0260350D01*
X0114638Y0261101D01*
X0115388Y0261101D01*
X0114638Y0260350D02*
X0116139Y0258849D01*
X0114638Y0256854D02*
X0115388Y0256103D01*
X0115388Y0252350D01*
X0117740Y0252350D02*
X0119992Y0252350D01*
X0120743Y0253101D01*
X0119992Y0253851D01*
X0117740Y0253851D01*
X0117740Y0254602D02*
X0117740Y0252350D01*
X0117740Y0254602D02*
X0118491Y0255353D01*
X0119992Y0255353D01*
X0122344Y0256103D02*
X0123095Y0256854D01*
X0124596Y0256854D01*
X0125347Y0256103D01*
X0125347Y0253101D01*
X0124596Y0252350D01*
X0123095Y0252350D01*
X0122344Y0253101D01*
X0126948Y0253101D02*
X0126948Y0254602D01*
X0127699Y0255353D01*
X0129951Y0255353D01*
X0129951Y0256854D02*
X0129951Y0252350D01*
X0127699Y0252350D01*
X0126948Y0253101D01*
X0129200Y0249604D02*
X0129200Y0248854D01*
X0131552Y0252350D02*
X0133804Y0252350D01*
X0134555Y0253101D01*
X0133804Y0253851D01*
X0131552Y0253851D01*
X0131552Y0254602D02*
X0131552Y0252350D01*
X0131552Y0254602D02*
X0132303Y0255353D01*
X0133804Y0255353D01*
X0136156Y0256854D02*
X0139158Y0256854D01*
X0139158Y0252350D01*
X0140726Y0252350D02*
X0141477Y0252350D01*
X0141477Y0253101D01*
X0140726Y0253101D01*
X0140726Y0252350D01*
X0142228Y0250849D01*
X0143812Y0252350D02*
X0146064Y0253851D01*
X0143812Y0255353D01*
X0146064Y0256854D02*
X0146064Y0252350D01*
X0147649Y0255353D02*
X0148400Y0255353D01*
X0149901Y0253851D01*
X0149901Y0252350D02*
X0149901Y0255353D01*
X0151502Y0254602D02*
X0152253Y0255353D01*
X0153754Y0255353D01*
X0154505Y0254602D01*
X0154505Y0253101D01*
X0153754Y0252350D01*
X0152253Y0252350D01*
X0151502Y0253101D01*
X0151502Y0254602D01*
X0156106Y0255353D02*
X0156106Y0253101D01*
X0156857Y0252350D01*
X0157607Y0253101D01*
X0158358Y0252350D01*
X0159109Y0253101D01*
X0159109Y0255353D01*
X0160677Y0255353D02*
X0162178Y0255353D01*
X0161427Y0256103D02*
X0161427Y0253101D01*
X0160677Y0252350D01*
X0163746Y0254602D02*
X0165247Y0254602D01*
X0164497Y0256103D02*
X0164497Y0252350D01*
X0164497Y0256103D02*
X0163746Y0256854D01*
X0172937Y0260350D02*
X0173688Y0261101D01*
X0172937Y0261851D01*
X0175289Y0261851D02*
X0178292Y0261851D01*
X0178292Y0261101D02*
X0178292Y0262602D01*
X0177541Y0263353D01*
X0176040Y0263353D01*
X0175289Y0262602D01*
X0175289Y0261851D01*
X0176040Y0260350D02*
X0177541Y0260350D01*
X0178292Y0261101D01*
X0179893Y0261101D02*
X0180644Y0260350D01*
X0182145Y0260350D01*
X0182896Y0261101D01*
X0184464Y0261101D02*
X0185214Y0261101D01*
X0185214Y0260350D01*
X0184464Y0260350D01*
X0184464Y0261101D01*
X0184464Y0260350D02*
X0185965Y0258849D01*
X0187566Y0260350D02*
X0187566Y0262602D01*
X0188317Y0263353D01*
X0190569Y0263353D01*
X0190569Y0260350D01*
X0192170Y0261851D02*
X0195173Y0261851D01*
X0195173Y0261101D02*
X0195173Y0262602D01*
X0194422Y0263353D01*
X0192921Y0263353D01*
X0192170Y0262602D01*
X0192170Y0261851D01*
X0192921Y0260350D02*
X0194422Y0260350D01*
X0195173Y0261101D01*
X0196774Y0260350D02*
X0199026Y0260350D01*
X0199777Y0261101D01*
X0199777Y0262602D01*
X0199026Y0263353D01*
X0196774Y0263353D01*
X0196774Y0259599D01*
X0197525Y0258849D01*
X0198275Y0258849D01*
X0198292Y0255353D02*
X0197542Y0254602D01*
X0197542Y0253851D01*
X0200544Y0253851D01*
X0200544Y0253101D02*
X0200544Y0254602D01*
X0199793Y0255353D01*
X0198292Y0255353D01*
X0195940Y0254602D02*
X0195190Y0255353D01*
X0192938Y0255353D01*
X0192938Y0256854D02*
X0192938Y0252350D01*
X0195190Y0252350D01*
X0195940Y0253101D01*
X0195940Y0254602D01*
X0198292Y0252350D02*
X0199793Y0252350D01*
X0200544Y0253101D01*
X0202145Y0252350D02*
X0202145Y0256854D01*
X0203647Y0255353D01*
X0205148Y0256854D01*
X0205148Y0252350D01*
X0206716Y0252350D02*
X0208217Y0250849D01*
X0207467Y0252350D02*
X0206716Y0252350D01*
X0206716Y0253101D01*
X0207467Y0253101D01*
X0207467Y0252350D01*
X0209819Y0252350D02*
X0209819Y0254602D01*
X0210569Y0255353D01*
X0212071Y0255353D01*
X0212821Y0254602D01*
X0214423Y0254602D02*
X0214423Y0253101D01*
X0215173Y0252350D01*
X0217425Y0252350D01*
X0217425Y0250849D02*
X0217425Y0255353D01*
X0215173Y0255353D01*
X0214423Y0254602D01*
X0212821Y0256854D02*
X0212821Y0252350D01*
X0219026Y0253851D02*
X0222029Y0253851D01*
X0222029Y0253101D02*
X0222029Y0254602D01*
X0221278Y0255353D01*
X0219777Y0255353D01*
X0219026Y0254602D01*
X0219026Y0253851D01*
X0219777Y0252350D02*
X0221278Y0252350D01*
X0222029Y0253101D01*
X0223630Y0253101D02*
X0224381Y0253851D01*
X0225882Y0253851D01*
X0226633Y0254602D01*
X0225882Y0255353D01*
X0223630Y0255353D01*
X0223630Y0253101D02*
X0224381Y0252350D01*
X0226633Y0252350D01*
X0228234Y0253101D02*
X0228234Y0254602D01*
X0228985Y0255353D01*
X0230486Y0255353D01*
X0231237Y0254602D01*
X0231237Y0253101D01*
X0230486Y0252350D01*
X0228985Y0252350D01*
X0228234Y0253101D01*
X0233589Y0253101D02*
X0233589Y0256854D01*
X0234340Y0256854D02*
X0232838Y0256854D01*
X0232772Y0258849D02*
X0231270Y0260350D01*
X0232021Y0260350D01*
X0232021Y0261101D01*
X0231270Y0261101D01*
X0231270Y0260350D01*
X0229702Y0260350D02*
X0229702Y0264854D01*
X0227450Y0264854D01*
X0226700Y0264103D01*
X0226700Y0262602D01*
X0227450Y0261851D01*
X0229702Y0261851D01*
X0228201Y0261851D02*
X0226700Y0260350D01*
X0225098Y0261101D02*
X0224348Y0260350D01*
X0222846Y0260350D01*
X0222096Y0261101D01*
X0222096Y0262602D01*
X0222846Y0263353D01*
X0224348Y0263353D01*
X0225098Y0262602D01*
X0225098Y0261101D01*
X0220494Y0260350D02*
X0218242Y0260350D01*
X0217492Y0261101D01*
X0217492Y0262602D01*
X0218242Y0263353D01*
X0220494Y0263353D01*
X0220494Y0264854D02*
X0220494Y0260350D01*
X0215890Y0258849D02*
X0214389Y0260350D01*
X0215140Y0260350D01*
X0215140Y0261101D01*
X0214389Y0261101D01*
X0214389Y0260350D01*
X0212821Y0261101D02*
X0212071Y0260350D01*
X0211320Y0260350D01*
X0210569Y0261101D01*
X0210569Y0264854D01*
X0209819Y0264854D02*
X0211320Y0264854D01*
X0208217Y0263353D02*
X0208217Y0261101D01*
X0207467Y0260350D01*
X0205215Y0260350D01*
X0205215Y0263353D01*
X0203613Y0263353D02*
X0203613Y0260350D01*
X0203613Y0261851D02*
X0202112Y0263353D01*
X0201361Y0263353D01*
X0191336Y0254602D02*
X0190586Y0255353D01*
X0188334Y0255353D01*
X0186732Y0254602D02*
X0185982Y0255353D01*
X0184480Y0255353D01*
X0183730Y0254602D01*
X0183730Y0253101D01*
X0184480Y0252350D01*
X0185982Y0252350D01*
X0186732Y0253101D01*
X0186732Y0254602D01*
X0188334Y0252350D02*
X0190586Y0252350D01*
X0191336Y0253101D01*
X0191336Y0254602D01*
X0190569Y0248854D02*
X0190569Y0244350D01*
X0192170Y0245101D02*
X0192921Y0244350D01*
X0194422Y0244350D01*
X0195173Y0245101D01*
X0194422Y0246602D02*
X0192921Y0246602D01*
X0192170Y0245851D01*
X0192170Y0245101D01*
X0190569Y0246602D02*
X0187566Y0246602D01*
X0187566Y0248854D02*
X0187566Y0244350D01*
X0192170Y0248103D02*
X0192921Y0248854D01*
X0194422Y0248854D01*
X0195173Y0248103D01*
X0195173Y0247353D01*
X0194422Y0246602D01*
X0196774Y0246602D02*
X0199777Y0246602D01*
X0199777Y0247353D02*
X0198275Y0248854D01*
X0196774Y0247353D01*
X0196774Y0244350D01*
X0199777Y0244350D02*
X0199777Y0247353D01*
X0201378Y0248103D02*
X0201378Y0246602D01*
X0202129Y0245851D01*
X0204381Y0245851D01*
X0204381Y0244350D02*
X0204381Y0248854D01*
X0202129Y0248854D01*
X0201378Y0248103D01*
X0202879Y0245851D02*
X0201378Y0244350D01*
X0205982Y0245101D02*
X0206733Y0244350D01*
X0208234Y0244350D01*
X0208985Y0245101D01*
X0208985Y0248103D01*
X0208234Y0248854D01*
X0206733Y0248854D01*
X0205982Y0248103D01*
X0210553Y0245101D02*
X0211303Y0245101D01*
X0211303Y0244350D01*
X0210553Y0244350D01*
X0210553Y0245101D01*
X0210553Y0244350D02*
X0212054Y0242849D01*
X0214406Y0244350D02*
X0215907Y0244350D01*
X0216658Y0245101D01*
X0216658Y0246602D01*
X0215907Y0247353D01*
X0214406Y0247353D01*
X0213655Y0246602D01*
X0213655Y0245851D01*
X0216658Y0245851D01*
X0218259Y0244350D02*
X0220511Y0244350D01*
X0221262Y0245101D01*
X0221262Y0246602D01*
X0220511Y0247353D01*
X0218259Y0247353D01*
X0222863Y0246602D02*
X0222863Y0244350D01*
X0225115Y0244350D01*
X0225866Y0245101D01*
X0225115Y0245851D01*
X0222863Y0245851D01*
X0222863Y0246602D02*
X0223614Y0247353D01*
X0225115Y0247353D01*
X0227467Y0246602D02*
X0227467Y0245101D01*
X0228218Y0244350D01*
X0230470Y0244350D01*
X0230470Y0242849D02*
X0230470Y0247353D01*
X0228218Y0247353D01*
X0227467Y0246602D01*
X0232071Y0245851D02*
X0232071Y0245101D01*
X0232822Y0244350D01*
X0234323Y0244350D01*
X0235073Y0245101D01*
X0234323Y0246602D02*
X0232822Y0246602D01*
X0232071Y0245851D01*
X0232071Y0248103D02*
X0232822Y0248854D01*
X0234323Y0248854D01*
X0235073Y0248103D01*
X0235073Y0247353D01*
X0234323Y0246602D01*
X0238910Y0250849D02*
X0237409Y0252350D01*
X0238159Y0252350D01*
X0238159Y0253101D01*
X0237409Y0253101D01*
X0237409Y0252350D01*
X0235841Y0253101D02*
X0235090Y0252350D01*
X0234340Y0252350D01*
X0233589Y0253101D01*
X0240495Y0255353D02*
X0241245Y0255353D01*
X0242747Y0253851D01*
X0242747Y0252350D02*
X0242747Y0255353D01*
X0244348Y0254602D02*
X0245099Y0255353D01*
X0246600Y0255353D01*
X0247351Y0254602D01*
X0247351Y0253101D01*
X0246600Y0252350D01*
X0245099Y0252350D01*
X0244348Y0253851D02*
X0247351Y0253851D01*
X0248919Y0252350D02*
X0249669Y0253101D01*
X0249669Y0256103D01*
X0248919Y0255353D02*
X0250420Y0255353D01*
X0252021Y0254602D02*
X0252772Y0255353D01*
X0254273Y0255353D01*
X0255024Y0254602D01*
X0255024Y0253101D01*
X0254273Y0252350D01*
X0252772Y0252350D01*
X0252021Y0253851D02*
X0255024Y0253851D01*
X0256625Y0254602D02*
X0257376Y0253851D01*
X0259628Y0253851D01*
X0259628Y0252350D02*
X0259628Y0256854D01*
X0257376Y0256854D01*
X0256625Y0256103D01*
X0256625Y0254602D01*
X0252021Y0254602D02*
X0252021Y0253851D01*
X0251955Y0248854D02*
X0251955Y0244350D01*
X0251955Y0245851D02*
X0249703Y0247353D01*
X0248118Y0246602D02*
X0248118Y0245101D01*
X0247367Y0244350D01*
X0245866Y0244350D01*
X0245115Y0245851D02*
X0248118Y0245851D01*
X0248118Y0246602D02*
X0247367Y0247353D01*
X0245866Y0247353D01*
X0245115Y0246602D01*
X0245115Y0245851D01*
X0243514Y0245851D02*
X0242013Y0247353D01*
X0241262Y0247353D01*
X0243514Y0247353D02*
X0243514Y0244350D01*
X0249703Y0244350D02*
X0251955Y0245851D01*
X0253556Y0244350D02*
X0255808Y0244350D01*
X0256558Y0245101D01*
X0256558Y0246602D01*
X0255808Y0247353D01*
X0253556Y0247353D01*
X0258160Y0246602D02*
X0258160Y0244350D01*
X0260412Y0244350D01*
X0261162Y0245101D01*
X0260412Y0245851D01*
X0258160Y0245851D01*
X0258160Y0246602D02*
X0258910Y0247353D01*
X0260412Y0247353D01*
X0262764Y0246602D02*
X0265766Y0246602D01*
X0265766Y0244350D02*
X0265766Y0248854D01*
X0262764Y0248854D02*
X0262764Y0244350D01*
X0262697Y0250849D02*
X0261196Y0252350D01*
X0261946Y0252350D01*
X0261946Y0253101D01*
X0261196Y0253101D01*
X0261196Y0252350D01*
X0264298Y0252350D02*
X0264298Y0254602D01*
X0265049Y0255353D01*
X0267301Y0255353D01*
X0267301Y0252350D01*
X0268902Y0252350D02*
X0271154Y0252350D01*
X0271905Y0253101D01*
X0271154Y0253851D01*
X0268902Y0253851D01*
X0268902Y0254602D02*
X0268902Y0252350D01*
X0268902Y0254602D02*
X0269653Y0255353D01*
X0271154Y0255353D01*
X0273506Y0256103D02*
X0274257Y0256854D01*
X0276509Y0256854D01*
X0276509Y0252350D01*
X0274257Y0252350D01*
X0273506Y0253101D01*
X0273506Y0256103D01*
X0274207Y0260350D02*
X0274207Y0264854D01*
X0271955Y0263353D02*
X0274207Y0261851D01*
X0271955Y0260350D01*
X0270370Y0260350D02*
X0268118Y0260350D01*
X0267368Y0261101D01*
X0268118Y0261851D01*
X0269620Y0261851D01*
X0270370Y0262602D01*
X0269620Y0263353D01*
X0267368Y0263353D01*
X0261162Y0263353D02*
X0259661Y0263353D01*
X0260412Y0264103D02*
X0260412Y0261101D01*
X0259661Y0260350D01*
X0258093Y0261101D02*
X0257342Y0260350D01*
X0255841Y0260350D01*
X0255091Y0261101D01*
X0255091Y0262602D01*
X0255841Y0263353D01*
X0257342Y0263353D01*
X0258093Y0262602D01*
X0258093Y0261101D01*
X0253489Y0261101D02*
X0253489Y0260350D01*
X0252739Y0260350D01*
X0252739Y0261101D01*
X0253489Y0261101D01*
X0253489Y0262602D02*
X0253489Y0263353D01*
X0252739Y0263353D01*
X0252739Y0262602D01*
X0253489Y0262602D01*
X0246583Y0261101D02*
X0245833Y0260350D01*
X0245082Y0260350D01*
X0244331Y0261101D01*
X0244331Y0264854D01*
X0243581Y0264854D02*
X0245082Y0264854D01*
X0241979Y0262602D02*
X0241979Y0261101D01*
X0241229Y0260350D01*
X0239727Y0260350D01*
X0238977Y0261101D01*
X0238977Y0262602D01*
X0239727Y0263353D01*
X0241229Y0263353D01*
X0241979Y0262602D01*
X0237375Y0262602D02*
X0236625Y0263353D01*
X0235124Y0263353D01*
X0234373Y0262602D01*
X0234373Y0261851D01*
X0237375Y0261851D01*
X0237375Y0261101D02*
X0237375Y0262602D01*
X0237375Y0261101D02*
X0236625Y0260350D01*
X0235124Y0260350D01*
X0244348Y0254602D02*
X0244348Y0253851D01*
X0271972Y0246602D02*
X0271972Y0245101D01*
X0272722Y0244350D01*
X0274224Y0244350D01*
X0274974Y0245101D01*
X0274974Y0246602D01*
X0274224Y0247353D01*
X0272722Y0247353D01*
X0271972Y0246602D01*
X0276576Y0247353D02*
X0276576Y0243599D01*
X0277326Y0242849D01*
X0278077Y0242849D01*
X0278827Y0244350D02*
X0276576Y0244350D01*
X0278827Y0244350D02*
X0279578Y0245101D01*
X0279578Y0247353D01*
X0281163Y0247353D02*
X0283415Y0245851D01*
X0281163Y0244350D01*
X0283415Y0244350D02*
X0283415Y0248854D01*
X0285016Y0246602D02*
X0285016Y0245101D01*
X0285767Y0244350D01*
X0287268Y0244350D01*
X0288019Y0245101D01*
X0288019Y0246602D01*
X0287268Y0247353D01*
X0285767Y0247353D01*
X0285016Y0246602D01*
X0289620Y0248854D02*
X0292623Y0248854D01*
X0291121Y0248854D02*
X0291121Y0244350D01*
X0294191Y0244350D02*
X0295692Y0242849D01*
X0294941Y0244350D02*
X0294191Y0244350D01*
X0294191Y0245101D01*
X0294941Y0245101D01*
X0294941Y0244350D01*
X0297293Y0244350D02*
X0297293Y0246602D01*
X0298044Y0247353D01*
X0300296Y0247353D01*
X0300296Y0244350D01*
X0301897Y0244350D02*
X0301897Y0246602D01*
X0302648Y0247353D01*
X0304149Y0247353D01*
X0304149Y0245851D02*
X0301897Y0245851D01*
X0301897Y0244350D02*
X0304149Y0244350D01*
X0304900Y0245101D01*
X0304149Y0245851D01*
X0306501Y0244350D02*
X0308753Y0244350D01*
X0309504Y0245101D01*
X0309504Y0246602D01*
X0308753Y0247353D01*
X0306501Y0247353D01*
X0310321Y0250849D02*
X0309570Y0251599D01*
X0309570Y0255353D01*
X0311822Y0255353D01*
X0312573Y0254602D01*
X0312573Y0253101D01*
X0311822Y0252350D01*
X0309570Y0252350D01*
X0310321Y0250849D02*
X0311072Y0250849D01*
X0311822Y0249604D02*
X0311822Y0248854D01*
X0311822Y0247353D02*
X0311822Y0244350D01*
X0311072Y0244350D02*
X0312573Y0244350D01*
X0314141Y0244350D02*
X0315642Y0244350D01*
X0314892Y0244350D02*
X0314892Y0248854D01*
X0315642Y0248854D01*
X0317244Y0246602D02*
X0317244Y0245851D01*
X0320246Y0245851D01*
X0320246Y0245101D02*
X0320246Y0246602D01*
X0319495Y0247353D01*
X0317994Y0247353D01*
X0317244Y0246602D01*
X0317994Y0244350D02*
X0319495Y0244350D01*
X0320246Y0245101D01*
X0321847Y0246602D02*
X0322598Y0245851D01*
X0324850Y0245851D01*
X0324850Y0244350D02*
X0324850Y0248854D01*
X0322598Y0248854D01*
X0321847Y0248103D01*
X0321847Y0246602D01*
X0322598Y0252350D02*
X0324099Y0252350D01*
X0324850Y0253101D01*
X0324099Y0254602D02*
X0322598Y0254602D01*
X0321847Y0253851D01*
X0321847Y0253101D01*
X0322598Y0252350D01*
X0320246Y0252350D02*
X0320246Y0256854D01*
X0319495Y0255353D02*
X0317994Y0255353D01*
X0317244Y0254602D01*
X0317244Y0252350D01*
X0315642Y0252350D02*
X0314141Y0252350D01*
X0314892Y0252350D02*
X0314892Y0255353D01*
X0315642Y0255353D01*
X0314892Y0256854D02*
X0314892Y0257604D01*
X0314892Y0260350D02*
X0313390Y0260350D01*
X0314892Y0260350D02*
X0315642Y0261101D01*
X0315642Y0262602D01*
X0314892Y0263353D01*
X0313390Y0263353D01*
X0312640Y0262602D01*
X0312640Y0261851D01*
X0315642Y0261851D01*
X0317244Y0261101D02*
X0317994Y0260350D01*
X0320246Y0260350D01*
X0320246Y0258849D02*
X0320246Y0263353D01*
X0317994Y0263353D01*
X0317244Y0262602D01*
X0317244Y0261101D01*
X0321847Y0261101D02*
X0322598Y0260350D01*
X0324099Y0260350D01*
X0324850Y0261101D01*
X0324099Y0262602D02*
X0322598Y0262602D01*
X0321847Y0261851D01*
X0321847Y0261101D01*
X0324099Y0262602D02*
X0324850Y0263353D01*
X0324850Y0264103D01*
X0324099Y0264854D01*
X0322598Y0264854D01*
X0321847Y0264103D01*
X0311038Y0262602D02*
X0311038Y0261101D01*
X0310288Y0260350D01*
X0308036Y0260350D01*
X0306434Y0260350D02*
X0304933Y0260350D01*
X0305684Y0260350D02*
X0305684Y0263353D01*
X0306434Y0263353D01*
X0308036Y0263353D02*
X0310288Y0263353D01*
X0311038Y0262602D01*
X0305684Y0264854D02*
X0305684Y0265604D01*
X0302614Y0263353D02*
X0301113Y0263353D01*
X0300362Y0262602D01*
X0300362Y0260350D01*
X0302614Y0260350D01*
X0303365Y0261101D01*
X0302614Y0261851D01*
X0300362Y0261851D01*
X0298761Y0260350D02*
X0297260Y0260350D01*
X0298010Y0260350D02*
X0298010Y0264854D01*
X0298761Y0264854D01*
X0291088Y0263353D02*
X0289587Y0263353D01*
X0290337Y0264103D02*
X0290337Y0261101D01*
X0289587Y0260350D01*
X0288019Y0260350D02*
X0288019Y0264854D01*
X0287268Y0263353D02*
X0285767Y0263353D01*
X0285016Y0262602D01*
X0285016Y0260350D01*
X0283415Y0261101D02*
X0282664Y0261851D01*
X0280412Y0261851D01*
X0280412Y0262602D02*
X0280412Y0260350D01*
X0282664Y0260350D01*
X0283415Y0261101D01*
X0282664Y0263353D02*
X0281163Y0263353D01*
X0280412Y0262602D01*
X0278811Y0263353D02*
X0278811Y0260350D01*
X0278811Y0263353D02*
X0276559Y0263353D01*
X0275808Y0262602D01*
X0275808Y0260350D01*
X0281897Y0257604D02*
X0281897Y0256854D01*
X0281897Y0255353D02*
X0281897Y0252350D01*
X0282647Y0252350D02*
X0281146Y0252350D01*
X0279578Y0250849D02*
X0278077Y0252350D01*
X0278827Y0252350D01*
X0278827Y0253101D01*
X0278077Y0253101D01*
X0278077Y0252350D01*
X0281897Y0255353D02*
X0282647Y0255353D01*
X0284249Y0254602D02*
X0284999Y0255353D01*
X0286501Y0255353D01*
X0287251Y0254602D01*
X0287251Y0253101D01*
X0286501Y0252350D01*
X0284999Y0252350D01*
X0284249Y0253101D01*
X0284249Y0254602D01*
X0288853Y0256854D02*
X0290354Y0256854D01*
X0289603Y0256854D02*
X0289603Y0253101D01*
X0290354Y0252350D01*
X0291105Y0252350D01*
X0291855Y0253101D01*
X0293423Y0253101D02*
X0294174Y0253101D01*
X0294174Y0252350D01*
X0293423Y0252350D01*
X0293423Y0253101D01*
X0293423Y0252350D02*
X0294924Y0250849D01*
X0296526Y0252350D02*
X0296526Y0255353D01*
X0299528Y0255353D02*
X0299528Y0253101D01*
X0298778Y0252350D01*
X0296526Y0252350D01*
X0301113Y0255353D02*
X0301864Y0255353D01*
X0303365Y0253851D01*
X0303365Y0252350D02*
X0303365Y0255353D01*
X0304966Y0254602D02*
X0304966Y0253851D01*
X0307969Y0253851D01*
X0307969Y0253101D02*
X0307969Y0254602D01*
X0307218Y0255353D01*
X0305717Y0255353D01*
X0304966Y0254602D01*
X0305717Y0252350D02*
X0307218Y0252350D01*
X0307969Y0253101D01*
X0311822Y0247353D02*
X0312573Y0247353D01*
X0320246Y0254602D02*
X0319495Y0255353D01*
X0321847Y0256103D02*
X0322598Y0256854D01*
X0324099Y0256854D01*
X0324850Y0256103D01*
X0324850Y0255353D01*
X0324099Y0254602D01*
X0288019Y0262602D02*
X0287268Y0263353D01*
X0182896Y0263353D02*
X0182145Y0262602D01*
X0180644Y0262602D01*
X0179893Y0261851D01*
X0179893Y0261101D01*
X0179893Y0264103D02*
X0180644Y0264854D01*
X0182145Y0264854D01*
X0182896Y0264103D01*
X0182896Y0263353D01*
X0182128Y0255353D02*
X0181378Y0255353D01*
X0180627Y0254602D01*
X0179876Y0255353D01*
X0179126Y0254602D01*
X0179126Y0252350D01*
X0180627Y0252350D02*
X0180627Y0254602D01*
X0182128Y0255353D02*
X0182128Y0252350D01*
X0144530Y0260350D02*
X0144530Y0263353D01*
X0136856Y0262602D02*
X0133854Y0262602D01*
X0137657Y0254602D02*
X0139158Y0254602D01*
X0139959Y0248854D02*
X0140710Y0248103D01*
X0140710Y0244350D01*
X0120743Y0247353D02*
X0119992Y0246602D01*
X0118491Y0246602D01*
X0117740Y0245851D01*
X0117740Y0245101D01*
X0117740Y0248103D02*
X0118491Y0248854D01*
X0119992Y0248854D01*
X0120743Y0248103D01*
X0120743Y0247353D01*
X0116139Y0254602D02*
X0114638Y0254602D01*
X0113070Y0254602D02*
X0112319Y0255353D01*
X0110818Y0255353D01*
X0110067Y0254602D01*
X0110067Y0253851D01*
X0113070Y0253851D01*
X0113070Y0253101D02*
X0113070Y0254602D01*
X0113070Y0253101D02*
X0112319Y0252350D01*
X0110818Y0252350D01*
X0110784Y0247353D02*
X0109283Y0247353D01*
X0108532Y0246602D01*
X0108532Y0244350D01*
X0110784Y0244350D01*
X0111535Y0245101D01*
X0110784Y0245851D01*
X0108532Y0245851D01*
X0106931Y0245851D02*
X0105430Y0247353D01*
X0104679Y0247353D01*
X0103094Y0248854D02*
X0103094Y0244350D01*
X0103094Y0245851D02*
X0100842Y0247353D01*
X0099258Y0246602D02*
X0097756Y0246602D01*
X0098507Y0248103D02*
X0097756Y0248854D01*
X0098507Y0248103D02*
X0098507Y0244350D01*
X0100842Y0244350D02*
X0103094Y0245851D01*
X0106931Y0244350D02*
X0106931Y0247353D01*
X0096188Y0247353D02*
X0096188Y0245101D01*
X0095438Y0244350D01*
X0093186Y0244350D01*
X0093186Y0247353D01*
X0091585Y0247353D02*
X0089333Y0247353D01*
X0088582Y0246602D01*
X0088582Y0244350D01*
X0091585Y0244350D02*
X0091585Y0247353D01*
X0097006Y0258849D02*
X0097756Y0258849D01*
X0097006Y0258849D02*
X0096255Y0259599D01*
X0096255Y0263353D01*
X0099258Y0263353D02*
X0099258Y0261101D01*
X0098507Y0260350D01*
X0096255Y0260350D01*
X0100859Y0261101D02*
X0100859Y0262602D01*
X0101610Y0263353D01*
X0103862Y0263353D01*
X0103862Y0264854D02*
X0103862Y0260350D01*
X0101610Y0260350D01*
X0100859Y0261101D01*
X0105463Y0260350D02*
X0108466Y0260350D01*
X0105463Y0263353D01*
X0108466Y0263353D01*
X0110067Y0263353D02*
X0110067Y0260350D01*
X0110067Y0262602D02*
X0113070Y0262602D01*
X0113070Y0263353D02*
X0111568Y0264854D01*
X0110067Y0263353D01*
X0113070Y0263353D02*
X0113070Y0260350D01*
D13*
X0371913Y0016721D02*
X0372848Y0017655D01*
X0375650Y0017655D01*
X0375650Y0012050D01*
X0375650Y0013918D02*
X0372848Y0013918D01*
X0371913Y0014852D01*
X0371913Y0016721D01*
D14*
X0368850Y0035100D02*
X0358850Y0035100D01*
X0358850Y0045100D01*
X0368850Y0045100D01*
X0378850Y0045100D01*
X0388850Y0045100D01*
X0388850Y0035100D01*
X0378850Y0035100D01*
X0368850Y0035100D01*
X0368850Y0045100D01*
X0378850Y0045100D02*
X0378850Y0035100D01*
X0241931Y0087147D02*
X0241931Y0093053D01*
X0241931Y0093052D02*
X0241923Y0093115D01*
X0241912Y0093177D01*
X0241897Y0093239D01*
X0241879Y0093299D01*
X0241857Y0093359D01*
X0241832Y0093417D01*
X0241803Y0093473D01*
X0241771Y0093528D01*
X0241736Y0093580D01*
X0241698Y0093631D01*
X0241658Y0093679D01*
X0241614Y0093725D01*
X0241568Y0093768D01*
X0241519Y0093809D01*
X0241468Y0093847D01*
X0241416Y0093881D01*
X0241361Y0093913D01*
X0241304Y0093941D01*
X0241246Y0093966D01*
X0241186Y0093987D01*
X0241126Y0094005D01*
X0241064Y0094019D01*
X0241002Y0094030D01*
X0240939Y0094037D01*
X0240876Y0094041D01*
X0240813Y0094040D01*
X0240750Y0094037D01*
X0234450Y0094037D01*
X0234387Y0094040D01*
X0234324Y0094041D01*
X0234261Y0094037D01*
X0234198Y0094030D01*
X0234136Y0094019D01*
X0234074Y0094005D01*
X0234014Y0093987D01*
X0233954Y0093966D01*
X0233896Y0093941D01*
X0233839Y0093913D01*
X0233784Y0093881D01*
X0233732Y0093847D01*
X0233681Y0093809D01*
X0233632Y0093768D01*
X0233586Y0093725D01*
X0233542Y0093679D01*
X0233502Y0093631D01*
X0233464Y0093580D01*
X0233429Y0093528D01*
X0233397Y0093473D01*
X0233368Y0093417D01*
X0233343Y0093359D01*
X0233321Y0093299D01*
X0233303Y0093239D01*
X0233288Y0093177D01*
X0233277Y0093115D01*
X0233269Y0093052D01*
X0233269Y0093053D02*
X0233269Y0087147D01*
X0233269Y0087148D02*
X0233277Y0087085D01*
X0233288Y0087023D01*
X0233303Y0086961D01*
X0233321Y0086901D01*
X0233343Y0086841D01*
X0233368Y0086783D01*
X0233397Y0086727D01*
X0233429Y0086672D01*
X0233464Y0086620D01*
X0233502Y0086569D01*
X0233542Y0086521D01*
X0233586Y0086475D01*
X0233632Y0086432D01*
X0233681Y0086391D01*
X0233732Y0086353D01*
X0233784Y0086319D01*
X0233839Y0086287D01*
X0233896Y0086259D01*
X0233954Y0086234D01*
X0234014Y0086213D01*
X0234074Y0086195D01*
X0234136Y0086181D01*
X0234198Y0086170D01*
X0234261Y0086163D01*
X0234324Y0086159D01*
X0234387Y0086160D01*
X0234450Y0086163D01*
X0240750Y0086163D01*
X0240813Y0086159D01*
X0240876Y0086158D01*
X0240939Y0086162D01*
X0241002Y0086169D01*
X0241064Y0086180D01*
X0241126Y0086194D01*
X0241187Y0086212D01*
X0241246Y0086233D01*
X0241304Y0086258D01*
X0241361Y0086286D01*
X0241416Y0086318D01*
X0241469Y0086352D01*
X0241520Y0086390D01*
X0241568Y0086430D01*
X0241614Y0086474D01*
X0241658Y0086519D01*
X0241699Y0086568D01*
X0241737Y0086618D01*
X0241772Y0086671D01*
X0241803Y0086726D01*
X0241832Y0086782D01*
X0241857Y0086840D01*
X0241879Y0086900D01*
X0241897Y0086960D01*
X0241912Y0087022D01*
X0241923Y0087084D01*
X0241931Y0087147D01*
X0082100Y0085600D02*
X0082100Y0079600D01*
X0082098Y0079540D01*
X0082093Y0079479D01*
X0082084Y0079420D01*
X0082071Y0079361D01*
X0082055Y0079302D01*
X0082035Y0079245D01*
X0082012Y0079190D01*
X0081985Y0079135D01*
X0081956Y0079083D01*
X0081923Y0079032D01*
X0081887Y0078983D01*
X0081849Y0078937D01*
X0081807Y0078893D01*
X0081763Y0078851D01*
X0081717Y0078813D01*
X0081668Y0078777D01*
X0081617Y0078744D01*
X0081565Y0078715D01*
X0081510Y0078688D01*
X0081455Y0078665D01*
X0081398Y0078645D01*
X0081339Y0078629D01*
X0081280Y0078616D01*
X0081221Y0078607D01*
X0081160Y0078602D01*
X0081100Y0078600D01*
X0064100Y0078600D01*
X0064040Y0078602D01*
X0063979Y0078607D01*
X0063920Y0078616D01*
X0063861Y0078629D01*
X0063802Y0078645D01*
X0063745Y0078665D01*
X0063690Y0078688D01*
X0063635Y0078715D01*
X0063583Y0078744D01*
X0063532Y0078777D01*
X0063483Y0078813D01*
X0063437Y0078851D01*
X0063393Y0078893D01*
X0063351Y0078937D01*
X0063313Y0078983D01*
X0063277Y0079032D01*
X0063244Y0079083D01*
X0063215Y0079135D01*
X0063188Y0079190D01*
X0063165Y0079245D01*
X0063145Y0079302D01*
X0063129Y0079361D01*
X0063116Y0079420D01*
X0063107Y0079479D01*
X0063102Y0079540D01*
X0063100Y0079600D01*
X0063100Y0085600D01*
X0063102Y0085660D01*
X0063107Y0085721D01*
X0063116Y0085780D01*
X0063129Y0085839D01*
X0063145Y0085898D01*
X0063165Y0085955D01*
X0063188Y0086010D01*
X0063215Y0086065D01*
X0063244Y0086117D01*
X0063277Y0086168D01*
X0063313Y0086217D01*
X0063351Y0086263D01*
X0063393Y0086307D01*
X0063437Y0086349D01*
X0063483Y0086387D01*
X0063532Y0086423D01*
X0063583Y0086456D01*
X0063635Y0086485D01*
X0063690Y0086512D01*
X0063745Y0086535D01*
X0063802Y0086555D01*
X0063861Y0086571D01*
X0063920Y0086584D01*
X0063979Y0086593D01*
X0064040Y0086598D01*
X0064100Y0086600D01*
X0081100Y0086600D01*
X0081160Y0086598D01*
X0081221Y0086593D01*
X0081280Y0086584D01*
X0081339Y0086571D01*
X0081398Y0086555D01*
X0081455Y0086535D01*
X0081510Y0086512D01*
X0081565Y0086485D01*
X0081617Y0086456D01*
X0081668Y0086423D01*
X0081717Y0086387D01*
X0081763Y0086349D01*
X0081807Y0086307D01*
X0081849Y0086263D01*
X0081887Y0086217D01*
X0081923Y0086168D01*
X0081956Y0086117D01*
X0081985Y0086065D01*
X0082012Y0086010D01*
X0082035Y0085955D01*
X0082055Y0085898D01*
X0082071Y0085839D01*
X0082084Y0085780D01*
X0082093Y0085721D01*
X0082098Y0085660D01*
X0082100Y0085600D01*
X0081100Y0098600D02*
X0064100Y0098600D01*
X0064040Y0098602D01*
X0063979Y0098607D01*
X0063920Y0098616D01*
X0063861Y0098629D01*
X0063802Y0098645D01*
X0063745Y0098665D01*
X0063690Y0098688D01*
X0063635Y0098715D01*
X0063583Y0098744D01*
X0063532Y0098777D01*
X0063483Y0098813D01*
X0063437Y0098851D01*
X0063393Y0098893D01*
X0063351Y0098937D01*
X0063313Y0098983D01*
X0063277Y0099032D01*
X0063244Y0099083D01*
X0063215Y0099135D01*
X0063188Y0099190D01*
X0063165Y0099245D01*
X0063145Y0099302D01*
X0063129Y0099361D01*
X0063116Y0099420D01*
X0063107Y0099479D01*
X0063102Y0099540D01*
X0063100Y0099600D01*
X0063100Y0105600D01*
X0063102Y0105660D01*
X0063107Y0105721D01*
X0063116Y0105780D01*
X0063129Y0105839D01*
X0063145Y0105898D01*
X0063165Y0105955D01*
X0063188Y0106010D01*
X0063215Y0106065D01*
X0063244Y0106117D01*
X0063277Y0106168D01*
X0063313Y0106217D01*
X0063351Y0106263D01*
X0063393Y0106307D01*
X0063437Y0106349D01*
X0063483Y0106387D01*
X0063532Y0106423D01*
X0063583Y0106456D01*
X0063635Y0106485D01*
X0063690Y0106512D01*
X0063745Y0106535D01*
X0063802Y0106555D01*
X0063861Y0106571D01*
X0063920Y0106584D01*
X0063979Y0106593D01*
X0064040Y0106598D01*
X0064100Y0106600D01*
X0081100Y0106600D01*
X0081160Y0106598D01*
X0081221Y0106593D01*
X0081280Y0106584D01*
X0081339Y0106571D01*
X0081398Y0106555D01*
X0081455Y0106535D01*
X0081510Y0106512D01*
X0081565Y0106485D01*
X0081617Y0106456D01*
X0081668Y0106423D01*
X0081717Y0106387D01*
X0081763Y0106349D01*
X0081807Y0106307D01*
X0081849Y0106263D01*
X0081887Y0106217D01*
X0081923Y0106168D01*
X0081956Y0106117D01*
X0081985Y0106065D01*
X0082012Y0106010D01*
X0082035Y0105955D01*
X0082055Y0105898D01*
X0082071Y0105839D01*
X0082084Y0105780D01*
X0082093Y0105721D01*
X0082098Y0105660D01*
X0082100Y0105600D01*
X0082100Y0099600D01*
X0082098Y0099540D01*
X0082093Y0099479D01*
X0082084Y0099420D01*
X0082071Y0099361D01*
X0082055Y0099302D01*
X0082035Y0099245D01*
X0082012Y0099190D01*
X0081985Y0099135D01*
X0081956Y0099083D01*
X0081923Y0099032D01*
X0081887Y0098983D01*
X0081849Y0098937D01*
X0081807Y0098893D01*
X0081763Y0098851D01*
X0081717Y0098813D01*
X0081668Y0098777D01*
X0081617Y0098744D01*
X0081565Y0098715D01*
X0081510Y0098688D01*
X0081455Y0098665D01*
X0081398Y0098645D01*
X0081339Y0098629D01*
X0081280Y0098616D01*
X0081221Y0098607D01*
X0081160Y0098602D01*
X0081100Y0098600D01*
X0081100Y0118600D02*
X0064100Y0118600D01*
X0064040Y0118602D01*
X0063979Y0118607D01*
X0063920Y0118616D01*
X0063861Y0118629D01*
X0063802Y0118645D01*
X0063745Y0118665D01*
X0063690Y0118688D01*
X0063635Y0118715D01*
X0063583Y0118744D01*
X0063532Y0118777D01*
X0063483Y0118813D01*
X0063437Y0118851D01*
X0063393Y0118893D01*
X0063351Y0118937D01*
X0063313Y0118983D01*
X0063277Y0119032D01*
X0063244Y0119083D01*
X0063215Y0119135D01*
X0063188Y0119190D01*
X0063165Y0119245D01*
X0063145Y0119302D01*
X0063129Y0119361D01*
X0063116Y0119420D01*
X0063107Y0119479D01*
X0063102Y0119540D01*
X0063100Y0119600D01*
X0063100Y0125600D01*
X0063102Y0125660D01*
X0063107Y0125721D01*
X0063116Y0125780D01*
X0063129Y0125839D01*
X0063145Y0125898D01*
X0063165Y0125955D01*
X0063188Y0126010D01*
X0063215Y0126065D01*
X0063244Y0126117D01*
X0063277Y0126168D01*
X0063313Y0126217D01*
X0063351Y0126263D01*
X0063393Y0126307D01*
X0063437Y0126349D01*
X0063483Y0126387D01*
X0063532Y0126423D01*
X0063583Y0126456D01*
X0063635Y0126485D01*
X0063690Y0126512D01*
X0063745Y0126535D01*
X0063802Y0126555D01*
X0063861Y0126571D01*
X0063920Y0126584D01*
X0063979Y0126593D01*
X0064040Y0126598D01*
X0064100Y0126600D01*
X0081100Y0126600D01*
X0081160Y0126598D01*
X0081221Y0126593D01*
X0081280Y0126584D01*
X0081339Y0126571D01*
X0081398Y0126555D01*
X0081455Y0126535D01*
X0081510Y0126512D01*
X0081565Y0126485D01*
X0081617Y0126456D01*
X0081668Y0126423D01*
X0081717Y0126387D01*
X0081763Y0126349D01*
X0081807Y0126307D01*
X0081849Y0126263D01*
X0081887Y0126217D01*
X0081923Y0126168D01*
X0081956Y0126117D01*
X0081985Y0126065D01*
X0082012Y0126010D01*
X0082035Y0125955D01*
X0082055Y0125898D01*
X0082071Y0125839D01*
X0082084Y0125780D01*
X0082093Y0125721D01*
X0082098Y0125660D01*
X0082100Y0125600D01*
X0082100Y0119600D01*
X0082098Y0119540D01*
X0082093Y0119479D01*
X0082084Y0119420D01*
X0082071Y0119361D01*
X0082055Y0119302D01*
X0082035Y0119245D01*
X0082012Y0119190D01*
X0081985Y0119135D01*
X0081956Y0119083D01*
X0081923Y0119032D01*
X0081887Y0118983D01*
X0081849Y0118937D01*
X0081807Y0118893D01*
X0081763Y0118851D01*
X0081717Y0118813D01*
X0081668Y0118777D01*
X0081617Y0118744D01*
X0081565Y0118715D01*
X0081510Y0118688D01*
X0081455Y0118665D01*
X0081398Y0118645D01*
X0081339Y0118629D01*
X0081280Y0118616D01*
X0081221Y0118607D01*
X0081160Y0118602D01*
X0081100Y0118600D01*
X0081100Y0138600D02*
X0064100Y0138600D01*
X0064040Y0138602D01*
X0063979Y0138607D01*
X0063920Y0138616D01*
X0063861Y0138629D01*
X0063802Y0138645D01*
X0063745Y0138665D01*
X0063690Y0138688D01*
X0063635Y0138715D01*
X0063583Y0138744D01*
X0063532Y0138777D01*
X0063483Y0138813D01*
X0063437Y0138851D01*
X0063393Y0138893D01*
X0063351Y0138937D01*
X0063313Y0138983D01*
X0063277Y0139032D01*
X0063244Y0139083D01*
X0063215Y0139135D01*
X0063188Y0139190D01*
X0063165Y0139245D01*
X0063145Y0139302D01*
X0063129Y0139361D01*
X0063116Y0139420D01*
X0063107Y0139479D01*
X0063102Y0139540D01*
X0063100Y0139600D01*
X0063100Y0145600D01*
X0063102Y0145660D01*
X0063107Y0145721D01*
X0063116Y0145780D01*
X0063129Y0145839D01*
X0063145Y0145898D01*
X0063165Y0145955D01*
X0063188Y0146010D01*
X0063215Y0146065D01*
X0063244Y0146117D01*
X0063277Y0146168D01*
X0063313Y0146217D01*
X0063351Y0146263D01*
X0063393Y0146307D01*
X0063437Y0146349D01*
X0063483Y0146387D01*
X0063532Y0146423D01*
X0063583Y0146456D01*
X0063635Y0146485D01*
X0063690Y0146512D01*
X0063745Y0146535D01*
X0063802Y0146555D01*
X0063861Y0146571D01*
X0063920Y0146584D01*
X0063979Y0146593D01*
X0064040Y0146598D01*
X0064100Y0146600D01*
X0081100Y0146600D01*
X0081160Y0146598D01*
X0081221Y0146593D01*
X0081280Y0146584D01*
X0081339Y0146571D01*
X0081398Y0146555D01*
X0081455Y0146535D01*
X0081510Y0146512D01*
X0081565Y0146485D01*
X0081617Y0146456D01*
X0081668Y0146423D01*
X0081717Y0146387D01*
X0081763Y0146349D01*
X0081807Y0146307D01*
X0081849Y0146263D01*
X0081887Y0146217D01*
X0081923Y0146168D01*
X0081956Y0146117D01*
X0081985Y0146065D01*
X0082012Y0146010D01*
X0082035Y0145955D01*
X0082055Y0145898D01*
X0082071Y0145839D01*
X0082084Y0145780D01*
X0082093Y0145721D01*
X0082098Y0145660D01*
X0082100Y0145600D01*
X0082100Y0139600D01*
X0082098Y0139540D01*
X0082093Y0139479D01*
X0082084Y0139420D01*
X0082071Y0139361D01*
X0082055Y0139302D01*
X0082035Y0139245D01*
X0082012Y0139190D01*
X0081985Y0139135D01*
X0081956Y0139083D01*
X0081923Y0139032D01*
X0081887Y0138983D01*
X0081849Y0138937D01*
X0081807Y0138893D01*
X0081763Y0138851D01*
X0081717Y0138813D01*
X0081668Y0138777D01*
X0081617Y0138744D01*
X0081565Y0138715D01*
X0081510Y0138688D01*
X0081455Y0138665D01*
X0081398Y0138645D01*
X0081339Y0138629D01*
X0081280Y0138616D01*
X0081221Y0138607D01*
X0081160Y0138602D01*
X0081100Y0138600D01*
X0081100Y0158600D02*
X0064100Y0158600D01*
X0064040Y0158602D01*
X0063979Y0158607D01*
X0063920Y0158616D01*
X0063861Y0158629D01*
X0063802Y0158645D01*
X0063745Y0158665D01*
X0063690Y0158688D01*
X0063635Y0158715D01*
X0063583Y0158744D01*
X0063532Y0158777D01*
X0063483Y0158813D01*
X0063437Y0158851D01*
X0063393Y0158893D01*
X0063351Y0158937D01*
X0063313Y0158983D01*
X0063277Y0159032D01*
X0063244Y0159083D01*
X0063215Y0159135D01*
X0063188Y0159190D01*
X0063165Y0159245D01*
X0063145Y0159302D01*
X0063129Y0159361D01*
X0063116Y0159420D01*
X0063107Y0159479D01*
X0063102Y0159540D01*
X0063100Y0159600D01*
X0063100Y0165600D01*
X0063102Y0165660D01*
X0063107Y0165721D01*
X0063116Y0165780D01*
X0063129Y0165839D01*
X0063145Y0165898D01*
X0063165Y0165955D01*
X0063188Y0166010D01*
X0063215Y0166065D01*
X0063244Y0166117D01*
X0063277Y0166168D01*
X0063313Y0166217D01*
X0063351Y0166263D01*
X0063393Y0166307D01*
X0063437Y0166349D01*
X0063483Y0166387D01*
X0063532Y0166423D01*
X0063583Y0166456D01*
X0063635Y0166485D01*
X0063690Y0166512D01*
X0063745Y0166535D01*
X0063802Y0166555D01*
X0063861Y0166571D01*
X0063920Y0166584D01*
X0063979Y0166593D01*
X0064040Y0166598D01*
X0064100Y0166600D01*
X0081100Y0166600D01*
X0081160Y0166598D01*
X0081221Y0166593D01*
X0081280Y0166584D01*
X0081339Y0166571D01*
X0081398Y0166555D01*
X0081455Y0166535D01*
X0081510Y0166512D01*
X0081565Y0166485D01*
X0081617Y0166456D01*
X0081668Y0166423D01*
X0081717Y0166387D01*
X0081763Y0166349D01*
X0081807Y0166307D01*
X0081849Y0166263D01*
X0081887Y0166217D01*
X0081923Y0166168D01*
X0081956Y0166117D01*
X0081985Y0166065D01*
X0082012Y0166010D01*
X0082035Y0165955D01*
X0082055Y0165898D01*
X0082071Y0165839D01*
X0082084Y0165780D01*
X0082093Y0165721D01*
X0082098Y0165660D01*
X0082100Y0165600D01*
X0082100Y0159600D01*
X0082098Y0159540D01*
X0082093Y0159479D01*
X0082084Y0159420D01*
X0082071Y0159361D01*
X0082055Y0159302D01*
X0082035Y0159245D01*
X0082012Y0159190D01*
X0081985Y0159135D01*
X0081956Y0159083D01*
X0081923Y0159032D01*
X0081887Y0158983D01*
X0081849Y0158937D01*
X0081807Y0158893D01*
X0081763Y0158851D01*
X0081717Y0158813D01*
X0081668Y0158777D01*
X0081617Y0158744D01*
X0081565Y0158715D01*
X0081510Y0158688D01*
X0081455Y0158665D01*
X0081398Y0158645D01*
X0081339Y0158629D01*
X0081280Y0158616D01*
X0081221Y0158607D01*
X0081160Y0158602D01*
X0081100Y0158600D01*
X0081100Y0178600D02*
X0064100Y0178600D01*
X0064040Y0178602D01*
X0063979Y0178607D01*
X0063920Y0178616D01*
X0063861Y0178629D01*
X0063802Y0178645D01*
X0063745Y0178665D01*
X0063690Y0178688D01*
X0063635Y0178715D01*
X0063583Y0178744D01*
X0063532Y0178777D01*
X0063483Y0178813D01*
X0063437Y0178851D01*
X0063393Y0178893D01*
X0063351Y0178937D01*
X0063313Y0178983D01*
X0063277Y0179032D01*
X0063244Y0179083D01*
X0063215Y0179135D01*
X0063188Y0179190D01*
X0063165Y0179245D01*
X0063145Y0179302D01*
X0063129Y0179361D01*
X0063116Y0179420D01*
X0063107Y0179479D01*
X0063102Y0179540D01*
X0063100Y0179600D01*
X0063100Y0185600D01*
X0063102Y0185660D01*
X0063107Y0185721D01*
X0063116Y0185780D01*
X0063129Y0185839D01*
X0063145Y0185898D01*
X0063165Y0185955D01*
X0063188Y0186010D01*
X0063215Y0186065D01*
X0063244Y0186117D01*
X0063277Y0186168D01*
X0063313Y0186217D01*
X0063351Y0186263D01*
X0063393Y0186307D01*
X0063437Y0186349D01*
X0063483Y0186387D01*
X0063532Y0186423D01*
X0063583Y0186456D01*
X0063635Y0186485D01*
X0063690Y0186512D01*
X0063745Y0186535D01*
X0063802Y0186555D01*
X0063861Y0186571D01*
X0063920Y0186584D01*
X0063979Y0186593D01*
X0064040Y0186598D01*
X0064100Y0186600D01*
X0081100Y0186600D01*
X0081160Y0186598D01*
X0081221Y0186593D01*
X0081280Y0186584D01*
X0081339Y0186571D01*
X0081398Y0186555D01*
X0081455Y0186535D01*
X0081510Y0186512D01*
X0081565Y0186485D01*
X0081617Y0186456D01*
X0081668Y0186423D01*
X0081717Y0186387D01*
X0081763Y0186349D01*
X0081807Y0186307D01*
X0081849Y0186263D01*
X0081887Y0186217D01*
X0081923Y0186168D01*
X0081956Y0186117D01*
X0081985Y0186065D01*
X0082012Y0186010D01*
X0082035Y0185955D01*
X0082055Y0185898D01*
X0082071Y0185839D01*
X0082084Y0185780D01*
X0082093Y0185721D01*
X0082098Y0185660D01*
X0082100Y0185600D01*
X0082100Y0179600D01*
X0082098Y0179540D01*
X0082093Y0179479D01*
X0082084Y0179420D01*
X0082071Y0179361D01*
X0082055Y0179302D01*
X0082035Y0179245D01*
X0082012Y0179190D01*
X0081985Y0179135D01*
X0081956Y0179083D01*
X0081923Y0179032D01*
X0081887Y0178983D01*
X0081849Y0178937D01*
X0081807Y0178893D01*
X0081763Y0178851D01*
X0081717Y0178813D01*
X0081668Y0178777D01*
X0081617Y0178744D01*
X0081565Y0178715D01*
X0081510Y0178688D01*
X0081455Y0178665D01*
X0081398Y0178645D01*
X0081339Y0178629D01*
X0081280Y0178616D01*
X0081221Y0178607D01*
X0081160Y0178602D01*
X0081100Y0178600D01*
D15*
X0363850Y0070100D02*
X0363850Y0047600D01*
X0373850Y0047600D02*
X0373850Y0070100D01*
X0383850Y0070100D02*
X0383850Y0047600D01*
D16*
X0383850Y0046100D03*
X0373850Y0046100D03*
X0363850Y0046100D03*
D17*
X0363850Y0033100D03*
X0373850Y0033100D03*
X0383850Y0033100D03*
D18*
X0241289Y0095400D02*
X0241039Y0095150D01*
X0240789Y0095150D01*
X0240539Y0095400D01*
X0240539Y0096651D01*
X0240789Y0096651D02*
X0240289Y0096651D01*
X0239816Y0096651D02*
X0239065Y0096651D01*
X0238815Y0096401D01*
X0238815Y0095901D01*
X0239065Y0095650D01*
X0239816Y0095650D01*
X0239816Y0095150D02*
X0239816Y0096651D01*
X0238343Y0095901D02*
X0237592Y0095901D01*
X0237342Y0095650D01*
X0237342Y0095400D01*
X0237592Y0095150D01*
X0238093Y0095150D01*
X0238343Y0095400D01*
X0238343Y0095901D01*
X0237842Y0096401D01*
X0237342Y0096651D01*
D19*
X0212600Y0142600D03*
X0212100Y0142600D03*
X0211600Y0142600D03*
X0211100Y0142600D03*
X0210600Y0142600D03*
X0210100Y0142600D03*
X0209600Y0142600D03*
X0209100Y0142600D03*
X0208600Y0142600D03*
X0208100Y0142600D03*
X0207600Y0142600D03*
X0207100Y0142600D03*
X0206600Y0142600D03*
X0206100Y0142600D03*
X0205600Y0142600D03*
X0205100Y0142600D03*
X0204600Y0142600D03*
X0204100Y0142600D03*
X0203600Y0142600D03*
X0203100Y0142600D03*
X0202600Y0142600D03*
X0202100Y0142600D03*
X0201600Y0142600D03*
X0201100Y0142600D03*
X0200600Y0142600D03*
X0200100Y0142600D03*
X0199600Y0142600D03*
X0199100Y0142600D03*
X0198600Y0142600D03*
X0198100Y0142600D03*
X0197600Y0142600D03*
X0092600Y0142600D03*
X0092100Y0142600D03*
X0091600Y0142600D03*
X0091100Y0142600D03*
X0090600Y0142600D03*
X0090100Y0142600D03*
X0089600Y0142600D03*
X0089100Y0142600D03*
X0088600Y0142600D03*
X0088100Y0142600D03*
X0087600Y0142600D03*
X0087100Y0142600D03*
X0086600Y0142600D03*
X0086100Y0142600D03*
X0085600Y0142600D03*
X0085100Y0142600D03*
X0084600Y0142600D03*
X0084100Y0142600D03*
X0083600Y0142600D03*
X0083100Y0142600D03*
X0082600Y0142600D03*
X0082100Y0142600D03*
X0081600Y0142600D03*
D20*
X0130100Y0094600D03*
X0141600Y0190600D03*
X0114100Y0190600D03*
X0197100Y0190600D03*
D21*
X0197100Y0120350D03*
X0100600Y0120350D03*
D22*
X0132100Y0093350D03*
X0132600Y0093350D03*
X0112600Y0191850D03*
X0175100Y0191850D03*
X0196600Y0191850D03*
D23*
X0196600Y0154600D03*
X0146100Y0132100D03*
D24*
X0155600Y0128600D03*
X0156100Y0128600D03*
X0156600Y0128600D03*
X0157100Y0128600D03*
X0157600Y0128600D03*
X0158100Y0128600D03*
X0158600Y0128600D03*
X0159100Y0128600D03*
X0159600Y0128600D03*
X0160100Y0128600D03*
X0160600Y0128600D03*
X0161100Y0128600D03*
X0161600Y0128600D03*
X0162100Y0128600D03*
X0162600Y0128600D03*
X0163100Y0128600D03*
X0163600Y0128600D03*
X0164100Y0128600D03*
X0164600Y0128600D03*
X0165100Y0128600D03*
X0165600Y0128600D03*
X0166100Y0128600D03*
X0166600Y0128600D03*
X0167100Y0128600D03*
X0167600Y0128600D03*
X0168100Y0128600D03*
X0168600Y0128600D03*
X0169100Y0128600D03*
X0169600Y0128600D03*
X0170100Y0128600D03*
X0170600Y0128600D03*
X0171100Y0128600D03*
X0171600Y0128600D03*
X0172100Y0128600D03*
X0172600Y0128600D03*
X0173100Y0128600D03*
X0173600Y0128600D03*
X0174100Y0128600D03*
X0174600Y0128600D03*
X0175100Y0128600D03*
X0175600Y0128600D03*
X0176100Y0128600D03*
X0176600Y0128600D03*
X0177100Y0128600D03*
X0177600Y0128600D03*
X0178100Y0128600D03*
X0178600Y0128600D03*
X0179100Y0128600D03*
X0179600Y0128600D03*
X0180100Y0128600D03*
X0180600Y0128600D03*
X0181100Y0128600D03*
X0181600Y0128600D03*
X0182100Y0128600D03*
X0182600Y0128600D03*
X0183100Y0128600D03*
X0183600Y0128600D03*
X0184100Y0128600D03*
X0184600Y0128600D03*
X0185100Y0128600D03*
X0185600Y0128600D03*
X0186100Y0128600D03*
X0186600Y0128600D03*
X0187100Y0128600D03*
X0187600Y0128600D03*
X0188100Y0128600D03*
X0188600Y0128600D03*
X0189100Y0128600D03*
X0189600Y0128600D03*
X0190100Y0128600D03*
X0190600Y0128600D03*
X0191100Y0128600D03*
X0191600Y0128600D03*
X0192100Y0128600D03*
X0192600Y0128600D03*
X0193100Y0128600D03*
X0193600Y0128600D03*
X0194100Y0128600D03*
X0194600Y0128600D03*
X0195100Y0128600D03*
X0195600Y0128600D03*
X0196100Y0128600D03*
X0196600Y0128600D03*
X0187600Y0151100D03*
X0187100Y0151100D03*
X0186600Y0151100D03*
X0186100Y0151100D03*
X0185600Y0151100D03*
X0185100Y0151100D03*
X0184600Y0151100D03*
X0184100Y0151100D03*
X0183600Y0151100D03*
D25*
X0177600Y0193600D03*
X0194100Y0193600D03*
X0110600Y0193600D03*
X0139100Y0091600D03*
X0139600Y0091600D03*
X0140100Y0091600D03*
X0140600Y0091600D03*
X0141100Y0091600D03*
X0141600Y0091600D03*
X0142100Y0091600D03*
X0142600Y0091600D03*
X0143100Y0091600D03*
X0143600Y0091600D03*
X0144100Y0091600D03*
X0144600Y0091600D03*
X0145100Y0091600D03*
X0145600Y0091600D03*
X0146100Y0091600D03*
X0146600Y0091600D03*
X0147100Y0091600D03*
X0147600Y0091600D03*
X0148100Y0091600D03*
X0148600Y0091600D03*
X0149100Y0091600D03*
X0149600Y0091600D03*
X0150100Y0091600D03*
X0150600Y0091600D03*
X0151100Y0091600D03*
X0151600Y0091600D03*
X0152100Y0091600D03*
X0152600Y0091600D03*
X0153100Y0091600D03*
X0153600Y0091600D03*
X0154100Y0091600D03*
X0154600Y0091600D03*
X0155100Y0091600D03*
X0155600Y0091600D03*
X0156100Y0091600D03*
X0156600Y0091600D03*
X0157100Y0091600D03*
X0157600Y0091600D03*
X0158100Y0091600D03*
X0158600Y0091600D03*
X0159100Y0091600D03*
X0159600Y0091600D03*
X0160100Y0091600D03*
X0160600Y0091600D03*
X0161100Y0091600D03*
X0161600Y0091600D03*
X0162100Y0091600D03*
X0162600Y0091600D03*
X0163100Y0091600D03*
X0163600Y0091600D03*
X0164100Y0091600D03*
X0164600Y0091600D03*
X0165100Y0091600D03*
X0165600Y0091600D03*
X0166100Y0091600D03*
X0166600Y0091600D03*
X0167100Y0091600D03*
X0167600Y0091600D03*
X0168100Y0091600D03*
X0168600Y0091600D03*
X0169100Y0091600D03*
X0169600Y0091600D03*
X0170100Y0091600D03*
X0170600Y0091600D03*
X0171100Y0091600D03*
X0171600Y0091600D03*
X0172100Y0091600D03*
X0172600Y0091600D03*
X0173100Y0091600D03*
X0173600Y0091600D03*
X0174100Y0091600D03*
X0174600Y0091600D03*
X0175100Y0091600D03*
X0175600Y0091600D03*
X0176100Y0091600D03*
X0176600Y0091600D03*
X0177100Y0091600D03*
X0177600Y0091600D03*
X0178100Y0091600D03*
X0178600Y0091600D03*
X0179100Y0091600D03*
X0179600Y0091600D03*
X0180100Y0091600D03*
X0180600Y0091600D03*
X0181100Y0091600D03*
X0181600Y0091600D03*
X0182100Y0091600D03*
X0182600Y0091600D03*
X0183100Y0091600D03*
X0183600Y0091600D03*
X0184100Y0091600D03*
X0184600Y0091600D03*
X0185100Y0091600D03*
X0185600Y0091600D03*
X0186100Y0091600D03*
X0186600Y0091600D03*
X0187100Y0091600D03*
X0187600Y0091600D03*
X0188100Y0091600D03*
X0188600Y0091600D03*
X0189100Y0091600D03*
X0189600Y0091600D03*
X0190100Y0091600D03*
X0190600Y0091600D03*
X0191100Y0091600D03*
X0191600Y0091600D03*
X0192100Y0091600D03*
X0192600Y0091600D03*
X0193100Y0091600D03*
X0193600Y0091600D03*
X0194100Y0091600D03*
X0194600Y0091600D03*
X0195100Y0091600D03*
X0195600Y0091600D03*
X0196100Y0091600D03*
X0196600Y0091600D03*
D26*
X0133100Y0093100D03*
X0140100Y0192100D03*
X0175600Y0192100D03*
X0196100Y0192100D03*
D27*
X0196100Y0154100D03*
X0175600Y0154100D03*
X0146600Y0131600D03*
D28*
X0134600Y0092600D03*
X0134100Y0092600D03*
X0176100Y0192600D03*
X0195600Y0192600D03*
D29*
X0195600Y0153850D03*
D30*
X0195100Y0192850D03*
X0176600Y0192850D03*
X0139100Y0192850D03*
X0111600Y0192850D03*
X0135100Y0092350D03*
X0135600Y0092350D03*
D31*
X0147600Y0130850D03*
X0176600Y0153350D03*
X0195100Y0153350D03*
D32*
X0194600Y0193350D03*
X0177100Y0193350D03*
X0138600Y0193350D03*
X0138600Y0091850D03*
X0138100Y0091850D03*
X0137600Y0091850D03*
X0137100Y0091850D03*
D33*
X0148100Y0130600D03*
X0194600Y0153100D03*
D34*
X0194100Y0152600D03*
X0193600Y0152600D03*
X0178100Y0152600D03*
X0177600Y0152600D03*
X0149100Y0130100D03*
D35*
X0138100Y0193850D03*
X0178100Y0193850D03*
X0193100Y0193850D03*
X0193600Y0193850D03*
D36*
X0193100Y0152350D03*
X0178600Y0152350D03*
X0149600Y0129850D03*
D37*
X0137600Y0194100D03*
X0110100Y0194100D03*
X0178600Y0194100D03*
X0179100Y0194100D03*
X0192600Y0194100D03*
D38*
X0192600Y0152100D03*
X0192100Y0152100D03*
X0179600Y0152100D03*
X0179100Y0152100D03*
X0150600Y0129600D03*
X0150100Y0129600D03*
D39*
X0179600Y0194350D03*
X0191600Y0194350D03*
X0192100Y0194350D03*
D40*
X0191600Y0151850D03*
X0180100Y0151850D03*
X0151600Y0129350D03*
X0151100Y0129350D03*
D41*
X0137100Y0194600D03*
X0109600Y0194600D03*
X0180100Y0194600D03*
X0180600Y0194600D03*
X0191100Y0194600D03*
D42*
X0191100Y0151600D03*
X0190600Y0151600D03*
X0180600Y0151600D03*
X0152600Y0129100D03*
X0152100Y0129100D03*
D43*
X0181100Y0194850D03*
X0181600Y0194850D03*
X0182100Y0194850D03*
X0182600Y0194850D03*
X0189100Y0194850D03*
X0189600Y0194850D03*
X0190100Y0194850D03*
X0190600Y0194850D03*
X0109100Y0194850D03*
D44*
X0181100Y0151350D03*
X0181600Y0151350D03*
X0182100Y0151350D03*
X0182600Y0151350D03*
X0183100Y0151350D03*
X0188100Y0151350D03*
X0188600Y0151350D03*
X0189100Y0151350D03*
X0189600Y0151350D03*
X0190100Y0151350D03*
X0155100Y0128850D03*
X0154600Y0128850D03*
X0154100Y0128850D03*
X0153600Y0128850D03*
X0153100Y0128850D03*
D45*
X0136600Y0195100D03*
X0136100Y0195100D03*
X0135600Y0195100D03*
X0135100Y0195100D03*
X0134600Y0195100D03*
X0134100Y0195100D03*
X0133600Y0195100D03*
X0133100Y0195100D03*
X0132600Y0195100D03*
X0132100Y0195100D03*
X0131600Y0195100D03*
X0131100Y0195100D03*
X0130600Y0195100D03*
X0130100Y0195100D03*
X0129600Y0195100D03*
X0129100Y0195100D03*
X0128600Y0195100D03*
X0128100Y0195100D03*
X0127600Y0195100D03*
X0127100Y0195100D03*
X0126600Y0195100D03*
X0126100Y0195100D03*
X0125600Y0195100D03*
X0125100Y0195100D03*
X0124600Y0195100D03*
X0108600Y0195100D03*
X0108100Y0195100D03*
X0107600Y0195100D03*
X0107100Y0195100D03*
X0106600Y0195100D03*
X0106100Y0195100D03*
X0105600Y0195100D03*
X0105100Y0195100D03*
X0104600Y0195100D03*
X0104100Y0195100D03*
X0103600Y0195100D03*
X0103100Y0195100D03*
X0102600Y0195100D03*
X0102100Y0195100D03*
X0101600Y0195100D03*
X0101100Y0195100D03*
X0100600Y0195100D03*
X0100100Y0195100D03*
X0099600Y0195100D03*
X0099100Y0195100D03*
X0098600Y0195100D03*
X0098100Y0195100D03*
X0097600Y0195100D03*
X0097100Y0195100D03*
X0096600Y0195100D03*
X0096100Y0195100D03*
X0095600Y0195100D03*
X0095100Y0195100D03*
X0094600Y0195100D03*
X0094100Y0195100D03*
X0093600Y0195100D03*
X0093100Y0195100D03*
X0183100Y0195100D03*
X0183600Y0195100D03*
X0184100Y0195100D03*
X0184600Y0195100D03*
X0185100Y0195100D03*
X0186600Y0195100D03*
X0187100Y0195100D03*
X0187600Y0195100D03*
X0188100Y0195100D03*
X0188600Y0195100D03*
D46*
X0186100Y0195350D03*
X0185600Y0195350D03*
D47*
X0177100Y0152850D03*
X0148600Y0130350D03*
D48*
X0147100Y0131100D03*
X0176100Y0153600D03*
D49*
X0175100Y0154350D03*
D50*
X0174600Y0190850D03*
X0130600Y0094350D03*
D51*
X0145100Y0132850D03*
X0174600Y0155350D03*
D52*
X0174100Y0189600D03*
X0115100Y0189600D03*
X0128600Y0095600D03*
D53*
X0143100Y0135100D03*
X0174100Y0156600D03*
D54*
X0173600Y0177850D03*
X0173100Y0177850D03*
X0172600Y0177850D03*
X0172100Y0177850D03*
X0171600Y0177850D03*
X0171100Y0177850D03*
X0170600Y0177850D03*
X0170100Y0177850D03*
X0169600Y0177850D03*
X0169100Y0177850D03*
X0168600Y0177850D03*
X0168100Y0177850D03*
X0167600Y0177850D03*
X0167100Y0177850D03*
X0166600Y0177850D03*
X0166100Y0177850D03*
X0165600Y0177850D03*
X0165100Y0177850D03*
X0164600Y0177850D03*
X0164100Y0177850D03*
X0163600Y0177850D03*
X0163100Y0177850D03*
X0162600Y0177850D03*
X0162100Y0177850D03*
X0161600Y0177850D03*
X0161100Y0177850D03*
X0160600Y0177850D03*
X0160100Y0177850D03*
D55*
X0159600Y0178100D03*
X0159100Y0178100D03*
X0158600Y0178100D03*
X0158100Y0178100D03*
X0115600Y0107100D03*
D56*
X0157100Y0178350D03*
X0157600Y0178350D03*
D57*
X0156600Y0178600D03*
X0116100Y0106600D03*
D58*
X0155600Y0178850D03*
X0156100Y0178850D03*
D59*
X0155100Y0179100D03*
X0116600Y0106100D03*
D60*
X0117100Y0105850D03*
X0154600Y0179350D03*
D61*
X0154100Y0179600D03*
D62*
X0153600Y0180100D03*
D63*
X0153100Y0180600D03*
D64*
X0152600Y0180850D03*
X0118600Y0104350D03*
D65*
X0152100Y0181350D03*
D66*
X0151600Y0181850D03*
X0124100Y0181850D03*
D67*
X0151100Y0182350D03*
D68*
X0150600Y0182850D03*
X0121100Y0102350D03*
D69*
X0122600Y0183100D03*
X0150100Y0183100D03*
D70*
X0149600Y0183600D03*
X0122100Y0183600D03*
D71*
X0121600Y0184100D03*
X0149100Y0184100D03*
D72*
X0148600Y0184600D03*
X0123100Y0100600D03*
D73*
X0120600Y0184850D03*
X0148100Y0184850D03*
D74*
X0147600Y0185350D03*
X0120100Y0185350D03*
D75*
X0119600Y0185850D03*
X0147100Y0185850D03*
D76*
X0146600Y0186350D03*
X0125100Y0098850D03*
D77*
X0118600Y0186600D03*
X0146100Y0186600D03*
D78*
X0145600Y0187100D03*
X0118100Y0187100D03*
D79*
X0145600Y0132600D03*
D80*
X0145100Y0187600D03*
X0117600Y0187600D03*
D81*
X0144600Y0188100D03*
X0127100Y0097100D03*
D82*
X0144600Y0133600D03*
D83*
X0144100Y0188350D03*
X0116600Y0188350D03*
D84*
X0144100Y0134100D03*
D85*
X0143600Y0188850D03*
X0116100Y0188850D03*
D86*
X0143600Y0134850D03*
D87*
X0143100Y0189350D03*
X0115600Y0189350D03*
D88*
X0142600Y0189850D03*
X0129100Y0095350D03*
D89*
X0142600Y0135850D03*
D90*
X0129600Y0094850D03*
X0142100Y0190350D03*
D91*
X0142100Y0136350D03*
D92*
X0141600Y0137100D03*
D93*
X0141100Y0191100D03*
X0113600Y0191100D03*
D94*
X0141100Y0137850D03*
D95*
X0131600Y0093600D03*
X0140600Y0191600D03*
D96*
X0140600Y0138100D03*
D97*
X0140100Y0138850D03*
D98*
X0133600Y0092850D03*
X0139600Y0192350D03*
X0112100Y0192350D03*
D99*
X0126100Y0163100D03*
X0128100Y0159600D03*
X0130100Y0156100D03*
X0130600Y0155100D03*
X0132100Y0152600D03*
X0132600Y0151600D03*
X0134100Y0149100D03*
X0134600Y0148100D03*
X0136100Y0145600D03*
X0136600Y0144600D03*
X0138100Y0142100D03*
X0138600Y0141100D03*
X0139100Y0140600D03*
X0139600Y0139600D03*
D100*
X0137600Y0142850D03*
X0137100Y0143850D03*
X0135600Y0146350D03*
X0135100Y0147350D03*
X0133600Y0149850D03*
X0133100Y0150850D03*
X0131600Y0153350D03*
X0131100Y0154350D03*
X0129600Y0156850D03*
X0129100Y0157850D03*
X0128600Y0158850D03*
X0127600Y0160350D03*
X0127100Y0161350D03*
X0126600Y0162350D03*
X0125600Y0163850D03*
X0125100Y0164850D03*
X0124600Y0165850D03*
D101*
X0111100Y0193100D03*
X0136100Y0092100D03*
X0136600Y0092100D03*
D102*
X0131100Y0093850D03*
X0113100Y0191350D03*
D103*
X0128100Y0096100D03*
D104*
X0127600Y0096600D03*
D105*
X0126600Y0097350D03*
X0117100Y0187850D03*
D106*
X0126100Y0097850D03*
D107*
X0125600Y0098350D03*
D108*
X0124600Y0099100D03*
X0119100Y0186100D03*
D109*
X0124100Y0099600D03*
D110*
X0120100Y0103100D03*
X0123600Y0182100D03*
D111*
X0123600Y0100100D03*
D112*
X0120600Y0102600D03*
X0123100Y0182600D03*
D113*
X0121100Y0184350D03*
X0122600Y0100850D03*
D114*
X0122100Y0101350D03*
D115*
X0121600Y0101850D03*
D116*
X0119600Y0103600D03*
D117*
X0119100Y0104100D03*
D118*
X0118100Y0104850D03*
D119*
X0117600Y0105350D03*
D120*
X0115100Y0107600D03*
D121*
X0114600Y0190100D03*
D122*
X0114600Y0107850D03*
D123*
X0114100Y0108350D03*
D124*
X0113600Y0108850D03*
D125*
X0113100Y0109350D03*
D126*
X0112600Y0109600D03*
D127*
X0112100Y0110100D03*
D128*
X0111600Y0110600D03*
D129*
X0111100Y0111100D03*
D130*
X0110600Y0111350D03*
D131*
X0110100Y0111850D03*
D132*
X0109600Y0112350D03*
D133*
X0109100Y0112850D03*
D134*
X0108600Y0113350D03*
D135*
X0108100Y0113600D03*
D136*
X0107600Y0114100D03*
D137*
X0107100Y0114600D03*
D138*
X0106600Y0115100D03*
D139*
X0106100Y0115350D03*
D140*
X0105600Y0115850D03*
D141*
X0105100Y0116350D03*
D142*
X0104600Y0116850D03*
D143*
X0104100Y0117100D03*
D144*
X0103600Y0117600D03*
D145*
X0103100Y0118100D03*
D146*
X0102600Y0118600D03*
D147*
X0102100Y0118850D03*
D148*
X0101600Y0119350D03*
D149*
X0101100Y0119850D03*
D150*
X0100100Y0120600D03*
D151*
X0099600Y0121100D03*
D152*
X0099100Y0121600D03*
D153*
X0098600Y0122100D03*
D154*
X0098100Y0122350D03*
D155*
X0097600Y0122850D03*
D156*
X0097100Y0123350D03*
D157*
X0096600Y0123850D03*
D158*
X0096100Y0124100D03*
D159*
X0095600Y0124600D03*
D160*
X0095100Y0125100D03*
D161*
X0094600Y0125600D03*
D162*
X0094100Y0125850D03*
D163*
X0093600Y0126350D03*
D164*
X0093100Y0126850D03*
M02*
