G75*
%MOIN*%
%OFA0B0*%
%FSLAX25Y25*%
%IPPOS*%
%LPD*%
%AMOC8*
5,1,8,0,0,1.08239X$1,22.5*
%
%ADD10C,0.00000*%
%ADD11C,0.07000*%
%ADD12C,0.12661*%
%ADD13OC8,0.06600*%
%ADD14C,0.06000*%
%ADD15C,0.07400*%
%ADD16C,0.06600*%
%ADD17C,0.04800*%
%ADD18C,0.15811*%
%ADD19C,0.13843*%
%ADD20R,0.02500X0.05000*%
%ADD21R,0.04600X0.06300*%
%ADD22C,0.03200*%
%ADD23C,0.05600*%
%ADD24C,0.03762*%
%ADD25C,0.02400*%
%ADD26C,0.01000*%
%ADD27C,0.01600*%
%ADD28C,0.02700*%
D10*
X0033850Y0008850D02*
X0396350Y0008850D01*
X0396954Y0008857D01*
X0397558Y0008879D01*
X0398161Y0008916D01*
X0398763Y0008967D01*
X0399363Y0009032D01*
X0399962Y0009112D01*
X0400559Y0009207D01*
X0401153Y0009316D01*
X0401745Y0009439D01*
X0402333Y0009576D01*
X0402918Y0009728D01*
X0403499Y0009894D01*
X0404075Y0010074D01*
X0404648Y0010267D01*
X0405215Y0010475D01*
X0405777Y0010696D01*
X0406334Y0010930D01*
X0406885Y0011178D01*
X0407430Y0011439D01*
X0407968Y0011714D01*
X0408500Y0012001D01*
X0409024Y0012301D01*
X0409541Y0012613D01*
X0410050Y0012938D01*
X0410552Y0013275D01*
X0411045Y0013625D01*
X0411529Y0013986D01*
X0412005Y0014358D01*
X0412471Y0014742D01*
X0412928Y0015137D01*
X0413375Y0015543D01*
X0413813Y0015960D01*
X0414240Y0016387D01*
X0414657Y0016825D01*
X0415063Y0017272D01*
X0415458Y0017729D01*
X0415842Y0018195D01*
X0416214Y0018671D01*
X0416575Y0019155D01*
X0416925Y0019648D01*
X0417262Y0020150D01*
X0417587Y0020659D01*
X0417899Y0021176D01*
X0418199Y0021700D01*
X0418486Y0022232D01*
X0418761Y0022770D01*
X0419022Y0023315D01*
X0419270Y0023866D01*
X0419504Y0024423D01*
X0419725Y0024985D01*
X0419933Y0025552D01*
X0420126Y0026125D01*
X0420306Y0026701D01*
X0420472Y0027282D01*
X0420624Y0027867D01*
X0420761Y0028455D01*
X0420884Y0029047D01*
X0420993Y0029641D01*
X0421088Y0030238D01*
X0421168Y0030837D01*
X0421233Y0031437D01*
X0421284Y0032039D01*
X0421321Y0032642D01*
X0421343Y0033246D01*
X0421350Y0033850D01*
X0421350Y0117600D01*
X0380100Y0117600D01*
X0380100Y0237600D01*
X0421350Y0237600D01*
X0421350Y0246350D01*
X0421343Y0246954D01*
X0421321Y0247558D01*
X0421284Y0248161D01*
X0421233Y0248763D01*
X0421168Y0249363D01*
X0421088Y0249962D01*
X0420993Y0250559D01*
X0420884Y0251153D01*
X0420761Y0251745D01*
X0420624Y0252333D01*
X0420472Y0252918D01*
X0420306Y0253499D01*
X0420126Y0254075D01*
X0419933Y0254648D01*
X0419725Y0255215D01*
X0419504Y0255777D01*
X0419270Y0256334D01*
X0419022Y0256885D01*
X0418761Y0257430D01*
X0418486Y0257968D01*
X0418199Y0258500D01*
X0417899Y0259024D01*
X0417587Y0259541D01*
X0417262Y0260050D01*
X0416925Y0260552D01*
X0416575Y0261045D01*
X0416214Y0261529D01*
X0415842Y0262005D01*
X0415458Y0262471D01*
X0415063Y0262928D01*
X0414657Y0263375D01*
X0414240Y0263813D01*
X0413813Y0264240D01*
X0413375Y0264657D01*
X0412928Y0265063D01*
X0412471Y0265458D01*
X0412005Y0265842D01*
X0411529Y0266214D01*
X0411045Y0266575D01*
X0410552Y0266925D01*
X0410050Y0267262D01*
X0409541Y0267587D01*
X0409024Y0267899D01*
X0408500Y0268199D01*
X0407968Y0268486D01*
X0407430Y0268761D01*
X0406885Y0269022D01*
X0406334Y0269270D01*
X0405777Y0269504D01*
X0405215Y0269725D01*
X0404648Y0269933D01*
X0404075Y0270126D01*
X0403499Y0270306D01*
X0402918Y0270472D01*
X0402333Y0270624D01*
X0401745Y0270761D01*
X0401153Y0270884D01*
X0400559Y0270993D01*
X0399962Y0271088D01*
X0399363Y0271168D01*
X0398763Y0271233D01*
X0398161Y0271284D01*
X0397558Y0271321D01*
X0396954Y0271343D01*
X0396350Y0271350D01*
X0033850Y0271350D01*
X0033246Y0271343D01*
X0032642Y0271321D01*
X0032039Y0271284D01*
X0031437Y0271233D01*
X0030837Y0271168D01*
X0030238Y0271088D01*
X0029641Y0270993D01*
X0029047Y0270884D01*
X0028455Y0270761D01*
X0027867Y0270624D01*
X0027282Y0270472D01*
X0026701Y0270306D01*
X0026125Y0270126D01*
X0025552Y0269933D01*
X0024985Y0269725D01*
X0024423Y0269504D01*
X0023866Y0269270D01*
X0023315Y0269022D01*
X0022770Y0268761D01*
X0022232Y0268486D01*
X0021700Y0268199D01*
X0021176Y0267899D01*
X0020659Y0267587D01*
X0020150Y0267262D01*
X0019648Y0266925D01*
X0019155Y0266575D01*
X0018671Y0266214D01*
X0018195Y0265842D01*
X0017729Y0265458D01*
X0017272Y0265063D01*
X0016825Y0264657D01*
X0016387Y0264240D01*
X0015960Y0263813D01*
X0015543Y0263375D01*
X0015137Y0262928D01*
X0014742Y0262471D01*
X0014358Y0262005D01*
X0013986Y0261529D01*
X0013625Y0261045D01*
X0013275Y0260552D01*
X0012938Y0260050D01*
X0012613Y0259541D01*
X0012301Y0259024D01*
X0012001Y0258500D01*
X0011714Y0257968D01*
X0011439Y0257430D01*
X0011178Y0256885D01*
X0010930Y0256334D01*
X0010696Y0255777D01*
X0010475Y0255215D01*
X0010267Y0254648D01*
X0010074Y0254075D01*
X0009894Y0253499D01*
X0009728Y0252918D01*
X0009576Y0252333D01*
X0009439Y0251745D01*
X0009316Y0251153D01*
X0009207Y0250559D01*
X0009112Y0249962D01*
X0009032Y0249363D01*
X0008967Y0248763D01*
X0008916Y0248161D01*
X0008879Y0247558D01*
X0008857Y0246954D01*
X0008850Y0246350D01*
X0008850Y0033850D01*
X0008857Y0033246D01*
X0008879Y0032642D01*
X0008916Y0032039D01*
X0008967Y0031437D01*
X0009032Y0030837D01*
X0009112Y0030238D01*
X0009207Y0029641D01*
X0009316Y0029047D01*
X0009439Y0028455D01*
X0009576Y0027867D01*
X0009728Y0027282D01*
X0009894Y0026701D01*
X0010074Y0026125D01*
X0010267Y0025552D01*
X0010475Y0024985D01*
X0010696Y0024423D01*
X0010930Y0023866D01*
X0011178Y0023315D01*
X0011439Y0022770D01*
X0011714Y0022232D01*
X0012001Y0021700D01*
X0012301Y0021176D01*
X0012613Y0020659D01*
X0012938Y0020150D01*
X0013275Y0019648D01*
X0013625Y0019155D01*
X0013986Y0018671D01*
X0014358Y0018195D01*
X0014742Y0017729D01*
X0015137Y0017272D01*
X0015543Y0016825D01*
X0015960Y0016387D01*
X0016387Y0015960D01*
X0016825Y0015543D01*
X0017272Y0015137D01*
X0017729Y0014742D01*
X0018195Y0014358D01*
X0018671Y0013986D01*
X0019155Y0013625D01*
X0019648Y0013275D01*
X0020150Y0012938D01*
X0020659Y0012613D01*
X0021176Y0012301D01*
X0021700Y0012001D01*
X0022232Y0011714D01*
X0022770Y0011439D01*
X0023315Y0011178D01*
X0023866Y0010930D01*
X0024423Y0010696D01*
X0024985Y0010475D01*
X0025552Y0010267D01*
X0026125Y0010074D01*
X0026701Y0009894D01*
X0027282Y0009728D01*
X0027867Y0009576D01*
X0028455Y0009439D01*
X0029047Y0009316D01*
X0029641Y0009207D01*
X0030238Y0009112D01*
X0030837Y0009032D01*
X0031437Y0008967D01*
X0032039Y0008916D01*
X0032642Y0008879D01*
X0033246Y0008857D01*
X0033850Y0008850D01*
D11*
X0108555Y0067600D03*
X0113555Y0067600D03*
X0113555Y0067600D03*
X0118555Y0067600D03*
X0139145Y0067600D03*
X0210600Y0070100D03*
X0210600Y0080100D03*
X0210600Y0090100D03*
X0210600Y0100100D03*
X0210600Y0110100D03*
X0210600Y0060100D03*
X0210600Y0050100D03*
X0210600Y0040100D03*
X0210600Y0030100D03*
X0044923Y0106148D03*
X0044923Y0116148D03*
X0044923Y0126148D03*
X0044923Y0136148D03*
X0044923Y0146148D03*
X0044923Y0156148D03*
X0044923Y0166148D03*
X0044923Y0176148D03*
D12*
X0326163Y0110100D03*
X0326163Y0030100D03*
X0335494Y0248850D03*
X0384706Y0248850D03*
D13*
X0077600Y0227600D03*
X0077600Y0217600D03*
X0042600Y0217600D03*
X0042600Y0227600D03*
D14*
X0363850Y0030600D02*
X0363850Y0024600D01*
X0373850Y0024600D02*
X0373850Y0030600D01*
X0383850Y0030600D02*
X0383850Y0024600D01*
D15*
X0352600Y0047600D03*
X0352600Y0057600D03*
X0352600Y0067600D03*
X0352600Y0077600D03*
X0352600Y0087600D03*
X0352600Y0097600D03*
X0297600Y0132600D03*
X0287600Y0132600D03*
X0277600Y0132600D03*
X0267600Y0132600D03*
X0257600Y0132600D03*
X0247600Y0132600D03*
X0237600Y0132600D03*
X0227600Y0132600D03*
X0217600Y0132600D03*
X0207600Y0132600D03*
X0197600Y0132600D03*
X0187600Y0132600D03*
X0177600Y0132600D03*
X0167600Y0132600D03*
X0044150Y0066500D03*
X0044150Y0048700D03*
X0018550Y0048700D03*
X0018550Y0066500D03*
X0167600Y0222600D03*
X0177600Y0222600D03*
X0187600Y0222600D03*
X0197600Y0222600D03*
X0207600Y0222600D03*
X0217600Y0222600D03*
X0227600Y0222600D03*
X0237600Y0222600D03*
X0247600Y0222600D03*
X0257600Y0222600D03*
X0267600Y0222600D03*
X0277600Y0222600D03*
X0287600Y0222600D03*
X0297600Y0222600D03*
X0317600Y0190100D03*
X0327600Y0190100D03*
X0327600Y0162600D03*
X0317600Y0162600D03*
X0372600Y0157600D03*
X0372600Y0167600D03*
X0372600Y0192600D03*
X0372600Y0202600D03*
D16*
X0371911Y0248850D03*
X0360100Y0248850D03*
X0348289Y0248850D03*
X0262600Y0235100D03*
X0222600Y0235100D03*
X0212600Y0235100D03*
X0172600Y0235100D03*
X0123850Y0226350D03*
X0103850Y0226350D03*
X0103850Y0206350D03*
X0113850Y0206350D03*
X0123850Y0206350D03*
X0120100Y0193850D03*
X0106350Y0193850D03*
X0092600Y0193850D03*
X0133850Y0193850D03*
X0145100Y0177600D03*
X0145100Y0167600D03*
X0133850Y0153850D03*
X0120100Y0153850D03*
X0106350Y0153850D03*
X0092600Y0153850D03*
X0120100Y0112600D03*
X0120100Y0097600D03*
X0160100Y0097600D03*
X0167600Y0082600D03*
X0182600Y0093850D03*
X0197600Y0093850D03*
X0193850Y0112600D03*
X0183850Y0112600D03*
X0160100Y0112600D03*
X0090100Y0066350D03*
X0080100Y0066350D03*
X0070100Y0066350D03*
X0060100Y0066350D03*
X0167600Y0052600D03*
X0182600Y0053850D03*
X0197600Y0053850D03*
X0225100Y0015100D03*
X0265100Y0015100D03*
X0286350Y0015100D03*
X0296350Y0015100D03*
D17*
X0157600Y0225200D02*
X0157600Y0230000D01*
X0147600Y0230000D02*
X0147600Y0225200D01*
X0137600Y0225200D02*
X0137600Y0230000D01*
X0087500Y0250100D02*
X0082700Y0250100D01*
X0082700Y0260100D02*
X0087500Y0260100D01*
X0057500Y0260100D02*
X0052700Y0260100D01*
X0052700Y0250100D02*
X0057500Y0250100D01*
D18*
X0027600Y0252600D03*
X0027600Y0027600D03*
X0402600Y0027600D03*
X0402600Y0252600D03*
D19*
X0044647Y0198234D03*
X0044600Y0193200D03*
X0044700Y0089100D03*
X0044647Y0084061D03*
D20*
X0235978Y0090100D03*
X0239222Y0090100D03*
D21*
X0078600Y0082600D03*
X0072600Y0082600D03*
X0066600Y0082600D03*
X0066600Y0102600D03*
X0072600Y0102600D03*
X0078600Y0102600D03*
X0078600Y0122600D03*
X0072600Y0122600D03*
X0066600Y0122600D03*
X0066600Y0142600D03*
X0072600Y0142600D03*
X0078600Y0142600D03*
X0078600Y0162600D03*
X0072600Y0162600D03*
X0066600Y0162600D03*
X0066600Y0182600D03*
X0072600Y0182600D03*
X0078600Y0182600D03*
D22*
X0018364Y0018364D02*
X0022198Y0015307D01*
X0026617Y0013179D01*
X0031398Y0012088D01*
X0033850Y0011950D01*
X0219802Y0011950D01*
X0219000Y0013887D01*
X0219000Y0016313D01*
X0219929Y0018555D01*
X0221645Y0020271D01*
X0223887Y0021200D01*
X0226313Y0021200D01*
X0228555Y0020271D01*
X0230271Y0018555D01*
X0231200Y0016313D01*
X0231200Y0013887D01*
X0230398Y0011950D01*
X0259802Y0011950D01*
X0259000Y0013887D01*
X0259000Y0016313D01*
X0259929Y0018555D01*
X0261100Y0019727D01*
X0261100Y0053443D01*
X0251593Y0062950D01*
X0249948Y0063632D01*
X0248632Y0064948D01*
X0247919Y0066669D01*
X0247919Y0068531D01*
X0248632Y0070252D01*
X0249948Y0071568D01*
X0251669Y0072281D01*
X0253531Y0072281D01*
X0255252Y0071568D01*
X0256568Y0070252D01*
X0257250Y0068607D01*
X0268491Y0057366D01*
X0269100Y0055896D01*
X0269100Y0019727D01*
X0270271Y0018555D01*
X0271200Y0016313D01*
X0271200Y0013887D01*
X0270398Y0011950D01*
X0280201Y0011950D01*
X0280148Y0012042D01*
X0279802Y0012877D01*
X0279568Y0013751D01*
X0279450Y0014648D01*
X0279450Y0015100D01*
X0286350Y0015100D01*
X0286350Y0015100D01*
X0286350Y0022000D01*
X0286802Y0022000D01*
X0287699Y0021882D01*
X0288573Y0021648D01*
X0289408Y0021302D01*
X0290192Y0020849D01*
X0290909Y0020299D01*
X0291549Y0019659D01*
X0291867Y0019244D01*
X0292895Y0020271D01*
X0295137Y0021200D01*
X0297563Y0021200D01*
X0299805Y0020271D01*
X0301521Y0018555D01*
X0302450Y0016313D01*
X0302450Y0013887D01*
X0301648Y0011950D01*
X0396350Y0011950D01*
X0398802Y0012088D01*
X0403583Y0013179D01*
X0408002Y0015307D01*
X0411836Y0018364D01*
X0414893Y0022198D01*
X0417021Y0026617D01*
X0418112Y0031398D01*
X0418250Y0033850D01*
X0418250Y0114500D01*
X0379483Y0114500D01*
X0378344Y0114972D01*
X0377472Y0115844D01*
X0377000Y0116983D01*
X0377000Y0151775D01*
X0376664Y0151517D01*
X0375836Y0151039D01*
X0374952Y0150673D01*
X0374027Y0150425D01*
X0373078Y0150300D01*
X0372600Y0150300D01*
X0372600Y0157600D01*
X0372600Y0157600D01*
X0372600Y0157600D01*
X0365300Y0157600D01*
X0365300Y0158078D01*
X0365425Y0159027D01*
X0365673Y0159952D01*
X0366039Y0160836D01*
X0366517Y0161664D01*
X0367100Y0162424D01*
X0367776Y0163100D01*
X0367851Y0163157D01*
X0367090Y0163918D01*
X0366100Y0166307D01*
X0366100Y0168893D01*
X0367090Y0171282D01*
X0368918Y0173110D01*
X0371307Y0174100D01*
X0373893Y0174100D01*
X0376282Y0173110D01*
X0377000Y0172392D01*
X0377000Y0186775D01*
X0376664Y0186517D01*
X0375836Y0186039D01*
X0374952Y0185673D01*
X0374027Y0185425D01*
X0373078Y0185300D01*
X0372600Y0185300D01*
X0372600Y0192600D01*
X0372600Y0192600D01*
X0372600Y0192600D01*
X0365300Y0192600D01*
X0365300Y0193078D01*
X0365425Y0194027D01*
X0365673Y0194952D01*
X0366039Y0195836D01*
X0366517Y0196664D01*
X0367100Y0197424D01*
X0367776Y0198100D01*
X0367851Y0198157D01*
X0367408Y0198600D01*
X0336804Y0198600D01*
X0335334Y0199209D01*
X0334209Y0200334D01*
X0303443Y0231100D01*
X0267227Y0231100D01*
X0266055Y0229929D01*
X0263813Y0229000D01*
X0261387Y0229000D01*
X0259145Y0229929D01*
X0257429Y0231645D01*
X0256500Y0233887D01*
X0256500Y0236313D01*
X0257429Y0238555D01*
X0259145Y0240271D01*
X0261387Y0241200D01*
X0263813Y0241200D01*
X0266055Y0240271D01*
X0267227Y0239100D01*
X0305896Y0239100D01*
X0307366Y0238491D01*
X0339257Y0206600D01*
X0367408Y0206600D01*
X0368918Y0208110D01*
X0371307Y0209100D01*
X0373893Y0209100D01*
X0376282Y0208110D01*
X0377000Y0207392D01*
X0377000Y0238217D01*
X0377472Y0239356D01*
X0378344Y0240228D01*
X0379199Y0240582D01*
X0378951Y0240738D01*
X0378079Y0241434D01*
X0377290Y0242222D01*
X0376594Y0243094D01*
X0376001Y0244039D01*
X0375912Y0244224D01*
X0375366Y0243679D01*
X0373124Y0242750D01*
X0370698Y0242750D01*
X0368456Y0243679D01*
X0366740Y0245395D01*
X0366222Y0246644D01*
X0365610Y0245168D01*
X0363782Y0243340D01*
X0361393Y0242350D01*
X0358807Y0242350D01*
X0356418Y0243340D01*
X0354590Y0245168D01*
X0354194Y0246122D01*
X0353799Y0245168D01*
X0351971Y0243340D01*
X0349582Y0242350D01*
X0346996Y0242350D01*
X0344607Y0243340D01*
X0344087Y0243860D01*
X0343606Y0243094D01*
X0342910Y0242222D01*
X0342121Y0241434D01*
X0341249Y0240738D01*
X0340305Y0240145D01*
X0339300Y0239661D01*
X0338247Y0239292D01*
X0337160Y0239044D01*
X0336059Y0238920D01*
X0336059Y0248285D01*
X0334928Y0248285D01*
X0325564Y0248285D01*
X0325688Y0247184D01*
X0325936Y0246096D01*
X0326304Y0245044D01*
X0326788Y0244039D01*
X0327382Y0243094D01*
X0328077Y0242222D01*
X0328866Y0241434D01*
X0329738Y0240738D01*
X0330682Y0240145D01*
X0331687Y0239661D01*
X0332740Y0239292D01*
X0333828Y0239044D01*
X0334928Y0238920D01*
X0334928Y0248285D01*
X0334928Y0249415D01*
X0325564Y0249415D01*
X0325688Y0250516D01*
X0325936Y0251604D01*
X0326304Y0252656D01*
X0326788Y0253661D01*
X0327382Y0254606D01*
X0328077Y0255478D01*
X0328866Y0256266D01*
X0329738Y0256962D01*
X0330682Y0257555D01*
X0331687Y0258039D01*
X0332740Y0258408D01*
X0333828Y0258656D01*
X0334928Y0258780D01*
X0334928Y0249415D01*
X0336059Y0249415D01*
X0336059Y0258780D01*
X0337160Y0258656D01*
X0338247Y0258408D01*
X0339300Y0258039D01*
X0340305Y0257555D01*
X0341249Y0256962D01*
X0342121Y0256266D01*
X0342910Y0255478D01*
X0343606Y0254606D01*
X0344087Y0253840D01*
X0344607Y0254360D01*
X0346996Y0255350D01*
X0349582Y0255350D01*
X0351971Y0254360D01*
X0353799Y0252532D01*
X0354194Y0251578D01*
X0354590Y0252532D01*
X0356418Y0254360D01*
X0358807Y0255350D01*
X0361393Y0255350D01*
X0363782Y0254360D01*
X0365610Y0252532D01*
X0366222Y0251055D01*
X0366740Y0252305D01*
X0368456Y0254021D01*
X0370698Y0254950D01*
X0373124Y0254950D01*
X0375366Y0254021D01*
X0375912Y0253476D01*
X0376001Y0253661D01*
X0376594Y0254606D01*
X0377290Y0255478D01*
X0378079Y0256266D01*
X0378951Y0256962D01*
X0379895Y0257555D01*
X0380900Y0258039D01*
X0381953Y0258408D01*
X0383040Y0258656D01*
X0384141Y0258780D01*
X0384141Y0249415D01*
X0385272Y0249415D01*
X0385272Y0258780D01*
X0386372Y0258656D01*
X0387460Y0258408D01*
X0388513Y0258039D01*
X0389518Y0257555D01*
X0390462Y0256962D01*
X0391334Y0256266D01*
X0392123Y0255478D01*
X0392246Y0255323D01*
X0392624Y0256732D01*
X0394033Y0259173D01*
X0394619Y0259759D01*
X0394665Y0259833D01*
X0394781Y0259921D01*
X0396027Y0261167D01*
X0397742Y0262157D01*
X0397814Y0262211D01*
X0397858Y0262224D01*
X0398468Y0262576D01*
X0401191Y0263305D01*
X0404009Y0263305D01*
X0405360Y0262944D01*
X0405538Y0262927D01*
X0405674Y0262859D01*
X0406732Y0262576D01*
X0409173Y0261167D01*
X0411167Y0259173D01*
X0411646Y0258344D01*
X0411729Y0258252D01*
X0411791Y0258092D01*
X0412576Y0256732D01*
X0413305Y0254009D01*
X0413305Y0251191D01*
X0412576Y0248468D01*
X0411791Y0247108D01*
X0411729Y0246948D01*
X0411646Y0246856D01*
X0411167Y0246027D01*
X0409173Y0244033D01*
X0406732Y0242624D01*
X0405674Y0242341D01*
X0405538Y0242273D01*
X0405360Y0242256D01*
X0404009Y0241894D01*
X0401191Y0241894D01*
X0398468Y0242624D01*
X0397858Y0242976D01*
X0397814Y0242989D01*
X0397742Y0243043D01*
X0396027Y0244033D01*
X0394781Y0245279D01*
X0394665Y0245367D01*
X0394619Y0245441D01*
X0394186Y0245874D01*
X0393896Y0245044D01*
X0393412Y0244039D01*
X0392818Y0243094D01*
X0392123Y0242222D01*
X0391334Y0241434D01*
X0390462Y0240738D01*
X0390401Y0240700D01*
X0418250Y0240700D01*
X0418250Y0246350D01*
X0418112Y0248802D01*
X0417021Y0253583D01*
X0414893Y0258002D01*
X0411836Y0261836D01*
X0408002Y0264893D01*
X0403583Y0267021D01*
X0398802Y0268112D01*
X0396350Y0268250D01*
X0033850Y0268250D01*
X0031398Y0268112D01*
X0026617Y0267021D01*
X0022198Y0264893D01*
X0018364Y0261836D01*
X0015307Y0258002D01*
X0013179Y0253583D01*
X0012088Y0248802D01*
X0011950Y0246350D01*
X0011950Y0033850D01*
X0012088Y0031398D01*
X0013179Y0026617D01*
X0015307Y0022198D01*
X0018364Y0018364D01*
X0018182Y0018593D02*
X0021790Y0018593D01*
X0021027Y0019033D02*
X0022742Y0018043D01*
X0022814Y0017989D01*
X0022858Y0017976D01*
X0023468Y0017624D01*
X0026191Y0016894D01*
X0029009Y0016894D01*
X0030360Y0017256D01*
X0030538Y0017273D01*
X0030674Y0017341D01*
X0031732Y0017624D01*
X0034173Y0019033D01*
X0036167Y0021027D01*
X0036646Y0021856D01*
X0036729Y0021948D01*
X0036791Y0022108D01*
X0037576Y0023468D01*
X0038305Y0026191D01*
X0038305Y0029009D01*
X0037576Y0031732D01*
X0036791Y0033092D01*
X0036729Y0033252D01*
X0036646Y0033344D01*
X0036167Y0034173D01*
X0034173Y0036167D01*
X0031732Y0037576D01*
X0030674Y0037859D01*
X0030538Y0037927D01*
X0030360Y0037944D01*
X0029009Y0038305D01*
X0026191Y0038305D01*
X0023468Y0037576D01*
X0022858Y0037224D01*
X0022814Y0037211D01*
X0022742Y0037157D01*
X0021027Y0036167D01*
X0019781Y0034921D01*
X0019665Y0034833D01*
X0019619Y0034759D01*
X0019033Y0034173D01*
X0017624Y0031732D01*
X0016894Y0029009D01*
X0016894Y0027768D01*
X0016863Y0027600D01*
X0016894Y0027432D01*
X0016894Y0026191D01*
X0017624Y0023468D01*
X0019033Y0021027D01*
X0019619Y0020441D01*
X0019665Y0020367D01*
X0019781Y0020279D01*
X0021027Y0019033D01*
X0018592Y0021791D02*
X0015632Y0021791D01*
X0017216Y0024990D02*
X0013963Y0024990D01*
X0012820Y0028188D02*
X0016894Y0028188D01*
X0017531Y0031387D02*
X0012090Y0031387D01*
X0011950Y0034585D02*
X0019445Y0034585D01*
X0024243Y0037784D02*
X0011950Y0037784D01*
X0011950Y0040982D02*
X0150495Y0040982D01*
X0153570Y0037908D02*
X0154808Y0036670D01*
X0156425Y0036000D01*
X0205790Y0036000D01*
X0206690Y0035100D01*
X0205259Y0033669D01*
X0204300Y0031353D01*
X0204300Y0028847D01*
X0205259Y0026531D01*
X0207031Y0024759D01*
X0209347Y0023800D01*
X0211853Y0023800D01*
X0214169Y0024759D01*
X0215941Y0026531D01*
X0216900Y0028847D01*
X0216900Y0031353D01*
X0215941Y0033669D01*
X0214510Y0035100D01*
X0215941Y0036531D01*
X0216900Y0038847D01*
X0216900Y0041353D01*
X0215941Y0043669D01*
X0215047Y0044563D01*
X0215291Y0044750D01*
X0215950Y0045409D01*
X0216516Y0046147D01*
X0216981Y0046953D01*
X0217338Y0047813D01*
X0217579Y0048712D01*
X0217700Y0049635D01*
X0217700Y0050100D01*
X0217700Y0050565D01*
X0217579Y0051488D01*
X0217338Y0052387D01*
X0216981Y0053247D01*
X0216516Y0054053D01*
X0215950Y0054791D01*
X0215291Y0055450D01*
X0215047Y0055637D01*
X0215941Y0056531D01*
X0216900Y0058847D01*
X0216900Y0061353D01*
X0215941Y0063669D01*
X0214510Y0065100D01*
X0215941Y0066531D01*
X0216900Y0068847D01*
X0216900Y0071353D01*
X0215941Y0073669D01*
X0214510Y0075100D01*
X0215941Y0076531D01*
X0216900Y0078847D01*
X0216900Y0081353D01*
X0215941Y0083669D01*
X0214510Y0085100D01*
X0215510Y0086100D01*
X0232319Y0086100D01*
X0232355Y0086014D01*
X0233142Y0085226D01*
X0234171Y0084800D01*
X0241029Y0084800D01*
X0242058Y0085226D01*
X0242845Y0086014D01*
X0242881Y0086100D01*
X0280896Y0086100D01*
X0282366Y0086709D01*
X0298607Y0102950D01*
X0300252Y0103632D01*
X0301568Y0104948D01*
X0302281Y0106669D01*
X0302281Y0108531D01*
X0301568Y0110252D01*
X0300252Y0111568D01*
X0298531Y0112281D01*
X0296669Y0112281D01*
X0294948Y0111568D01*
X0293632Y0110252D01*
X0292950Y0108607D01*
X0278443Y0094100D01*
X0242881Y0094100D01*
X0242845Y0094186D01*
X0242058Y0094974D01*
X0241029Y0095400D01*
X0234171Y0095400D01*
X0233142Y0094974D01*
X0232355Y0094186D01*
X0232319Y0094100D01*
X0215510Y0094100D01*
X0214510Y0095100D01*
X0215941Y0096531D01*
X0216900Y0098847D01*
X0216900Y0101353D01*
X0215941Y0103669D01*
X0214510Y0105100D01*
X0215941Y0106531D01*
X0216900Y0108847D01*
X0216900Y0111353D01*
X0215941Y0113669D01*
X0214169Y0115441D01*
X0211853Y0116400D01*
X0209347Y0116400D01*
X0207031Y0115441D01*
X0205259Y0113669D01*
X0204300Y0111353D01*
X0204300Y0108847D01*
X0205259Y0106531D01*
X0206690Y0105100D01*
X0205259Y0103669D01*
X0204300Y0101353D01*
X0204300Y0098847D01*
X0205259Y0096531D01*
X0206690Y0095100D01*
X0205259Y0093669D01*
X0204300Y0091353D01*
X0204300Y0088847D01*
X0205259Y0086531D01*
X0206690Y0085100D01*
X0205259Y0083669D01*
X0204300Y0081353D01*
X0204300Y0078847D01*
X0205259Y0076531D01*
X0206690Y0075100D01*
X0205259Y0073669D01*
X0204300Y0071353D01*
X0204300Y0068847D01*
X0205259Y0066531D01*
X0206690Y0065100D01*
X0205259Y0063669D01*
X0204300Y0061353D01*
X0204300Y0058847D01*
X0205259Y0056531D01*
X0206153Y0055637D01*
X0205909Y0055450D01*
X0205250Y0054791D01*
X0204684Y0054053D01*
X0204219Y0053247D01*
X0203862Y0052387D01*
X0203621Y0051488D01*
X0203500Y0050565D01*
X0203500Y0050100D01*
X0210600Y0050100D01*
X0217700Y0050100D01*
X0210600Y0050100D01*
X0210600Y0050100D01*
X0210600Y0050100D01*
X0203500Y0050100D01*
X0203500Y0049635D01*
X0203621Y0048712D01*
X0203862Y0047813D01*
X0204219Y0046953D01*
X0204684Y0046147D01*
X0205250Y0045409D01*
X0205859Y0044800D01*
X0159123Y0044800D01*
X0141971Y0061951D01*
X0142714Y0062259D01*
X0144486Y0064031D01*
X0145445Y0066347D01*
X0145445Y0068853D01*
X0144486Y0071169D01*
X0142714Y0072941D01*
X0140398Y0073900D01*
X0137892Y0073900D01*
X0135577Y0072941D01*
X0133804Y0071169D01*
X0133497Y0070426D01*
X0119523Y0084400D01*
X0153009Y0084400D01*
X0163661Y0073748D01*
X0164984Y0073200D01*
X0170616Y0073200D01*
X0171939Y0073748D01*
X0178939Y0080748D01*
X0178939Y0080748D01*
X0179952Y0081761D01*
X0180500Y0083084D01*
X0180500Y0088117D01*
X0181387Y0087750D01*
X0183813Y0087750D01*
X0186055Y0088679D01*
X0187771Y0090395D01*
X0188700Y0092637D01*
X0188700Y0095063D01*
X0187771Y0097305D01*
X0186200Y0098877D01*
X0186200Y0106971D01*
X0187305Y0107429D01*
X0188850Y0108973D01*
X0190395Y0107429D01*
X0192637Y0106500D01*
X0194000Y0106500D01*
X0194000Y0098877D01*
X0192429Y0097305D01*
X0191500Y0095063D01*
X0191500Y0092637D01*
X0192429Y0090395D01*
X0194145Y0088679D01*
X0196387Y0087750D01*
X0198813Y0087750D01*
X0201055Y0088679D01*
X0202771Y0090395D01*
X0203700Y0092637D01*
X0203700Y0095063D01*
X0202771Y0097305D01*
X0201200Y0098877D01*
X0201200Y0109566D01*
X0200652Y0110889D01*
X0199950Y0111591D01*
X0199950Y0113609D01*
X0209241Y0122900D01*
X0272116Y0122900D01*
X0273439Y0123448D01*
X0276154Y0126163D01*
X0276307Y0126100D01*
X0278893Y0126100D01*
X0281282Y0127090D01*
X0282043Y0127851D01*
X0282100Y0127776D01*
X0282776Y0127100D01*
X0283536Y0126517D01*
X0284364Y0126039D01*
X0285248Y0125673D01*
X0286173Y0125425D01*
X0287122Y0125300D01*
X0287600Y0125300D01*
X0288078Y0125300D01*
X0289027Y0125425D01*
X0289952Y0125673D01*
X0290836Y0126039D01*
X0291664Y0126517D01*
X0292424Y0127100D01*
X0293100Y0127776D01*
X0293157Y0127851D01*
X0293918Y0127090D01*
X0295100Y0126600D01*
X0307000Y0110733D01*
X0307000Y0091486D01*
X0307853Y0089428D01*
X0332853Y0064428D01*
X0334428Y0062853D01*
X0336486Y0062000D01*
X0346775Y0062000D01*
X0346517Y0061664D01*
X0346039Y0060836D01*
X0345673Y0059952D01*
X0345425Y0059027D01*
X0345300Y0058078D01*
X0345300Y0057600D01*
X0352600Y0057600D01*
X0359900Y0057600D01*
X0359900Y0058078D01*
X0359775Y0059027D01*
X0359527Y0059952D01*
X0359161Y0060836D01*
X0358683Y0061664D01*
X0358100Y0062424D01*
X0357424Y0063100D01*
X0357349Y0063157D01*
X0358110Y0063918D01*
X0359100Y0066307D01*
X0359100Y0068893D01*
X0358110Y0071282D01*
X0356792Y0072600D01*
X0358110Y0073918D01*
X0359100Y0076307D01*
X0359100Y0078893D01*
X0358110Y0081282D01*
X0356792Y0082600D01*
X0358110Y0083918D01*
X0359100Y0086307D01*
X0359100Y0088893D01*
X0358110Y0091282D01*
X0356792Y0092600D01*
X0358110Y0093918D01*
X0359100Y0096307D01*
X0359100Y0098893D01*
X0358110Y0101282D01*
X0356282Y0103110D01*
X0353893Y0104100D01*
X0351307Y0104100D01*
X0348918Y0103110D01*
X0347090Y0101282D01*
X0346100Y0098893D01*
X0346100Y0096307D01*
X0347090Y0093918D01*
X0348408Y0092600D01*
X0347090Y0091282D01*
X0346100Y0088893D01*
X0346100Y0086307D01*
X0347090Y0083918D01*
X0348408Y0082600D01*
X0347090Y0081282D01*
X0346100Y0078893D01*
X0346100Y0076307D01*
X0347090Y0073918D01*
X0347808Y0073200D01*
X0339920Y0073200D01*
X0318200Y0094920D01*
X0318200Y0104158D01*
X0318747Y0103472D01*
X0319535Y0102684D01*
X0320407Y0101988D01*
X0321352Y0101395D01*
X0322357Y0100911D01*
X0323409Y0100542D01*
X0324497Y0100294D01*
X0325598Y0100170D01*
X0325598Y0109535D01*
X0326728Y0109535D01*
X0326728Y0110665D01*
X0325598Y0110665D01*
X0325598Y0120030D01*
X0324497Y0119906D01*
X0323409Y0119658D01*
X0322357Y0119289D01*
X0321352Y0118805D01*
X0320407Y0118212D01*
X0319535Y0117516D01*
X0318747Y0116728D01*
X0318051Y0115856D01*
X0317644Y0115208D01*
X0317504Y0115395D01*
X0317347Y0115772D01*
X0316841Y0116278D01*
X0304100Y0133267D01*
X0304100Y0133893D01*
X0303110Y0136282D01*
X0301282Y0138110D01*
X0300100Y0138600D01*
X0340943Y0138600D01*
X0369850Y0109693D01*
X0369850Y0034802D01*
X0369338Y0034290D01*
X0368823Y0034961D01*
X0368211Y0035573D01*
X0367525Y0036099D01*
X0366775Y0036532D01*
X0365976Y0036863D01*
X0365140Y0037087D01*
X0364283Y0037200D01*
X0363850Y0037200D01*
X0363850Y0027600D01*
X0363850Y0027600D01*
X0363850Y0018000D01*
X0364283Y0018000D01*
X0365140Y0018113D01*
X0365976Y0018337D01*
X0366775Y0018668D01*
X0367525Y0019101D01*
X0368211Y0019627D01*
X0368823Y0020239D01*
X0369338Y0020910D01*
X0370565Y0019683D01*
X0372696Y0018800D01*
X0375004Y0018800D01*
X0377135Y0019683D01*
X0378767Y0021315D01*
X0378850Y0021515D01*
X0378933Y0021315D01*
X0380565Y0019683D01*
X0382696Y0018800D01*
X0385004Y0018800D01*
X0387135Y0019683D01*
X0388767Y0021315D01*
X0389650Y0023446D01*
X0389650Y0031754D01*
X0388767Y0033885D01*
X0387135Y0035517D01*
X0385004Y0036400D01*
X0382696Y0036400D01*
X0380565Y0035517D01*
X0378933Y0033885D01*
X0378850Y0033685D01*
X0378767Y0033885D01*
X0377850Y0034802D01*
X0377850Y0112146D01*
X0377241Y0113616D01*
X0345991Y0144866D01*
X0344866Y0145991D01*
X0343396Y0146600D01*
X0286804Y0146600D01*
X0285334Y0145991D01*
X0278443Y0139100D01*
X0276307Y0139100D01*
X0273918Y0138110D01*
X0272600Y0136792D01*
X0271282Y0138110D01*
X0268893Y0139100D01*
X0266307Y0139100D01*
X0263918Y0138110D01*
X0262600Y0136792D01*
X0261282Y0138110D01*
X0258893Y0139100D01*
X0256307Y0139100D01*
X0253918Y0138110D01*
X0252600Y0136792D01*
X0251282Y0138110D01*
X0248893Y0139100D01*
X0246307Y0139100D01*
X0243918Y0138110D01*
X0242600Y0136792D01*
X0241282Y0138110D01*
X0238893Y0139100D01*
X0236307Y0139100D01*
X0233918Y0138110D01*
X0232600Y0136792D01*
X0231282Y0138110D01*
X0228893Y0139100D01*
X0226307Y0139100D01*
X0223918Y0138110D01*
X0222600Y0136792D01*
X0221282Y0138110D01*
X0218893Y0139100D01*
X0216307Y0139100D01*
X0213918Y0138110D01*
X0212600Y0136792D01*
X0211282Y0138110D01*
X0208893Y0139100D01*
X0206307Y0139100D01*
X0203918Y0138110D01*
X0202600Y0136792D01*
X0201282Y0138110D01*
X0198893Y0139100D01*
X0196307Y0139100D01*
X0193918Y0138110D01*
X0192600Y0136792D01*
X0191282Y0138110D01*
X0191000Y0138227D01*
X0191000Y0144016D01*
X0190452Y0145339D01*
X0189439Y0146352D01*
X0149539Y0186252D01*
X0148216Y0186800D01*
X0083496Y0186800D01*
X0083274Y0187336D01*
X0082486Y0188124D01*
X0081457Y0188550D01*
X0075743Y0188550D01*
X0075600Y0188491D01*
X0075457Y0188550D01*
X0071400Y0188550D01*
X0071400Y0230377D01*
X0085923Y0244900D01*
X0088534Y0244900D01*
X0090446Y0245692D01*
X0091908Y0247154D01*
X0092068Y0247541D01*
X0094900Y0244709D01*
X0094900Y0201384D01*
X0095448Y0200061D01*
X0100307Y0195202D01*
X0100250Y0195063D01*
X0100250Y0192637D01*
X0101179Y0190395D01*
X0102895Y0188679D01*
X0105137Y0187750D01*
X0107563Y0187750D01*
X0109805Y0188679D01*
X0111521Y0190395D01*
X0112450Y0192637D01*
X0112450Y0195063D01*
X0111521Y0197305D01*
X0109805Y0199021D01*
X0107563Y0199950D01*
X0105741Y0199950D01*
X0105330Y0200361D01*
X0107305Y0201179D01*
X0108850Y0202723D01*
X0110395Y0201179D01*
X0112637Y0200250D01*
X0115063Y0200250D01*
X0117305Y0201179D01*
X0118333Y0202206D01*
X0118651Y0201791D01*
X0119291Y0201151D01*
X0120008Y0200601D01*
X0120792Y0200148D01*
X0120838Y0200129D01*
X0120659Y0199950D01*
X0118887Y0199950D01*
X0116645Y0199021D01*
X0114929Y0197305D01*
X0114000Y0195063D01*
X0114000Y0192637D01*
X0114929Y0190395D01*
X0116645Y0188679D01*
X0118887Y0187750D01*
X0121313Y0187750D01*
X0123555Y0188679D01*
X0125271Y0190395D01*
X0126200Y0192637D01*
X0126200Y0195063D01*
X0126128Y0195237D01*
X0126591Y0195700D01*
X0128014Y0195700D01*
X0127750Y0195063D01*
X0127750Y0192637D01*
X0128679Y0190395D01*
X0130395Y0188679D01*
X0132637Y0187750D01*
X0135063Y0187750D01*
X0137305Y0188679D01*
X0139021Y0190395D01*
X0139950Y0192637D01*
X0139950Y0195063D01*
X0139686Y0195700D01*
X0163616Y0195700D01*
X0164939Y0196248D01*
X0165952Y0197261D01*
X0185235Y0216544D01*
X0186307Y0216100D01*
X0188893Y0216100D01*
X0191282Y0217090D01*
X0192600Y0218408D01*
X0193918Y0217090D01*
X0196307Y0216100D01*
X0198893Y0216100D01*
X0201282Y0217090D01*
X0202600Y0218408D01*
X0203918Y0217090D01*
X0206307Y0216100D01*
X0208893Y0216100D01*
X0211282Y0217090D01*
X0212600Y0218408D01*
X0213918Y0217090D01*
X0216307Y0216100D01*
X0218893Y0216100D01*
X0221282Y0217090D01*
X0222600Y0218408D01*
X0223918Y0217090D01*
X0226307Y0216100D01*
X0228893Y0216100D01*
X0231282Y0217090D01*
X0232600Y0218408D01*
X0233918Y0217090D01*
X0236307Y0216100D01*
X0238893Y0216100D01*
X0241282Y0217090D01*
X0242600Y0218408D01*
X0243918Y0217090D01*
X0246307Y0216100D01*
X0248893Y0216100D01*
X0251282Y0217090D01*
X0252600Y0218408D01*
X0253918Y0217090D01*
X0256307Y0216100D01*
X0258893Y0216100D01*
X0261282Y0217090D01*
X0262600Y0218408D01*
X0263918Y0217090D01*
X0266307Y0216100D01*
X0268893Y0216100D01*
X0271282Y0217090D01*
X0272600Y0218408D01*
X0273918Y0217090D01*
X0276307Y0216100D01*
X0278893Y0216100D01*
X0281282Y0217090D01*
X0282600Y0218408D01*
X0283918Y0217090D01*
X0286307Y0216100D01*
X0288893Y0216100D01*
X0291282Y0217090D01*
X0292043Y0217851D01*
X0292100Y0217776D01*
X0292776Y0217100D01*
X0293536Y0216517D01*
X0294364Y0216039D01*
X0295248Y0215673D01*
X0296173Y0215425D01*
X0297122Y0215300D01*
X0297600Y0215300D01*
X0298078Y0215300D01*
X0299027Y0215425D01*
X0299952Y0215673D01*
X0300836Y0216039D01*
X0301664Y0216517D01*
X0302424Y0217100D01*
X0303100Y0217776D01*
X0303683Y0218536D01*
X0304161Y0219364D01*
X0304527Y0220248D01*
X0304775Y0221173D01*
X0304900Y0222122D01*
X0304900Y0222600D01*
X0304900Y0223078D01*
X0304775Y0224027D01*
X0304527Y0224952D01*
X0304161Y0225836D01*
X0303683Y0226664D01*
X0303100Y0227424D01*
X0302424Y0228100D01*
X0301664Y0228683D01*
X0300836Y0229161D01*
X0299952Y0229527D01*
X0299027Y0229775D01*
X0298078Y0229900D01*
X0297600Y0229900D01*
X0297600Y0222600D01*
X0297600Y0222600D01*
X0304900Y0222600D01*
X0297600Y0222600D01*
X0297600Y0222600D01*
X0297600Y0229900D01*
X0297122Y0229900D01*
X0296173Y0229775D01*
X0295248Y0229527D01*
X0294364Y0229161D01*
X0293536Y0228683D01*
X0292776Y0228100D01*
X0292100Y0227424D01*
X0292043Y0227349D01*
X0291282Y0228110D01*
X0288893Y0229100D01*
X0286307Y0229100D01*
X0283918Y0228110D01*
X0282600Y0226792D01*
X0281282Y0228110D01*
X0278893Y0229100D01*
X0276307Y0229100D01*
X0273918Y0228110D01*
X0272600Y0226792D01*
X0271282Y0228110D01*
X0268893Y0229100D01*
X0266307Y0229100D01*
X0263918Y0228110D01*
X0262600Y0226792D01*
X0261282Y0228110D01*
X0258893Y0229100D01*
X0256307Y0229100D01*
X0253918Y0228110D01*
X0252600Y0226792D01*
X0251282Y0228110D01*
X0248893Y0229100D01*
X0246307Y0229100D01*
X0243918Y0228110D01*
X0242600Y0226792D01*
X0241282Y0228110D01*
X0238893Y0229100D01*
X0236307Y0229100D01*
X0233918Y0228110D01*
X0232600Y0226792D01*
X0231282Y0228110D01*
X0228893Y0229100D01*
X0226307Y0229100D01*
X0223918Y0228110D01*
X0222600Y0226792D01*
X0221282Y0228110D01*
X0218893Y0229100D01*
X0216307Y0229100D01*
X0213918Y0228110D01*
X0212600Y0226792D01*
X0211282Y0228110D01*
X0208893Y0229100D01*
X0206307Y0229100D01*
X0203918Y0228110D01*
X0202600Y0226792D01*
X0201282Y0228110D01*
X0198893Y0229100D01*
X0196307Y0229100D01*
X0193918Y0228110D01*
X0192600Y0226792D01*
X0191282Y0228110D01*
X0188893Y0229100D01*
X0186307Y0229100D01*
X0183918Y0228110D01*
X0182600Y0226792D01*
X0181282Y0228110D01*
X0178893Y0229100D01*
X0176307Y0229100D01*
X0173918Y0228110D01*
X0172600Y0226792D01*
X0171282Y0228110D01*
X0168893Y0229100D01*
X0166307Y0229100D01*
X0163918Y0228110D01*
X0162800Y0226992D01*
X0162800Y0231034D01*
X0162008Y0232946D01*
X0160546Y0234408D01*
X0158634Y0235200D01*
X0156566Y0235200D01*
X0154654Y0234408D01*
X0153192Y0232946D01*
X0152600Y0231517D01*
X0152008Y0232946D01*
X0151600Y0233354D01*
X0151600Y0233396D01*
X0150991Y0234866D01*
X0143491Y0242366D01*
X0142366Y0243491D01*
X0140896Y0244100D01*
X0108925Y0244100D01*
X0107281Y0244781D01*
X0105419Y0244781D01*
X0103698Y0244068D01*
X0102382Y0242752D01*
X0102100Y0242072D01*
X0102100Y0246916D01*
X0101552Y0248239D01*
X0100539Y0249252D01*
X0092122Y0257669D01*
X0092700Y0259066D01*
X0092700Y0261134D01*
X0091908Y0263046D01*
X0090446Y0264508D01*
X0088534Y0265300D01*
X0081666Y0265300D01*
X0079754Y0264508D01*
X0078292Y0263046D01*
X0077500Y0261134D01*
X0077500Y0259066D01*
X0078292Y0257154D01*
X0079754Y0255692D01*
X0081183Y0255100D01*
X0079754Y0254508D01*
X0078292Y0253046D01*
X0077500Y0251134D01*
X0077500Y0249066D01*
X0077542Y0248964D01*
X0063270Y0234692D01*
X0062600Y0233075D01*
X0062600Y0188010D01*
X0061926Y0187336D01*
X0061500Y0186307D01*
X0061500Y0178893D01*
X0061926Y0177864D01*
X0062714Y0177076D01*
X0063743Y0176650D01*
X0064459Y0176650D01*
X0057809Y0170000D01*
X0049980Y0170000D01*
X0049370Y0170610D01*
X0049614Y0170798D01*
X0050272Y0171456D01*
X0050839Y0172195D01*
X0051304Y0173001D01*
X0051660Y0173860D01*
X0051901Y0174759D01*
X0052023Y0175682D01*
X0052023Y0176148D01*
X0052023Y0176613D01*
X0051901Y0177536D01*
X0051660Y0178435D01*
X0051304Y0179295D01*
X0050839Y0180101D01*
X0050272Y0180839D01*
X0049614Y0181497D01*
X0048876Y0182064D01*
X0048070Y0182529D01*
X0047294Y0182850D01*
X0047538Y0182873D01*
X0051070Y0184632D01*
X0053729Y0187548D01*
X0055154Y0191227D01*
X0055154Y0195173D01*
X0054894Y0195845D01*
X0055036Y0196469D01*
X0055138Y0197374D01*
X0054302Y0197374D01*
X0053729Y0198852D01*
X0053508Y0199095D01*
X0055138Y0199095D01*
X0055036Y0199999D01*
X0054773Y0201152D01*
X0054383Y0202267D01*
X0053870Y0203332D01*
X0053241Y0204332D01*
X0052505Y0205256D01*
X0051669Y0206092D01*
X0050745Y0206829D01*
X0049745Y0207457D01*
X0048680Y0207970D01*
X0047564Y0208360D01*
X0046412Y0208623D01*
X0045508Y0208725D01*
X0045508Y0203715D01*
X0043787Y0203875D01*
X0043787Y0208725D01*
X0042882Y0208623D01*
X0041730Y0208360D01*
X0040615Y0207970D01*
X0039550Y0207457D01*
X0038549Y0206829D01*
X0037625Y0206092D01*
X0036790Y0205256D01*
X0036053Y0204332D01*
X0035424Y0203332D01*
X0034912Y0202267D01*
X0034521Y0201152D01*
X0034258Y0199999D01*
X0034156Y0199095D01*
X0035836Y0199095D01*
X0034771Y0197374D01*
X0034156Y0197374D01*
X0034258Y0196469D01*
X0034377Y0195949D01*
X0033863Y0193200D01*
X0034588Y0189321D01*
X0036665Y0185967D01*
X0039814Y0183589D01*
X0042493Y0182826D01*
X0041776Y0182529D01*
X0040970Y0182064D01*
X0040231Y0181497D01*
X0039573Y0180839D01*
X0039007Y0180101D01*
X0038541Y0179295D01*
X0038185Y0178435D01*
X0037944Y0177536D01*
X0037823Y0176613D01*
X0037823Y0176148D01*
X0044923Y0176148D01*
X0052023Y0176148D01*
X0044923Y0176148D01*
X0044923Y0176148D01*
X0044923Y0176148D01*
X0037823Y0176148D01*
X0037823Y0175682D01*
X0037944Y0174759D01*
X0038185Y0173860D01*
X0038541Y0173001D01*
X0039007Y0172195D01*
X0039573Y0171456D01*
X0040231Y0170798D01*
X0040476Y0170610D01*
X0039582Y0169716D01*
X0038623Y0167401D01*
X0038623Y0164894D01*
X0039582Y0162579D01*
X0041013Y0161148D01*
X0039582Y0159716D01*
X0038623Y0157401D01*
X0038623Y0154894D01*
X0039582Y0152579D01*
X0041013Y0151148D01*
X0039582Y0149716D01*
X0038623Y0147401D01*
X0038623Y0144894D01*
X0039582Y0142579D01*
X0041013Y0141148D01*
X0039582Y0139716D01*
X0038623Y0137401D01*
X0038623Y0134894D01*
X0039582Y0132579D01*
X0041013Y0131148D01*
X0039582Y0129716D01*
X0038623Y0127401D01*
X0038623Y0124894D01*
X0039582Y0122579D01*
X0041013Y0121148D01*
X0039582Y0119716D01*
X0038623Y0117401D01*
X0038623Y0114894D01*
X0039582Y0112579D01*
X0041013Y0111148D01*
X0039582Y0109716D01*
X0038623Y0107401D01*
X0038623Y0104894D01*
X0039582Y0102579D01*
X0041354Y0100807D01*
X0043670Y0099848D01*
X0046176Y0099848D01*
X0048491Y0100807D01*
X0050264Y0102579D01*
X0051223Y0104894D01*
X0051223Y0107401D01*
X0050264Y0109716D01*
X0048832Y0111148D01*
X0050085Y0112401D01*
X0051935Y0112348D01*
X0055067Y0108449D01*
X0055100Y0106174D01*
X0055100Y0091471D01*
X0053829Y0094752D01*
X0051170Y0097668D01*
X0047638Y0099427D01*
X0043709Y0099791D01*
X0039914Y0098711D01*
X0036765Y0096333D01*
X0034688Y0092979D01*
X0033963Y0089100D01*
X0034432Y0086589D01*
X0034258Y0085826D01*
X0034156Y0084922D01*
X0034874Y0084922D01*
X0035939Y0083200D01*
X0034156Y0083200D01*
X0034258Y0082296D01*
X0034521Y0081144D01*
X0034912Y0080028D01*
X0035424Y0078964D01*
X0036053Y0077963D01*
X0036790Y0077039D01*
X0037625Y0076204D01*
X0038549Y0075467D01*
X0039550Y0074838D01*
X0040615Y0074325D01*
X0041730Y0073935D01*
X0042815Y0073687D01*
X0042723Y0073675D01*
X0041798Y0073427D01*
X0040914Y0073061D01*
X0040086Y0072583D01*
X0039326Y0072000D01*
X0038650Y0071324D01*
X0038067Y0070564D01*
X0037589Y0069736D01*
X0037223Y0068852D01*
X0036975Y0067927D01*
X0036850Y0066978D01*
X0036850Y0066500D01*
X0044150Y0066500D01*
X0051450Y0066500D01*
X0051450Y0066978D01*
X0051325Y0067927D01*
X0051077Y0068852D01*
X0050711Y0069736D01*
X0050233Y0070564D01*
X0049650Y0071324D01*
X0048974Y0072000D01*
X0048214Y0072583D01*
X0047386Y0073061D01*
X0046502Y0073427D01*
X0045832Y0073607D01*
X0046412Y0073672D01*
X0047564Y0073935D01*
X0048680Y0074325D01*
X0049745Y0074838D01*
X0050745Y0075467D01*
X0051669Y0076204D01*
X0052505Y0077039D01*
X0053241Y0077963D01*
X0053870Y0078964D01*
X0054383Y0080028D01*
X0054773Y0081144D01*
X0055036Y0082296D01*
X0055100Y0082863D01*
X0055100Y0080884D01*
X0055648Y0079561D01*
X0056661Y0078548D01*
X0061461Y0073748D01*
X0062784Y0073200D01*
X0069268Y0073200D01*
X0068751Y0073132D01*
X0067877Y0072898D01*
X0067042Y0072552D01*
X0066258Y0072099D01*
X0065541Y0071549D01*
X0064901Y0070909D01*
X0064583Y0070494D01*
X0063555Y0071521D01*
X0061313Y0072450D01*
X0058887Y0072450D01*
X0056645Y0071521D01*
X0054929Y0069805D01*
X0054000Y0067563D01*
X0054000Y0065137D01*
X0054929Y0062895D01*
X0056645Y0061179D01*
X0058887Y0060250D01*
X0061313Y0060250D01*
X0063555Y0061179D01*
X0064583Y0062206D01*
X0064901Y0061791D01*
X0065541Y0061151D01*
X0066258Y0060601D01*
X0067042Y0060148D01*
X0067877Y0059802D01*
X0068751Y0059568D01*
X0069648Y0059450D01*
X0070100Y0059450D01*
X0070552Y0059450D01*
X0071449Y0059568D01*
X0072323Y0059802D01*
X0073158Y0060148D01*
X0073942Y0060601D01*
X0074659Y0061151D01*
X0075299Y0061791D01*
X0075617Y0062206D01*
X0076645Y0061179D01*
X0078887Y0060250D01*
X0081313Y0060250D01*
X0083555Y0061179D01*
X0085100Y0062723D01*
X0086645Y0061179D01*
X0088887Y0060250D01*
X0091313Y0060250D01*
X0093555Y0061179D01*
X0095271Y0062895D01*
X0096200Y0065137D01*
X0096200Y0067563D01*
X0095271Y0069805D01*
X0093555Y0071521D01*
X0091313Y0072450D01*
X0088887Y0072450D01*
X0086645Y0071521D01*
X0085100Y0069977D01*
X0083555Y0071521D01*
X0081313Y0072450D01*
X0078887Y0072450D01*
X0076645Y0071521D01*
X0075617Y0070494D01*
X0075299Y0070909D01*
X0074659Y0071549D01*
X0073942Y0072099D01*
X0073158Y0072552D01*
X0072323Y0072898D01*
X0071449Y0073132D01*
X0070552Y0073250D01*
X0070100Y0073250D01*
X0070100Y0066350D01*
X0070100Y0066350D01*
X0070100Y0073250D01*
X0069937Y0073250D01*
X0071139Y0073748D01*
X0072152Y0074761D01*
X0074041Y0076650D01*
X0075457Y0076650D01*
X0075600Y0076709D01*
X0075743Y0076650D01*
X0081457Y0076650D01*
X0082486Y0077076D01*
X0083274Y0077864D01*
X0083330Y0078000D01*
X0113477Y0078000D01*
X0117577Y0073900D01*
X0117302Y0073900D01*
X0116055Y0073384D01*
X0114808Y0073900D01*
X0112302Y0073900D01*
X0111055Y0073384D01*
X0109808Y0073900D01*
X0107302Y0073900D01*
X0104986Y0072941D01*
X0103214Y0071169D01*
X0102255Y0068853D01*
X0102255Y0066347D01*
X0103214Y0064031D01*
X0104986Y0062259D01*
X0107302Y0061300D01*
X0109808Y0061300D01*
X0111055Y0061816D01*
X0112302Y0061300D01*
X0114808Y0061300D01*
X0116055Y0061816D01*
X0117302Y0061300D01*
X0119808Y0061300D01*
X0122123Y0062259D01*
X0123896Y0064031D01*
X0124855Y0066347D01*
X0124855Y0066623D01*
X0153570Y0037908D01*
X0153694Y0037784D02*
X0030957Y0037784D01*
X0035755Y0034585D02*
X0206176Y0034585D01*
X0204314Y0031387D02*
X0037669Y0031387D01*
X0038305Y0028188D02*
X0204573Y0028188D01*
X0206801Y0024990D02*
X0037984Y0024990D01*
X0036608Y0021791D02*
X0261100Y0021791D01*
X0261100Y0024990D02*
X0214399Y0024990D01*
X0216627Y0028188D02*
X0261100Y0028188D01*
X0261100Y0031387D02*
X0216886Y0031387D01*
X0215024Y0034585D02*
X0261100Y0034585D01*
X0261100Y0037784D02*
X0216460Y0037784D01*
X0216900Y0040982D02*
X0261100Y0040982D01*
X0261100Y0044181D02*
X0215429Y0044181D01*
X0217158Y0047379D02*
X0261100Y0047379D01*
X0261100Y0050578D02*
X0217698Y0050578D01*
X0216676Y0053776D02*
X0260767Y0053776D01*
X0257568Y0056975D02*
X0216125Y0056975D01*
X0216900Y0060173D02*
X0254370Y0060173D01*
X0250576Y0063372D02*
X0216064Y0063372D01*
X0215957Y0066570D02*
X0247960Y0066570D01*
X0248432Y0069769D02*
X0216900Y0069769D01*
X0216231Y0072967D02*
X0324313Y0072967D01*
X0321115Y0076166D02*
X0215575Y0076166D01*
X0216900Y0079364D02*
X0317916Y0079364D01*
X0314718Y0082563D02*
X0216399Y0082563D01*
X0215171Y0085761D02*
X0232607Y0085761D01*
X0242593Y0085761D02*
X0311519Y0085761D01*
X0308321Y0088960D02*
X0284617Y0088960D01*
X0287815Y0092158D02*
X0307000Y0092158D01*
X0307000Y0095357D02*
X0291014Y0095357D01*
X0294212Y0098555D02*
X0307000Y0098555D01*
X0307000Y0101754D02*
X0297411Y0101754D01*
X0301570Y0104952D02*
X0307000Y0104952D01*
X0307000Y0108151D02*
X0302281Y0108151D01*
X0300471Y0111349D02*
X0306538Y0111349D01*
X0304139Y0114548D02*
X0286168Y0114548D01*
X0286568Y0114948D02*
X0285252Y0113632D01*
X0283607Y0112950D01*
X0270991Y0100334D01*
X0269866Y0099209D01*
X0268396Y0098600D01*
X0260175Y0098600D01*
X0258531Y0097919D01*
X0256669Y0097919D01*
X0254948Y0098632D01*
X0253632Y0099948D01*
X0252919Y0101669D01*
X0252919Y0103531D01*
X0253632Y0105252D01*
X0254948Y0106568D01*
X0256669Y0107281D01*
X0258531Y0107281D01*
X0260175Y0106600D01*
X0265943Y0106600D01*
X0277950Y0118607D01*
X0278632Y0120252D01*
X0279948Y0121568D01*
X0281669Y0122281D01*
X0283531Y0122281D01*
X0285252Y0121568D01*
X0286568Y0120252D01*
X0287281Y0118531D01*
X0287281Y0116669D01*
X0286568Y0114948D01*
X0287281Y0117746D02*
X0301740Y0117746D01*
X0299341Y0120945D02*
X0285875Y0120945D01*
X0287600Y0125300D02*
X0287600Y0132600D01*
X0287600Y0125300D01*
X0287600Y0127342D02*
X0287600Y0127342D01*
X0287600Y0130540D02*
X0287600Y0130540D01*
X0287600Y0132600D02*
X0287600Y0132600D01*
X0292666Y0127342D02*
X0293666Y0127342D01*
X0296942Y0124143D02*
X0274135Y0124143D01*
X0279325Y0120945D02*
X0207286Y0120945D01*
X0204088Y0117746D02*
X0277090Y0117746D01*
X0273891Y0114548D02*
X0215062Y0114548D01*
X0216900Y0111349D02*
X0270693Y0111349D01*
X0267494Y0108151D02*
X0216612Y0108151D01*
X0214657Y0104952D02*
X0253508Y0104952D01*
X0252919Y0101754D02*
X0216734Y0101754D01*
X0216779Y0098555D02*
X0255132Y0098555D01*
X0260068Y0098555D02*
X0282898Y0098555D01*
X0279700Y0095357D02*
X0241133Y0095357D01*
X0234067Y0095357D02*
X0214766Y0095357D01*
X0206434Y0095357D02*
X0203578Y0095357D01*
X0204421Y0098555D02*
X0201521Y0098555D01*
X0201200Y0101754D02*
X0204466Y0101754D01*
X0206543Y0104952D02*
X0201200Y0104952D01*
X0201200Y0108151D02*
X0204588Y0108151D01*
X0204300Y0111349D02*
X0200192Y0111349D01*
X0200889Y0114548D02*
X0206138Y0114548D01*
X0194000Y0104952D02*
X0186200Y0104952D01*
X0186200Y0101754D02*
X0194000Y0101754D01*
X0193679Y0098555D02*
X0186521Y0098555D01*
X0188578Y0095357D02*
X0191622Y0095357D01*
X0191698Y0092158D02*
X0188502Y0092158D01*
X0186337Y0088960D02*
X0193863Y0088960D01*
X0201337Y0088960D02*
X0204300Y0088960D01*
X0204634Y0092158D02*
X0203502Y0092158D01*
X0206029Y0085761D02*
X0180500Y0085761D01*
X0180284Y0082563D02*
X0204801Y0082563D01*
X0204300Y0079364D02*
X0177555Y0079364D01*
X0174357Y0076166D02*
X0205625Y0076166D01*
X0204969Y0072967D02*
X0142650Y0072967D01*
X0145066Y0069769D02*
X0204300Y0069769D01*
X0205243Y0066570D02*
X0145445Y0066570D01*
X0143827Y0063372D02*
X0205136Y0063372D01*
X0204300Y0060173D02*
X0195684Y0060173D01*
X0196047Y0059809D02*
X0194866Y0060991D01*
X0193396Y0061600D01*
X0171804Y0061600D01*
X0170334Y0060991D01*
X0168043Y0058700D01*
X0166387Y0058700D01*
X0164145Y0057771D01*
X0162429Y0056055D01*
X0161500Y0053813D01*
X0161500Y0051387D01*
X0162429Y0049145D01*
X0164145Y0047429D01*
X0166387Y0046500D01*
X0168813Y0046500D01*
X0171055Y0047429D01*
X0172771Y0049145D01*
X0173700Y0051387D01*
X0173700Y0053043D01*
X0174257Y0053600D01*
X0176500Y0053600D01*
X0176500Y0052637D01*
X0177429Y0050395D01*
X0179145Y0048679D01*
X0181387Y0047750D01*
X0183813Y0047750D01*
X0186055Y0048679D01*
X0187771Y0050395D01*
X0188700Y0052637D01*
X0188700Y0053600D01*
X0190943Y0053600D01*
X0191500Y0053043D01*
X0191500Y0052637D01*
X0192429Y0050395D01*
X0194145Y0048679D01*
X0196387Y0047750D01*
X0198813Y0047750D01*
X0201055Y0048679D01*
X0202771Y0050395D01*
X0203700Y0052637D01*
X0203700Y0055063D01*
X0202771Y0057305D01*
X0201055Y0059021D01*
X0198813Y0059950D01*
X0196387Y0059950D01*
X0196047Y0059809D01*
X0202908Y0056975D02*
X0205075Y0056975D01*
X0204524Y0053776D02*
X0203700Y0053776D01*
X0203502Y0050578D02*
X0202847Y0050578D01*
X0204042Y0047379D02*
X0170936Y0047379D01*
X0164264Y0047379D02*
X0156543Y0047379D01*
X0153345Y0050578D02*
X0161835Y0050578D01*
X0161500Y0053776D02*
X0150146Y0053776D01*
X0146948Y0056975D02*
X0163348Y0056975D01*
X0169516Y0060173D02*
X0143749Y0060173D01*
X0137701Y0053776D02*
X0048266Y0053776D01*
X0047832Y0054210D02*
X0045443Y0055200D01*
X0042857Y0055200D01*
X0040468Y0054210D01*
X0038640Y0052382D01*
X0037650Y0049993D01*
X0037650Y0047407D01*
X0038640Y0045018D01*
X0040468Y0043190D01*
X0042857Y0042200D01*
X0045443Y0042200D01*
X0047832Y0043190D01*
X0049660Y0045018D01*
X0050650Y0047407D01*
X0050650Y0049993D01*
X0049660Y0052382D01*
X0047832Y0054210D01*
X0050408Y0050578D02*
X0140900Y0050578D01*
X0144098Y0047379D02*
X0050638Y0047379D01*
X0048823Y0044181D02*
X0147297Y0044181D01*
X0157300Y0040400D02*
X0211200Y0040400D01*
X0210600Y0040100D01*
X0192353Y0050578D02*
X0187847Y0050578D01*
X0177353Y0050578D02*
X0173365Y0050578D01*
X0157300Y0040400D02*
X0115300Y0082400D01*
X0078900Y0082400D01*
X0078600Y0082600D01*
X0073557Y0076166D02*
X0115312Y0076166D01*
X0121360Y0082563D02*
X0154846Y0082563D01*
X0158045Y0079364D02*
X0124558Y0079364D01*
X0127757Y0076166D02*
X0161243Y0076166D01*
X0162167Y0085424D02*
X0156539Y0091052D01*
X0155216Y0091600D01*
X0121555Y0091600D01*
X0123555Y0092429D01*
X0125271Y0094145D01*
X0126200Y0096387D01*
X0126200Y0098813D01*
X0125271Y0101055D01*
X0123555Y0102771D01*
X0121313Y0103700D01*
X0118887Y0103700D01*
X0116645Y0102771D01*
X0114929Y0101055D01*
X0114000Y0098813D01*
X0114000Y0096387D01*
X0114929Y0094145D01*
X0116645Y0092429D01*
X0118645Y0091600D01*
X0080391Y0091600D01*
X0076141Y0095850D01*
X0078600Y0095850D01*
X0081255Y0095850D01*
X0081950Y0095988D01*
X0082605Y0096260D01*
X0083195Y0096654D01*
X0083696Y0097155D01*
X0084090Y0097745D01*
X0084362Y0098400D01*
X0084500Y0099095D01*
X0084500Y0102600D01*
X0084500Y0106105D01*
X0084362Y0106800D01*
X0084090Y0107455D01*
X0083696Y0108045D01*
X0083195Y0108546D01*
X0082605Y0108940D01*
X0081950Y0109212D01*
X0081255Y0109350D01*
X0078600Y0109350D01*
X0078600Y0102600D01*
X0078600Y0102600D01*
X0084500Y0102600D01*
X0078600Y0102600D01*
X0078600Y0102600D01*
X0078600Y0109350D01*
X0075945Y0109350D01*
X0075250Y0109212D01*
X0074595Y0108940D01*
X0074542Y0108905D01*
X0074018Y0109600D01*
X0086584Y0109600D01*
X0088016Y0109600D01*
X0089339Y0110148D01*
X0129132Y0149941D01*
X0130395Y0148679D01*
X0132637Y0147750D01*
X0135063Y0147750D01*
X0135131Y0147778D01*
X0163500Y0119409D01*
X0163500Y0117794D01*
X0161313Y0118700D01*
X0158887Y0118700D01*
X0156645Y0117771D01*
X0154929Y0116055D01*
X0154000Y0113813D01*
X0154000Y0111387D01*
X0154929Y0109145D01*
X0156645Y0107429D01*
X0158887Y0106500D01*
X0161313Y0106500D01*
X0163500Y0107406D01*
X0163500Y0103604D01*
X0163158Y0103802D01*
X0162323Y0104148D01*
X0161449Y0104382D01*
X0160552Y0104500D01*
X0160100Y0104500D01*
X0160100Y0097600D01*
X0160100Y0097600D01*
X0160100Y0090700D01*
X0160552Y0090700D01*
X0161449Y0090818D01*
X0162323Y0091052D01*
X0163158Y0091398D01*
X0163500Y0091596D01*
X0163500Y0087127D01*
X0162429Y0086055D01*
X0162167Y0085424D01*
X0162307Y0085761D02*
X0161830Y0085761D01*
X0163500Y0088960D02*
X0158631Y0088960D01*
X0158751Y0090818D02*
X0159648Y0090700D01*
X0160100Y0090700D01*
X0160100Y0097600D01*
X0160100Y0097600D01*
X0160100Y0097600D01*
X0153200Y0097600D01*
X0153200Y0098052D01*
X0153318Y0098949D01*
X0153552Y0099823D01*
X0153898Y0100658D01*
X0154351Y0101442D01*
X0154901Y0102159D01*
X0155541Y0102799D01*
X0156258Y0103349D01*
X0157042Y0103802D01*
X0157877Y0104148D01*
X0158751Y0104382D01*
X0159648Y0104500D01*
X0160100Y0104500D01*
X0160100Y0097600D01*
X0153200Y0097600D01*
X0153200Y0097148D01*
X0153318Y0096251D01*
X0153552Y0095377D01*
X0153898Y0094542D01*
X0154351Y0093758D01*
X0154901Y0093041D01*
X0155541Y0092401D01*
X0156258Y0091851D01*
X0157042Y0091398D01*
X0157877Y0091052D01*
X0158751Y0090818D01*
X0160100Y0092158D02*
X0160100Y0092158D01*
X0155857Y0092158D02*
X0122903Y0092158D01*
X0117297Y0092158D02*
X0079833Y0092158D01*
X0078600Y0095850D02*
X0078600Y0102600D01*
X0078600Y0102600D01*
X0078600Y0095850D01*
X0076634Y0095357D02*
X0114427Y0095357D01*
X0114000Y0098555D02*
X0084393Y0098555D01*
X0084500Y0101754D02*
X0115627Y0101754D01*
X0118887Y0106500D02*
X0121313Y0106500D01*
X0123555Y0107429D01*
X0125271Y0109145D01*
X0126200Y0111387D01*
X0126200Y0113813D01*
X0125271Y0116055D01*
X0123555Y0117771D01*
X0121313Y0118700D01*
X0118887Y0118700D01*
X0116645Y0117771D01*
X0114929Y0116055D01*
X0114000Y0113813D01*
X0114000Y0111387D01*
X0114929Y0109145D01*
X0116645Y0107429D01*
X0118887Y0106500D01*
X0115922Y0108151D02*
X0083590Y0108151D01*
X0084500Y0104952D02*
X0163500Y0104952D01*
X0160100Y0101754D02*
X0160100Y0101754D01*
X0160100Y0098555D02*
X0160100Y0098555D01*
X0160100Y0095357D02*
X0160100Y0095357D01*
X0153561Y0095357D02*
X0125773Y0095357D01*
X0126200Y0098555D02*
X0153266Y0098555D01*
X0154590Y0101754D02*
X0124573Y0101754D01*
X0124278Y0108151D02*
X0155922Y0108151D01*
X0154015Y0111349D02*
X0126185Y0111349D01*
X0125896Y0114548D02*
X0154304Y0114548D01*
X0156620Y0117746D02*
X0123580Y0117746D01*
X0116620Y0117746D02*
X0096938Y0117746D01*
X0100136Y0120945D02*
X0161964Y0120945D01*
X0158765Y0124143D02*
X0103335Y0124143D01*
X0106533Y0127342D02*
X0155567Y0127342D01*
X0152368Y0130540D02*
X0109732Y0130540D01*
X0112930Y0133739D02*
X0149170Y0133739D01*
X0145971Y0136937D02*
X0116129Y0136937D01*
X0119327Y0140136D02*
X0142773Y0140136D01*
X0139574Y0143334D02*
X0122526Y0143334D01*
X0125724Y0146533D02*
X0136376Y0146533D01*
X0129342Y0149732D02*
X0128923Y0149732D01*
X0139243Y0165800D02*
X0087284Y0165800D01*
X0085961Y0165252D01*
X0083700Y0162991D01*
X0083700Y0166307D01*
X0083274Y0167336D01*
X0082486Y0168124D01*
X0081457Y0168550D01*
X0075743Y0168550D01*
X0075600Y0168491D01*
X0075457Y0168550D01*
X0069743Y0168550D01*
X0069600Y0168491D01*
X0069457Y0168550D01*
X0066541Y0168550D01*
X0074641Y0176650D01*
X0075457Y0176650D01*
X0075600Y0176709D01*
X0075743Y0176650D01*
X0081457Y0176650D01*
X0082486Y0177076D01*
X0083274Y0177864D01*
X0083700Y0178893D01*
X0083700Y0179600D01*
X0138493Y0179600D01*
X0138318Y0178949D01*
X0138200Y0178052D01*
X0138200Y0177600D01*
X0145100Y0177600D01*
X0145100Y0177600D01*
X0138200Y0177600D01*
X0138200Y0177148D01*
X0138318Y0176251D01*
X0138552Y0175377D01*
X0138898Y0174542D01*
X0139351Y0173758D01*
X0139901Y0173041D01*
X0140541Y0172401D01*
X0140956Y0172083D01*
X0139929Y0171055D01*
X0139000Y0168813D01*
X0139000Y0166387D01*
X0139243Y0165800D01*
X0139045Y0168923D02*
X0066914Y0168923D01*
X0070112Y0172121D02*
X0140906Y0172121D01*
X0138576Y0175320D02*
X0073311Y0175320D01*
X0083545Y0178518D02*
X0138261Y0178518D01*
X0150876Y0184915D02*
X0313027Y0184915D01*
X0313691Y0184250D02*
X0316227Y0183200D01*
X0318972Y0183200D01*
X0321509Y0184250D01*
X0322600Y0185342D01*
X0323691Y0184250D01*
X0326227Y0183200D01*
X0328972Y0183200D01*
X0331509Y0184250D01*
X0333450Y0186191D01*
X0334500Y0188727D01*
X0334500Y0191472D01*
X0333450Y0194009D01*
X0331509Y0195950D01*
X0328972Y0197000D01*
X0326227Y0197000D01*
X0323691Y0195950D01*
X0322600Y0194858D01*
X0321509Y0195950D01*
X0318972Y0197000D01*
X0316227Y0197000D01*
X0313691Y0195950D01*
X0311750Y0194009D01*
X0310700Y0191472D01*
X0310700Y0188727D01*
X0311750Y0186191D01*
X0313691Y0184250D01*
X0310954Y0188114D02*
X0135941Y0188114D01*
X0131759Y0188114D02*
X0122191Y0188114D01*
X0118009Y0188114D02*
X0108441Y0188114D01*
X0104259Y0188114D02*
X0094691Y0188114D01*
X0093813Y0187750D02*
X0096055Y0188679D01*
X0097771Y0190395D01*
X0098700Y0192637D01*
X0098700Y0195063D01*
X0097771Y0197305D01*
X0096055Y0199021D01*
X0093813Y0199950D01*
X0091387Y0199950D01*
X0089145Y0199021D01*
X0087429Y0197305D01*
X0086500Y0195063D01*
X0086500Y0192637D01*
X0087429Y0190395D01*
X0089145Y0188679D01*
X0091387Y0187750D01*
X0093813Y0187750D01*
X0090509Y0188114D02*
X0082496Y0188114D01*
X0087049Y0191312D02*
X0071400Y0191312D01*
X0071400Y0194511D02*
X0086500Y0194511D01*
X0087832Y0197709D02*
X0071400Y0197709D01*
X0071400Y0200908D02*
X0095097Y0200908D01*
X0094900Y0204106D02*
X0071400Y0204106D01*
X0071400Y0207305D02*
X0094900Y0207305D01*
X0094900Y0210503D02*
X0071400Y0210503D01*
X0071400Y0213702D02*
X0072872Y0213702D01*
X0071500Y0215073D02*
X0075073Y0211500D01*
X0080127Y0211500D01*
X0083700Y0215073D01*
X0083700Y0220127D01*
X0081227Y0222600D01*
X0083700Y0225073D01*
X0083700Y0230127D01*
X0080127Y0233700D01*
X0075073Y0233700D01*
X0071500Y0230127D01*
X0071500Y0225073D01*
X0073973Y0222600D01*
X0071500Y0220127D01*
X0071500Y0215073D01*
X0071500Y0216900D02*
X0071400Y0216900D01*
X0071400Y0220099D02*
X0071500Y0220099D01*
X0071400Y0223297D02*
X0073276Y0223297D01*
X0071500Y0226496D02*
X0071400Y0226496D01*
X0071400Y0229694D02*
X0071500Y0229694D01*
X0067000Y0232200D02*
X0084500Y0249700D01*
X0085100Y0250100D01*
X0077893Y0252084D02*
X0062307Y0252084D01*
X0062700Y0251134D02*
X0061908Y0253046D01*
X0060446Y0254508D01*
X0059017Y0255100D01*
X0060446Y0255692D01*
X0061908Y0257154D01*
X0062700Y0259066D01*
X0062700Y0261134D01*
X0061908Y0263046D01*
X0060446Y0264508D01*
X0058534Y0265300D01*
X0051666Y0265300D01*
X0049754Y0264508D01*
X0048292Y0263046D01*
X0047500Y0261134D01*
X0047500Y0259066D01*
X0048292Y0257154D01*
X0049754Y0255692D01*
X0051183Y0255100D01*
X0049754Y0254508D01*
X0048292Y0253046D01*
X0047500Y0251134D01*
X0047500Y0249066D01*
X0048292Y0247154D01*
X0049754Y0245692D01*
X0051666Y0244900D01*
X0058534Y0244900D01*
X0060446Y0245692D01*
X0061908Y0247154D01*
X0062700Y0249066D01*
X0062700Y0251134D01*
X0062625Y0248885D02*
X0077463Y0248885D01*
X0074264Y0245687D02*
X0060434Y0245687D01*
X0067867Y0239290D02*
X0011950Y0239290D01*
X0011950Y0242488D02*
X0023974Y0242488D01*
X0023468Y0242624D02*
X0026191Y0241894D01*
X0029009Y0241894D01*
X0030360Y0242256D01*
X0030538Y0242273D01*
X0030674Y0242341D01*
X0031732Y0242624D01*
X0034173Y0244033D01*
X0036167Y0246027D01*
X0036646Y0246856D01*
X0036729Y0246948D01*
X0036791Y0247108D01*
X0037576Y0248468D01*
X0038305Y0251191D01*
X0038305Y0254009D01*
X0037576Y0256732D01*
X0036791Y0258092D01*
X0036729Y0258252D01*
X0036646Y0258344D01*
X0036167Y0259173D01*
X0034173Y0261167D01*
X0031732Y0262576D01*
X0030674Y0262859D01*
X0030538Y0262927D01*
X0030360Y0262944D01*
X0029009Y0263305D01*
X0026191Y0263305D01*
X0023468Y0262576D01*
X0022858Y0262224D01*
X0022814Y0262211D01*
X0022742Y0262157D01*
X0021027Y0261167D01*
X0019781Y0259921D01*
X0019665Y0259833D01*
X0019619Y0259759D01*
X0019033Y0259173D01*
X0017624Y0256732D01*
X0016894Y0254009D01*
X0016894Y0252768D01*
X0016863Y0252600D01*
X0016894Y0252432D01*
X0016894Y0251191D01*
X0017624Y0248468D01*
X0019033Y0246027D01*
X0019619Y0245441D01*
X0019665Y0245367D01*
X0019781Y0245279D01*
X0021027Y0244033D01*
X0022742Y0243043D01*
X0022814Y0242989D01*
X0022858Y0242976D01*
X0023468Y0242624D01*
X0019373Y0245687D02*
X0011950Y0245687D01*
X0012107Y0248885D02*
X0017512Y0248885D01*
X0016894Y0252084D02*
X0012837Y0252084D01*
X0013997Y0255282D02*
X0017236Y0255282D01*
X0018634Y0258481D02*
X0015689Y0258481D01*
X0018240Y0261679D02*
X0021915Y0261679D01*
X0022179Y0264878D02*
X0050647Y0264878D01*
X0047726Y0261679D02*
X0033285Y0261679D01*
X0036566Y0258481D02*
X0047742Y0258481D01*
X0050742Y0255282D02*
X0037964Y0255282D01*
X0038305Y0252084D02*
X0047893Y0252084D01*
X0047575Y0248885D02*
X0037688Y0248885D01*
X0035827Y0245687D02*
X0049766Y0245687D01*
X0045458Y0234500D02*
X0042600Y0234500D01*
X0042600Y0227600D01*
X0049500Y0227600D01*
X0049500Y0230458D01*
X0045458Y0234500D01*
X0047065Y0232893D02*
X0062600Y0232893D01*
X0064669Y0236091D02*
X0011950Y0236091D01*
X0011950Y0232893D02*
X0038135Y0232893D01*
X0039742Y0234500D02*
X0035700Y0230458D01*
X0035700Y0227600D01*
X0042600Y0227600D01*
X0042600Y0227600D01*
X0042600Y0227600D01*
X0049500Y0227600D01*
X0049500Y0224742D01*
X0046792Y0222034D01*
X0048700Y0220127D01*
X0048700Y0215073D01*
X0045127Y0211500D01*
X0040073Y0211500D01*
X0036500Y0215073D01*
X0036500Y0220127D01*
X0038408Y0222034D01*
X0035700Y0224742D01*
X0035700Y0227600D01*
X0042600Y0227600D01*
X0042600Y0227600D01*
X0042600Y0234500D01*
X0039742Y0234500D01*
X0042600Y0232893D02*
X0042600Y0232893D01*
X0042600Y0229694D02*
X0042600Y0229694D01*
X0035700Y0229694D02*
X0011950Y0229694D01*
X0011950Y0226496D02*
X0035700Y0226496D01*
X0037145Y0223297D02*
X0011950Y0223297D01*
X0011950Y0220099D02*
X0036500Y0220099D01*
X0036500Y0216900D02*
X0011950Y0216900D01*
X0011950Y0213702D02*
X0037872Y0213702D01*
X0039307Y0207305D02*
X0011950Y0207305D01*
X0011950Y0204106D02*
X0035911Y0204106D01*
X0034466Y0200908D02*
X0011950Y0200908D01*
X0011950Y0197709D02*
X0034978Y0197709D01*
X0034108Y0194511D02*
X0011950Y0194511D01*
X0011950Y0191312D02*
X0034216Y0191312D01*
X0035336Y0188114D02*
X0011950Y0188114D01*
X0011950Y0184915D02*
X0038057Y0184915D01*
X0040517Y0181717D02*
X0011950Y0181717D01*
X0011950Y0178518D02*
X0038220Y0178518D01*
X0037871Y0175320D02*
X0011950Y0175320D01*
X0011950Y0172121D02*
X0039063Y0172121D01*
X0039253Y0168923D02*
X0011950Y0168923D01*
X0011950Y0165724D02*
X0038623Y0165724D01*
X0039635Y0162526D02*
X0011950Y0162526D01*
X0011950Y0159327D02*
X0039421Y0159327D01*
X0038623Y0156129D02*
X0011950Y0156129D01*
X0011950Y0152930D02*
X0039436Y0152930D01*
X0039597Y0149732D02*
X0011950Y0149732D01*
X0011950Y0146533D02*
X0038623Y0146533D01*
X0039269Y0143334D02*
X0011950Y0143334D01*
X0011950Y0140136D02*
X0040002Y0140136D01*
X0038623Y0136937D02*
X0011950Y0136937D01*
X0011950Y0133739D02*
X0039101Y0133739D01*
X0040406Y0130540D02*
X0011950Y0130540D01*
X0011950Y0127342D02*
X0038623Y0127342D01*
X0038934Y0124143D02*
X0011950Y0124143D01*
X0011950Y0120945D02*
X0040811Y0120945D01*
X0038766Y0117746D02*
X0011950Y0117746D01*
X0011950Y0114548D02*
X0038766Y0114548D01*
X0040811Y0111349D02*
X0011950Y0111349D01*
X0011950Y0108151D02*
X0038934Y0108151D01*
X0038623Y0104952D02*
X0011950Y0104952D01*
X0011950Y0101754D02*
X0040407Y0101754D01*
X0039707Y0098555D02*
X0011950Y0098555D01*
X0011950Y0095357D02*
X0036161Y0095357D01*
X0034535Y0092158D02*
X0011950Y0092158D01*
X0011950Y0088960D02*
X0033989Y0088960D01*
X0034251Y0085761D02*
X0011950Y0085761D01*
X0011950Y0082563D02*
X0034228Y0082563D01*
X0035231Y0079364D02*
X0011950Y0079364D01*
X0011950Y0076166D02*
X0037673Y0076166D01*
X0040752Y0072967D02*
X0019922Y0072967D01*
X0019843Y0073000D02*
X0017257Y0073000D01*
X0014868Y0072010D01*
X0013040Y0070182D01*
X0012050Y0067793D01*
X0012050Y0065207D01*
X0013040Y0062818D01*
X0014868Y0060990D01*
X0017257Y0060000D01*
X0019843Y0060000D01*
X0022232Y0060990D01*
X0024060Y0062818D01*
X0025050Y0065207D01*
X0025050Y0067793D01*
X0024060Y0070182D01*
X0022232Y0072010D01*
X0019843Y0073000D01*
X0017178Y0072967D02*
X0011950Y0072967D01*
X0011950Y0069769D02*
X0012868Y0069769D01*
X0012050Y0066570D02*
X0011950Y0066570D01*
X0011950Y0063372D02*
X0012810Y0063372D01*
X0011950Y0060173D02*
X0016839Y0060173D01*
X0020261Y0060173D02*
X0040508Y0060173D01*
X0040914Y0059939D02*
X0041798Y0059573D01*
X0042723Y0059325D01*
X0043672Y0059200D01*
X0044150Y0059200D01*
X0044628Y0059200D01*
X0045577Y0059325D01*
X0046502Y0059573D01*
X0047386Y0059939D01*
X0048214Y0060417D01*
X0048974Y0061000D01*
X0049650Y0061676D01*
X0050233Y0062436D01*
X0050711Y0063264D01*
X0051077Y0064148D01*
X0051325Y0065073D01*
X0051450Y0066022D01*
X0051450Y0066500D01*
X0044150Y0066500D01*
X0044150Y0066500D01*
X0044150Y0066500D01*
X0044150Y0073800D01*
X0044628Y0073800D01*
X0045508Y0073684D01*
X0045508Y0078575D01*
X0043787Y0078416D01*
X0043787Y0073800D01*
X0044150Y0073800D01*
X0044150Y0066500D01*
X0044150Y0059200D01*
X0044150Y0066500D01*
X0044150Y0066500D01*
X0044150Y0066500D01*
X0036850Y0066500D01*
X0036850Y0066022D01*
X0036975Y0065073D01*
X0037223Y0064148D01*
X0037589Y0063264D01*
X0038067Y0062436D01*
X0038650Y0061676D01*
X0039326Y0061000D01*
X0040086Y0060417D01*
X0040914Y0059939D01*
X0044150Y0060173D02*
X0044150Y0060173D01*
X0044150Y0063372D02*
X0044150Y0063372D01*
X0044150Y0066570D02*
X0044150Y0066570D01*
X0044150Y0069769D02*
X0044150Y0069769D01*
X0050692Y0069769D02*
X0054913Y0069769D01*
X0054000Y0066570D02*
X0051450Y0066570D01*
X0050756Y0063372D02*
X0054731Y0063372D01*
X0047792Y0060173D02*
X0066999Y0060173D01*
X0070100Y0060173D02*
X0070100Y0060173D01*
X0070100Y0059450D02*
X0070100Y0066350D01*
X0070100Y0059450D01*
X0073201Y0060173D02*
X0131304Y0060173D01*
X0128106Y0063372D02*
X0123236Y0063372D01*
X0124855Y0066570D02*
X0124907Y0066570D01*
X0130955Y0072967D02*
X0135640Y0072967D01*
X0134503Y0056975D02*
X0011950Y0056975D01*
X0011950Y0053776D02*
X0014434Y0053776D01*
X0014868Y0054210D02*
X0013040Y0052382D01*
X0012050Y0049993D01*
X0012050Y0047407D01*
X0013040Y0045018D01*
X0014868Y0043190D01*
X0017257Y0042200D01*
X0019843Y0042200D01*
X0022232Y0043190D01*
X0024060Y0045018D01*
X0025050Y0047407D01*
X0025050Y0049993D01*
X0024060Y0052382D01*
X0022232Y0054210D01*
X0019843Y0055200D01*
X0017257Y0055200D01*
X0014868Y0054210D01*
X0012292Y0050578D02*
X0011950Y0050578D01*
X0011950Y0047379D02*
X0012062Y0047379D01*
X0011950Y0044181D02*
X0013877Y0044181D01*
X0023223Y0044181D02*
X0039477Y0044181D01*
X0037662Y0047379D02*
X0025038Y0047379D01*
X0024808Y0050578D02*
X0037892Y0050578D01*
X0040034Y0053776D02*
X0022666Y0053776D01*
X0024290Y0063372D02*
X0037544Y0063372D01*
X0036850Y0066570D02*
X0025050Y0066570D01*
X0024232Y0069769D02*
X0037608Y0069769D01*
X0044150Y0072967D02*
X0044150Y0072967D01*
X0043787Y0076166D02*
X0045508Y0076166D01*
X0047548Y0072967D02*
X0068136Y0072967D01*
X0070100Y0072967D02*
X0070100Y0072967D01*
X0072064Y0072967D02*
X0105050Y0072967D01*
X0102634Y0069769D02*
X0095287Y0069769D01*
X0096200Y0066570D02*
X0102255Y0066570D01*
X0103873Y0063372D02*
X0095469Y0063372D01*
X0070100Y0063372D02*
X0070100Y0063372D01*
X0070100Y0066350D02*
X0070100Y0066350D01*
X0070100Y0066570D02*
X0070100Y0066570D01*
X0070100Y0069769D02*
X0070100Y0069769D01*
X0059043Y0076166D02*
X0051622Y0076166D01*
X0054063Y0079364D02*
X0055845Y0079364D01*
X0055100Y0082563D02*
X0055066Y0082563D01*
X0055100Y0092158D02*
X0054834Y0092158D01*
X0055100Y0095357D02*
X0053278Y0095357D01*
X0055100Y0098555D02*
X0049389Y0098555D01*
X0049439Y0101754D02*
X0055100Y0101754D01*
X0055100Y0104952D02*
X0051223Y0104952D01*
X0050912Y0108151D02*
X0055071Y0108151D01*
X0052737Y0111349D02*
X0049034Y0111349D01*
X0078600Y0108151D02*
X0078600Y0108151D01*
X0078600Y0104952D02*
X0078600Y0104952D01*
X0078600Y0101754D02*
X0078600Y0101754D01*
X0078600Y0098555D02*
X0078600Y0098555D01*
X0090541Y0111349D02*
X0114015Y0111349D01*
X0114304Y0114548D02*
X0093739Y0114548D01*
X0087101Y0165724D02*
X0083700Y0165724D01*
X0063128Y0175320D02*
X0051975Y0175320D01*
X0051626Y0178518D02*
X0061655Y0178518D01*
X0061500Y0181717D02*
X0049328Y0181717D01*
X0051329Y0184915D02*
X0061500Y0184915D01*
X0067000Y0183900D02*
X0066600Y0182600D01*
X0067000Y0183900D02*
X0067000Y0232200D01*
X0062600Y0229694D02*
X0049500Y0229694D01*
X0049500Y0226496D02*
X0062600Y0226496D01*
X0062600Y0223297D02*
X0048055Y0223297D01*
X0048700Y0220099D02*
X0062600Y0220099D01*
X0062600Y0216900D02*
X0048700Y0216900D01*
X0047328Y0213702D02*
X0062600Y0213702D01*
X0062600Y0210503D02*
X0011950Y0210503D01*
X0043787Y0207305D02*
X0045508Y0207305D01*
X0045508Y0204106D02*
X0043787Y0204106D01*
X0049987Y0207305D02*
X0062600Y0207305D01*
X0062600Y0204106D02*
X0053383Y0204106D01*
X0054829Y0200908D02*
X0062600Y0200908D01*
X0062600Y0197709D02*
X0054172Y0197709D01*
X0055154Y0194511D02*
X0062600Y0194511D01*
X0062600Y0191312D02*
X0055154Y0191312D01*
X0053948Y0188114D02*
X0062600Y0188114D01*
X0059930Y0172121D02*
X0050782Y0172121D01*
X0098151Y0191312D02*
X0100799Y0191312D01*
X0100250Y0194511D02*
X0098700Y0194511D01*
X0097800Y0197709D02*
X0097367Y0197709D01*
X0106651Y0200908D02*
X0111049Y0200908D01*
X0111117Y0197709D02*
X0115332Y0197709D01*
X0116651Y0200908D02*
X0119608Y0200908D01*
X0123850Y0206350D02*
X0123850Y0206350D01*
X0123850Y0206350D01*
X0123850Y0213250D01*
X0124302Y0213250D01*
X0125199Y0213132D01*
X0126073Y0212898D01*
X0126908Y0212552D01*
X0127692Y0212099D01*
X0128409Y0211549D01*
X0129049Y0210909D01*
X0129599Y0210192D01*
X0130052Y0209408D01*
X0130398Y0208573D01*
X0130632Y0207699D01*
X0130750Y0206802D01*
X0130750Y0206350D01*
X0123850Y0206350D01*
X0123850Y0213250D01*
X0123398Y0213250D01*
X0122501Y0213132D01*
X0121627Y0212898D01*
X0120792Y0212552D01*
X0120008Y0212099D01*
X0119291Y0211549D01*
X0118651Y0210909D01*
X0118333Y0210494D01*
X0117305Y0211521D01*
X0115063Y0212450D01*
X0112637Y0212450D01*
X0110395Y0211521D01*
X0108850Y0209977D01*
X0107305Y0211521D01*
X0105063Y0212450D01*
X0102637Y0212450D01*
X0102100Y0212228D01*
X0102100Y0219676D01*
X0102501Y0219568D01*
X0103398Y0219450D01*
X0103850Y0219450D01*
X0104302Y0219450D01*
X0105199Y0219568D01*
X0106073Y0219802D01*
X0106908Y0220148D01*
X0107692Y0220601D01*
X0108409Y0221151D01*
X0109049Y0221791D01*
X0109599Y0222508D01*
X0110052Y0223292D01*
X0110398Y0224127D01*
X0110632Y0225001D01*
X0110750Y0225898D01*
X0110750Y0226350D01*
X0110750Y0226802D01*
X0110632Y0227699D01*
X0110398Y0228573D01*
X0110052Y0229408D01*
X0109599Y0230192D01*
X0109049Y0230909D01*
X0108409Y0231549D01*
X0107692Y0232099D01*
X0106908Y0232552D01*
X0106073Y0232898D01*
X0105199Y0233132D01*
X0104302Y0233250D01*
X0103850Y0233250D01*
X0103850Y0226350D01*
X0103850Y0226350D01*
X0110750Y0226350D01*
X0103850Y0226350D01*
X0103850Y0226350D01*
X0103850Y0233250D01*
X0103398Y0233250D01*
X0102501Y0233132D01*
X0102100Y0233024D01*
X0102100Y0238128D01*
X0102382Y0237448D01*
X0103698Y0236132D01*
X0105419Y0235419D01*
X0107281Y0235419D01*
X0108925Y0236100D01*
X0138443Y0236100D01*
X0138632Y0235911D01*
X0138072Y0236000D01*
X0137600Y0236000D01*
X0137600Y0227600D01*
X0137600Y0227600D01*
X0137600Y0219200D01*
X0138072Y0219200D01*
X0139005Y0219348D01*
X0139903Y0219640D01*
X0140745Y0220068D01*
X0141509Y0220623D01*
X0142177Y0221291D01*
X0142732Y0222055D01*
X0143031Y0222643D01*
X0143192Y0222254D01*
X0144654Y0220792D01*
X0146566Y0220000D01*
X0148634Y0220000D01*
X0150546Y0220792D01*
X0152008Y0222254D01*
X0152600Y0223683D01*
X0153192Y0222254D01*
X0154654Y0220792D01*
X0156566Y0220000D01*
X0158634Y0220000D01*
X0160546Y0220792D01*
X0161100Y0221346D01*
X0161100Y0221307D01*
X0162090Y0218918D01*
X0163918Y0217090D01*
X0166307Y0216100D01*
X0168893Y0216100D01*
X0171282Y0217090D01*
X0172600Y0218408D01*
X0173918Y0217090D01*
X0175106Y0216597D01*
X0161409Y0202900D01*
X0129826Y0202900D01*
X0130052Y0203292D01*
X0130398Y0204127D01*
X0130632Y0205001D01*
X0130750Y0205898D01*
X0130750Y0206350D01*
X0123850Y0206350D01*
X0123850Y0207305D02*
X0123850Y0207305D01*
X0123850Y0210503D02*
X0123850Y0210503D01*
X0118340Y0210503D02*
X0118323Y0210503D01*
X0109377Y0210503D02*
X0108323Y0210503D01*
X0102100Y0213702D02*
X0172211Y0213702D01*
X0170825Y0216900D02*
X0174375Y0216900D01*
X0179194Y0210503D02*
X0324040Y0210503D01*
X0320841Y0213702D02*
X0182393Y0213702D01*
X0190825Y0216900D02*
X0194375Y0216900D01*
X0200825Y0216900D02*
X0204375Y0216900D01*
X0210825Y0216900D02*
X0214375Y0216900D01*
X0220825Y0216900D02*
X0224375Y0216900D01*
X0230825Y0216900D02*
X0234375Y0216900D01*
X0240825Y0216900D02*
X0244375Y0216900D01*
X0250825Y0216900D02*
X0254375Y0216900D01*
X0260825Y0216900D02*
X0264375Y0216900D01*
X0270825Y0216900D02*
X0274375Y0216900D01*
X0280825Y0216900D02*
X0284375Y0216900D01*
X0290825Y0216900D02*
X0293036Y0216900D01*
X0297600Y0216900D02*
X0297600Y0216900D01*
X0297600Y0215300D02*
X0297600Y0222600D01*
X0297600Y0222600D01*
X0297600Y0215300D01*
X0302164Y0216900D02*
X0317643Y0216900D01*
X0314444Y0220099D02*
X0304465Y0220099D01*
X0304871Y0223297D02*
X0311246Y0223297D01*
X0308047Y0226496D02*
X0303780Y0226496D01*
X0304849Y0229694D02*
X0299329Y0229694D01*
X0297600Y0229694D02*
X0297600Y0229694D01*
X0295871Y0229694D02*
X0265490Y0229694D01*
X0259710Y0229694D02*
X0225490Y0229694D01*
X0226055Y0229929D02*
X0223813Y0229000D01*
X0221387Y0229000D01*
X0219145Y0229929D01*
X0217600Y0231473D01*
X0216055Y0229929D01*
X0213813Y0229000D01*
X0211387Y0229000D01*
X0209145Y0229929D01*
X0207429Y0231645D01*
X0206500Y0233887D01*
X0206500Y0236313D01*
X0207429Y0238555D01*
X0209145Y0240271D01*
X0211387Y0241200D01*
X0213813Y0241200D01*
X0216055Y0240271D01*
X0217600Y0238727D01*
X0219145Y0240271D01*
X0221387Y0241200D01*
X0223813Y0241200D01*
X0226055Y0240271D01*
X0227771Y0238555D01*
X0228700Y0236313D01*
X0228700Y0233887D01*
X0227771Y0231645D01*
X0226055Y0229929D01*
X0228288Y0232893D02*
X0256912Y0232893D01*
X0256500Y0236091D02*
X0228700Y0236091D01*
X0227037Y0239290D02*
X0258163Y0239290D01*
X0267037Y0239290D02*
X0332751Y0239290D01*
X0334928Y0239290D02*
X0336059Y0239290D01*
X0338236Y0239290D02*
X0377445Y0239290D01*
X0377078Y0242488D02*
X0361727Y0242488D01*
X0358473Y0242488D02*
X0349916Y0242488D01*
X0346662Y0242488D02*
X0343122Y0242488D01*
X0336059Y0242488D02*
X0334928Y0242488D01*
X0334928Y0245687D02*
X0336059Y0245687D01*
X0334928Y0248885D02*
X0100906Y0248885D01*
X0102100Y0245687D02*
X0326079Y0245687D01*
X0327865Y0242488D02*
X0143368Y0242488D01*
X0146567Y0239290D02*
X0167118Y0239290D01*
X0166851Y0238942D02*
X0166398Y0238158D01*
X0166052Y0237323D01*
X0165818Y0236449D01*
X0165700Y0235552D01*
X0165700Y0235100D01*
X0172600Y0235100D01*
X0179500Y0235100D01*
X0179500Y0235552D01*
X0179382Y0236449D01*
X0179148Y0237323D01*
X0178802Y0238158D01*
X0178349Y0238942D01*
X0177799Y0239659D01*
X0177159Y0240299D01*
X0176442Y0240849D01*
X0175658Y0241302D01*
X0174823Y0241648D01*
X0173949Y0241882D01*
X0173052Y0242000D01*
X0172600Y0242000D01*
X0172600Y0235100D01*
X0172600Y0235100D01*
X0172600Y0235100D01*
X0179500Y0235100D01*
X0179500Y0234648D01*
X0179382Y0233751D01*
X0179148Y0232877D01*
X0178802Y0232042D01*
X0178349Y0231258D01*
X0177799Y0230541D01*
X0177159Y0229901D01*
X0176442Y0229351D01*
X0175658Y0228898D01*
X0174823Y0228552D01*
X0173949Y0228318D01*
X0173052Y0228200D01*
X0172600Y0228200D01*
X0172600Y0235100D01*
X0172600Y0235100D01*
X0172600Y0235100D01*
X0172600Y0242000D01*
X0172148Y0242000D01*
X0171251Y0241882D01*
X0170377Y0241648D01*
X0169542Y0241302D01*
X0168758Y0240849D01*
X0168041Y0240299D01*
X0167401Y0239659D01*
X0166851Y0238942D01*
X0165771Y0236091D02*
X0149766Y0236091D01*
X0152030Y0232893D02*
X0153170Y0232893D01*
X0162030Y0232893D02*
X0166048Y0232893D01*
X0166052Y0232877D02*
X0166398Y0232042D01*
X0166851Y0231258D01*
X0167401Y0230541D01*
X0168041Y0229901D01*
X0168758Y0229351D01*
X0169542Y0228898D01*
X0170377Y0228552D01*
X0171251Y0228318D01*
X0172148Y0228200D01*
X0172600Y0228200D01*
X0172600Y0235100D01*
X0165700Y0235100D01*
X0165700Y0234648D01*
X0165818Y0233751D01*
X0166052Y0232877D01*
X0168310Y0229694D02*
X0162800Y0229694D01*
X0152760Y0223297D02*
X0152440Y0223297D01*
X0148873Y0220099D02*
X0156327Y0220099D01*
X0158873Y0220099D02*
X0161600Y0220099D01*
X0164375Y0216900D02*
X0102100Y0216900D01*
X0103850Y0219450D02*
X0103850Y0226350D01*
X0103850Y0219450D01*
X0103850Y0220099D02*
X0103850Y0220099D01*
X0106789Y0220099D02*
X0120911Y0220099D01*
X0120792Y0220148D02*
X0121627Y0219802D01*
X0122501Y0219568D01*
X0123398Y0219450D01*
X0123850Y0219450D01*
X0124302Y0219450D01*
X0125199Y0219568D01*
X0126073Y0219802D01*
X0126908Y0220148D01*
X0127692Y0220601D01*
X0128409Y0221151D01*
X0129049Y0221791D01*
X0129599Y0222508D01*
X0130052Y0223292D01*
X0130398Y0224127D01*
X0130632Y0225001D01*
X0130750Y0225898D01*
X0130750Y0226350D01*
X0130750Y0226802D01*
X0130632Y0227699D01*
X0130398Y0228573D01*
X0130052Y0229408D01*
X0129599Y0230192D01*
X0129049Y0230909D01*
X0128409Y0231549D01*
X0127692Y0232099D01*
X0126908Y0232552D01*
X0126073Y0232898D01*
X0125199Y0233132D01*
X0124302Y0233250D01*
X0123850Y0233250D01*
X0123850Y0226350D01*
X0130750Y0226350D01*
X0123850Y0226350D01*
X0123850Y0226350D01*
X0123850Y0226350D01*
X0123850Y0219450D01*
X0123850Y0226350D01*
X0123850Y0226350D01*
X0123850Y0226350D01*
X0116950Y0226350D01*
X0116950Y0226802D01*
X0117068Y0227699D01*
X0117302Y0228573D01*
X0117648Y0229408D01*
X0118101Y0230192D01*
X0118651Y0230909D01*
X0119291Y0231549D01*
X0120008Y0232099D01*
X0120792Y0232552D01*
X0121627Y0232898D01*
X0122501Y0233132D01*
X0123398Y0233250D01*
X0123850Y0233250D01*
X0123850Y0226350D01*
X0116950Y0226350D01*
X0116950Y0225898D01*
X0117068Y0225001D01*
X0117302Y0224127D01*
X0117648Y0223292D01*
X0118101Y0222508D01*
X0118651Y0221791D01*
X0119291Y0221151D01*
X0120008Y0220601D01*
X0120792Y0220148D01*
X0123850Y0220099D02*
X0123850Y0220099D01*
X0126789Y0220099D02*
X0134413Y0220099D01*
X0134455Y0220068D02*
X0135297Y0219640D01*
X0136195Y0219348D01*
X0137128Y0219200D01*
X0137600Y0219200D01*
X0137600Y0227600D01*
X0137600Y0227600D01*
X0137600Y0227600D01*
X0131600Y0227600D01*
X0131600Y0230472D01*
X0131748Y0231405D01*
X0132040Y0232303D01*
X0132468Y0233145D01*
X0133023Y0233909D01*
X0133691Y0234577D01*
X0134455Y0235132D01*
X0135297Y0235560D01*
X0136195Y0235852D01*
X0137128Y0236000D01*
X0137600Y0236000D01*
X0137600Y0227600D01*
X0131600Y0227600D01*
X0131600Y0224728D01*
X0131748Y0223795D01*
X0132040Y0222897D01*
X0132468Y0222055D01*
X0133023Y0221291D01*
X0133691Y0220623D01*
X0134455Y0220068D01*
X0137600Y0220099D02*
X0137600Y0220099D01*
X0140787Y0220099D02*
X0146327Y0220099D01*
X0137600Y0223297D02*
X0137600Y0223297D01*
X0137600Y0226496D02*
X0137600Y0226496D01*
X0137600Y0229694D02*
X0137600Y0229694D01*
X0131600Y0229694D02*
X0129887Y0229694D01*
X0130750Y0226496D02*
X0131600Y0226496D01*
X0131909Y0223297D02*
X0130054Y0223297D01*
X0123850Y0223297D02*
X0123850Y0223297D01*
X0123850Y0226496D02*
X0123850Y0226496D01*
X0123850Y0229694D02*
X0123850Y0229694D01*
X0117813Y0229694D02*
X0109887Y0229694D01*
X0110750Y0226496D02*
X0116950Y0226496D01*
X0117646Y0223297D02*
X0110054Y0223297D01*
X0103850Y0223297D02*
X0103850Y0223297D01*
X0103850Y0226350D02*
X0103850Y0226350D01*
X0103850Y0226496D02*
X0103850Y0226496D01*
X0103850Y0229694D02*
X0103850Y0229694D01*
X0103850Y0232893D02*
X0103850Y0232893D01*
X0106085Y0232893D02*
X0121615Y0232893D01*
X0123850Y0232893D02*
X0123850Y0232893D01*
X0126085Y0232893D02*
X0132340Y0232893D01*
X0137600Y0232893D02*
X0137600Y0232893D01*
X0138452Y0236091D02*
X0108905Y0236091D01*
X0103795Y0236091D02*
X0102100Y0236091D01*
X0094900Y0236091D02*
X0077114Y0236091D01*
X0074266Y0232893D02*
X0073915Y0232893D01*
X0080934Y0232893D02*
X0094900Y0232893D01*
X0094900Y0229694D02*
X0083700Y0229694D01*
X0083700Y0226496D02*
X0094900Y0226496D01*
X0094900Y0223297D02*
X0081924Y0223297D01*
X0083700Y0220099D02*
X0094900Y0220099D01*
X0094900Y0216900D02*
X0083700Y0216900D01*
X0082328Y0213702D02*
X0094900Y0213702D01*
X0112450Y0194511D02*
X0114000Y0194511D01*
X0114549Y0191312D02*
X0111901Y0191312D01*
X0125651Y0191312D02*
X0128299Y0191312D01*
X0127750Y0194511D02*
X0126200Y0194511D01*
X0130389Y0204106D02*
X0162615Y0204106D01*
X0165814Y0207305D02*
X0130684Y0207305D01*
X0129360Y0210503D02*
X0169012Y0210503D01*
X0175996Y0207305D02*
X0327238Y0207305D01*
X0330437Y0204106D02*
X0172797Y0204106D01*
X0169599Y0200908D02*
X0333635Y0200908D01*
X0332947Y0194511D02*
X0365554Y0194511D01*
X0365300Y0192600D02*
X0365300Y0192122D01*
X0365425Y0191173D01*
X0365673Y0190248D01*
X0366039Y0189364D01*
X0366517Y0188536D01*
X0367100Y0187776D01*
X0367776Y0187100D01*
X0368536Y0186517D01*
X0369364Y0186039D01*
X0370248Y0185673D01*
X0371173Y0185425D01*
X0372122Y0185300D01*
X0372600Y0185300D01*
X0372600Y0192600D01*
X0365300Y0192600D01*
X0365407Y0191312D02*
X0334500Y0191312D01*
X0334246Y0188114D02*
X0366841Y0188114D01*
X0372600Y0188114D02*
X0372600Y0188114D01*
X0372600Y0191312D02*
X0372600Y0191312D01*
X0367385Y0197709D02*
X0166400Y0197709D01*
X0154075Y0181717D02*
X0377000Y0181717D01*
X0377000Y0184915D02*
X0332173Y0184915D01*
X0323027Y0184915D02*
X0322173Y0184915D01*
X0310700Y0191312D02*
X0139401Y0191312D01*
X0139950Y0194511D02*
X0312253Y0194511D01*
X0335354Y0210503D02*
X0377000Y0210503D01*
X0377000Y0213702D02*
X0332155Y0213702D01*
X0328957Y0216900D02*
X0377000Y0216900D01*
X0377000Y0220099D02*
X0325758Y0220099D01*
X0322560Y0223297D02*
X0377000Y0223297D01*
X0377000Y0226496D02*
X0319361Y0226496D01*
X0316163Y0229694D02*
X0377000Y0229694D01*
X0377000Y0232893D02*
X0312964Y0232893D01*
X0309766Y0236091D02*
X0377000Y0236091D01*
X0366619Y0245687D02*
X0365825Y0245687D01*
X0365796Y0252084D02*
X0366648Y0252084D01*
X0361556Y0255282D02*
X0377134Y0255282D01*
X0382274Y0258481D02*
X0337926Y0258481D01*
X0336059Y0258481D02*
X0334928Y0258481D01*
X0333061Y0258481D02*
X0092458Y0258481D01*
X0092474Y0261679D02*
X0396915Y0261679D01*
X0393634Y0258481D02*
X0387139Y0258481D01*
X0385272Y0258481D02*
X0384141Y0258481D01*
X0384141Y0255282D02*
X0385272Y0255282D01*
X0385272Y0252084D02*
X0384141Y0252084D01*
X0394121Y0245687D02*
X0394373Y0245687D01*
X0392335Y0242488D02*
X0398974Y0242488D01*
X0406226Y0242488D02*
X0418250Y0242488D01*
X0418250Y0245687D02*
X0410827Y0245687D01*
X0412688Y0248885D02*
X0418093Y0248885D01*
X0417363Y0252084D02*
X0413305Y0252084D01*
X0412964Y0255282D02*
X0416203Y0255282D01*
X0414511Y0258481D02*
X0411566Y0258481D01*
X0411960Y0261679D02*
X0408285Y0261679D01*
X0408021Y0264878D02*
X0089553Y0264878D01*
X0080647Y0264878D02*
X0059553Y0264878D01*
X0062474Y0261679D02*
X0077726Y0261679D01*
X0077742Y0258481D02*
X0062458Y0258481D01*
X0059458Y0255282D02*
X0080742Y0255282D01*
X0094509Y0255282D02*
X0327922Y0255282D01*
X0334928Y0255282D02*
X0336059Y0255282D01*
X0343066Y0255282D02*
X0346833Y0255282D01*
X0349745Y0255282D02*
X0358644Y0255282D01*
X0354404Y0252084D02*
X0353985Y0252084D01*
X0354014Y0245687D02*
X0354375Y0245687D01*
X0336059Y0252084D02*
X0334928Y0252084D01*
X0326104Y0252084D02*
X0097707Y0252084D01*
X0093922Y0245687D02*
X0090434Y0245687D01*
X0094900Y0242488D02*
X0083511Y0242488D01*
X0080312Y0239290D02*
X0094900Y0239290D01*
X0102100Y0242488D02*
X0102273Y0242488D01*
X0071066Y0242488D02*
X0031226Y0242488D01*
X0031241Y0268076D02*
X0398959Y0268076D01*
X0368112Y0207305D02*
X0338552Y0207305D01*
X0297600Y0220099D02*
X0297600Y0220099D01*
X0297600Y0223297D02*
X0297600Y0223297D01*
X0297600Y0226496D02*
X0297600Y0226496D01*
X0219710Y0229694D02*
X0215490Y0229694D01*
X0209710Y0229694D02*
X0176890Y0229694D01*
X0172600Y0229694D02*
X0172600Y0229694D01*
X0172600Y0232893D02*
X0172600Y0232893D01*
X0172600Y0236091D02*
X0172600Y0236091D01*
X0172600Y0239290D02*
X0172600Y0239290D01*
X0178082Y0239290D02*
X0208163Y0239290D01*
X0206500Y0236091D02*
X0179429Y0236091D01*
X0179152Y0232893D02*
X0206912Y0232893D01*
X0217037Y0239290D02*
X0218163Y0239290D01*
X0157273Y0178518D02*
X0377000Y0178518D01*
X0377000Y0175320D02*
X0160472Y0175320D01*
X0163670Y0172121D02*
X0367929Y0172121D01*
X0366112Y0168923D02*
X0329321Y0168923D01*
X0328893Y0169100D02*
X0326307Y0169100D01*
X0323918Y0168110D01*
X0322600Y0166792D01*
X0321282Y0168110D01*
X0318893Y0169100D01*
X0316307Y0169100D01*
X0313918Y0168110D01*
X0312090Y0166282D01*
X0311100Y0163893D01*
X0311100Y0161307D01*
X0312090Y0158918D01*
X0313918Y0157090D01*
X0316307Y0156100D01*
X0318893Y0156100D01*
X0321282Y0157090D01*
X0322600Y0158408D01*
X0323918Y0157090D01*
X0326307Y0156100D01*
X0328893Y0156100D01*
X0331282Y0157090D01*
X0333110Y0158918D01*
X0334100Y0161307D01*
X0334100Y0163893D01*
X0333110Y0166282D01*
X0331282Y0168110D01*
X0328893Y0169100D01*
X0325879Y0168923D02*
X0319321Y0168923D01*
X0315879Y0168923D02*
X0166869Y0168923D01*
X0170067Y0165724D02*
X0311858Y0165724D01*
X0311100Y0162526D02*
X0173266Y0162526D01*
X0176464Y0159327D02*
X0311920Y0159327D01*
X0316238Y0156129D02*
X0179663Y0156129D01*
X0182861Y0152930D02*
X0366982Y0152930D01*
X0367100Y0152776D02*
X0367776Y0152100D01*
X0368536Y0151517D01*
X0369364Y0151039D01*
X0370248Y0150673D01*
X0371173Y0150425D01*
X0372122Y0150300D01*
X0372600Y0150300D01*
X0372600Y0157600D01*
X0365300Y0157600D01*
X0365300Y0157122D01*
X0365425Y0156173D01*
X0365673Y0155248D01*
X0366039Y0154364D01*
X0366517Y0153536D01*
X0367100Y0152776D01*
X0365437Y0156129D02*
X0328962Y0156129D01*
X0326238Y0156129D02*
X0318962Y0156129D01*
X0333280Y0159327D02*
X0365505Y0159327D01*
X0367202Y0162526D02*
X0334100Y0162526D01*
X0333342Y0165724D02*
X0366341Y0165724D01*
X0372600Y0156129D02*
X0372600Y0156129D01*
X0372600Y0152930D02*
X0372600Y0152930D01*
X0377000Y0149732D02*
X0186060Y0149732D01*
X0189258Y0146533D02*
X0286643Y0146533D01*
X0282678Y0143334D02*
X0191000Y0143334D01*
X0191000Y0140136D02*
X0279479Y0140136D01*
X0272745Y0136937D02*
X0272455Y0136937D01*
X0262745Y0136937D02*
X0262455Y0136937D01*
X0252745Y0136937D02*
X0252455Y0136937D01*
X0242745Y0136937D02*
X0242455Y0136937D01*
X0232745Y0136937D02*
X0232455Y0136937D01*
X0222745Y0136937D02*
X0222455Y0136937D01*
X0212745Y0136937D02*
X0212455Y0136937D01*
X0202745Y0136937D02*
X0202455Y0136937D01*
X0192745Y0136937D02*
X0192455Y0136937D01*
X0189672Y0108151D02*
X0188028Y0108151D01*
X0256768Y0069769D02*
X0327512Y0069769D01*
X0330710Y0066570D02*
X0259287Y0066570D01*
X0262485Y0063372D02*
X0333909Y0063372D01*
X0345764Y0060173D02*
X0265684Y0060173D01*
X0268653Y0056975D02*
X0345319Y0056975D01*
X0345300Y0057122D02*
X0345425Y0056173D01*
X0345673Y0055248D01*
X0346039Y0054364D01*
X0346517Y0053536D01*
X0347100Y0052776D01*
X0347276Y0052600D01*
X0347100Y0052424D01*
X0346517Y0051664D01*
X0346039Y0050836D01*
X0345673Y0049952D01*
X0345425Y0049027D01*
X0345300Y0048078D01*
X0345300Y0047600D01*
X0352600Y0047600D01*
X0359900Y0047600D01*
X0359900Y0048078D01*
X0359775Y0049027D01*
X0359527Y0049952D01*
X0359161Y0050836D01*
X0358683Y0051664D01*
X0358100Y0052424D01*
X0357924Y0052600D01*
X0358100Y0052776D01*
X0358683Y0053536D01*
X0359161Y0054364D01*
X0359527Y0055248D01*
X0359775Y0056173D01*
X0359900Y0057122D01*
X0359900Y0057600D01*
X0352600Y0057600D01*
X0352600Y0057600D01*
X0352600Y0057600D01*
X0352600Y0047600D01*
X0352600Y0047600D01*
X0352600Y0047600D01*
X0359900Y0047600D01*
X0359900Y0047122D01*
X0359775Y0046173D01*
X0359527Y0045248D01*
X0359161Y0044364D01*
X0358683Y0043536D01*
X0358100Y0042776D01*
X0357424Y0042100D01*
X0356664Y0041517D01*
X0355836Y0041039D01*
X0354952Y0040673D01*
X0354027Y0040425D01*
X0353078Y0040300D01*
X0352600Y0040300D01*
X0352600Y0047600D01*
X0352600Y0047600D01*
X0352600Y0047600D01*
X0352600Y0054900D01*
X0352600Y0057600D01*
X0352600Y0057600D01*
X0345300Y0057600D01*
X0345300Y0057122D01*
X0346378Y0053776D02*
X0269100Y0053776D01*
X0269100Y0050578D02*
X0345932Y0050578D01*
X0352600Y0050578D02*
X0352600Y0050578D01*
X0352600Y0053776D02*
X0352600Y0053776D01*
X0352600Y0056975D02*
X0352600Y0056975D01*
X0358822Y0053776D02*
X0369850Y0053776D01*
X0369850Y0050578D02*
X0359268Y0050578D01*
X0359900Y0047379D02*
X0369850Y0047379D01*
X0369850Y0044181D02*
X0359055Y0044181D01*
X0355699Y0040982D02*
X0369850Y0040982D01*
X0369850Y0037784D02*
X0332456Y0037784D01*
X0332791Y0037516D02*
X0331919Y0038212D01*
X0330974Y0038805D01*
X0329969Y0039289D01*
X0328917Y0039658D01*
X0327829Y0039906D01*
X0326728Y0040030D01*
X0326728Y0030665D01*
X0325598Y0030665D01*
X0325598Y0029535D01*
X0316233Y0029535D01*
X0316357Y0028434D01*
X0316605Y0027346D01*
X0316974Y0026294D01*
X0317458Y0025289D01*
X0318051Y0024344D01*
X0318747Y0023472D01*
X0319535Y0022684D01*
X0320407Y0021988D01*
X0321352Y0021395D01*
X0322357Y0020911D01*
X0323409Y0020542D01*
X0324497Y0020294D01*
X0325598Y0020170D01*
X0325598Y0029535D01*
X0326728Y0029535D01*
X0326728Y0030665D01*
X0336093Y0030665D01*
X0335969Y0031766D01*
X0335721Y0032854D01*
X0335352Y0033906D01*
X0334868Y0034911D01*
X0334275Y0035856D01*
X0333579Y0036728D01*
X0332791Y0037516D01*
X0335025Y0034585D02*
X0358589Y0034585D01*
X0358351Y0034275D02*
X0357918Y0033525D01*
X0357587Y0032726D01*
X0357363Y0031890D01*
X0357250Y0031033D01*
X0357250Y0027600D01*
X0363850Y0027600D01*
X0363850Y0027600D01*
X0363850Y0027600D01*
X0363850Y0037200D01*
X0363417Y0037200D01*
X0362560Y0037087D01*
X0361724Y0036863D01*
X0360925Y0036532D01*
X0360175Y0036099D01*
X0359489Y0035573D01*
X0358877Y0034961D01*
X0358351Y0034275D01*
X0357297Y0031387D02*
X0336012Y0031387D01*
X0336093Y0029535D02*
X0326728Y0029535D01*
X0326728Y0020170D01*
X0327829Y0020294D01*
X0328917Y0020542D01*
X0329969Y0020911D01*
X0330974Y0021395D01*
X0331919Y0021988D01*
X0332791Y0022684D01*
X0333579Y0023472D01*
X0334275Y0024344D01*
X0334868Y0025289D01*
X0335352Y0026294D01*
X0335721Y0027346D01*
X0335969Y0028434D01*
X0336093Y0029535D01*
X0335913Y0028188D02*
X0357250Y0028188D01*
X0357250Y0027600D02*
X0357250Y0024167D01*
X0357363Y0023310D01*
X0357587Y0022474D01*
X0357918Y0021675D01*
X0358351Y0020925D01*
X0358877Y0020239D01*
X0359489Y0019627D01*
X0360175Y0019101D01*
X0360925Y0018668D01*
X0361724Y0018337D01*
X0362560Y0018113D01*
X0363417Y0018000D01*
X0363850Y0018000D01*
X0363850Y0027600D01*
X0357250Y0027600D01*
X0357250Y0024990D02*
X0334680Y0024990D01*
X0331605Y0021791D02*
X0357870Y0021791D01*
X0361107Y0018593D02*
X0301484Y0018593D01*
X0302450Y0015394D02*
X0408111Y0015394D01*
X0406732Y0017624D02*
X0409173Y0019033D01*
X0411167Y0021027D01*
X0411646Y0021856D01*
X0411729Y0021948D01*
X0411791Y0022108D01*
X0412576Y0023468D01*
X0413305Y0026191D01*
X0413305Y0029009D01*
X0412576Y0031732D01*
X0411791Y0033092D01*
X0411729Y0033252D01*
X0411646Y0033344D01*
X0411167Y0034173D01*
X0409173Y0036167D01*
X0406732Y0037576D01*
X0405674Y0037859D01*
X0405538Y0037927D01*
X0405360Y0037944D01*
X0404009Y0038305D01*
X0401191Y0038305D01*
X0398468Y0037576D01*
X0397858Y0037224D01*
X0397814Y0037211D01*
X0397742Y0037157D01*
X0396027Y0036167D01*
X0394781Y0034921D01*
X0394665Y0034833D01*
X0394619Y0034759D01*
X0394033Y0034173D01*
X0392624Y0031732D01*
X0391894Y0029009D01*
X0391894Y0027768D01*
X0391863Y0027600D01*
X0391894Y0027432D01*
X0391894Y0026191D01*
X0392624Y0023468D01*
X0394033Y0021027D01*
X0394619Y0020441D01*
X0394665Y0020367D01*
X0394781Y0020279D01*
X0396027Y0019033D01*
X0397742Y0018043D01*
X0397814Y0017989D01*
X0397858Y0017976D01*
X0398468Y0017624D01*
X0401191Y0016894D01*
X0404009Y0016894D01*
X0405360Y0017256D01*
X0405538Y0017273D01*
X0405674Y0017341D01*
X0406732Y0017624D01*
X0408410Y0018593D02*
X0412018Y0018593D01*
X0411608Y0021791D02*
X0414568Y0021791D01*
X0412984Y0024990D02*
X0416237Y0024990D01*
X0417380Y0028188D02*
X0413305Y0028188D01*
X0412669Y0031387D02*
X0418110Y0031387D01*
X0418250Y0034585D02*
X0410755Y0034585D01*
X0405957Y0037784D02*
X0418250Y0037784D01*
X0418250Y0040982D02*
X0377850Y0040982D01*
X0377850Y0037784D02*
X0399243Y0037784D01*
X0394445Y0034585D02*
X0388067Y0034585D01*
X0389650Y0031387D02*
X0392531Y0031387D01*
X0391894Y0028188D02*
X0389650Y0028188D01*
X0389650Y0024990D02*
X0392216Y0024990D01*
X0393592Y0021791D02*
X0388964Y0021791D01*
X0396790Y0018593D02*
X0366593Y0018593D01*
X0363850Y0018593D02*
X0363850Y0018593D01*
X0363850Y0021791D02*
X0363850Y0021791D01*
X0363850Y0024990D02*
X0363850Y0024990D01*
X0363850Y0028188D02*
X0363850Y0028188D01*
X0363850Y0031387D02*
X0363850Y0031387D01*
X0363850Y0034585D02*
X0363850Y0034585D01*
X0369111Y0034585D02*
X0369633Y0034585D01*
X0378067Y0034585D02*
X0379633Y0034585D01*
X0377850Y0044181D02*
X0418250Y0044181D01*
X0418250Y0047379D02*
X0377850Y0047379D01*
X0377850Y0050578D02*
X0418250Y0050578D01*
X0418250Y0053776D02*
X0377850Y0053776D01*
X0377850Y0056975D02*
X0418250Y0056975D01*
X0418250Y0060173D02*
X0377850Y0060173D01*
X0377850Y0063372D02*
X0418250Y0063372D01*
X0418250Y0066570D02*
X0377850Y0066570D01*
X0377850Y0069769D02*
X0418250Y0069769D01*
X0418250Y0072967D02*
X0377850Y0072967D01*
X0377850Y0076166D02*
X0418250Y0076166D01*
X0418250Y0079364D02*
X0377850Y0079364D01*
X0377850Y0082563D02*
X0418250Y0082563D01*
X0418250Y0085761D02*
X0377850Y0085761D01*
X0377850Y0088960D02*
X0418250Y0088960D01*
X0418250Y0092158D02*
X0377850Y0092158D01*
X0377850Y0095357D02*
X0418250Y0095357D01*
X0418250Y0098555D02*
X0377850Y0098555D01*
X0377850Y0101754D02*
X0418250Y0101754D01*
X0418250Y0104952D02*
X0377850Y0104952D01*
X0377850Y0108151D02*
X0418250Y0108151D01*
X0418250Y0111349D02*
X0377850Y0111349D01*
X0379368Y0114548D02*
X0376309Y0114548D01*
X0377000Y0117746D02*
X0373110Y0117746D01*
X0369912Y0120945D02*
X0377000Y0120945D01*
X0377000Y0124143D02*
X0366713Y0124143D01*
X0363515Y0127342D02*
X0377000Y0127342D01*
X0377000Y0130540D02*
X0360316Y0130540D01*
X0357118Y0133739D02*
X0377000Y0133739D01*
X0377000Y0136937D02*
X0353919Y0136937D01*
X0350721Y0140136D02*
X0377000Y0140136D01*
X0377000Y0143334D02*
X0347522Y0143334D01*
X0343557Y0146533D02*
X0377000Y0146533D01*
X0349003Y0130540D02*
X0306145Y0130540D01*
X0304100Y0133739D02*
X0345804Y0133739D01*
X0342606Y0136937D02*
X0302455Y0136937D01*
X0308544Y0127342D02*
X0352201Y0127342D01*
X0355400Y0124143D02*
X0310942Y0124143D01*
X0313341Y0120945D02*
X0358598Y0120945D01*
X0361797Y0117746D02*
X0332502Y0117746D01*
X0332791Y0117516D02*
X0331919Y0118212D01*
X0330974Y0118805D01*
X0329969Y0119289D01*
X0328917Y0119658D01*
X0327829Y0119906D01*
X0326728Y0120030D01*
X0326728Y0110665D01*
X0336093Y0110665D01*
X0335969Y0111766D01*
X0335721Y0112854D01*
X0335352Y0113906D01*
X0334868Y0114911D01*
X0334275Y0115856D01*
X0333579Y0116728D01*
X0332791Y0117516D01*
X0335043Y0114548D02*
X0364995Y0114548D01*
X0368194Y0111349D02*
X0336016Y0111349D01*
X0336093Y0109535D02*
X0326728Y0109535D01*
X0326728Y0100170D01*
X0327829Y0100294D01*
X0328917Y0100542D01*
X0329969Y0100911D01*
X0330974Y0101395D01*
X0331919Y0101988D01*
X0332791Y0102684D01*
X0333579Y0103472D01*
X0334275Y0104344D01*
X0334868Y0105289D01*
X0335352Y0106294D01*
X0335721Y0107346D01*
X0335969Y0108434D01*
X0336093Y0109535D01*
X0335904Y0108151D02*
X0369850Y0108151D01*
X0369850Y0104952D02*
X0334657Y0104952D01*
X0331546Y0101754D02*
X0347561Y0101754D01*
X0346100Y0098555D02*
X0318200Y0098555D01*
X0318200Y0095357D02*
X0346494Y0095357D01*
X0347966Y0092158D02*
X0320961Y0092158D01*
X0324160Y0088960D02*
X0346128Y0088960D01*
X0346326Y0085761D02*
X0327358Y0085761D01*
X0330557Y0082563D02*
X0348370Y0082563D01*
X0346295Y0079364D02*
X0333755Y0079364D01*
X0336954Y0076166D02*
X0346159Y0076166D01*
X0356830Y0082563D02*
X0369850Y0082563D01*
X0369850Y0085761D02*
X0358874Y0085761D01*
X0359072Y0088960D02*
X0369850Y0088960D01*
X0369850Y0092158D02*
X0357234Y0092158D01*
X0358706Y0095357D02*
X0369850Y0095357D01*
X0369850Y0098555D02*
X0359100Y0098555D01*
X0357639Y0101754D02*
X0369850Y0101754D01*
X0369850Y0079364D02*
X0358905Y0079364D01*
X0359041Y0076166D02*
X0369850Y0076166D01*
X0369850Y0072967D02*
X0357160Y0072967D01*
X0358737Y0069769D02*
X0369850Y0069769D01*
X0369850Y0066570D02*
X0359100Y0066570D01*
X0357564Y0063372D02*
X0369850Y0063372D01*
X0369850Y0060173D02*
X0359436Y0060173D01*
X0359881Y0056975D02*
X0369850Y0056975D01*
X0352600Y0047600D02*
X0352600Y0040300D01*
X0352122Y0040300D01*
X0351173Y0040425D01*
X0350248Y0040673D01*
X0349364Y0041039D01*
X0348536Y0041517D01*
X0347776Y0042100D01*
X0347100Y0042776D01*
X0346517Y0043536D01*
X0346039Y0044364D01*
X0345673Y0045248D01*
X0345425Y0046173D01*
X0345300Y0047122D01*
X0345300Y0047600D01*
X0352600Y0047600D01*
X0352600Y0047379D02*
X0352600Y0047379D01*
X0352600Y0044181D02*
X0352600Y0044181D01*
X0352600Y0040982D02*
X0352600Y0040982D01*
X0349501Y0040982D02*
X0269100Y0040982D01*
X0269100Y0037784D02*
X0319870Y0037784D01*
X0319535Y0037516D02*
X0318747Y0036728D01*
X0318051Y0035856D01*
X0317458Y0034911D01*
X0316974Y0033906D01*
X0316605Y0032854D01*
X0316357Y0031766D01*
X0316233Y0030665D01*
X0325598Y0030665D01*
X0325598Y0040030D01*
X0324497Y0039906D01*
X0323409Y0039658D01*
X0322357Y0039289D01*
X0321352Y0038805D01*
X0320407Y0038212D01*
X0319535Y0037516D01*
X0317301Y0034585D02*
X0269100Y0034585D01*
X0269100Y0031387D02*
X0316314Y0031387D01*
X0316413Y0028188D02*
X0269100Y0028188D01*
X0269100Y0024990D02*
X0317646Y0024990D01*
X0320721Y0021791D02*
X0288038Y0021791D01*
X0286350Y0021791D02*
X0286350Y0021791D01*
X0286350Y0022000D02*
X0285898Y0022000D01*
X0285001Y0021882D01*
X0284127Y0021648D01*
X0283292Y0021302D01*
X0282508Y0020849D01*
X0281791Y0020299D01*
X0281151Y0019659D01*
X0280601Y0018942D01*
X0280148Y0018158D01*
X0279802Y0017323D01*
X0279568Y0016449D01*
X0279450Y0015552D01*
X0279450Y0015100D01*
X0286350Y0015100D01*
X0286350Y0015100D01*
X0286350Y0022000D01*
X0284662Y0021791D02*
X0269100Y0021791D01*
X0270234Y0018593D02*
X0280399Y0018593D01*
X0279450Y0015394D02*
X0271200Y0015394D01*
X0270499Y0012196D02*
X0280085Y0012196D01*
X0286350Y0015394D02*
X0286350Y0015394D01*
X0286350Y0018593D02*
X0286350Y0018593D01*
X0301749Y0012196D02*
X0399275Y0012196D01*
X0346145Y0044181D02*
X0269100Y0044181D01*
X0269100Y0047379D02*
X0345300Y0047379D01*
X0326728Y0037784D02*
X0325598Y0037784D01*
X0325598Y0034585D02*
X0326728Y0034585D01*
X0326728Y0031387D02*
X0325598Y0031387D01*
X0325598Y0028188D02*
X0326728Y0028188D01*
X0326728Y0024990D02*
X0325598Y0024990D01*
X0325598Y0021791D02*
X0326728Y0021791D01*
X0259966Y0018593D02*
X0230234Y0018593D01*
X0231200Y0015394D02*
X0259000Y0015394D01*
X0259700Y0012196D02*
X0230499Y0012196D01*
X0219700Y0012196D02*
X0030925Y0012196D01*
X0033410Y0018593D02*
X0219966Y0018593D01*
X0219000Y0015394D02*
X0022089Y0015394D01*
X0272411Y0101754D02*
X0286097Y0101754D01*
X0289296Y0104952D02*
X0275609Y0104952D01*
X0278808Y0108151D02*
X0292494Y0108151D01*
X0294729Y0111349D02*
X0282006Y0111349D01*
X0281534Y0127342D02*
X0282534Y0127342D01*
X0315740Y0117746D02*
X0319824Y0117746D01*
X0325598Y0117746D02*
X0326728Y0117746D01*
X0326728Y0114548D02*
X0325598Y0114548D01*
X0325598Y0111349D02*
X0326728Y0111349D01*
X0326728Y0108151D02*
X0325598Y0108151D01*
X0325598Y0104952D02*
X0326728Y0104952D01*
X0326728Y0101754D02*
X0325598Y0101754D01*
X0320780Y0101754D02*
X0318200Y0101754D01*
D23*
X0312600Y0092600D02*
X0337600Y0067600D01*
X0352600Y0067600D01*
X0312600Y0092600D02*
X0312600Y0112600D01*
X0297600Y0132600D01*
D24*
X0282600Y0117600D03*
X0297600Y0107600D03*
X0257600Y0102600D03*
X0252600Y0067600D03*
X0106350Y0240100D03*
D25*
X0140100Y0240100D01*
X0147600Y0232600D01*
X0147600Y0227600D01*
X0262600Y0235100D02*
X0305100Y0235100D01*
X0337600Y0202600D01*
X0372600Y0202600D01*
X0342600Y0142600D02*
X0287600Y0142600D01*
X0277600Y0132600D01*
X0282600Y0117600D02*
X0267600Y0102600D01*
X0257600Y0102600D01*
X0239222Y0090100D02*
X0280100Y0090100D01*
X0297600Y0107600D01*
X0342600Y0142600D02*
X0373850Y0111350D01*
X0373850Y0027600D01*
X0265100Y0015100D02*
X0265100Y0055100D01*
X0252600Y0067600D01*
X0235978Y0090100D02*
X0210600Y0090100D01*
X0192600Y0057600D02*
X0172600Y0057600D01*
X0167600Y0052600D01*
X0192600Y0057600D02*
X0197600Y0052600D01*
X0197600Y0053850D01*
X0117600Y0067600D02*
X0107600Y0067600D01*
D26*
X0235978Y0090100D02*
X0239222Y0090100D01*
D27*
X0197600Y0093850D02*
X0197600Y0108850D01*
X0193850Y0112600D01*
X0207750Y0126500D01*
X0271400Y0126500D01*
X0277000Y0132100D01*
X0277600Y0132600D01*
X0187600Y0132600D02*
X0187400Y0132800D01*
X0187400Y0143300D01*
X0147500Y0183200D01*
X0078900Y0183200D01*
X0078600Y0182600D01*
X0072600Y0182600D02*
X0072600Y0179700D01*
X0059300Y0166400D01*
X0045300Y0166400D01*
X0044923Y0166148D01*
X0045300Y0156600D02*
X0044923Y0156148D01*
X0045300Y0156600D02*
X0069100Y0156600D01*
X0072600Y0160100D01*
X0072600Y0162600D01*
X0078600Y0162600D02*
X0078900Y0162200D01*
X0083100Y0158000D01*
X0083800Y0158000D01*
X0088000Y0162200D01*
X0146100Y0162200D01*
X0175500Y0132800D01*
X0177600Y0132800D01*
X0177600Y0132600D01*
X0187400Y0132100D02*
X0187600Y0132600D01*
X0187400Y0132100D02*
X0176900Y0121600D01*
X0176900Y0083800D01*
X0169900Y0076800D01*
X0165700Y0076800D01*
X0154500Y0088000D01*
X0078900Y0088000D01*
X0067000Y0099900D01*
X0067000Y0102000D01*
X0066600Y0102600D01*
X0072600Y0102600D02*
X0072600Y0105500D01*
X0057300Y0125800D01*
X0045300Y0125800D01*
X0044923Y0126148D01*
X0045300Y0135600D02*
X0044923Y0136148D01*
X0045300Y0135600D02*
X0062100Y0135600D01*
X0072600Y0125100D01*
X0072600Y0122600D01*
X0067000Y0122300D02*
X0067000Y0119500D01*
X0073300Y0113200D01*
X0087300Y0113200D01*
X0127900Y0153800D01*
X0127900Y0155900D01*
X0131400Y0159400D01*
X0140500Y0159400D01*
X0167100Y0132800D01*
X0167600Y0132600D01*
X0167100Y0120900D02*
X0134200Y0153800D01*
X0133850Y0153850D01*
X0167100Y0120900D02*
X0167100Y0083100D01*
X0167600Y0082600D01*
X0182600Y0093850D02*
X0182600Y0111350D01*
X0183850Y0112600D01*
X0083100Y0138400D02*
X0083100Y0158000D01*
X0072600Y0145400D02*
X0069800Y0148200D01*
X0056700Y0148200D01*
X0054700Y0146100D01*
X0044923Y0146148D01*
X0066600Y0142600D02*
X0067000Y0142600D01*
X0067000Y0139800D01*
X0074000Y0132800D01*
X0077500Y0132800D01*
X0083100Y0138400D01*
X0078200Y0138400D02*
X0078200Y0142600D01*
X0078600Y0142600D01*
X0078200Y0138400D02*
X0076100Y0136300D01*
X0072600Y0142600D02*
X0072600Y0145400D01*
X0078900Y0123000D02*
X0078600Y0122600D01*
X0078200Y0122300D01*
X0078200Y0119500D01*
X0075400Y0116700D01*
X0067000Y0122300D02*
X0066600Y0122600D01*
X0053700Y0115900D02*
X0044923Y0116148D01*
X0044600Y0116000D01*
X0053700Y0115900D02*
X0058648Y0109739D01*
X0058700Y0106200D01*
X0058700Y0081600D01*
X0063500Y0076800D01*
X0069100Y0076800D01*
X0072600Y0080300D01*
X0072600Y0082600D01*
X0067000Y0083100D02*
X0066600Y0082600D01*
X0067000Y0083100D02*
X0067000Y0095000D01*
X0106350Y0193850D02*
X0106200Y0194400D01*
X0098500Y0202100D01*
X0098500Y0246200D01*
X0085200Y0259500D01*
X0085100Y0260100D01*
X0125100Y0199300D02*
X0120200Y0194400D01*
X0120100Y0193850D01*
X0125100Y0199300D02*
X0162900Y0199300D01*
X0186000Y0222400D01*
X0187400Y0222400D01*
X0187600Y0222600D01*
D28*
X0076100Y0136300D03*
X0075400Y0116700D03*
X0067000Y0095000D03*
M02*
