G75*
%MOIN*%
%OFA0B0*%
%FSLAX25Y25*%
%IPPOS*%
%LPD*%
%AMOC8*
5,1,8,0,0,1.08239X$1,22.5*
%
%ADD10C,0.00000*%
%ADD11C,0.07000*%
%ADD12C,0.12661*%
%ADD13OC8,0.06600*%
%ADD14C,0.06000*%
%ADD15C,0.07400*%
%ADD16C,0.06600*%
%ADD17C,0.04800*%
%ADD18C,0.15811*%
%ADD19C,0.13843*%
%ADD20C,0.03200*%
%ADD21C,0.05600*%
%ADD22C,0.05000*%
%ADD23C,0.02400*%
%ADD24C,0.01600*%
%ADD25C,0.03762*%
%ADD26C,0.02700*%
D10*
X0033850Y0008850D02*
X0396350Y0008850D01*
X0396954Y0008857D01*
X0397558Y0008879D01*
X0398161Y0008916D01*
X0398763Y0008967D01*
X0399363Y0009032D01*
X0399962Y0009112D01*
X0400559Y0009207D01*
X0401153Y0009316D01*
X0401745Y0009439D01*
X0402333Y0009576D01*
X0402918Y0009728D01*
X0403499Y0009894D01*
X0404075Y0010074D01*
X0404648Y0010267D01*
X0405215Y0010475D01*
X0405777Y0010696D01*
X0406334Y0010930D01*
X0406885Y0011178D01*
X0407430Y0011439D01*
X0407968Y0011714D01*
X0408500Y0012001D01*
X0409024Y0012301D01*
X0409541Y0012613D01*
X0410050Y0012938D01*
X0410552Y0013275D01*
X0411045Y0013625D01*
X0411529Y0013986D01*
X0412005Y0014358D01*
X0412471Y0014742D01*
X0412928Y0015137D01*
X0413375Y0015543D01*
X0413813Y0015960D01*
X0414240Y0016387D01*
X0414657Y0016825D01*
X0415063Y0017272D01*
X0415458Y0017729D01*
X0415842Y0018195D01*
X0416214Y0018671D01*
X0416575Y0019155D01*
X0416925Y0019648D01*
X0417262Y0020150D01*
X0417587Y0020659D01*
X0417899Y0021176D01*
X0418199Y0021700D01*
X0418486Y0022232D01*
X0418761Y0022770D01*
X0419022Y0023315D01*
X0419270Y0023866D01*
X0419504Y0024423D01*
X0419725Y0024985D01*
X0419933Y0025552D01*
X0420126Y0026125D01*
X0420306Y0026701D01*
X0420472Y0027282D01*
X0420624Y0027867D01*
X0420761Y0028455D01*
X0420884Y0029047D01*
X0420993Y0029641D01*
X0421088Y0030238D01*
X0421168Y0030837D01*
X0421233Y0031437D01*
X0421284Y0032039D01*
X0421321Y0032642D01*
X0421343Y0033246D01*
X0421350Y0033850D01*
X0421350Y0117600D01*
X0380100Y0117600D01*
X0380100Y0237600D01*
X0421350Y0237600D01*
X0421350Y0246350D01*
X0421343Y0246954D01*
X0421321Y0247558D01*
X0421284Y0248161D01*
X0421233Y0248763D01*
X0421168Y0249363D01*
X0421088Y0249962D01*
X0420993Y0250559D01*
X0420884Y0251153D01*
X0420761Y0251745D01*
X0420624Y0252333D01*
X0420472Y0252918D01*
X0420306Y0253499D01*
X0420126Y0254075D01*
X0419933Y0254648D01*
X0419725Y0255215D01*
X0419504Y0255777D01*
X0419270Y0256334D01*
X0419022Y0256885D01*
X0418761Y0257430D01*
X0418486Y0257968D01*
X0418199Y0258500D01*
X0417899Y0259024D01*
X0417587Y0259541D01*
X0417262Y0260050D01*
X0416925Y0260552D01*
X0416575Y0261045D01*
X0416214Y0261529D01*
X0415842Y0262005D01*
X0415458Y0262471D01*
X0415063Y0262928D01*
X0414657Y0263375D01*
X0414240Y0263813D01*
X0413813Y0264240D01*
X0413375Y0264657D01*
X0412928Y0265063D01*
X0412471Y0265458D01*
X0412005Y0265842D01*
X0411529Y0266214D01*
X0411045Y0266575D01*
X0410552Y0266925D01*
X0410050Y0267262D01*
X0409541Y0267587D01*
X0409024Y0267899D01*
X0408500Y0268199D01*
X0407968Y0268486D01*
X0407430Y0268761D01*
X0406885Y0269022D01*
X0406334Y0269270D01*
X0405777Y0269504D01*
X0405215Y0269725D01*
X0404648Y0269933D01*
X0404075Y0270126D01*
X0403499Y0270306D01*
X0402918Y0270472D01*
X0402333Y0270624D01*
X0401745Y0270761D01*
X0401153Y0270884D01*
X0400559Y0270993D01*
X0399962Y0271088D01*
X0399363Y0271168D01*
X0398763Y0271233D01*
X0398161Y0271284D01*
X0397558Y0271321D01*
X0396954Y0271343D01*
X0396350Y0271350D01*
X0033850Y0271350D01*
X0033246Y0271343D01*
X0032642Y0271321D01*
X0032039Y0271284D01*
X0031437Y0271233D01*
X0030837Y0271168D01*
X0030238Y0271088D01*
X0029641Y0270993D01*
X0029047Y0270884D01*
X0028455Y0270761D01*
X0027867Y0270624D01*
X0027282Y0270472D01*
X0026701Y0270306D01*
X0026125Y0270126D01*
X0025552Y0269933D01*
X0024985Y0269725D01*
X0024423Y0269504D01*
X0023866Y0269270D01*
X0023315Y0269022D01*
X0022770Y0268761D01*
X0022232Y0268486D01*
X0021700Y0268199D01*
X0021176Y0267899D01*
X0020659Y0267587D01*
X0020150Y0267262D01*
X0019648Y0266925D01*
X0019155Y0266575D01*
X0018671Y0266214D01*
X0018195Y0265842D01*
X0017729Y0265458D01*
X0017272Y0265063D01*
X0016825Y0264657D01*
X0016387Y0264240D01*
X0015960Y0263813D01*
X0015543Y0263375D01*
X0015137Y0262928D01*
X0014742Y0262471D01*
X0014358Y0262005D01*
X0013986Y0261529D01*
X0013625Y0261045D01*
X0013275Y0260552D01*
X0012938Y0260050D01*
X0012613Y0259541D01*
X0012301Y0259024D01*
X0012001Y0258500D01*
X0011714Y0257968D01*
X0011439Y0257430D01*
X0011178Y0256885D01*
X0010930Y0256334D01*
X0010696Y0255777D01*
X0010475Y0255215D01*
X0010267Y0254648D01*
X0010074Y0254075D01*
X0009894Y0253499D01*
X0009728Y0252918D01*
X0009576Y0252333D01*
X0009439Y0251745D01*
X0009316Y0251153D01*
X0009207Y0250559D01*
X0009112Y0249962D01*
X0009032Y0249363D01*
X0008967Y0248763D01*
X0008916Y0248161D01*
X0008879Y0247558D01*
X0008857Y0246954D01*
X0008850Y0246350D01*
X0008850Y0033850D01*
X0008857Y0033246D01*
X0008879Y0032642D01*
X0008916Y0032039D01*
X0008967Y0031437D01*
X0009032Y0030837D01*
X0009112Y0030238D01*
X0009207Y0029641D01*
X0009316Y0029047D01*
X0009439Y0028455D01*
X0009576Y0027867D01*
X0009728Y0027282D01*
X0009894Y0026701D01*
X0010074Y0026125D01*
X0010267Y0025552D01*
X0010475Y0024985D01*
X0010696Y0024423D01*
X0010930Y0023866D01*
X0011178Y0023315D01*
X0011439Y0022770D01*
X0011714Y0022232D01*
X0012001Y0021700D01*
X0012301Y0021176D01*
X0012613Y0020659D01*
X0012938Y0020150D01*
X0013275Y0019648D01*
X0013625Y0019155D01*
X0013986Y0018671D01*
X0014358Y0018195D01*
X0014742Y0017729D01*
X0015137Y0017272D01*
X0015543Y0016825D01*
X0015960Y0016387D01*
X0016387Y0015960D01*
X0016825Y0015543D01*
X0017272Y0015137D01*
X0017729Y0014742D01*
X0018195Y0014358D01*
X0018671Y0013986D01*
X0019155Y0013625D01*
X0019648Y0013275D01*
X0020150Y0012938D01*
X0020659Y0012613D01*
X0021176Y0012301D01*
X0021700Y0012001D01*
X0022232Y0011714D01*
X0022770Y0011439D01*
X0023315Y0011178D01*
X0023866Y0010930D01*
X0024423Y0010696D01*
X0024985Y0010475D01*
X0025552Y0010267D01*
X0026125Y0010074D01*
X0026701Y0009894D01*
X0027282Y0009728D01*
X0027867Y0009576D01*
X0028455Y0009439D01*
X0029047Y0009316D01*
X0029641Y0009207D01*
X0030238Y0009112D01*
X0030837Y0009032D01*
X0031437Y0008967D01*
X0032039Y0008916D01*
X0032642Y0008879D01*
X0033246Y0008857D01*
X0033850Y0008850D01*
D11*
X0108555Y0067600D03*
X0113555Y0067600D03*
X0113555Y0067600D03*
X0118555Y0067600D03*
X0139145Y0067600D03*
X0210600Y0070100D03*
X0210600Y0080100D03*
X0210600Y0090100D03*
X0210600Y0100100D03*
X0210600Y0110100D03*
X0210600Y0060100D03*
X0210600Y0050100D03*
X0210600Y0040100D03*
X0210600Y0030100D03*
X0044923Y0106148D03*
X0044923Y0116148D03*
X0044923Y0126148D03*
X0044923Y0136148D03*
X0044923Y0146148D03*
X0044923Y0156148D03*
X0044923Y0166148D03*
X0044923Y0176148D03*
D12*
X0326163Y0110100D03*
X0326163Y0030100D03*
X0335494Y0248850D03*
X0384706Y0248850D03*
D13*
X0077600Y0227600D03*
X0077600Y0217600D03*
X0042600Y0217600D03*
X0042600Y0227600D03*
D14*
X0363850Y0030600D02*
X0363850Y0024600D01*
X0373850Y0024600D02*
X0373850Y0030600D01*
X0383850Y0030600D02*
X0383850Y0024600D01*
D15*
X0352600Y0047600D03*
X0352600Y0057600D03*
X0352600Y0067600D03*
X0352600Y0077600D03*
X0352600Y0087600D03*
X0352600Y0097600D03*
X0297600Y0132600D03*
X0287600Y0132600D03*
X0277600Y0132600D03*
X0267600Y0132600D03*
X0257600Y0132600D03*
X0247600Y0132600D03*
X0237600Y0132600D03*
X0227600Y0132600D03*
X0217600Y0132600D03*
X0207600Y0132600D03*
X0197600Y0132600D03*
X0187600Y0132600D03*
X0177600Y0132600D03*
X0167600Y0132600D03*
X0044150Y0066500D03*
X0044150Y0048700D03*
X0018550Y0048700D03*
X0018550Y0066500D03*
X0167600Y0222600D03*
X0177600Y0222600D03*
X0187600Y0222600D03*
X0197600Y0222600D03*
X0207600Y0222600D03*
X0217600Y0222600D03*
X0227600Y0222600D03*
X0237600Y0222600D03*
X0247600Y0222600D03*
X0257600Y0222600D03*
X0267600Y0222600D03*
X0277600Y0222600D03*
X0287600Y0222600D03*
X0297600Y0222600D03*
X0317600Y0190100D03*
X0327600Y0190100D03*
X0327600Y0162600D03*
X0317600Y0162600D03*
X0372600Y0157600D03*
X0372600Y0167600D03*
X0372600Y0192600D03*
X0372600Y0202600D03*
D16*
X0371911Y0248850D03*
X0360100Y0248850D03*
X0348289Y0248850D03*
X0262600Y0235100D03*
X0222600Y0235100D03*
X0212600Y0235100D03*
X0172600Y0235100D03*
X0123850Y0226350D03*
X0103850Y0226350D03*
X0103850Y0206350D03*
X0113850Y0206350D03*
X0123850Y0206350D03*
X0120100Y0193850D03*
X0106350Y0193850D03*
X0092600Y0193850D03*
X0133850Y0193850D03*
X0145100Y0177600D03*
X0145100Y0167600D03*
X0133850Y0153850D03*
X0120100Y0153850D03*
X0106350Y0153850D03*
X0092600Y0153850D03*
X0120100Y0112600D03*
X0120100Y0097600D03*
X0160100Y0097600D03*
X0167600Y0082600D03*
X0182600Y0093850D03*
X0197600Y0093850D03*
X0193850Y0112600D03*
X0183850Y0112600D03*
X0160100Y0112600D03*
X0090100Y0066350D03*
X0080100Y0066350D03*
X0070100Y0066350D03*
X0060100Y0066350D03*
X0167600Y0052600D03*
X0182600Y0053850D03*
X0197600Y0053850D03*
X0225100Y0015100D03*
X0265100Y0015100D03*
X0286350Y0015100D03*
X0296350Y0015100D03*
D17*
X0157600Y0225200D02*
X0157600Y0230000D01*
X0147600Y0230000D02*
X0147600Y0225200D01*
X0137600Y0225200D02*
X0137600Y0230000D01*
X0087500Y0250100D02*
X0082700Y0250100D01*
X0082700Y0260100D02*
X0087500Y0260100D01*
X0057500Y0260100D02*
X0052700Y0260100D01*
X0052700Y0250100D02*
X0057500Y0250100D01*
D18*
X0027600Y0252600D03*
X0027600Y0027600D03*
X0402600Y0027600D03*
X0402600Y0252600D03*
D19*
X0044647Y0198234D03*
X0044600Y0193200D03*
X0044700Y0089100D03*
X0044647Y0084061D03*
D20*
X0018364Y0018364D02*
X0022198Y0015307D01*
X0026617Y0013179D01*
X0031398Y0012088D01*
X0033850Y0011950D01*
X0062593Y0011950D01*
X0041884Y0032659D01*
X0040759Y0033784D01*
X0040150Y0035254D01*
X0040150Y0043508D01*
X0038808Y0044850D01*
X0023892Y0044850D01*
X0022232Y0043190D01*
X0019843Y0042200D01*
X0017257Y0042200D01*
X0014868Y0043190D01*
X0013040Y0045018D01*
X0012050Y0047407D01*
X0012050Y0049993D01*
X0013040Y0052382D01*
X0014868Y0054210D01*
X0017257Y0055200D01*
X0019843Y0055200D01*
X0022232Y0054210D01*
X0023592Y0052850D01*
X0039108Y0052850D01*
X0040468Y0054210D01*
X0042857Y0055200D01*
X0045443Y0055200D01*
X0047832Y0054210D01*
X0049660Y0052382D01*
X0050650Y0049993D01*
X0050650Y0047407D01*
X0049660Y0045018D01*
X0048150Y0043508D01*
X0048150Y0037707D01*
X0068007Y0017850D01*
X0219636Y0017850D01*
X0219929Y0018555D01*
X0221645Y0020271D01*
X0223887Y0021200D01*
X0226313Y0021200D01*
X0228555Y0020271D01*
X0230271Y0018555D01*
X0231200Y0016313D01*
X0231200Y0013887D01*
X0230398Y0011950D01*
X0259802Y0011950D01*
X0259000Y0013887D01*
X0259000Y0016313D01*
X0259929Y0018555D01*
X0261645Y0020271D01*
X0263887Y0021200D01*
X0266313Y0021200D01*
X0268555Y0020271D01*
X0270271Y0018555D01*
X0271200Y0016313D01*
X0271200Y0013887D01*
X0270398Y0011950D01*
X0280201Y0011950D01*
X0280148Y0012042D01*
X0279802Y0012877D01*
X0279568Y0013751D01*
X0279450Y0014648D01*
X0279450Y0015100D01*
X0286350Y0015100D01*
X0286350Y0015100D01*
X0286350Y0022000D01*
X0286802Y0022000D01*
X0287699Y0021882D01*
X0288573Y0021648D01*
X0289408Y0021302D01*
X0290192Y0020849D01*
X0290909Y0020299D01*
X0291549Y0019659D01*
X0291867Y0019244D01*
X0292200Y0019577D01*
X0292200Y0034500D01*
X0215110Y0034500D01*
X0215941Y0033669D01*
X0216900Y0031353D01*
X0216900Y0028847D01*
X0215941Y0026531D01*
X0214169Y0024759D01*
X0211853Y0023800D01*
X0209347Y0023800D01*
X0207031Y0024759D01*
X0205259Y0026531D01*
X0204300Y0028847D01*
X0204300Y0031353D01*
X0205259Y0033669D01*
X0206690Y0035100D01*
X0205259Y0036531D01*
X0204300Y0038847D01*
X0204300Y0041353D01*
X0205259Y0043669D01*
X0206153Y0044563D01*
X0205909Y0044750D01*
X0205250Y0045409D01*
X0204684Y0046147D01*
X0204219Y0046953D01*
X0203862Y0047813D01*
X0203621Y0048712D01*
X0203500Y0049635D01*
X0203500Y0050100D01*
X0210600Y0050100D01*
X0217700Y0050100D01*
X0217700Y0050565D01*
X0217579Y0051488D01*
X0217338Y0052387D01*
X0216981Y0053247D01*
X0216516Y0054053D01*
X0215950Y0054791D01*
X0215291Y0055450D01*
X0215047Y0055637D01*
X0215941Y0056531D01*
X0216900Y0058847D01*
X0216900Y0060536D01*
X0229808Y0072685D01*
X0229866Y0072709D01*
X0230386Y0073229D01*
X0230921Y0073733D01*
X0230947Y0073790D01*
X0230991Y0073834D01*
X0231272Y0074513D01*
X0231574Y0075184D01*
X0231576Y0075246D01*
X0231600Y0075304D01*
X0231600Y0076039D01*
X0231622Y0076774D01*
X0231600Y0076833D01*
X0231600Y0127408D01*
X0232600Y0128408D01*
X0233918Y0127090D01*
X0236307Y0126100D01*
X0238443Y0126100D01*
X0257262Y0107281D01*
X0256669Y0107281D01*
X0254948Y0106568D01*
X0253632Y0105252D01*
X0252950Y0103607D01*
X0250334Y0100991D01*
X0249209Y0099866D01*
X0248600Y0098396D01*
X0248600Y0070175D01*
X0247919Y0068531D01*
X0247919Y0066669D01*
X0248632Y0064948D01*
X0249948Y0063632D01*
X0251669Y0062919D01*
X0253531Y0062919D01*
X0255252Y0063632D01*
X0256568Y0064948D01*
X0257281Y0066669D01*
X0257281Y0068531D01*
X0256600Y0070175D01*
X0256600Y0095943D01*
X0258607Y0097950D01*
X0260252Y0098632D01*
X0261568Y0099948D01*
X0262281Y0101669D01*
X0262281Y0102262D01*
X0286584Y0077959D01*
X0287267Y0077676D01*
X0290134Y0074809D01*
X0291604Y0074200D01*
X0346973Y0074200D01*
X0347090Y0073918D01*
X0347808Y0073200D01*
X0336486Y0073200D01*
X0334428Y0072347D01*
X0332853Y0070772D01*
X0307780Y0045700D01*
X0216173Y0045700D01*
X0216516Y0046147D01*
X0216981Y0046953D01*
X0217338Y0047813D01*
X0217579Y0048712D01*
X0217700Y0049635D01*
X0217700Y0050100D01*
X0210600Y0050100D01*
X0210600Y0050100D01*
X0210600Y0050100D01*
X0203500Y0050100D01*
X0203500Y0050565D01*
X0203621Y0051488D01*
X0203862Y0052387D01*
X0204219Y0053247D01*
X0204684Y0054053D01*
X0205250Y0054791D01*
X0205909Y0055450D01*
X0206153Y0055637D01*
X0205259Y0056531D01*
X0204300Y0058847D01*
X0204300Y0061353D01*
X0205259Y0063669D01*
X0206690Y0065100D01*
X0205259Y0066531D01*
X0204300Y0068847D01*
X0204300Y0071353D01*
X0205259Y0073669D01*
X0206690Y0075100D01*
X0205259Y0076531D01*
X0204300Y0078847D01*
X0204300Y0081353D01*
X0205259Y0083669D01*
X0206690Y0085100D01*
X0205259Y0086531D01*
X0204300Y0088847D01*
X0204300Y0091353D01*
X0205259Y0093669D01*
X0206690Y0095100D01*
X0205259Y0096531D01*
X0204300Y0098847D01*
X0204300Y0101353D01*
X0205259Y0103669D01*
X0206690Y0105100D01*
X0205259Y0106531D01*
X0204300Y0108847D01*
X0204300Y0111353D01*
X0205259Y0113669D01*
X0207031Y0115441D01*
X0209347Y0116400D01*
X0211853Y0116400D01*
X0214169Y0115441D01*
X0215941Y0113669D01*
X0216900Y0111353D01*
X0216900Y0108847D01*
X0215941Y0106531D01*
X0214510Y0105100D01*
X0215941Y0103669D01*
X0216900Y0101353D01*
X0216900Y0098847D01*
X0215941Y0096531D01*
X0214510Y0095100D01*
X0215941Y0093669D01*
X0216900Y0091353D01*
X0216900Y0088847D01*
X0215941Y0086531D01*
X0214510Y0085100D01*
X0215941Y0083669D01*
X0216900Y0081353D01*
X0216900Y0081301D01*
X0218600Y0082860D01*
X0218600Y0115943D01*
X0215334Y0119209D01*
X0215334Y0119209D01*
X0214209Y0120334D01*
X0213600Y0121804D01*
X0213600Y0127408D01*
X0212600Y0128408D01*
X0211282Y0127090D01*
X0208893Y0126100D01*
X0206307Y0126100D01*
X0203918Y0127090D01*
X0202600Y0128408D01*
X0201282Y0127090D01*
X0198893Y0126100D01*
X0196307Y0126100D01*
X0195306Y0126515D01*
X0186780Y0117989D01*
X0187305Y0117771D01*
X0188850Y0116227D01*
X0190395Y0117771D01*
X0192637Y0118700D01*
X0195063Y0118700D01*
X0197305Y0117771D01*
X0199021Y0116055D01*
X0199950Y0113813D01*
X0199950Y0111387D01*
X0199021Y0109145D01*
X0197305Y0107429D01*
X0195063Y0106500D01*
X0192637Y0106500D01*
X0190395Y0107429D01*
X0188850Y0108973D01*
X0187305Y0107429D01*
X0185063Y0106500D01*
X0182637Y0106500D01*
X0180395Y0107429D01*
X0178823Y0109000D01*
X0165127Y0109000D01*
X0163555Y0107429D01*
X0161313Y0106500D01*
X0158887Y0106500D01*
X0156645Y0107429D01*
X0154929Y0109145D01*
X0154000Y0111387D01*
X0154000Y0113813D01*
X0154284Y0114500D01*
X0125916Y0114500D01*
X0126200Y0113813D01*
X0126200Y0111387D01*
X0125271Y0109145D01*
X0123800Y0107673D01*
X0123800Y0102527D01*
X0125271Y0101055D01*
X0126200Y0098813D01*
X0126200Y0096387D01*
X0125271Y0094145D01*
X0123555Y0092429D01*
X0121313Y0091500D01*
X0118887Y0091500D01*
X0116645Y0092429D01*
X0115573Y0093500D01*
X0079324Y0093500D01*
X0063529Y0073868D01*
X0063583Y0071493D01*
X0064583Y0070494D01*
X0064901Y0070909D01*
X0065541Y0071549D01*
X0066258Y0072099D01*
X0067042Y0072552D01*
X0067877Y0072898D01*
X0068751Y0073132D01*
X0069648Y0073250D01*
X0070100Y0073250D01*
X0070100Y0066350D01*
X0070100Y0066350D01*
X0070100Y0073250D01*
X0070552Y0073250D01*
X0071449Y0073132D01*
X0072323Y0072898D01*
X0073158Y0072552D01*
X0073942Y0072099D01*
X0074659Y0071549D01*
X0075299Y0070909D01*
X0075617Y0070494D01*
X0076645Y0071521D01*
X0078887Y0072450D01*
X0081313Y0072450D01*
X0083555Y0071521D01*
X0085100Y0069977D01*
X0086645Y0071521D01*
X0088887Y0072450D01*
X0091313Y0072450D01*
X0093555Y0071521D01*
X0095271Y0069805D01*
X0096200Y0067563D01*
X0096200Y0065137D01*
X0095271Y0062895D01*
X0093577Y0061200D01*
X0101109Y0061200D01*
X0103577Y0063668D01*
X0103214Y0064031D01*
X0102255Y0066347D01*
X0102255Y0068853D01*
X0103214Y0071169D01*
X0104986Y0072941D01*
X0107302Y0073900D01*
X0109808Y0073900D01*
X0111055Y0073384D01*
X0112302Y0073900D01*
X0114808Y0073900D01*
X0116055Y0073384D01*
X0117302Y0073900D01*
X0119808Y0073900D01*
X0122123Y0072941D01*
X0123896Y0071169D01*
X0124855Y0068853D01*
X0124855Y0066347D01*
X0123896Y0064031D01*
X0122123Y0062259D01*
X0119808Y0061300D01*
X0117302Y0061300D01*
X0116055Y0061816D01*
X0114808Y0061300D01*
X0112302Y0061300D01*
X0111658Y0061567D01*
X0105652Y0055561D01*
X0104639Y0054548D01*
X0103316Y0054000D01*
X0056884Y0054000D01*
X0055561Y0054548D01*
X0050561Y0059548D01*
X0049548Y0060561D01*
X0049251Y0061277D01*
X0048974Y0061000D01*
X0048214Y0060417D01*
X0047386Y0059939D01*
X0046502Y0059573D01*
X0045577Y0059325D01*
X0044628Y0059200D01*
X0044150Y0059200D01*
X0044150Y0062350D01*
X0044150Y0062350D01*
X0044150Y0059200D01*
X0043672Y0059200D01*
X0042723Y0059325D01*
X0041798Y0059573D01*
X0040914Y0059939D01*
X0040086Y0060417D01*
X0039326Y0061000D01*
X0038650Y0061676D01*
X0038133Y0062350D01*
X0023592Y0062350D01*
X0022232Y0060990D01*
X0019843Y0060000D01*
X0017257Y0060000D01*
X0014868Y0060990D01*
X0013040Y0062818D01*
X0012050Y0065207D01*
X0012050Y0067793D01*
X0013040Y0070182D01*
X0014868Y0072010D01*
X0017257Y0073000D01*
X0019843Y0073000D01*
X0022232Y0072010D01*
X0023892Y0070350D01*
X0034759Y0070350D01*
X0030561Y0074548D01*
X0030561Y0074548D01*
X0029548Y0075561D01*
X0029000Y0076884D01*
X0029000Y0204957D01*
X0028955Y0205528D01*
X0029000Y0205668D01*
X0029000Y0205816D01*
X0029219Y0206345D01*
X0029396Y0206890D01*
X0029492Y0207003D01*
X0029548Y0207139D01*
X0029953Y0207544D01*
X0034689Y0213099D01*
X0034743Y0213231D01*
X0035150Y0213641D01*
X0035525Y0214080D01*
X0035579Y0214108D01*
X0035334Y0214209D01*
X0034209Y0215334D01*
X0029209Y0220334D01*
X0028600Y0221804D01*
X0028600Y0233396D01*
X0029209Y0234866D01*
X0030334Y0235991D01*
X0038600Y0244257D01*
X0038600Y0258396D01*
X0039209Y0259866D01*
X0040334Y0260991D01*
X0042834Y0263491D01*
X0044304Y0264100D01*
X0049346Y0264100D01*
X0049754Y0264508D01*
X0051666Y0265300D01*
X0058534Y0265300D01*
X0060446Y0264508D01*
X0061908Y0263046D01*
X0062700Y0261134D01*
X0062700Y0259066D01*
X0061908Y0257154D01*
X0060446Y0255692D01*
X0059017Y0255100D01*
X0060446Y0254508D01*
X0061908Y0253046D01*
X0062700Y0251134D01*
X0062700Y0249066D01*
X0061908Y0247154D01*
X0060446Y0245692D01*
X0058534Y0244900D01*
X0058463Y0244900D01*
X0058245Y0240186D01*
X0060483Y0236307D01*
X0060656Y0236133D01*
X0060838Y0235692D01*
X0061076Y0235279D01*
X0061108Y0235035D01*
X0061202Y0234808D01*
X0061201Y0234331D01*
X0061263Y0233859D01*
X0061199Y0233622D01*
X0061156Y0214135D01*
X0066800Y0208491D01*
X0066800Y0237275D01*
X0067470Y0238892D01*
X0077542Y0248964D01*
X0077500Y0249066D01*
X0077500Y0251134D01*
X0078292Y0253046D01*
X0079754Y0254508D01*
X0081183Y0255100D01*
X0079754Y0255692D01*
X0078292Y0257154D01*
X0077500Y0259066D01*
X0077500Y0261134D01*
X0078292Y0263046D01*
X0079754Y0264508D01*
X0081666Y0265300D01*
X0088534Y0265300D01*
X0090446Y0264508D01*
X0091908Y0263046D01*
X0092700Y0261134D01*
X0092700Y0259066D01*
X0091908Y0257154D01*
X0090446Y0255692D01*
X0089017Y0255100D01*
X0090446Y0254508D01*
X0091908Y0253046D01*
X0092700Y0251134D01*
X0092700Y0249066D01*
X0091908Y0247154D01*
X0090446Y0245692D01*
X0088534Y0244900D01*
X0085923Y0244900D01*
X0075600Y0234577D01*
X0075600Y0233700D01*
X0078043Y0233700D01*
X0086709Y0242366D01*
X0087834Y0243491D01*
X0089304Y0244100D01*
X0103775Y0244100D01*
X0105419Y0244781D01*
X0107281Y0244781D01*
X0109002Y0244068D01*
X0110318Y0242752D01*
X0111031Y0241031D01*
X0111031Y0239169D01*
X0110318Y0237448D01*
X0109002Y0236132D01*
X0107281Y0235419D01*
X0105419Y0235419D01*
X0103775Y0236100D01*
X0091757Y0236100D01*
X0083700Y0228043D01*
X0083700Y0225073D01*
X0081227Y0222600D01*
X0083700Y0220127D01*
X0083700Y0215073D01*
X0081200Y0212573D01*
X0081200Y0209091D01*
X0090647Y0199644D01*
X0091387Y0199950D01*
X0093813Y0199950D01*
X0096055Y0199021D01*
X0097771Y0197305D01*
X0098700Y0195063D01*
X0098700Y0192637D01*
X0097771Y0190395D01*
X0096055Y0188679D01*
X0095340Y0188382D01*
X0102930Y0180792D01*
X0103600Y0179175D01*
X0103600Y0159313D01*
X0105137Y0159950D01*
X0107563Y0159950D01*
X0109805Y0159021D01*
X0110727Y0158100D01*
X0111709Y0158100D01*
X0170286Y0216677D01*
X0168893Y0216100D01*
X0166307Y0216100D01*
X0163918Y0217090D01*
X0162090Y0218918D01*
X0161100Y0221307D01*
X0161100Y0221346D01*
X0160900Y0221146D01*
X0160900Y0216784D01*
X0160352Y0215461D01*
X0139950Y0195059D01*
X0139950Y0192637D01*
X0139021Y0190395D01*
X0137305Y0188679D01*
X0135063Y0187750D01*
X0132637Y0187750D01*
X0130395Y0188679D01*
X0128679Y0190395D01*
X0127750Y0192637D01*
X0127750Y0195063D01*
X0128679Y0197305D01*
X0130395Y0199021D01*
X0132637Y0199950D01*
X0134659Y0199950D01*
X0153700Y0218991D01*
X0153700Y0221746D01*
X0153192Y0222254D01*
X0152600Y0223683D01*
X0152008Y0222254D01*
X0150546Y0220792D01*
X0148634Y0220000D01*
X0146566Y0220000D01*
X0144654Y0220792D01*
X0143192Y0222254D01*
X0143031Y0222643D01*
X0142732Y0222055D01*
X0142177Y0221291D01*
X0141509Y0220623D01*
X0140745Y0220068D01*
X0139903Y0219640D01*
X0139005Y0219348D01*
X0138072Y0219200D01*
X0137600Y0219200D01*
X0137600Y0227600D01*
X0137600Y0227600D01*
X0137600Y0236000D01*
X0138072Y0236000D01*
X0139005Y0235852D01*
X0139903Y0235560D01*
X0140745Y0235132D01*
X0141509Y0234577D01*
X0142177Y0233909D01*
X0142732Y0233145D01*
X0143031Y0232557D01*
X0143192Y0232946D01*
X0144654Y0234408D01*
X0146566Y0235200D01*
X0148634Y0235200D01*
X0150546Y0234408D01*
X0152008Y0232946D01*
X0152600Y0231517D01*
X0153192Y0232946D01*
X0154654Y0234408D01*
X0156566Y0235200D01*
X0158634Y0235200D01*
X0160546Y0234408D01*
X0162008Y0232946D01*
X0162800Y0231034D01*
X0162800Y0226992D01*
X0163918Y0228110D01*
X0166307Y0229100D01*
X0168893Y0229100D01*
X0171282Y0228110D01*
X0172600Y0226792D01*
X0173918Y0228110D01*
X0176307Y0229100D01*
X0178893Y0229100D01*
X0181282Y0228110D01*
X0182600Y0226792D01*
X0183918Y0228110D01*
X0186307Y0229100D01*
X0188893Y0229100D01*
X0191282Y0228110D01*
X0192600Y0226792D01*
X0193918Y0228110D01*
X0196307Y0229100D01*
X0198893Y0229100D01*
X0201282Y0228110D01*
X0202600Y0226792D01*
X0203918Y0228110D01*
X0206307Y0229100D01*
X0208893Y0229100D01*
X0211282Y0228110D01*
X0212600Y0226792D01*
X0213918Y0228110D01*
X0216307Y0229100D01*
X0218893Y0229100D01*
X0221282Y0228110D01*
X0222600Y0226792D01*
X0223918Y0228110D01*
X0226307Y0229100D01*
X0228893Y0229100D01*
X0231282Y0228110D01*
X0232600Y0226792D01*
X0232675Y0226868D01*
X0228443Y0231100D01*
X0227227Y0231100D01*
X0226055Y0229929D01*
X0223813Y0229000D01*
X0221387Y0229000D01*
X0219145Y0229929D01*
X0217973Y0231100D01*
X0217227Y0231100D01*
X0216055Y0229929D01*
X0213813Y0229000D01*
X0211387Y0229000D01*
X0209145Y0229929D01*
X0207429Y0231645D01*
X0206500Y0233887D01*
X0206500Y0236313D01*
X0207429Y0238555D01*
X0209145Y0240271D01*
X0211387Y0241200D01*
X0213813Y0241200D01*
X0216055Y0240271D01*
X0217227Y0239100D01*
X0217973Y0239100D01*
X0219145Y0240271D01*
X0221387Y0241200D01*
X0223813Y0241200D01*
X0226055Y0240271D01*
X0227227Y0239100D01*
X0230896Y0239100D01*
X0232366Y0238491D01*
X0233491Y0237366D01*
X0240991Y0229866D01*
X0241600Y0228396D01*
X0241600Y0227792D01*
X0242600Y0226792D01*
X0243918Y0228110D01*
X0246307Y0229100D01*
X0248893Y0229100D01*
X0251282Y0228110D01*
X0252600Y0226792D01*
X0253918Y0228110D01*
X0256307Y0229100D01*
X0258893Y0229100D01*
X0261282Y0228110D01*
X0262600Y0226792D01*
X0263918Y0228110D01*
X0266307Y0229100D01*
X0268893Y0229100D01*
X0271282Y0228110D01*
X0272600Y0226792D01*
X0273918Y0228110D01*
X0276307Y0229100D01*
X0278893Y0229100D01*
X0281282Y0228110D01*
X0282600Y0226792D01*
X0283918Y0228110D01*
X0286307Y0229100D01*
X0288893Y0229100D01*
X0291282Y0228110D01*
X0292043Y0227349D01*
X0292100Y0227424D01*
X0292776Y0228100D01*
X0293536Y0228683D01*
X0294364Y0229161D01*
X0295248Y0229527D01*
X0296173Y0229775D01*
X0297122Y0229900D01*
X0297600Y0229900D01*
X0297600Y0222600D01*
X0297600Y0222600D01*
X0304900Y0222600D01*
X0304900Y0223078D01*
X0304775Y0224027D01*
X0304527Y0224952D01*
X0304161Y0225836D01*
X0303683Y0226664D01*
X0303100Y0227424D01*
X0302424Y0228100D01*
X0301664Y0228683D01*
X0300836Y0229161D01*
X0299952Y0229527D01*
X0299027Y0229775D01*
X0298078Y0229900D01*
X0297600Y0229900D01*
X0297600Y0222600D01*
X0297600Y0222600D01*
X0304900Y0222600D01*
X0304900Y0222122D01*
X0304775Y0221173D01*
X0304527Y0220248D01*
X0304161Y0219364D01*
X0303683Y0218536D01*
X0303100Y0217776D01*
X0302424Y0217100D01*
X0301664Y0216517D01*
X0300836Y0216039D01*
X0299952Y0215673D01*
X0299027Y0215425D01*
X0298078Y0215300D01*
X0297600Y0215300D01*
X0297600Y0222600D01*
X0297600Y0222600D01*
X0297600Y0215300D01*
X0297122Y0215300D01*
X0296173Y0215425D01*
X0295248Y0215673D01*
X0294364Y0216039D01*
X0293536Y0216517D01*
X0292776Y0217100D01*
X0292100Y0217776D01*
X0292043Y0217851D01*
X0291282Y0217090D01*
X0288893Y0216100D01*
X0286307Y0216100D01*
X0283918Y0217090D01*
X0283300Y0217708D01*
X0283300Y0169820D01*
X0302347Y0150772D01*
X0303200Y0148714D01*
X0303200Y0136066D01*
X0304100Y0133893D01*
X0304100Y0131307D01*
X0303110Y0128918D01*
X0301282Y0127090D01*
X0298893Y0126100D01*
X0296307Y0126100D01*
X0293918Y0127090D01*
X0293157Y0127851D01*
X0293100Y0127776D01*
X0292424Y0127100D01*
X0291664Y0126517D01*
X0290836Y0126039D01*
X0289952Y0125673D01*
X0289027Y0125425D01*
X0288078Y0125300D01*
X0287600Y0125300D01*
X0287600Y0132600D01*
X0287600Y0132600D01*
X0287600Y0139900D01*
X0288078Y0139900D01*
X0289027Y0139775D01*
X0289952Y0139527D01*
X0290836Y0139161D01*
X0291664Y0138683D01*
X0292000Y0138425D01*
X0292000Y0145280D01*
X0276701Y0160579D01*
X0259892Y0143770D01*
X0258275Y0143100D01*
X0130525Y0143100D01*
X0128908Y0143770D01*
X0127670Y0145008D01*
X0123777Y0148900D01*
X0123555Y0148679D01*
X0121313Y0147750D01*
X0118887Y0147750D01*
X0118452Y0147930D01*
X0115530Y0145008D01*
X0114292Y0143770D01*
X0112675Y0143100D01*
X0102525Y0143100D01*
X0100908Y0143770D01*
X0096708Y0147970D01*
X0096015Y0148662D01*
X0093813Y0147750D01*
X0091387Y0147750D01*
X0089145Y0148679D01*
X0087429Y0150395D01*
X0086500Y0152637D01*
X0086500Y0155063D01*
X0087429Y0157305D01*
X0089000Y0158877D01*
X0089000Y0176109D01*
X0057459Y0207650D01*
X0049387Y0207629D01*
X0049745Y0207457D01*
X0050745Y0206829D01*
X0051669Y0206092D01*
X0052505Y0205256D01*
X0053241Y0204332D01*
X0053870Y0203332D01*
X0054383Y0202267D01*
X0054773Y0201152D01*
X0055036Y0199999D01*
X0055138Y0199095D01*
X0053508Y0199095D01*
X0053729Y0198852D01*
X0054302Y0197374D01*
X0055138Y0197374D01*
X0055036Y0196469D01*
X0054894Y0195845D01*
X0055154Y0195173D01*
X0055154Y0191227D01*
X0053729Y0187548D01*
X0051070Y0184632D01*
X0047538Y0182873D01*
X0047294Y0182850D01*
X0048070Y0182529D01*
X0048876Y0182064D01*
X0049614Y0181497D01*
X0050272Y0180839D01*
X0050839Y0180101D01*
X0051304Y0179295D01*
X0051660Y0178435D01*
X0051901Y0177536D01*
X0052023Y0176613D01*
X0052023Y0176148D01*
X0044923Y0176148D01*
X0044923Y0176148D01*
X0052023Y0176148D01*
X0052023Y0175682D01*
X0051901Y0174759D01*
X0051660Y0173860D01*
X0051304Y0173001D01*
X0050839Y0172195D01*
X0050272Y0171456D01*
X0049614Y0170798D01*
X0049370Y0170610D01*
X0050264Y0169716D01*
X0051223Y0167401D01*
X0051223Y0164894D01*
X0050264Y0162579D01*
X0048832Y0161148D01*
X0050264Y0159716D01*
X0051223Y0157401D01*
X0051223Y0154894D01*
X0050264Y0152579D01*
X0048832Y0151148D01*
X0050264Y0149716D01*
X0051223Y0147401D01*
X0051223Y0144894D01*
X0050264Y0142579D01*
X0048832Y0141148D01*
X0050264Y0139716D01*
X0051223Y0137401D01*
X0051223Y0134894D01*
X0050264Y0132579D01*
X0048832Y0131148D01*
X0050264Y0129716D01*
X0051223Y0127401D01*
X0051223Y0124894D01*
X0050264Y0122579D01*
X0048832Y0121148D01*
X0050264Y0119716D01*
X0051223Y0117401D01*
X0051223Y0114894D01*
X0050264Y0112579D01*
X0048832Y0111148D01*
X0050264Y0109716D01*
X0050318Y0109584D01*
X0051256Y0109555D01*
X0071950Y0136789D01*
X0071950Y0137125D01*
X0072582Y0138651D01*
X0073749Y0139818D01*
X0075275Y0140450D01*
X0075859Y0140450D01*
X0076861Y0141452D01*
X0078184Y0142000D01*
X0200716Y0142000D01*
X0202039Y0141452D01*
X0203052Y0140439D01*
X0204952Y0138539D01*
X0206307Y0139100D01*
X0208893Y0139100D01*
X0211282Y0138110D01*
X0212600Y0136792D01*
X0213918Y0138110D01*
X0216307Y0139100D01*
X0218893Y0139100D01*
X0221282Y0138110D01*
X0222600Y0136792D01*
X0223918Y0138110D01*
X0226307Y0139100D01*
X0228893Y0139100D01*
X0231282Y0138110D01*
X0232600Y0136792D01*
X0233918Y0138110D01*
X0236307Y0139100D01*
X0238893Y0139100D01*
X0241282Y0138110D01*
X0242600Y0136792D01*
X0243918Y0138110D01*
X0246307Y0139100D01*
X0248893Y0139100D01*
X0251282Y0138110D01*
X0252600Y0136792D01*
X0253918Y0138110D01*
X0256307Y0139100D01*
X0258893Y0139100D01*
X0261282Y0138110D01*
X0262600Y0136792D01*
X0263918Y0138110D01*
X0266307Y0139100D01*
X0268893Y0139100D01*
X0271282Y0138110D01*
X0272600Y0136792D01*
X0273918Y0138110D01*
X0276307Y0139100D01*
X0278893Y0139100D01*
X0281282Y0138110D01*
X0282043Y0137349D01*
X0282100Y0137424D01*
X0282776Y0138100D01*
X0283536Y0138683D01*
X0284364Y0139161D01*
X0285248Y0139527D01*
X0286173Y0139775D01*
X0287122Y0139900D01*
X0287600Y0139900D01*
X0287600Y0132600D01*
X0287600Y0132600D01*
X0287600Y0125300D01*
X0287122Y0125300D01*
X0286173Y0125425D01*
X0285248Y0125673D01*
X0284364Y0126039D01*
X0283536Y0126517D01*
X0282776Y0127100D01*
X0282100Y0127776D01*
X0282043Y0127851D01*
X0281282Y0127090D01*
X0279504Y0126353D01*
X0283607Y0122250D01*
X0285252Y0121568D01*
X0286568Y0120252D01*
X0287281Y0118531D01*
X0287281Y0116669D01*
X0286568Y0114948D01*
X0285252Y0113632D01*
X0283531Y0112919D01*
X0282938Y0112919D01*
X0294257Y0101600D01*
X0321025Y0101600D01*
X0320407Y0101988D01*
X0319535Y0102684D01*
X0318747Y0103472D01*
X0318051Y0104344D01*
X0317458Y0105289D01*
X0316974Y0106294D01*
X0316605Y0107346D01*
X0316357Y0108434D01*
X0316233Y0109535D01*
X0325598Y0109535D01*
X0325598Y0110665D01*
X0316233Y0110665D01*
X0316357Y0111766D01*
X0316605Y0112854D01*
X0316974Y0113906D01*
X0317458Y0114911D01*
X0318051Y0115856D01*
X0318747Y0116728D01*
X0319535Y0117516D01*
X0320407Y0118212D01*
X0321352Y0118805D01*
X0322357Y0119289D01*
X0323409Y0119658D01*
X0324497Y0119906D01*
X0325598Y0120030D01*
X0325598Y0110665D01*
X0326728Y0110665D01*
X0326728Y0120030D01*
X0327829Y0119906D01*
X0328917Y0119658D01*
X0329969Y0119289D01*
X0330974Y0118805D01*
X0331919Y0118212D01*
X0332791Y0117516D01*
X0333579Y0116728D01*
X0334275Y0115856D01*
X0334868Y0114911D01*
X0335352Y0113906D01*
X0335721Y0112854D01*
X0335969Y0111766D01*
X0336093Y0110665D01*
X0326728Y0110665D01*
X0326728Y0109535D01*
X0336093Y0109535D01*
X0335969Y0108434D01*
X0335721Y0107346D01*
X0335352Y0106294D01*
X0334868Y0105289D01*
X0334275Y0104344D01*
X0333579Y0103472D01*
X0332791Y0102684D01*
X0331919Y0101988D01*
X0331301Y0101600D01*
X0344322Y0101600D01*
X0344804Y0101800D01*
X0347608Y0101800D01*
X0348918Y0103110D01*
X0351307Y0104100D01*
X0353893Y0104100D01*
X0356282Y0103110D01*
X0358110Y0101282D01*
X0359100Y0098893D01*
X0359100Y0096307D01*
X0358110Y0093918D01*
X0356792Y0092600D01*
X0358110Y0091282D01*
X0359100Y0088893D01*
X0359100Y0086307D01*
X0358110Y0083918D01*
X0356792Y0082600D01*
X0358110Y0081282D01*
X0359100Y0078893D01*
X0359100Y0076307D01*
X0358110Y0073918D01*
X0357092Y0072900D01*
X0373854Y0072900D01*
X0375802Y0072093D01*
X0386902Y0060993D01*
X0388393Y0059502D01*
X0389200Y0057554D01*
X0389200Y0032840D01*
X0389650Y0031754D01*
X0389650Y0023446D01*
X0388767Y0021315D01*
X0387135Y0019683D01*
X0385004Y0018800D01*
X0382696Y0018800D01*
X0380565Y0019683D01*
X0378933Y0021315D01*
X0378850Y0021515D01*
X0378767Y0021315D01*
X0377135Y0019683D01*
X0375004Y0018800D01*
X0372696Y0018800D01*
X0370565Y0019683D01*
X0369338Y0020910D01*
X0368823Y0020239D01*
X0368211Y0019627D01*
X0367525Y0019101D01*
X0366775Y0018668D01*
X0365976Y0018337D01*
X0365140Y0018113D01*
X0364283Y0018000D01*
X0363850Y0018000D01*
X0363850Y0027600D01*
X0363850Y0027600D01*
X0363850Y0037200D01*
X0364283Y0037200D01*
X0365140Y0037087D01*
X0365976Y0036863D01*
X0366775Y0036532D01*
X0367525Y0036099D01*
X0368211Y0035573D01*
X0368823Y0034961D01*
X0369338Y0034290D01*
X0370565Y0035517D01*
X0372696Y0036400D01*
X0375004Y0036400D01*
X0377135Y0035517D01*
X0378600Y0034052D01*
X0378600Y0054305D01*
X0370605Y0062300D01*
X0358195Y0062300D01*
X0358683Y0061664D01*
X0359161Y0060836D01*
X0359527Y0059952D01*
X0359775Y0059027D01*
X0359900Y0058078D01*
X0359900Y0057600D01*
X0352600Y0057600D01*
X0352600Y0057600D01*
X0359900Y0057600D01*
X0359900Y0057122D01*
X0359775Y0056173D01*
X0359527Y0055248D01*
X0359161Y0054364D01*
X0358683Y0053536D01*
X0358100Y0052776D01*
X0357924Y0052600D01*
X0358100Y0052424D01*
X0358683Y0051664D01*
X0359161Y0050836D01*
X0359527Y0049952D01*
X0359775Y0049027D01*
X0359900Y0048078D01*
X0359900Y0047600D01*
X0352600Y0047600D01*
X0352600Y0047600D01*
X0352600Y0047600D01*
X0352600Y0057600D01*
X0352600Y0057600D01*
X0345300Y0057600D01*
X0345300Y0058078D01*
X0345425Y0059027D01*
X0345673Y0059952D01*
X0346039Y0060836D01*
X0346517Y0061664D01*
X0346775Y0062000D01*
X0339920Y0062000D01*
X0313272Y0035353D01*
X0311214Y0034500D01*
X0301000Y0034500D01*
X0301000Y0019077D01*
X0301521Y0018555D01*
X0302450Y0016313D01*
X0302450Y0013887D01*
X0301648Y0011950D01*
X0396350Y0011950D01*
X0398802Y0012088D01*
X0403583Y0013179D01*
X0408002Y0015307D01*
X0411836Y0018364D01*
X0414893Y0022198D01*
X0417021Y0026617D01*
X0418112Y0031398D01*
X0418250Y0033850D01*
X0418250Y0114500D01*
X0379483Y0114500D01*
X0378344Y0114972D01*
X0377472Y0115844D01*
X0377000Y0116983D01*
X0377000Y0151775D01*
X0376664Y0151517D01*
X0375836Y0151039D01*
X0374952Y0150673D01*
X0374027Y0150425D01*
X0373078Y0150300D01*
X0372600Y0150300D01*
X0372600Y0157600D01*
X0372600Y0157600D01*
X0372600Y0157600D01*
X0365300Y0157600D01*
X0365300Y0158078D01*
X0365425Y0159027D01*
X0365673Y0159952D01*
X0366039Y0160836D01*
X0366517Y0161664D01*
X0367100Y0162424D01*
X0367776Y0163100D01*
X0367851Y0163157D01*
X0367090Y0163918D01*
X0366100Y0166307D01*
X0366100Y0168893D01*
X0367090Y0171282D01*
X0368918Y0173110D01*
X0371307Y0174100D01*
X0373893Y0174100D01*
X0376282Y0173110D01*
X0377000Y0172392D01*
X0377000Y0186775D01*
X0376664Y0186517D01*
X0375836Y0186039D01*
X0374952Y0185673D01*
X0374027Y0185425D01*
X0373078Y0185300D01*
X0372600Y0185300D01*
X0372600Y0192600D01*
X0372600Y0192600D01*
X0372600Y0192600D01*
X0365300Y0192600D01*
X0365300Y0193078D01*
X0365425Y0194027D01*
X0365673Y0194952D01*
X0366039Y0195836D01*
X0366517Y0196664D01*
X0367100Y0197424D01*
X0367776Y0198100D01*
X0367851Y0198157D01*
X0367408Y0198600D01*
X0364257Y0198600D01*
X0361600Y0195943D01*
X0361600Y0163287D01*
X0361636Y0163184D01*
X0361600Y0162495D01*
X0361600Y0161804D01*
X0361558Y0161704D01*
X0361553Y0161595D01*
X0361255Y0160972D01*
X0360991Y0160334D01*
X0360914Y0160257D01*
X0360867Y0160159D01*
X0360354Y0159697D01*
X0359866Y0159209D01*
X0359765Y0159167D01*
X0310354Y0114697D01*
X0302250Y0106593D01*
X0301568Y0104948D01*
X0300252Y0103632D01*
X0298531Y0102919D01*
X0296669Y0102919D01*
X0294948Y0103632D01*
X0293632Y0104948D01*
X0292919Y0106669D01*
X0292919Y0108531D01*
X0293632Y0110252D01*
X0294948Y0111568D01*
X0296593Y0112250D01*
X0304286Y0119943D01*
X0304333Y0120041D01*
X0304846Y0120503D01*
X0305334Y0120991D01*
X0305435Y0121033D01*
X0353600Y0164381D01*
X0353600Y0198396D01*
X0354209Y0199866D01*
X0359209Y0204866D01*
X0360334Y0205991D01*
X0361804Y0206600D01*
X0367408Y0206600D01*
X0368918Y0208110D01*
X0371307Y0209100D01*
X0373893Y0209100D01*
X0376282Y0208110D01*
X0377000Y0207392D01*
X0377000Y0238217D01*
X0377472Y0239356D01*
X0378344Y0240228D01*
X0379199Y0240582D01*
X0378951Y0240738D01*
X0378079Y0241434D01*
X0377290Y0242222D01*
X0376594Y0243094D01*
X0376001Y0244039D01*
X0375912Y0244224D01*
X0375366Y0243679D01*
X0373124Y0242750D01*
X0370698Y0242750D01*
X0368456Y0243679D01*
X0366740Y0245395D01*
X0366222Y0246645D01*
X0366100Y0246350D01*
X0366100Y0221407D01*
X0365187Y0219201D01*
X0363499Y0217513D01*
X0334350Y0188364D01*
X0333450Y0186191D01*
X0331509Y0184250D01*
X0328972Y0183200D01*
X0326227Y0183200D01*
X0323691Y0184250D01*
X0322600Y0185342D01*
X0321509Y0184250D01*
X0318972Y0183200D01*
X0316227Y0183200D01*
X0313691Y0184250D01*
X0311750Y0186191D01*
X0310700Y0188727D01*
X0310700Y0191472D01*
X0311600Y0193645D01*
X0311600Y0198793D01*
X0312513Y0200999D01*
X0314201Y0202687D01*
X0342289Y0230774D01*
X0342289Y0241601D01*
X0342121Y0241434D01*
X0341249Y0240738D01*
X0340305Y0240145D01*
X0339300Y0239661D01*
X0338247Y0239292D01*
X0337160Y0239044D01*
X0336059Y0238920D01*
X0336059Y0248285D01*
X0334928Y0248285D01*
X0325564Y0248285D01*
X0325688Y0247184D01*
X0325936Y0246096D01*
X0326304Y0245044D01*
X0326788Y0244039D01*
X0327382Y0243094D01*
X0328077Y0242222D01*
X0328866Y0241434D01*
X0329738Y0240738D01*
X0330682Y0240145D01*
X0331687Y0239661D01*
X0332740Y0239292D01*
X0333828Y0239044D01*
X0334928Y0238920D01*
X0334928Y0248285D01*
X0334928Y0249415D01*
X0325564Y0249415D01*
X0325688Y0250516D01*
X0325936Y0251604D01*
X0326304Y0252656D01*
X0326788Y0253661D01*
X0327382Y0254606D01*
X0328077Y0255478D01*
X0328866Y0256266D01*
X0329738Y0256962D01*
X0330682Y0257555D01*
X0331687Y0258039D01*
X0332740Y0258408D01*
X0333828Y0258656D01*
X0334928Y0258780D01*
X0334928Y0249415D01*
X0336059Y0249415D01*
X0336059Y0258780D01*
X0337160Y0258656D01*
X0338247Y0258408D01*
X0339300Y0258039D01*
X0340305Y0257555D01*
X0341249Y0256962D01*
X0342121Y0256266D01*
X0342910Y0255478D01*
X0343606Y0254606D01*
X0344087Y0253840D01*
X0344607Y0254360D01*
X0346996Y0255350D01*
X0349582Y0255350D01*
X0351971Y0254360D01*
X0353799Y0252532D01*
X0354194Y0251578D01*
X0354590Y0252532D01*
X0356418Y0254360D01*
X0358807Y0255350D01*
X0361393Y0255350D01*
X0363782Y0254360D01*
X0365610Y0252532D01*
X0366222Y0251055D01*
X0366740Y0252305D01*
X0368456Y0254021D01*
X0370698Y0254950D01*
X0373124Y0254950D01*
X0375366Y0254021D01*
X0375912Y0253476D01*
X0376001Y0253661D01*
X0376594Y0254606D01*
X0377290Y0255478D01*
X0378079Y0256266D01*
X0378951Y0256962D01*
X0379895Y0257555D01*
X0380900Y0258039D01*
X0381953Y0258408D01*
X0383040Y0258656D01*
X0384141Y0258780D01*
X0384141Y0249415D01*
X0385272Y0249415D01*
X0385272Y0258780D01*
X0386372Y0258656D01*
X0387460Y0258408D01*
X0388513Y0258039D01*
X0389518Y0257555D01*
X0390462Y0256962D01*
X0391334Y0256266D01*
X0392123Y0255478D01*
X0392246Y0255323D01*
X0392624Y0256732D01*
X0394033Y0259173D01*
X0394619Y0259759D01*
X0394665Y0259833D01*
X0394781Y0259921D01*
X0396027Y0261167D01*
X0397742Y0262157D01*
X0397814Y0262211D01*
X0397858Y0262224D01*
X0398468Y0262576D01*
X0401191Y0263305D01*
X0404009Y0263305D01*
X0405360Y0262944D01*
X0405538Y0262927D01*
X0405674Y0262859D01*
X0406732Y0262576D01*
X0409173Y0261167D01*
X0411167Y0259173D01*
X0411646Y0258344D01*
X0411729Y0258252D01*
X0411791Y0258092D01*
X0412576Y0256732D01*
X0413305Y0254009D01*
X0413305Y0251191D01*
X0412576Y0248468D01*
X0411791Y0247108D01*
X0411729Y0246948D01*
X0411646Y0246856D01*
X0411167Y0246027D01*
X0409173Y0244033D01*
X0406732Y0242624D01*
X0405674Y0242341D01*
X0405538Y0242273D01*
X0405360Y0242256D01*
X0404009Y0241894D01*
X0401191Y0241894D01*
X0398468Y0242624D01*
X0397858Y0242976D01*
X0397814Y0242989D01*
X0397742Y0243043D01*
X0396027Y0244033D01*
X0394781Y0245279D01*
X0394665Y0245367D01*
X0394619Y0245441D01*
X0394186Y0245874D01*
X0393896Y0245044D01*
X0393412Y0244039D01*
X0392818Y0243094D01*
X0392123Y0242222D01*
X0391334Y0241434D01*
X0390462Y0240738D01*
X0390401Y0240700D01*
X0418250Y0240700D01*
X0418250Y0246350D01*
X0418112Y0248802D01*
X0417021Y0253583D01*
X0414893Y0258002D01*
X0411836Y0261836D01*
X0408002Y0264893D01*
X0403583Y0267021D01*
X0398802Y0268112D01*
X0396350Y0268250D01*
X0033850Y0268250D01*
X0031398Y0268112D01*
X0026617Y0267021D01*
X0022198Y0264893D01*
X0018364Y0261836D01*
X0015307Y0258002D01*
X0013179Y0253583D01*
X0012088Y0248802D01*
X0011950Y0246350D01*
X0011950Y0033850D01*
X0012088Y0031398D01*
X0013179Y0026617D01*
X0015307Y0022198D01*
X0018364Y0018364D01*
X0018182Y0018593D02*
X0021790Y0018593D01*
X0021027Y0019033D02*
X0022742Y0018043D01*
X0022814Y0017989D01*
X0022858Y0017976D01*
X0023468Y0017624D01*
X0026191Y0016894D01*
X0029009Y0016894D01*
X0030360Y0017256D01*
X0030538Y0017273D01*
X0030674Y0017341D01*
X0031732Y0017624D01*
X0034173Y0019033D01*
X0036167Y0021027D01*
X0036646Y0021856D01*
X0036729Y0021948D01*
X0036791Y0022108D01*
X0037576Y0023468D01*
X0038305Y0026191D01*
X0038305Y0029009D01*
X0037576Y0031732D01*
X0036791Y0033092D01*
X0036729Y0033252D01*
X0036646Y0033344D01*
X0036167Y0034173D01*
X0034173Y0036167D01*
X0031732Y0037576D01*
X0030674Y0037859D01*
X0030538Y0037927D01*
X0030360Y0037944D01*
X0029009Y0038305D01*
X0026191Y0038305D01*
X0023468Y0037576D01*
X0022858Y0037224D01*
X0022814Y0037211D01*
X0022742Y0037157D01*
X0021027Y0036167D01*
X0019781Y0034921D01*
X0019665Y0034833D01*
X0019619Y0034759D01*
X0019033Y0034173D01*
X0017624Y0031732D01*
X0016894Y0029009D01*
X0016894Y0027768D01*
X0016863Y0027600D01*
X0016894Y0027432D01*
X0016894Y0026191D01*
X0017624Y0023468D01*
X0019033Y0021027D01*
X0019619Y0020441D01*
X0019665Y0020367D01*
X0019781Y0020279D01*
X0021027Y0019033D01*
X0018592Y0021791D02*
X0015632Y0021791D01*
X0017216Y0024990D02*
X0013963Y0024990D01*
X0012820Y0028188D02*
X0016894Y0028188D01*
X0017531Y0031387D02*
X0012090Y0031387D01*
X0011950Y0034585D02*
X0019445Y0034585D01*
X0024243Y0037784D02*
X0011950Y0037784D01*
X0011950Y0040982D02*
X0040150Y0040982D01*
X0040150Y0037784D02*
X0030957Y0037784D01*
X0035755Y0034585D02*
X0040427Y0034585D01*
X0043157Y0031387D02*
X0037669Y0031387D01*
X0038305Y0028188D02*
X0046355Y0028188D01*
X0049554Y0024990D02*
X0037984Y0024990D01*
X0036608Y0021791D02*
X0052752Y0021791D01*
X0055951Y0018593D02*
X0033410Y0018593D01*
X0030925Y0012196D02*
X0062348Y0012196D01*
X0059149Y0015394D02*
X0022089Y0015394D01*
X0051272Y0034585D02*
X0206176Y0034585D01*
X0204740Y0037784D02*
X0048150Y0037784D01*
X0048150Y0040982D02*
X0204300Y0040982D01*
X0205771Y0044181D02*
X0048823Y0044181D01*
X0050638Y0047379D02*
X0164264Y0047379D01*
X0164145Y0047429D02*
X0166387Y0046500D01*
X0168813Y0046500D01*
X0171055Y0047429D01*
X0172771Y0049145D01*
X0173700Y0051387D01*
X0173700Y0053813D01*
X0172771Y0056055D01*
X0171055Y0057771D01*
X0168813Y0058700D01*
X0166387Y0058700D01*
X0164145Y0057771D01*
X0162429Y0056055D01*
X0161500Y0053813D01*
X0161500Y0051387D01*
X0162429Y0049145D01*
X0164145Y0047429D01*
X0170936Y0047379D02*
X0204042Y0047379D01*
X0201055Y0048679D02*
X0202771Y0050395D01*
X0203700Y0052637D01*
X0203700Y0055063D01*
X0202771Y0057305D01*
X0201055Y0059021D01*
X0198813Y0059950D01*
X0196387Y0059950D01*
X0194145Y0059021D01*
X0192429Y0057305D01*
X0191500Y0055063D01*
X0191500Y0052637D01*
X0192429Y0050395D01*
X0194145Y0048679D01*
X0196387Y0047750D01*
X0198813Y0047750D01*
X0201055Y0048679D01*
X0202847Y0050578D02*
X0203502Y0050578D01*
X0203700Y0053776D02*
X0204524Y0053776D01*
X0205075Y0056975D02*
X0202908Y0056975D01*
X0204300Y0060173D02*
X0186600Y0060173D01*
X0186600Y0058477D02*
X0186600Y0068396D01*
X0185991Y0069866D01*
X0184866Y0070991D01*
X0183396Y0071600D01*
X0144055Y0071600D01*
X0142714Y0072941D01*
X0140398Y0073900D01*
X0137892Y0073900D01*
X0135577Y0072941D01*
X0133804Y0071169D01*
X0132845Y0068853D01*
X0132845Y0066347D01*
X0133804Y0064031D01*
X0135577Y0062259D01*
X0137892Y0061300D01*
X0140398Y0061300D01*
X0142714Y0062259D01*
X0144055Y0063600D01*
X0178600Y0063600D01*
X0178600Y0058477D01*
X0177429Y0057305D01*
X0176500Y0055063D01*
X0176500Y0052637D01*
X0177429Y0050395D01*
X0179145Y0048679D01*
X0181387Y0047750D01*
X0183813Y0047750D01*
X0186055Y0048679D01*
X0187771Y0050395D01*
X0188700Y0052637D01*
X0188700Y0055063D01*
X0187771Y0057305D01*
X0186600Y0058477D01*
X0187908Y0056975D02*
X0192292Y0056975D01*
X0191500Y0053776D02*
X0188700Y0053776D01*
X0187847Y0050578D02*
X0192353Y0050578D01*
X0177353Y0050578D02*
X0173365Y0050578D01*
X0173700Y0053776D02*
X0176500Y0053776D01*
X0177292Y0056975D02*
X0171852Y0056975D01*
X0178600Y0060173D02*
X0110264Y0060173D01*
X0107066Y0056975D02*
X0163348Y0056975D01*
X0161500Y0053776D02*
X0048266Y0053776D01*
X0050408Y0050578D02*
X0161835Y0050578D01*
X0178600Y0063372D02*
X0143827Y0063372D01*
X0134464Y0063372D02*
X0123236Y0063372D01*
X0124855Y0066570D02*
X0132845Y0066570D01*
X0133225Y0069769D02*
X0124475Y0069769D01*
X0122060Y0072967D02*
X0135640Y0072967D01*
X0142650Y0072967D02*
X0204969Y0072967D01*
X0205625Y0076166D02*
X0065378Y0076166D01*
X0063550Y0072967D02*
X0068136Y0072967D01*
X0070100Y0072967D02*
X0070100Y0072967D01*
X0072064Y0072967D02*
X0105050Y0072967D01*
X0102634Y0069769D02*
X0095287Y0069769D01*
X0096200Y0066570D02*
X0102255Y0066570D01*
X0103281Y0063372D02*
X0095469Y0063372D01*
X0070100Y0066570D02*
X0070100Y0066570D01*
X0070100Y0069769D02*
X0070100Y0069769D01*
X0056387Y0071263D02*
X0056200Y0071077D01*
X0056200Y0073316D01*
X0055652Y0074639D01*
X0054639Y0075652D01*
X0053316Y0076200D01*
X0051665Y0076200D01*
X0051669Y0076204D01*
X0052505Y0077039D01*
X0053241Y0077963D01*
X0053870Y0078964D01*
X0054383Y0080028D01*
X0054773Y0081144D01*
X0055036Y0082296D01*
X0055138Y0083200D01*
X0053603Y0083200D01*
X0053829Y0083448D01*
X0054400Y0084922D01*
X0055138Y0084922D01*
X0055036Y0085826D01*
X0054930Y0086291D01*
X0055254Y0087127D01*
X0055254Y0091073D01*
X0053829Y0094752D01*
X0051170Y0097668D01*
X0047638Y0099427D01*
X0043709Y0099791D01*
X0039914Y0098711D01*
X0036765Y0096333D01*
X0036200Y0095420D01*
X0036200Y0186718D01*
X0036665Y0185967D01*
X0039814Y0183589D01*
X0042493Y0182826D01*
X0041776Y0182529D01*
X0040970Y0182064D01*
X0040231Y0181497D01*
X0039573Y0180839D01*
X0039007Y0180101D01*
X0038541Y0179295D01*
X0038185Y0178435D01*
X0037944Y0177536D01*
X0037823Y0176613D01*
X0037823Y0176148D01*
X0044923Y0176148D01*
X0044923Y0176148D01*
X0037823Y0176148D01*
X0037823Y0175682D01*
X0037944Y0174759D01*
X0038185Y0173860D01*
X0038541Y0173001D01*
X0039007Y0172195D01*
X0039573Y0171456D01*
X0040231Y0170798D01*
X0040476Y0170610D01*
X0039582Y0169716D01*
X0038623Y0167401D01*
X0038623Y0164894D01*
X0039582Y0162579D01*
X0041013Y0161148D01*
X0039582Y0159716D01*
X0038623Y0157401D01*
X0038623Y0154894D01*
X0039582Y0152579D01*
X0041013Y0151148D01*
X0039582Y0149716D01*
X0038623Y0147401D01*
X0038623Y0144894D01*
X0039582Y0142579D01*
X0041013Y0141148D01*
X0039582Y0139716D01*
X0038623Y0137401D01*
X0038623Y0134894D01*
X0039582Y0132579D01*
X0041013Y0131148D01*
X0039582Y0129716D01*
X0038623Y0127401D01*
X0038623Y0124894D01*
X0039582Y0122579D01*
X0041013Y0121148D01*
X0039582Y0119716D01*
X0038623Y0117401D01*
X0038623Y0114894D01*
X0039582Y0112579D01*
X0041013Y0111148D01*
X0039582Y0109716D01*
X0038623Y0107401D01*
X0038623Y0104894D01*
X0039582Y0102579D01*
X0041354Y0100807D01*
X0043670Y0099848D01*
X0046176Y0099848D01*
X0048491Y0100807D01*
X0050073Y0102388D01*
X0052481Y0102314D01*
X0052777Y0102236D01*
X0053189Y0102293D01*
X0053605Y0102280D01*
X0053892Y0102388D01*
X0054196Y0102430D01*
X0054556Y0102640D01*
X0054945Y0102787D01*
X0055168Y0102997D01*
X0055433Y0103152D01*
X0055685Y0103483D01*
X0055988Y0103768D01*
X0056114Y0104048D01*
X0077717Y0132478D01*
X0078451Y0132782D01*
X0079618Y0133949D01*
X0079673Y0134082D01*
X0079852Y0134261D01*
X0080391Y0134800D01*
X0161476Y0134800D01*
X0161100Y0133893D01*
X0161100Y0131307D01*
X0162090Y0128918D01*
X0163918Y0127090D01*
X0166307Y0126100D01*
X0168893Y0126100D01*
X0171282Y0127090D01*
X0172600Y0128408D01*
X0173918Y0127090D01*
X0176307Y0126100D01*
X0178893Y0126100D01*
X0181282Y0127090D01*
X0182600Y0128408D01*
X0183918Y0127090D01*
X0185177Y0126568D01*
X0180309Y0121700D01*
X0076784Y0121700D01*
X0075461Y0121152D01*
X0075159Y0120850D01*
X0074575Y0120850D01*
X0073049Y0120218D01*
X0071882Y0119051D01*
X0071250Y0117525D01*
X0071250Y0117230D01*
X0064626Y0108726D01*
X0064303Y0108420D01*
X0064190Y0108166D01*
X0064020Y0107947D01*
X0063901Y0107518D01*
X0063720Y0107111D01*
X0063713Y0106834D01*
X0063639Y0106566D01*
X0063694Y0106125D01*
X0063460Y0097297D01*
X0062850Y0095825D01*
X0062850Y0094175D01*
X0063482Y0092649D01*
X0064649Y0091482D01*
X0066175Y0090850D01*
X0067825Y0090850D01*
X0068014Y0090928D01*
X0057191Y0077476D01*
X0056802Y0077069D01*
X0056745Y0076922D01*
X0056646Y0076799D01*
X0056488Y0076259D01*
X0056285Y0075734D01*
X0056288Y0075576D01*
X0056244Y0075424D01*
X0056304Y0074865D01*
X0056387Y0071263D01*
X0056348Y0072967D02*
X0056200Y0072967D01*
X0056452Y0076166D02*
X0053399Y0076166D01*
X0054063Y0079364D02*
X0058710Y0079364D01*
X0061284Y0082563D02*
X0055066Y0082563D01*
X0055043Y0085761D02*
X0063857Y0085761D01*
X0066430Y0088960D02*
X0055254Y0088960D01*
X0054834Y0092158D02*
X0063973Y0092158D01*
X0062850Y0095357D02*
X0053278Y0095357D01*
X0049389Y0098555D02*
X0063493Y0098555D01*
X0063578Y0101754D02*
X0049439Y0101754D01*
X0056801Y0104952D02*
X0063663Y0104952D01*
X0064179Y0108151D02*
X0059232Y0108151D01*
X0061662Y0111349D02*
X0066670Y0111349D01*
X0069161Y0114548D02*
X0064093Y0114548D01*
X0066523Y0117746D02*
X0071342Y0117746D01*
X0068954Y0120945D02*
X0075254Y0120945D01*
X0071384Y0124143D02*
X0182752Y0124143D01*
X0183666Y0127342D02*
X0181534Y0127342D01*
X0173666Y0127342D02*
X0171534Y0127342D01*
X0163666Y0127342D02*
X0073814Y0127342D01*
X0076245Y0130540D02*
X0161418Y0130540D01*
X0161100Y0133739D02*
X0079408Y0133739D01*
X0071950Y0136937D02*
X0051223Y0136937D01*
X0050744Y0133739D02*
X0069633Y0133739D01*
X0067202Y0130540D02*
X0049439Y0130540D01*
X0051223Y0127342D02*
X0064772Y0127342D01*
X0062341Y0124143D02*
X0050912Y0124143D01*
X0049035Y0120945D02*
X0059911Y0120945D01*
X0057480Y0117746D02*
X0051080Y0117746D01*
X0051079Y0114548D02*
X0055050Y0114548D01*
X0052619Y0111349D02*
X0049034Y0111349D01*
X0040811Y0111349D02*
X0036200Y0111349D01*
X0036200Y0108151D02*
X0038934Y0108151D01*
X0038623Y0104952D02*
X0036200Y0104952D01*
X0036200Y0101754D02*
X0040407Y0101754D01*
X0039707Y0098555D02*
X0036200Y0098555D01*
X0029000Y0098555D02*
X0011950Y0098555D01*
X0011950Y0095357D02*
X0029000Y0095357D01*
X0029000Y0092158D02*
X0011950Y0092158D01*
X0011950Y0088960D02*
X0029000Y0088960D01*
X0029000Y0085761D02*
X0011950Y0085761D01*
X0011950Y0082563D02*
X0029000Y0082563D01*
X0029000Y0079364D02*
X0011950Y0079364D01*
X0011950Y0076166D02*
X0029297Y0076166D01*
X0032142Y0072967D02*
X0019922Y0072967D01*
X0017178Y0072967D02*
X0011950Y0072967D01*
X0011950Y0069769D02*
X0012868Y0069769D01*
X0012050Y0066570D02*
X0011950Y0066570D01*
X0011950Y0063372D02*
X0012810Y0063372D01*
X0011950Y0060173D02*
X0016839Y0060173D01*
X0020261Y0060173D02*
X0040508Y0060173D01*
X0044150Y0060173D02*
X0044150Y0060173D01*
X0047792Y0060173D02*
X0049936Y0060173D01*
X0053134Y0056975D02*
X0011950Y0056975D01*
X0011950Y0053776D02*
X0014434Y0053776D01*
X0012292Y0050578D02*
X0011950Y0050578D01*
X0011950Y0047379D02*
X0012062Y0047379D01*
X0011950Y0044181D02*
X0013877Y0044181D01*
X0023223Y0044181D02*
X0039477Y0044181D01*
X0040034Y0053776D02*
X0022666Y0053776D01*
X0054470Y0031387D02*
X0204314Y0031387D01*
X0204573Y0028188D02*
X0057669Y0028188D01*
X0060867Y0024990D02*
X0206801Y0024990D01*
X0214399Y0024990D02*
X0292200Y0024990D01*
X0292200Y0021791D02*
X0288038Y0021791D01*
X0286350Y0021791D02*
X0286350Y0021791D01*
X0286350Y0022000D02*
X0285898Y0022000D01*
X0285001Y0021882D01*
X0284127Y0021648D01*
X0283292Y0021302D01*
X0282508Y0020849D01*
X0281791Y0020299D01*
X0281151Y0019659D01*
X0280601Y0018942D01*
X0280148Y0018158D01*
X0279802Y0017323D01*
X0279568Y0016449D01*
X0279450Y0015552D01*
X0279450Y0015100D01*
X0286350Y0015100D01*
X0286350Y0015100D01*
X0286350Y0022000D01*
X0284662Y0021791D02*
X0064066Y0021791D01*
X0067264Y0018593D02*
X0219966Y0018593D01*
X0230234Y0018593D02*
X0259966Y0018593D01*
X0259000Y0015394D02*
X0231200Y0015394D01*
X0230499Y0012196D02*
X0259700Y0012196D01*
X0270499Y0012196D02*
X0280085Y0012196D01*
X0279450Y0015394D02*
X0271200Y0015394D01*
X0270234Y0018593D02*
X0280399Y0018593D01*
X0286350Y0018593D02*
X0286350Y0018593D01*
X0286350Y0015394D02*
X0286350Y0015394D01*
X0296350Y0015100D02*
X0296600Y0015200D01*
X0296600Y0040100D01*
X0292200Y0031387D02*
X0216886Y0031387D01*
X0216627Y0028188D02*
X0292200Y0028188D01*
X0301000Y0028188D02*
X0316413Y0028188D01*
X0316357Y0028434D02*
X0316605Y0027346D01*
X0316974Y0026294D01*
X0317458Y0025289D01*
X0318051Y0024344D01*
X0318747Y0023472D01*
X0319535Y0022684D01*
X0320407Y0021988D01*
X0321352Y0021395D01*
X0322357Y0020911D01*
X0323409Y0020542D01*
X0324497Y0020294D01*
X0325598Y0020170D01*
X0325598Y0029535D01*
X0316233Y0029535D01*
X0316357Y0028434D01*
X0316233Y0030665D02*
X0325598Y0030665D01*
X0325598Y0029535D01*
X0326728Y0029535D01*
X0326728Y0030665D01*
X0325598Y0030665D01*
X0325598Y0040030D01*
X0324497Y0039906D01*
X0323409Y0039658D01*
X0322357Y0039289D01*
X0321352Y0038805D01*
X0320407Y0038212D01*
X0319535Y0037516D01*
X0318747Y0036728D01*
X0318051Y0035856D01*
X0317458Y0034911D01*
X0316974Y0033906D01*
X0316605Y0032854D01*
X0316357Y0031766D01*
X0316233Y0030665D01*
X0316314Y0031387D02*
X0301000Y0031387D01*
X0301000Y0024990D02*
X0317646Y0024990D01*
X0320721Y0021791D02*
X0301000Y0021791D01*
X0301484Y0018593D02*
X0361107Y0018593D01*
X0360925Y0018668D02*
X0361724Y0018337D01*
X0362560Y0018113D01*
X0363417Y0018000D01*
X0363850Y0018000D01*
X0363850Y0027600D01*
X0363850Y0027600D01*
X0363850Y0027600D01*
X0357250Y0027600D01*
X0357250Y0031033D01*
X0357363Y0031890D01*
X0357587Y0032726D01*
X0357918Y0033525D01*
X0358351Y0034275D01*
X0358877Y0034961D01*
X0359489Y0035573D01*
X0360175Y0036099D01*
X0360925Y0036532D01*
X0361724Y0036863D01*
X0362560Y0037087D01*
X0363417Y0037200D01*
X0363850Y0037200D01*
X0363850Y0027600D01*
X0357250Y0027600D01*
X0357250Y0024167D01*
X0357363Y0023310D01*
X0357587Y0022474D01*
X0357918Y0021675D01*
X0358351Y0020925D01*
X0358877Y0020239D01*
X0359489Y0019627D01*
X0360175Y0019101D01*
X0360925Y0018668D01*
X0363850Y0018593D02*
X0363850Y0018593D01*
X0366593Y0018593D02*
X0396790Y0018593D01*
X0396027Y0019033D02*
X0397742Y0018043D01*
X0397814Y0017989D01*
X0397858Y0017976D01*
X0398468Y0017624D01*
X0401191Y0016894D01*
X0404009Y0016894D01*
X0405360Y0017256D01*
X0405538Y0017273D01*
X0405674Y0017341D01*
X0406732Y0017624D01*
X0409173Y0019033D01*
X0411167Y0021027D01*
X0411646Y0021856D01*
X0411729Y0021948D01*
X0411791Y0022108D01*
X0412576Y0023468D01*
X0413305Y0026191D01*
X0413305Y0029009D01*
X0412576Y0031732D01*
X0411791Y0033092D01*
X0411729Y0033252D01*
X0411646Y0033344D01*
X0411167Y0034173D01*
X0409173Y0036167D01*
X0406732Y0037576D01*
X0405674Y0037859D01*
X0405538Y0037927D01*
X0405360Y0037944D01*
X0404009Y0038305D01*
X0401191Y0038305D01*
X0398468Y0037576D01*
X0397858Y0037224D01*
X0397814Y0037211D01*
X0397742Y0037157D01*
X0396027Y0036167D01*
X0394781Y0034921D01*
X0394665Y0034833D01*
X0394619Y0034759D01*
X0394033Y0034173D01*
X0392624Y0031732D01*
X0391894Y0029009D01*
X0391894Y0027768D01*
X0391863Y0027600D01*
X0391894Y0027432D01*
X0391894Y0026191D01*
X0392624Y0023468D01*
X0394033Y0021027D01*
X0394619Y0020441D01*
X0394665Y0020367D01*
X0394781Y0020279D01*
X0396027Y0019033D01*
X0393592Y0021791D02*
X0388964Y0021791D01*
X0389650Y0024990D02*
X0392216Y0024990D01*
X0391894Y0028188D02*
X0389650Y0028188D01*
X0389650Y0031387D02*
X0392531Y0031387D01*
X0394445Y0034585D02*
X0389200Y0034585D01*
X0389200Y0037784D02*
X0399243Y0037784D01*
X0405957Y0037784D02*
X0418250Y0037784D01*
X0418250Y0040982D02*
X0389200Y0040982D01*
X0389200Y0044181D02*
X0418250Y0044181D01*
X0418250Y0047379D02*
X0389200Y0047379D01*
X0389200Y0050578D02*
X0418250Y0050578D01*
X0418250Y0053776D02*
X0389200Y0053776D01*
X0389200Y0056975D02*
X0418250Y0056975D01*
X0418250Y0060173D02*
X0387722Y0060173D01*
X0384524Y0063372D02*
X0418250Y0063372D01*
X0418250Y0066570D02*
X0381325Y0066570D01*
X0378127Y0069769D02*
X0418250Y0069769D01*
X0418250Y0072967D02*
X0357160Y0072967D01*
X0359041Y0076166D02*
X0418250Y0076166D01*
X0418250Y0079364D02*
X0358905Y0079364D01*
X0356830Y0082563D02*
X0418250Y0082563D01*
X0418250Y0085761D02*
X0358874Y0085761D01*
X0359072Y0088960D02*
X0418250Y0088960D01*
X0418250Y0092158D02*
X0357234Y0092158D01*
X0358706Y0095357D02*
X0418250Y0095357D01*
X0418250Y0098555D02*
X0359100Y0098555D01*
X0357639Y0101754D02*
X0418250Y0101754D01*
X0418250Y0104952D02*
X0334657Y0104952D01*
X0335904Y0108151D02*
X0418250Y0108151D01*
X0418250Y0111349D02*
X0336016Y0111349D01*
X0335043Y0114548D02*
X0379368Y0114548D01*
X0377000Y0117746D02*
X0332502Y0117746D01*
X0326728Y0117746D02*
X0325598Y0117746D01*
X0319824Y0117746D02*
X0313742Y0117746D01*
X0317296Y0120945D02*
X0377000Y0120945D01*
X0377000Y0124143D02*
X0320850Y0124143D01*
X0324404Y0127342D02*
X0377000Y0127342D01*
X0377000Y0130540D02*
X0327958Y0130540D01*
X0331512Y0133739D02*
X0377000Y0133739D01*
X0377000Y0136937D02*
X0335065Y0136937D01*
X0338619Y0140136D02*
X0377000Y0140136D01*
X0377000Y0143334D02*
X0342173Y0143334D01*
X0345727Y0146533D02*
X0377000Y0146533D01*
X0377000Y0149732D02*
X0349281Y0149732D01*
X0352835Y0152930D02*
X0366982Y0152930D01*
X0367100Y0152776D02*
X0367776Y0152100D01*
X0368536Y0151517D01*
X0369364Y0151039D01*
X0370248Y0150673D01*
X0371173Y0150425D01*
X0372122Y0150300D01*
X0372600Y0150300D01*
X0372600Y0157600D01*
X0365300Y0157600D01*
X0365300Y0157122D01*
X0365425Y0156173D01*
X0365673Y0155248D01*
X0366039Y0154364D01*
X0366517Y0153536D01*
X0367100Y0152776D01*
X0365437Y0156129D02*
X0356389Y0156129D01*
X0359984Y0159327D02*
X0365505Y0159327D01*
X0367202Y0162526D02*
X0361602Y0162526D01*
X0361600Y0165724D02*
X0366341Y0165724D01*
X0366112Y0168923D02*
X0361600Y0168923D01*
X0361600Y0172121D02*
X0367929Y0172121D01*
X0361600Y0175320D02*
X0377000Y0175320D01*
X0377000Y0178518D02*
X0361600Y0178518D01*
X0361600Y0181717D02*
X0377000Y0181717D01*
X0377000Y0184915D02*
X0361600Y0184915D01*
X0367100Y0187776D02*
X0367776Y0187100D01*
X0368536Y0186517D01*
X0369364Y0186039D01*
X0370248Y0185673D01*
X0371173Y0185425D01*
X0372122Y0185300D01*
X0372600Y0185300D01*
X0372600Y0192600D01*
X0365300Y0192600D01*
X0365300Y0192122D01*
X0365425Y0191173D01*
X0365673Y0190248D01*
X0366039Y0189364D01*
X0366517Y0188536D01*
X0367100Y0187776D01*
X0366841Y0188114D02*
X0361600Y0188114D01*
X0361600Y0191312D02*
X0365407Y0191312D01*
X0365554Y0194511D02*
X0361600Y0194511D01*
X0363366Y0197709D02*
X0367385Y0197709D01*
X0372600Y0191312D02*
X0372600Y0191312D01*
X0372600Y0188114D02*
X0372600Y0188114D01*
X0353600Y0188114D02*
X0334246Y0188114D01*
X0337297Y0191312D02*
X0353600Y0191312D01*
X0353600Y0194511D02*
X0340496Y0194511D01*
X0343694Y0197709D02*
X0353600Y0197709D01*
X0355251Y0200908D02*
X0346893Y0200908D01*
X0350091Y0204106D02*
X0358449Y0204106D01*
X0353290Y0207305D02*
X0368112Y0207305D01*
X0377000Y0210503D02*
X0356488Y0210503D01*
X0359687Y0213702D02*
X0377000Y0213702D01*
X0377000Y0216900D02*
X0362886Y0216900D01*
X0365558Y0220099D02*
X0377000Y0220099D01*
X0377000Y0223297D02*
X0366100Y0223297D01*
X0366100Y0226496D02*
X0377000Y0226496D01*
X0377000Y0229694D02*
X0366100Y0229694D01*
X0366100Y0232893D02*
X0377000Y0232893D01*
X0377000Y0236091D02*
X0366100Y0236091D01*
X0366100Y0239290D02*
X0377445Y0239290D01*
X0377078Y0242488D02*
X0366100Y0242488D01*
X0366100Y0245687D02*
X0366619Y0245687D01*
X0366648Y0252084D02*
X0365796Y0252084D01*
X0361556Y0255282D02*
X0377134Y0255282D01*
X0382274Y0258481D02*
X0337926Y0258481D01*
X0336059Y0258481D02*
X0334928Y0258481D01*
X0333061Y0258481D02*
X0092458Y0258481D01*
X0092474Y0261679D02*
X0396915Y0261679D01*
X0393634Y0258481D02*
X0387139Y0258481D01*
X0385272Y0258481D02*
X0384141Y0258481D01*
X0384141Y0255282D02*
X0385272Y0255282D01*
X0385272Y0252084D02*
X0384141Y0252084D01*
X0394121Y0245687D02*
X0394373Y0245687D01*
X0392335Y0242488D02*
X0398974Y0242488D01*
X0406226Y0242488D02*
X0418250Y0242488D01*
X0418250Y0245687D02*
X0410827Y0245687D01*
X0412688Y0248885D02*
X0418093Y0248885D01*
X0417363Y0252084D02*
X0413305Y0252084D01*
X0412964Y0255282D02*
X0416203Y0255282D01*
X0414511Y0258481D02*
X0411566Y0258481D01*
X0411960Y0261679D02*
X0408285Y0261679D01*
X0408021Y0264878D02*
X0089553Y0264878D01*
X0080647Y0264878D02*
X0059553Y0264878D01*
X0062474Y0261679D02*
X0077726Y0261679D01*
X0077742Y0258481D02*
X0062458Y0258481D01*
X0059458Y0255282D02*
X0080742Y0255282D01*
X0077893Y0252084D02*
X0062307Y0252084D01*
X0062625Y0248885D02*
X0077463Y0248885D01*
X0074264Y0245687D02*
X0060434Y0245687D01*
X0058351Y0242488D02*
X0071066Y0242488D01*
X0067867Y0239290D02*
X0058762Y0239290D01*
X0060673Y0236091D02*
X0066800Y0236091D01*
X0066800Y0232893D02*
X0061197Y0232893D01*
X0061190Y0229694D02*
X0066800Y0229694D01*
X0066800Y0226496D02*
X0061183Y0226496D01*
X0061176Y0223297D02*
X0066800Y0223297D01*
X0066800Y0220099D02*
X0061169Y0220099D01*
X0061162Y0216900D02*
X0066800Y0216900D01*
X0066800Y0213702D02*
X0061589Y0213702D01*
X0064788Y0210503D02*
X0066800Y0210503D01*
X0071200Y0206300D02*
X0071200Y0236400D01*
X0084500Y0249700D01*
X0085100Y0250100D01*
X0089458Y0255282D02*
X0327922Y0255282D01*
X0334928Y0255282D02*
X0336059Y0255282D01*
X0343066Y0255282D02*
X0346833Y0255282D01*
X0349745Y0255282D02*
X0358644Y0255282D01*
X0354404Y0252084D02*
X0353985Y0252084D01*
X0342289Y0239290D02*
X0338236Y0239290D01*
X0336059Y0239290D02*
X0334928Y0239290D01*
X0332751Y0239290D02*
X0267037Y0239290D01*
X0267771Y0238555D02*
X0266055Y0240271D01*
X0263813Y0241200D01*
X0261387Y0241200D01*
X0259145Y0240271D01*
X0257429Y0238555D01*
X0256500Y0236313D01*
X0256500Y0233887D01*
X0257429Y0231645D01*
X0259145Y0229929D01*
X0261387Y0229000D01*
X0263813Y0229000D01*
X0266055Y0229929D01*
X0267771Y0231645D01*
X0268700Y0233887D01*
X0268700Y0236313D01*
X0267771Y0238555D01*
X0268700Y0236091D02*
X0342289Y0236091D01*
X0342289Y0232893D02*
X0268288Y0232893D01*
X0265490Y0229694D02*
X0295871Y0229694D01*
X0297600Y0229694D02*
X0297600Y0229694D01*
X0299329Y0229694D02*
X0341209Y0229694D01*
X0338011Y0226496D02*
X0303780Y0226496D01*
X0304871Y0223297D02*
X0334812Y0223297D01*
X0331613Y0220099D02*
X0304465Y0220099D01*
X0302164Y0216900D02*
X0328415Y0216900D01*
X0325216Y0213702D02*
X0283300Y0213702D01*
X0283300Y0216900D02*
X0284375Y0216900D01*
X0290825Y0216900D02*
X0293036Y0216900D01*
X0297600Y0216900D02*
X0297600Y0216900D01*
X0297600Y0220099D02*
X0297600Y0220099D01*
X0297600Y0223297D02*
X0297600Y0223297D01*
X0297600Y0226496D02*
X0297600Y0226496D01*
X0277600Y0222600D02*
X0277700Y0220300D01*
X0272100Y0217908D02*
X0272100Y0168955D01*
X0272000Y0168714D01*
X0272000Y0168349D01*
X0271935Y0168287D01*
X0271911Y0168234D01*
X0255577Y0151900D01*
X0139645Y0151900D01*
X0139950Y0152637D01*
X0139950Y0155063D01*
X0139307Y0156616D01*
X0144191Y0161500D01*
X0146313Y0161500D01*
X0148555Y0162429D01*
X0150271Y0164145D01*
X0151200Y0166387D01*
X0151200Y0168813D01*
X0150271Y0171055D01*
X0149244Y0172083D01*
X0149659Y0172401D01*
X0150299Y0173041D01*
X0150849Y0173758D01*
X0151302Y0174542D01*
X0151648Y0175377D01*
X0151882Y0176251D01*
X0152000Y0177148D01*
X0152000Y0177600D01*
X0152000Y0178052D01*
X0151882Y0178949D01*
X0151648Y0179823D01*
X0151302Y0180658D01*
X0150849Y0181442D01*
X0150299Y0182159D01*
X0149659Y0182799D01*
X0148942Y0183349D01*
X0148158Y0183802D01*
X0147758Y0183967D01*
X0176991Y0213200D01*
X0192316Y0213200D01*
X0193639Y0213748D01*
X0196084Y0216193D01*
X0196307Y0216100D01*
X0198893Y0216100D01*
X0201282Y0217090D01*
X0202600Y0218408D01*
X0203918Y0217090D01*
X0206307Y0216100D01*
X0208893Y0216100D01*
X0211282Y0217090D01*
X0212600Y0218408D01*
X0213918Y0217090D01*
X0216307Y0216100D01*
X0218893Y0216100D01*
X0221282Y0217090D01*
X0222600Y0218408D01*
X0223918Y0217090D01*
X0226307Y0216100D01*
X0228893Y0216100D01*
X0231282Y0217090D01*
X0232600Y0218408D01*
X0233918Y0217090D01*
X0236307Y0216100D01*
X0238893Y0216100D01*
X0241282Y0217090D01*
X0242600Y0218408D01*
X0243918Y0217090D01*
X0246307Y0216100D01*
X0248893Y0216100D01*
X0251282Y0217090D01*
X0252600Y0218408D01*
X0253918Y0217090D01*
X0256307Y0216100D01*
X0258893Y0216100D01*
X0261282Y0217090D01*
X0262600Y0218408D01*
X0263918Y0217090D01*
X0266307Y0216100D01*
X0268893Y0216100D01*
X0271282Y0217090D01*
X0272100Y0217908D01*
X0272100Y0216900D02*
X0270825Y0216900D01*
X0272100Y0213702D02*
X0193527Y0213702D01*
X0200825Y0216900D02*
X0204375Y0216900D01*
X0210825Y0216900D02*
X0214375Y0216900D01*
X0220825Y0216900D02*
X0224375Y0216900D01*
X0230825Y0216900D02*
X0234375Y0216900D01*
X0240825Y0216900D02*
X0244375Y0216900D01*
X0250825Y0216900D02*
X0254375Y0216900D01*
X0260825Y0216900D02*
X0264375Y0216900D01*
X0272100Y0210503D02*
X0174294Y0210503D01*
X0171096Y0207305D02*
X0272100Y0207305D01*
X0272100Y0204106D02*
X0167897Y0204106D01*
X0164699Y0200908D02*
X0272100Y0200908D01*
X0272100Y0197709D02*
X0161500Y0197709D01*
X0158302Y0194511D02*
X0272100Y0194511D01*
X0272100Y0191312D02*
X0155103Y0191312D01*
X0151905Y0188114D02*
X0272100Y0188114D01*
X0272100Y0184915D02*
X0148706Y0184915D01*
X0150638Y0181717D02*
X0272100Y0181717D01*
X0272100Y0178518D02*
X0151939Y0178518D01*
X0152000Y0177600D02*
X0145100Y0177600D01*
X0145100Y0177600D01*
X0152000Y0177600D01*
X0151624Y0175320D02*
X0272100Y0175320D01*
X0272100Y0172121D02*
X0149294Y0172121D01*
X0151155Y0168923D02*
X0272086Y0168923D01*
X0269402Y0165724D02*
X0150926Y0165724D01*
X0148652Y0162526D02*
X0266203Y0162526D01*
X0263005Y0159327D02*
X0142018Y0159327D01*
X0139509Y0156129D02*
X0259806Y0156129D01*
X0256608Y0152930D02*
X0139950Y0152930D01*
X0131400Y0147500D02*
X0257400Y0147500D01*
X0275600Y0165700D01*
X0277600Y0167600D01*
X0277700Y0169900D01*
X0283300Y0172121D02*
X0353600Y0172121D01*
X0353600Y0168923D02*
X0329321Y0168923D01*
X0328893Y0169100D02*
X0326307Y0169100D01*
X0323918Y0168110D01*
X0322600Y0166792D01*
X0321282Y0168110D01*
X0318893Y0169100D01*
X0316307Y0169100D01*
X0313918Y0168110D01*
X0312090Y0166282D01*
X0311100Y0163893D01*
X0311100Y0161307D01*
X0312090Y0158918D01*
X0313918Y0157090D01*
X0316307Y0156100D01*
X0318893Y0156100D01*
X0321282Y0157090D01*
X0322600Y0158408D01*
X0323918Y0157090D01*
X0326307Y0156100D01*
X0328893Y0156100D01*
X0331282Y0157090D01*
X0333110Y0158918D01*
X0334100Y0161307D01*
X0334100Y0163893D01*
X0333110Y0166282D01*
X0331282Y0168110D01*
X0328893Y0169100D01*
X0325879Y0168923D02*
X0319321Y0168923D01*
X0315879Y0168923D02*
X0284197Y0168923D01*
X0287395Y0165724D02*
X0311858Y0165724D01*
X0311100Y0162526D02*
X0290594Y0162526D01*
X0293793Y0159327D02*
X0311920Y0159327D01*
X0316238Y0156129D02*
X0296991Y0156129D01*
X0300190Y0152930D02*
X0340876Y0152930D01*
X0337322Y0149732D02*
X0302778Y0149732D01*
X0303200Y0146533D02*
X0333768Y0146533D01*
X0330215Y0143334D02*
X0303200Y0143334D01*
X0303200Y0140136D02*
X0326661Y0140136D01*
X0323107Y0136937D02*
X0303200Y0136937D01*
X0304100Y0133739D02*
X0319553Y0133739D01*
X0315999Y0130540D02*
X0303782Y0130540D01*
X0301534Y0127342D02*
X0312445Y0127342D01*
X0308891Y0124143D02*
X0281713Y0124143D01*
X0281534Y0127342D02*
X0282534Y0127342D01*
X0287600Y0127342D02*
X0287600Y0127342D01*
X0287600Y0130540D02*
X0287600Y0130540D01*
X0287600Y0133739D02*
X0287600Y0133739D01*
X0287600Y0136937D02*
X0287600Y0136937D01*
X0292000Y0140136D02*
X0203355Y0140136D01*
X0212455Y0136937D02*
X0212745Y0136937D01*
X0222455Y0136937D02*
X0222745Y0136937D01*
X0232455Y0136937D02*
X0232745Y0136937D01*
X0242455Y0136937D02*
X0242745Y0136937D01*
X0252455Y0136937D02*
X0252745Y0136937D01*
X0258841Y0143334D02*
X0292000Y0143334D01*
X0290747Y0146533D02*
X0262656Y0146533D01*
X0265854Y0149732D02*
X0287549Y0149732D01*
X0284350Y0152930D02*
X0269053Y0152930D01*
X0272251Y0156129D02*
X0281152Y0156129D01*
X0277953Y0159327D02*
X0275450Y0159327D01*
X0283300Y0175320D02*
X0353600Y0175320D01*
X0353600Y0178518D02*
X0283300Y0178518D01*
X0283300Y0181717D02*
X0353600Y0181717D01*
X0353600Y0184915D02*
X0332173Y0184915D01*
X0323027Y0184915D02*
X0322173Y0184915D01*
X0313027Y0184915D02*
X0283300Y0184915D01*
X0283300Y0188114D02*
X0310954Y0188114D01*
X0310700Y0191312D02*
X0283300Y0191312D01*
X0283300Y0194511D02*
X0311600Y0194511D01*
X0311600Y0197709D02*
X0283300Y0197709D01*
X0283300Y0200908D02*
X0312476Y0200908D01*
X0315621Y0204106D02*
X0283300Y0204106D01*
X0283300Y0207305D02*
X0318819Y0207305D01*
X0322018Y0210503D02*
X0283300Y0210503D01*
X0259710Y0229694D02*
X0241062Y0229694D01*
X0237964Y0232893D02*
X0256912Y0232893D01*
X0256500Y0236091D02*
X0234766Y0236091D01*
X0227037Y0239290D02*
X0258163Y0239290D01*
X0229849Y0229694D02*
X0225490Y0229694D01*
X0219710Y0229694D02*
X0215490Y0229694D01*
X0209710Y0229694D02*
X0176890Y0229694D01*
X0177159Y0229901D02*
X0176442Y0229351D01*
X0175658Y0228898D01*
X0174823Y0228552D01*
X0173949Y0228318D01*
X0173052Y0228200D01*
X0172600Y0228200D01*
X0172600Y0235100D01*
X0179500Y0235100D01*
X0179500Y0235552D01*
X0179382Y0236449D01*
X0179148Y0237323D01*
X0178802Y0238158D01*
X0178349Y0238942D01*
X0177799Y0239659D01*
X0177159Y0240299D01*
X0176442Y0240849D01*
X0175658Y0241302D01*
X0174823Y0241648D01*
X0173949Y0241882D01*
X0173052Y0242000D01*
X0172600Y0242000D01*
X0172600Y0235100D01*
X0172600Y0235100D01*
X0172600Y0235100D01*
X0179500Y0235100D01*
X0179500Y0234648D01*
X0179382Y0233751D01*
X0179148Y0232877D01*
X0178802Y0232042D01*
X0178349Y0231258D01*
X0177799Y0230541D01*
X0177159Y0229901D01*
X0179152Y0232893D02*
X0206912Y0232893D01*
X0206500Y0236091D02*
X0179429Y0236091D01*
X0178082Y0239290D02*
X0208163Y0239290D01*
X0217037Y0239290D02*
X0218163Y0239290D01*
X0172600Y0239290D02*
X0172600Y0239290D01*
X0172600Y0242000D02*
X0172148Y0242000D01*
X0171251Y0241882D01*
X0170377Y0241648D01*
X0169542Y0241302D01*
X0168758Y0240849D01*
X0168041Y0240299D01*
X0167401Y0239659D01*
X0166851Y0238942D01*
X0166398Y0238158D01*
X0166052Y0237323D01*
X0165818Y0236449D01*
X0165700Y0235552D01*
X0165700Y0235100D01*
X0172600Y0235100D01*
X0172600Y0235100D01*
X0172600Y0235100D01*
X0172600Y0242000D01*
X0172600Y0236091D02*
X0172600Y0236091D01*
X0172600Y0235100D02*
X0165700Y0235100D01*
X0165700Y0234648D01*
X0165818Y0233751D01*
X0166052Y0232877D01*
X0166398Y0232042D01*
X0166851Y0231258D01*
X0167401Y0230541D01*
X0168041Y0229901D01*
X0168758Y0229351D01*
X0169542Y0228898D01*
X0170377Y0228552D01*
X0171251Y0228318D01*
X0172148Y0228200D01*
X0172600Y0228200D01*
X0172600Y0235100D01*
X0172600Y0232893D02*
X0172600Y0232893D01*
X0172600Y0229694D02*
X0172600Y0229694D01*
X0168310Y0229694D02*
X0162800Y0229694D01*
X0162030Y0232893D02*
X0166048Y0232893D01*
X0165771Y0236091D02*
X0108905Y0236091D01*
X0111031Y0239290D02*
X0167118Y0239290D01*
X0153170Y0232893D02*
X0152030Y0232893D01*
X0143170Y0232893D02*
X0142860Y0232893D01*
X0137600Y0232893D02*
X0137600Y0232893D01*
X0137600Y0236000D02*
X0137128Y0236000D01*
X0136195Y0235852D01*
X0135297Y0235560D01*
X0134455Y0235132D01*
X0133691Y0234577D01*
X0133023Y0233909D01*
X0132468Y0233145D01*
X0132040Y0232303D01*
X0131748Y0231405D01*
X0131600Y0230472D01*
X0131600Y0227600D01*
X0137600Y0227600D01*
X0137600Y0227600D01*
X0137600Y0227600D01*
X0137600Y0236000D01*
X0132340Y0232893D02*
X0126085Y0232893D01*
X0126073Y0232898D02*
X0125199Y0233132D01*
X0124302Y0233250D01*
X0123850Y0233250D01*
X0123850Y0226350D01*
X0130750Y0226350D01*
X0130750Y0226802D01*
X0130632Y0227699D01*
X0130398Y0228573D01*
X0130052Y0229408D01*
X0129599Y0230192D01*
X0129049Y0230909D01*
X0128409Y0231549D01*
X0127692Y0232099D01*
X0126908Y0232552D01*
X0126073Y0232898D01*
X0123850Y0232893D02*
X0123850Y0232893D01*
X0123850Y0233250D02*
X0123398Y0233250D01*
X0122501Y0233132D01*
X0121627Y0232898D01*
X0120792Y0232552D01*
X0120008Y0232099D01*
X0119291Y0231549D01*
X0118651Y0230909D01*
X0118101Y0230192D01*
X0117648Y0229408D01*
X0117302Y0228573D01*
X0117068Y0227699D01*
X0116950Y0226802D01*
X0116950Y0226350D01*
X0123850Y0226350D01*
X0123850Y0226350D01*
X0123850Y0226350D01*
X0130750Y0226350D01*
X0130750Y0225898D01*
X0130632Y0225001D01*
X0130398Y0224127D01*
X0130052Y0223292D01*
X0129599Y0222508D01*
X0129049Y0221791D01*
X0128409Y0221151D01*
X0127692Y0220601D01*
X0126908Y0220148D01*
X0126073Y0219802D01*
X0125199Y0219568D01*
X0124302Y0219450D01*
X0123850Y0219450D01*
X0123850Y0226350D01*
X0123850Y0226350D01*
X0123850Y0226350D01*
X0123850Y0233250D01*
X0121615Y0232893D02*
X0106085Y0232893D01*
X0106073Y0232898D02*
X0105199Y0233132D01*
X0104302Y0233250D01*
X0103850Y0233250D01*
X0103850Y0226350D01*
X0110750Y0226350D01*
X0110750Y0226802D01*
X0110632Y0227699D01*
X0110398Y0228573D01*
X0110052Y0229408D01*
X0109599Y0230192D01*
X0109049Y0230909D01*
X0108409Y0231549D01*
X0107692Y0232099D01*
X0106908Y0232552D01*
X0106073Y0232898D01*
X0103850Y0232893D02*
X0103850Y0232893D01*
X0103850Y0233250D02*
X0103398Y0233250D01*
X0102501Y0233132D01*
X0101627Y0232898D01*
X0100792Y0232552D01*
X0100008Y0232099D01*
X0099291Y0231549D01*
X0098651Y0230909D01*
X0098101Y0230192D01*
X0097648Y0229408D01*
X0097302Y0228573D01*
X0097068Y0227699D01*
X0096950Y0226802D01*
X0096950Y0226350D01*
X0103850Y0226350D01*
X0103850Y0226350D01*
X0103850Y0226350D01*
X0110750Y0226350D01*
X0110750Y0225898D01*
X0110632Y0225001D01*
X0110398Y0224127D01*
X0110052Y0223292D01*
X0109599Y0222508D01*
X0109049Y0221791D01*
X0108409Y0221151D01*
X0107692Y0220601D01*
X0106908Y0220148D01*
X0106073Y0219802D01*
X0105199Y0219568D01*
X0104302Y0219450D01*
X0103850Y0219450D01*
X0103850Y0226350D01*
X0103850Y0226350D01*
X0103850Y0226350D01*
X0103850Y0233250D01*
X0101615Y0232893D02*
X0088550Y0232893D01*
X0091748Y0236091D02*
X0103795Y0236091D01*
X0110427Y0242488D02*
X0327865Y0242488D01*
X0326079Y0245687D02*
X0090434Y0245687D01*
X0092625Y0248885D02*
X0334928Y0248885D01*
X0334928Y0245687D02*
X0336059Y0245687D01*
X0336059Y0242488D02*
X0334928Y0242488D01*
X0334928Y0252084D02*
X0336059Y0252084D01*
X0326104Y0252084D02*
X0092307Y0252084D01*
X0086831Y0242488D02*
X0083511Y0242488D01*
X0083633Y0239290D02*
X0080312Y0239290D01*
X0080434Y0236091D02*
X0077114Y0236091D01*
X0085351Y0229694D02*
X0097813Y0229694D01*
X0096950Y0226496D02*
X0083700Y0226496D01*
X0081924Y0223297D02*
X0097646Y0223297D01*
X0097648Y0223292D02*
X0098101Y0222508D01*
X0098651Y0221791D01*
X0099291Y0221151D01*
X0100008Y0220601D01*
X0100792Y0220148D01*
X0101627Y0219802D01*
X0102501Y0219568D01*
X0103398Y0219450D01*
X0103850Y0219450D01*
X0103850Y0226350D01*
X0096950Y0226350D01*
X0096950Y0225898D01*
X0097068Y0225001D01*
X0097302Y0224127D01*
X0097648Y0223292D01*
X0100911Y0220099D02*
X0083700Y0220099D01*
X0083700Y0216900D02*
X0151609Y0216900D01*
X0153700Y0220099D02*
X0148873Y0220099D01*
X0146327Y0220099D02*
X0140787Y0220099D01*
X0137600Y0220099D02*
X0137600Y0220099D01*
X0137600Y0219200D02*
X0137600Y0227600D01*
X0131600Y0227600D01*
X0131600Y0224728D01*
X0131748Y0223795D01*
X0132040Y0222897D01*
X0132468Y0222055D01*
X0133023Y0221291D01*
X0133691Y0220623D01*
X0134455Y0220068D01*
X0135297Y0219640D01*
X0136195Y0219348D01*
X0137128Y0219200D01*
X0137600Y0219200D01*
X0134413Y0220099D02*
X0126789Y0220099D01*
X0123850Y0220099D02*
X0123850Y0220099D01*
X0123850Y0219450D02*
X0123850Y0226350D01*
X0116950Y0226350D01*
X0116950Y0225898D01*
X0117068Y0225001D01*
X0117302Y0224127D01*
X0117648Y0223292D01*
X0118101Y0222508D01*
X0118651Y0221791D01*
X0119291Y0221151D01*
X0120008Y0220601D01*
X0120792Y0220148D01*
X0121627Y0219802D01*
X0122501Y0219568D01*
X0123398Y0219450D01*
X0123850Y0219450D01*
X0120911Y0220099D02*
X0106789Y0220099D01*
X0103850Y0220099D02*
X0103850Y0220099D01*
X0103850Y0223297D02*
X0103850Y0223297D01*
X0103850Y0226496D02*
X0103850Y0226496D01*
X0103850Y0229694D02*
X0103850Y0229694D01*
X0109887Y0229694D02*
X0117813Y0229694D01*
X0116950Y0226496D02*
X0110750Y0226496D01*
X0110054Y0223297D02*
X0117646Y0223297D01*
X0123850Y0223297D02*
X0123850Y0223297D01*
X0123850Y0226496D02*
X0123850Y0226496D01*
X0123850Y0229694D02*
X0123850Y0229694D01*
X0129887Y0229694D02*
X0131600Y0229694D01*
X0131600Y0226496D02*
X0130750Y0226496D01*
X0130054Y0223297D02*
X0131909Y0223297D01*
X0137600Y0223297D02*
X0137600Y0223297D01*
X0137600Y0226496D02*
X0137600Y0226496D01*
X0137600Y0229694D02*
X0137600Y0229694D01*
X0152440Y0223297D02*
X0152760Y0223297D01*
X0160900Y0220099D02*
X0161600Y0220099D01*
X0160900Y0216900D02*
X0164375Y0216900D01*
X0167311Y0213702D02*
X0158593Y0213702D01*
X0155394Y0210503D02*
X0164112Y0210503D01*
X0160914Y0207305D02*
X0152196Y0207305D01*
X0148997Y0204106D02*
X0157715Y0204106D01*
X0154517Y0200908D02*
X0145799Y0200908D01*
X0142600Y0197709D02*
X0151318Y0197709D01*
X0148120Y0194511D02*
X0139950Y0194511D01*
X0139401Y0191312D02*
X0144921Y0191312D01*
X0141723Y0188114D02*
X0135941Y0188114D01*
X0131759Y0188114D02*
X0122191Y0188114D01*
X0121313Y0187750D02*
X0123555Y0188679D01*
X0125271Y0190395D01*
X0126200Y0192637D01*
X0126200Y0195063D01*
X0125271Y0197305D01*
X0123555Y0199021D01*
X0121749Y0199770D01*
X0122501Y0199568D01*
X0123398Y0199450D01*
X0123850Y0199450D01*
X0124302Y0199450D01*
X0125199Y0199568D01*
X0126073Y0199802D01*
X0126908Y0200148D01*
X0127692Y0200601D01*
X0128409Y0201151D01*
X0129049Y0201791D01*
X0129599Y0202508D01*
X0130052Y0203292D01*
X0130398Y0204127D01*
X0130632Y0205001D01*
X0130750Y0205898D01*
X0130750Y0206350D01*
X0130750Y0206802D01*
X0130632Y0207699D01*
X0130398Y0208573D01*
X0130052Y0209408D01*
X0129599Y0210192D01*
X0129049Y0210909D01*
X0128409Y0211549D01*
X0127692Y0212099D01*
X0126908Y0212552D01*
X0126073Y0212898D01*
X0125199Y0213132D01*
X0124302Y0213250D01*
X0123850Y0213250D01*
X0123850Y0206350D01*
X0123850Y0206350D01*
X0130750Y0206350D01*
X0123850Y0206350D01*
X0123850Y0206350D01*
X0123850Y0213250D01*
X0123398Y0213250D01*
X0122501Y0213132D01*
X0121627Y0212898D01*
X0120792Y0212552D01*
X0120008Y0212099D01*
X0119291Y0211549D01*
X0118651Y0210909D01*
X0118333Y0210494D01*
X0117305Y0211521D01*
X0115063Y0212450D01*
X0112637Y0212450D01*
X0110395Y0211521D01*
X0108850Y0209977D01*
X0107305Y0211521D01*
X0105063Y0212450D01*
X0102637Y0212450D01*
X0100395Y0211521D01*
X0098679Y0209805D01*
X0097750Y0207563D01*
X0097750Y0205137D01*
X0098679Y0202895D01*
X0100395Y0201179D01*
X0102637Y0200250D01*
X0105063Y0200250D01*
X0107305Y0201179D01*
X0108850Y0202723D01*
X0110300Y0201273D01*
X0110300Y0199284D01*
X0110835Y0197991D01*
X0109805Y0199021D01*
X0107563Y0199950D01*
X0105137Y0199950D01*
X0102895Y0199021D01*
X0101179Y0197305D01*
X0100250Y0195063D01*
X0100250Y0192637D01*
X0101179Y0190395D01*
X0102895Y0188679D01*
X0105137Y0187750D01*
X0107563Y0187750D01*
X0109805Y0188679D01*
X0111521Y0190395D01*
X0112450Y0192637D01*
X0112450Y0195063D01*
X0111534Y0197275D01*
X0114000Y0194809D01*
X0114000Y0192637D01*
X0114929Y0190395D01*
X0116645Y0188679D01*
X0118887Y0187750D01*
X0121313Y0187750D01*
X0118009Y0188114D02*
X0108441Y0188114D01*
X0104259Y0188114D02*
X0095609Y0188114D01*
X0098151Y0191312D02*
X0100799Y0191312D01*
X0100250Y0194511D02*
X0098700Y0194511D01*
X0097367Y0197709D02*
X0101582Y0197709D01*
X0101049Y0200908D02*
X0089383Y0200908D01*
X0086185Y0204106D02*
X0098177Y0204106D01*
X0097750Y0207305D02*
X0082986Y0207305D01*
X0081200Y0210503D02*
X0099377Y0210503D01*
X0108323Y0210503D02*
X0109377Y0210503D01*
X0118323Y0210503D02*
X0118340Y0210503D01*
X0123850Y0210503D02*
X0123850Y0210503D01*
X0123850Y0207305D02*
X0123850Y0207305D01*
X0123850Y0206350D02*
X0123850Y0199450D01*
X0123850Y0206350D01*
X0123850Y0206350D01*
X0123850Y0204106D02*
X0123850Y0204106D01*
X0123850Y0200908D02*
X0123850Y0200908D01*
X0124867Y0197709D02*
X0129082Y0197709D01*
X0128092Y0200908D02*
X0135617Y0200908D01*
X0138815Y0204106D02*
X0130389Y0204106D01*
X0130684Y0207305D02*
X0142014Y0207305D01*
X0145212Y0210503D02*
X0129360Y0210503D01*
X0148411Y0213702D02*
X0082328Y0213702D01*
X0071200Y0206300D02*
X0099200Y0178300D01*
X0099200Y0151700D01*
X0103400Y0147500D01*
X0111800Y0147500D01*
X0118100Y0153800D01*
X0119500Y0153800D01*
X0120100Y0153850D01*
X0121600Y0153800D01*
X0125100Y0153800D01*
X0131400Y0147500D01*
X0129959Y0143334D02*
X0113241Y0143334D01*
X0117056Y0146533D02*
X0126144Y0146533D01*
X0112936Y0159327D02*
X0109067Y0159327D01*
X0103633Y0159327D02*
X0103600Y0159327D01*
X0103600Y0162526D02*
X0116134Y0162526D01*
X0119333Y0165724D02*
X0103600Y0165724D01*
X0103600Y0168923D02*
X0122531Y0168923D01*
X0125730Y0172121D02*
X0103600Y0172121D01*
X0103600Y0175320D02*
X0128928Y0175320D01*
X0132127Y0178518D02*
X0103600Y0178518D01*
X0102006Y0181717D02*
X0135325Y0181717D01*
X0138524Y0184915D02*
X0098807Y0184915D01*
X0086591Y0178518D02*
X0051626Y0178518D01*
X0051975Y0175320D02*
X0089000Y0175320D01*
X0089000Y0172121D02*
X0050782Y0172121D01*
X0050592Y0168923D02*
X0089000Y0168923D01*
X0089000Y0165724D02*
X0051223Y0165724D01*
X0050210Y0162526D02*
X0089000Y0162526D01*
X0089000Y0159327D02*
X0050425Y0159327D01*
X0051223Y0156129D02*
X0086941Y0156129D01*
X0086500Y0152930D02*
X0050409Y0152930D01*
X0050248Y0149732D02*
X0088092Y0149732D01*
X0098144Y0146533D02*
X0051223Y0146533D01*
X0050577Y0143334D02*
X0101959Y0143334D01*
X0074516Y0140136D02*
X0049844Y0140136D01*
X0040002Y0140136D02*
X0036200Y0140136D01*
X0036200Y0143334D02*
X0039269Y0143334D01*
X0038623Y0146533D02*
X0036200Y0146533D01*
X0036200Y0149732D02*
X0039597Y0149732D01*
X0039436Y0152930D02*
X0036200Y0152930D01*
X0036200Y0156129D02*
X0038623Y0156129D01*
X0039421Y0159327D02*
X0036200Y0159327D01*
X0036200Y0162526D02*
X0039635Y0162526D01*
X0038623Y0165724D02*
X0036200Y0165724D01*
X0036200Y0168923D02*
X0039253Y0168923D01*
X0039063Y0172121D02*
X0036200Y0172121D01*
X0036200Y0175320D02*
X0037871Y0175320D01*
X0038220Y0178518D02*
X0036200Y0178518D01*
X0036200Y0181717D02*
X0040517Y0181717D01*
X0038057Y0184915D02*
X0036200Y0184915D01*
X0029000Y0184915D02*
X0011950Y0184915D01*
X0011950Y0181717D02*
X0029000Y0181717D01*
X0029000Y0178518D02*
X0011950Y0178518D01*
X0011950Y0175320D02*
X0029000Y0175320D01*
X0029000Y0172121D02*
X0011950Y0172121D01*
X0011950Y0168923D02*
X0029000Y0168923D01*
X0029000Y0165724D02*
X0011950Y0165724D01*
X0011950Y0162526D02*
X0029000Y0162526D01*
X0029000Y0159327D02*
X0011950Y0159327D01*
X0011950Y0156129D02*
X0029000Y0156129D01*
X0029000Y0152930D02*
X0011950Y0152930D01*
X0011950Y0149732D02*
X0029000Y0149732D01*
X0029000Y0146533D02*
X0011950Y0146533D01*
X0011950Y0143334D02*
X0029000Y0143334D01*
X0029000Y0140136D02*
X0011950Y0140136D01*
X0011950Y0136937D02*
X0029000Y0136937D01*
X0029000Y0133739D02*
X0011950Y0133739D01*
X0011950Y0130540D02*
X0029000Y0130540D01*
X0029000Y0127342D02*
X0011950Y0127342D01*
X0011950Y0124143D02*
X0029000Y0124143D01*
X0029000Y0120945D02*
X0011950Y0120945D01*
X0011950Y0117746D02*
X0029000Y0117746D01*
X0029000Y0114548D02*
X0011950Y0114548D01*
X0011950Y0111349D02*
X0029000Y0111349D01*
X0029000Y0108151D02*
X0011950Y0108151D01*
X0011950Y0104952D02*
X0029000Y0104952D01*
X0029000Y0101754D02*
X0011950Y0101754D01*
X0036200Y0114548D02*
X0038766Y0114548D01*
X0038766Y0117746D02*
X0036200Y0117746D01*
X0036200Y0120945D02*
X0040811Y0120945D01*
X0038934Y0124143D02*
X0036200Y0124143D01*
X0036200Y0127342D02*
X0038623Y0127342D01*
X0040406Y0130540D02*
X0036200Y0130540D01*
X0036200Y0133739D02*
X0039101Y0133739D01*
X0038623Y0136937D02*
X0036200Y0136937D01*
X0049328Y0181717D02*
X0083392Y0181717D01*
X0080194Y0184915D02*
X0051329Y0184915D01*
X0053948Y0188114D02*
X0076995Y0188114D01*
X0073797Y0191312D02*
X0055154Y0191312D01*
X0055154Y0194511D02*
X0070598Y0194511D01*
X0067400Y0197709D02*
X0054172Y0197709D01*
X0054829Y0200908D02*
X0064201Y0200908D01*
X0061003Y0204106D02*
X0053383Y0204106D01*
X0049987Y0207305D02*
X0057804Y0207305D01*
X0053958Y0214841D02*
X0048454Y0214827D01*
X0048700Y0215073D01*
X0048700Y0220127D01*
X0046792Y0222034D01*
X0049500Y0224742D01*
X0049500Y0227600D01*
X0049500Y0230458D01*
X0045458Y0234500D01*
X0042600Y0234500D01*
X0042600Y0227600D01*
X0042600Y0227600D01*
X0049500Y0227600D01*
X0042600Y0227600D01*
X0042600Y0227600D01*
X0042600Y0234500D01*
X0040157Y0234500D01*
X0045991Y0240334D01*
X0046600Y0241804D01*
X0046600Y0255943D01*
X0046757Y0256100D01*
X0049346Y0256100D01*
X0049754Y0255692D01*
X0051183Y0255100D01*
X0049754Y0254508D01*
X0048292Y0253046D01*
X0047500Y0251134D01*
X0047500Y0249066D01*
X0048292Y0247154D01*
X0049754Y0245692D01*
X0051263Y0245067D01*
X0051022Y0239856D01*
X0050937Y0239541D01*
X0050989Y0239148D01*
X0050971Y0238751D01*
X0051081Y0238444D01*
X0051124Y0238121D01*
X0051322Y0237777D01*
X0051457Y0237404D01*
X0051677Y0237163D01*
X0053998Y0233140D01*
X0053958Y0214841D01*
X0053962Y0216900D02*
X0048700Y0216900D01*
X0048700Y0220099D02*
X0053969Y0220099D01*
X0053976Y0223297D02*
X0048055Y0223297D01*
X0049500Y0226496D02*
X0053983Y0226496D01*
X0053990Y0229694D02*
X0049500Y0229694D01*
X0047065Y0232893D02*
X0053997Y0232893D01*
X0052295Y0236091D02*
X0041748Y0236091D01*
X0042600Y0232893D02*
X0042600Y0232893D01*
X0042600Y0229694D02*
X0042600Y0229694D01*
X0030434Y0236091D02*
X0011950Y0236091D01*
X0011950Y0232893D02*
X0028600Y0232893D01*
X0028600Y0229694D02*
X0011950Y0229694D01*
X0011950Y0226496D02*
X0028600Y0226496D01*
X0028600Y0223297D02*
X0011950Y0223297D01*
X0011950Y0220099D02*
X0029444Y0220099D01*
X0032643Y0216900D02*
X0011950Y0216900D01*
X0011950Y0213702D02*
X0035202Y0213702D01*
X0032476Y0210503D02*
X0011950Y0210503D01*
X0011950Y0207305D02*
X0029714Y0207305D01*
X0029000Y0204106D02*
X0011950Y0204106D01*
X0011950Y0200908D02*
X0029000Y0200908D01*
X0029000Y0197709D02*
X0011950Y0197709D01*
X0011950Y0194511D02*
X0029000Y0194511D01*
X0029000Y0191312D02*
X0011950Y0191312D01*
X0011950Y0188114D02*
X0029000Y0188114D01*
X0033633Y0239290D02*
X0011950Y0239290D01*
X0011950Y0242488D02*
X0023974Y0242488D01*
X0023468Y0242624D02*
X0026191Y0241894D01*
X0029009Y0241894D01*
X0030360Y0242256D01*
X0030538Y0242273D01*
X0030674Y0242341D01*
X0031732Y0242624D01*
X0034173Y0244033D01*
X0036167Y0246027D01*
X0036646Y0246856D01*
X0036729Y0246948D01*
X0036791Y0247108D01*
X0037576Y0248468D01*
X0038305Y0251191D01*
X0038305Y0254009D01*
X0037576Y0256732D01*
X0036791Y0258092D01*
X0036729Y0258252D01*
X0036646Y0258344D01*
X0036167Y0259173D01*
X0034173Y0261167D01*
X0031732Y0262576D01*
X0030674Y0262859D01*
X0030538Y0262927D01*
X0030360Y0262944D01*
X0029009Y0263305D01*
X0026191Y0263305D01*
X0023468Y0262576D01*
X0022858Y0262224D01*
X0022814Y0262211D01*
X0022742Y0262157D01*
X0021027Y0261167D01*
X0019781Y0259921D01*
X0019665Y0259833D01*
X0019619Y0259759D01*
X0019033Y0259173D01*
X0017624Y0256732D01*
X0016894Y0254009D01*
X0016894Y0252768D01*
X0016863Y0252600D01*
X0016894Y0252432D01*
X0016894Y0251191D01*
X0017624Y0248468D01*
X0019033Y0246027D01*
X0019619Y0245441D01*
X0019665Y0245367D01*
X0019781Y0245279D01*
X0021027Y0244033D01*
X0022742Y0243043D01*
X0022814Y0242989D01*
X0022858Y0242976D01*
X0023468Y0242624D01*
X0019373Y0245687D02*
X0011950Y0245687D01*
X0012107Y0248885D02*
X0017512Y0248885D01*
X0016894Y0252084D02*
X0012837Y0252084D01*
X0013997Y0255282D02*
X0017236Y0255282D01*
X0018634Y0258481D02*
X0015689Y0258481D01*
X0018240Y0261679D02*
X0021915Y0261679D01*
X0022179Y0264878D02*
X0050647Y0264878D01*
X0041023Y0261679D02*
X0033285Y0261679D01*
X0036566Y0258481D02*
X0038635Y0258481D01*
X0038600Y0255282D02*
X0037964Y0255282D01*
X0038305Y0252084D02*
X0038600Y0252084D01*
X0038600Y0248885D02*
X0037688Y0248885D01*
X0038600Y0245687D02*
X0035827Y0245687D01*
X0036831Y0242488D02*
X0031226Y0242488D01*
X0044947Y0239290D02*
X0050970Y0239290D01*
X0051144Y0242488D02*
X0046600Y0242488D01*
X0046600Y0245687D02*
X0049766Y0245687D01*
X0047575Y0248885D02*
X0046600Y0248885D01*
X0046600Y0252084D02*
X0047893Y0252084D01*
X0046600Y0255282D02*
X0050742Y0255282D01*
X0031241Y0268076D02*
X0398959Y0268076D01*
X0353600Y0165724D02*
X0333342Y0165724D01*
X0334100Y0162526D02*
X0351538Y0162526D01*
X0347984Y0159327D02*
X0333280Y0159327D01*
X0328962Y0156129D02*
X0344430Y0156129D01*
X0326238Y0156129D02*
X0318962Y0156129D01*
X0293666Y0127342D02*
X0292666Y0127342D01*
X0285875Y0120945D02*
X0305288Y0120945D01*
X0302090Y0117746D02*
X0287281Y0117746D01*
X0286168Y0114548D02*
X0298891Y0114548D01*
X0294729Y0111349D02*
X0284507Y0111349D01*
X0287706Y0108151D02*
X0292919Y0108151D01*
X0293630Y0104952D02*
X0290904Y0104952D01*
X0294103Y0101754D02*
X0320780Y0101754D01*
X0317669Y0104952D02*
X0301570Y0104952D01*
X0303808Y0108151D02*
X0316422Y0108151D01*
X0316310Y0111349D02*
X0307006Y0111349D01*
X0310205Y0114548D02*
X0317283Y0114548D01*
X0325598Y0114548D02*
X0326728Y0114548D01*
X0326728Y0111349D02*
X0325598Y0111349D01*
X0331546Y0101754D02*
X0344693Y0101754D01*
X0335924Y0072967D02*
X0256600Y0072967D01*
X0256600Y0076166D02*
X0288777Y0076166D01*
X0285179Y0079364D02*
X0256600Y0079364D01*
X0256600Y0082563D02*
X0281980Y0082563D01*
X0278782Y0085761D02*
X0256600Y0085761D01*
X0256600Y0088960D02*
X0275583Y0088960D01*
X0272385Y0092158D02*
X0256600Y0092158D01*
X0256600Y0095357D02*
X0269186Y0095357D01*
X0265988Y0098555D02*
X0260068Y0098555D01*
X0262281Y0101754D02*
X0262789Y0101754D01*
X0256392Y0108151D02*
X0231600Y0108151D01*
X0231600Y0111349D02*
X0253194Y0111349D01*
X0249995Y0114548D02*
X0231600Y0114548D01*
X0231600Y0117746D02*
X0246797Y0117746D01*
X0243598Y0120945D02*
X0231600Y0120945D01*
X0231600Y0124143D02*
X0240400Y0124143D01*
X0233666Y0127342D02*
X0231600Y0127342D01*
X0216797Y0117746D02*
X0197330Y0117746D01*
X0190370Y0117746D02*
X0187330Y0117746D01*
X0189736Y0120945D02*
X0213956Y0120945D01*
X0213600Y0124143D02*
X0192935Y0124143D01*
X0201534Y0127342D02*
X0203666Y0127342D01*
X0211534Y0127342D02*
X0213600Y0127342D01*
X0215062Y0114548D02*
X0218600Y0114548D01*
X0218600Y0111349D02*
X0216900Y0111349D01*
X0216612Y0108151D02*
X0218600Y0108151D01*
X0218600Y0104952D02*
X0214657Y0104952D01*
X0216734Y0101754D02*
X0218600Y0101754D01*
X0218600Y0098555D02*
X0216779Y0098555D01*
X0218600Y0095357D02*
X0214766Y0095357D01*
X0216566Y0092158D02*
X0218600Y0092158D01*
X0218600Y0088960D02*
X0216900Y0088960D01*
X0218600Y0085761D02*
X0215171Y0085761D01*
X0216399Y0082563D02*
X0218276Y0082563D01*
X0206029Y0085761D02*
X0172893Y0085761D01*
X0172771Y0086055D02*
X0171055Y0087771D01*
X0168813Y0088700D01*
X0166387Y0088700D01*
X0164145Y0087771D01*
X0162429Y0086055D01*
X0161500Y0083813D01*
X0161500Y0081387D01*
X0162429Y0079145D01*
X0164145Y0077429D01*
X0166387Y0076500D01*
X0168813Y0076500D01*
X0171055Y0077429D01*
X0172771Y0079145D01*
X0173700Y0081387D01*
X0173700Y0083813D01*
X0172771Y0086055D01*
X0173700Y0082563D02*
X0204801Y0082563D01*
X0204300Y0079364D02*
X0172862Y0079364D01*
X0162338Y0079364D02*
X0067951Y0079364D01*
X0070525Y0082563D02*
X0161500Y0082563D01*
X0162307Y0085761D02*
X0073098Y0085761D01*
X0075671Y0088960D02*
X0178863Y0088960D01*
X0179145Y0088679D02*
X0181387Y0087750D01*
X0183813Y0087750D01*
X0186055Y0088679D01*
X0187771Y0090395D01*
X0188700Y0092637D01*
X0188700Y0095063D01*
X0187771Y0097305D01*
X0186055Y0099021D01*
X0183813Y0099950D01*
X0181387Y0099950D01*
X0179145Y0099021D01*
X0177429Y0097305D01*
X0176500Y0095063D01*
X0176500Y0092637D01*
X0177429Y0090395D01*
X0179145Y0088679D01*
X0176698Y0092158D02*
X0164343Y0092158D01*
X0164659Y0092401D02*
X0165299Y0093041D01*
X0165849Y0093758D01*
X0166302Y0094542D01*
X0166648Y0095377D01*
X0166882Y0096251D01*
X0167000Y0097148D01*
X0167000Y0097600D01*
X0167000Y0098052D01*
X0166882Y0098949D01*
X0166648Y0099823D01*
X0166302Y0100658D01*
X0165849Y0101442D01*
X0165299Y0102159D01*
X0164659Y0102799D01*
X0163942Y0103349D01*
X0163158Y0103802D01*
X0162323Y0104148D01*
X0161449Y0104382D01*
X0160552Y0104500D01*
X0160100Y0104500D01*
X0160100Y0097600D01*
X0167000Y0097600D01*
X0160100Y0097600D01*
X0160100Y0097600D01*
X0160100Y0097600D01*
X0160100Y0090700D01*
X0160552Y0090700D01*
X0161449Y0090818D01*
X0162323Y0091052D01*
X0163158Y0091398D01*
X0163942Y0091851D01*
X0164659Y0092401D01*
X0160100Y0092158D02*
X0160100Y0092158D01*
X0160100Y0090700D02*
X0160100Y0097600D01*
X0160100Y0097600D01*
X0160100Y0097600D01*
X0153200Y0097600D01*
X0153200Y0098052D01*
X0153318Y0098949D01*
X0153552Y0099823D01*
X0153898Y0100658D01*
X0154351Y0101442D01*
X0154901Y0102159D01*
X0155541Y0102799D01*
X0156258Y0103349D01*
X0157042Y0103802D01*
X0157877Y0104148D01*
X0158751Y0104382D01*
X0159648Y0104500D01*
X0160100Y0104500D01*
X0160100Y0097600D01*
X0153200Y0097600D01*
X0153200Y0097148D01*
X0153318Y0096251D01*
X0153552Y0095377D01*
X0153898Y0094542D01*
X0154351Y0093758D01*
X0154901Y0093041D01*
X0155541Y0092401D01*
X0156258Y0091851D01*
X0157042Y0091398D01*
X0157877Y0091052D01*
X0158751Y0090818D01*
X0159648Y0090700D01*
X0160100Y0090700D01*
X0155857Y0092158D02*
X0122903Y0092158D01*
X0117297Y0092158D02*
X0078245Y0092158D01*
X0124573Y0101754D02*
X0154590Y0101754D01*
X0153266Y0098555D02*
X0126200Y0098555D01*
X0125773Y0095357D02*
X0153561Y0095357D01*
X0160100Y0095357D02*
X0160100Y0095357D01*
X0160100Y0098555D02*
X0160100Y0098555D01*
X0160100Y0101754D02*
X0160100Y0101754D01*
X0165610Y0101754D02*
X0204466Y0101754D01*
X0204421Y0098555D02*
X0201521Y0098555D01*
X0201055Y0099021D02*
X0198813Y0099950D01*
X0196387Y0099950D01*
X0194145Y0099021D01*
X0192429Y0097305D01*
X0191500Y0095063D01*
X0191500Y0092637D01*
X0192429Y0090395D01*
X0194145Y0088679D01*
X0196387Y0087750D01*
X0198813Y0087750D01*
X0201055Y0088679D01*
X0202771Y0090395D01*
X0203700Y0092637D01*
X0203700Y0095063D01*
X0202771Y0097305D01*
X0201055Y0099021D01*
X0203578Y0095357D02*
X0206434Y0095357D01*
X0204634Y0092158D02*
X0203502Y0092158D01*
X0204300Y0088960D02*
X0201337Y0088960D01*
X0193863Y0088960D02*
X0186337Y0088960D01*
X0188502Y0092158D02*
X0191698Y0092158D01*
X0191622Y0095357D02*
X0188578Y0095357D01*
X0186521Y0098555D02*
X0193679Y0098555D01*
X0189672Y0108151D02*
X0188028Y0108151D01*
X0179672Y0108151D02*
X0164278Y0108151D01*
X0155922Y0108151D02*
X0124278Y0108151D01*
X0123800Y0104952D02*
X0206543Y0104952D01*
X0204588Y0108151D02*
X0198028Y0108151D01*
X0199935Y0111349D02*
X0204300Y0111349D01*
X0206138Y0114548D02*
X0199646Y0114548D01*
X0178679Y0098555D02*
X0166934Y0098555D01*
X0166639Y0095357D02*
X0176622Y0095357D01*
X0154015Y0111349D02*
X0126185Y0111349D01*
X0186031Y0069769D02*
X0204300Y0069769D01*
X0205243Y0066570D02*
X0186600Y0066570D01*
X0186600Y0063372D02*
X0205136Y0063372D01*
X0216900Y0060173D02*
X0322254Y0060173D01*
X0325452Y0063372D02*
X0254624Y0063372D01*
X0250576Y0063372D02*
X0219912Y0063372D01*
X0223311Y0066570D02*
X0247960Y0066570D01*
X0248432Y0069769D02*
X0226709Y0069769D01*
X0230124Y0072967D02*
X0248600Y0072967D01*
X0248600Y0076166D02*
X0231604Y0076166D01*
X0231600Y0079364D02*
X0248600Y0079364D01*
X0248600Y0082563D02*
X0231600Y0082563D01*
X0231600Y0085761D02*
X0248600Y0085761D01*
X0248600Y0088960D02*
X0231600Y0088960D01*
X0231600Y0092158D02*
X0248600Y0092158D01*
X0248600Y0095357D02*
X0231600Y0095357D01*
X0231600Y0098555D02*
X0248666Y0098555D01*
X0250334Y0100991D02*
X0250334Y0100991D01*
X0251097Y0101754D02*
X0231600Y0101754D01*
X0231600Y0104952D02*
X0253508Y0104952D01*
X0262455Y0136937D02*
X0262745Y0136937D01*
X0272455Y0136937D02*
X0272745Y0136937D01*
X0372600Y0152930D02*
X0372600Y0152930D01*
X0372600Y0156129D02*
X0372600Y0156129D01*
X0331849Y0069769D02*
X0256768Y0069769D01*
X0257240Y0066570D02*
X0328651Y0066570D01*
X0338093Y0060173D02*
X0345764Y0060173D01*
X0345300Y0057600D02*
X0345300Y0057122D01*
X0345425Y0056173D01*
X0345673Y0055248D01*
X0346039Y0054364D01*
X0346517Y0053536D01*
X0347100Y0052776D01*
X0347276Y0052600D01*
X0347100Y0052424D01*
X0346517Y0051664D01*
X0346039Y0050836D01*
X0345673Y0049952D01*
X0345425Y0049027D01*
X0345300Y0048078D01*
X0345300Y0047600D01*
X0352600Y0047600D01*
X0359900Y0047600D01*
X0359900Y0047122D01*
X0359775Y0046173D01*
X0359527Y0045248D01*
X0359161Y0044364D01*
X0358683Y0043536D01*
X0358100Y0042776D01*
X0357424Y0042100D01*
X0356664Y0041517D01*
X0355836Y0041039D01*
X0354952Y0040673D01*
X0354027Y0040425D01*
X0353078Y0040300D01*
X0352600Y0040300D01*
X0352600Y0047600D01*
X0352600Y0047600D01*
X0352600Y0047600D01*
X0352600Y0054900D01*
X0352600Y0057600D01*
X0352600Y0057600D01*
X0345300Y0057600D01*
X0345319Y0056975D02*
X0334894Y0056975D01*
X0331696Y0053776D02*
X0346378Y0053776D01*
X0345932Y0050578D02*
X0328497Y0050578D01*
X0325299Y0047379D02*
X0345300Y0047379D01*
X0345300Y0047600D02*
X0345300Y0047122D01*
X0345425Y0046173D01*
X0345673Y0045248D01*
X0346039Y0044364D01*
X0346517Y0043536D01*
X0347100Y0042776D01*
X0347776Y0042100D01*
X0348536Y0041517D01*
X0349364Y0041039D01*
X0350248Y0040673D01*
X0351173Y0040425D01*
X0352122Y0040300D01*
X0352600Y0040300D01*
X0352600Y0047600D01*
X0345300Y0047600D01*
X0346145Y0044181D02*
X0322100Y0044181D01*
X0318902Y0040982D02*
X0349501Y0040982D01*
X0352600Y0040982D02*
X0352600Y0040982D01*
X0355699Y0040982D02*
X0378600Y0040982D01*
X0378600Y0037784D02*
X0332456Y0037784D01*
X0332791Y0037516D02*
X0331919Y0038212D01*
X0330974Y0038805D01*
X0329969Y0039289D01*
X0328917Y0039658D01*
X0327829Y0039906D01*
X0326728Y0040030D01*
X0326728Y0030665D01*
X0336093Y0030665D01*
X0335969Y0031766D01*
X0335721Y0032854D01*
X0335352Y0033906D01*
X0334868Y0034911D01*
X0334275Y0035856D01*
X0333579Y0036728D01*
X0332791Y0037516D01*
X0335025Y0034585D02*
X0358589Y0034585D01*
X0357297Y0031387D02*
X0336012Y0031387D01*
X0336093Y0029535D02*
X0326728Y0029535D01*
X0326728Y0020170D01*
X0327829Y0020294D01*
X0328917Y0020542D01*
X0329969Y0020911D01*
X0330974Y0021395D01*
X0331919Y0021988D01*
X0332791Y0022684D01*
X0333579Y0023472D01*
X0334275Y0024344D01*
X0334868Y0025289D01*
X0335352Y0026294D01*
X0335721Y0027346D01*
X0335969Y0028434D01*
X0336093Y0029535D01*
X0335913Y0028188D02*
X0357250Y0028188D01*
X0363850Y0028188D02*
X0363850Y0028188D01*
X0363850Y0031387D02*
X0363850Y0031387D01*
X0363850Y0034585D02*
X0363850Y0034585D01*
X0369111Y0034585D02*
X0369633Y0034585D01*
X0378067Y0034585D02*
X0378600Y0034585D01*
X0378600Y0044181D02*
X0359055Y0044181D01*
X0359900Y0047379D02*
X0378600Y0047379D01*
X0378600Y0050578D02*
X0359268Y0050578D01*
X0358822Y0053776D02*
X0378600Y0053776D01*
X0375930Y0056975D02*
X0359881Y0056975D01*
X0359436Y0060173D02*
X0372731Y0060173D01*
X0352600Y0056975D02*
X0352600Y0056975D01*
X0352600Y0053776D02*
X0352600Y0053776D01*
X0352600Y0050578D02*
X0352600Y0050578D01*
X0352600Y0047379D02*
X0352600Y0047379D01*
X0352600Y0044181D02*
X0352600Y0044181D01*
X0326728Y0037784D02*
X0325598Y0037784D01*
X0325598Y0034585D02*
X0326728Y0034585D01*
X0326728Y0031387D02*
X0325598Y0031387D01*
X0325598Y0028188D02*
X0326728Y0028188D01*
X0326728Y0024990D02*
X0325598Y0024990D01*
X0325598Y0021791D02*
X0326728Y0021791D01*
X0331605Y0021791D02*
X0357870Y0021791D01*
X0357250Y0024990D02*
X0334680Y0024990D01*
X0317301Y0034585D02*
X0311419Y0034585D01*
X0315703Y0037784D02*
X0319870Y0037784D01*
X0309460Y0047379D02*
X0217158Y0047379D01*
X0217698Y0050578D02*
X0312658Y0050578D01*
X0315857Y0053776D02*
X0216676Y0053776D01*
X0216125Y0056975D02*
X0319055Y0056975D01*
X0363850Y0024990D02*
X0363850Y0024990D01*
X0363850Y0021791D02*
X0363850Y0021791D01*
X0399275Y0012196D02*
X0301749Y0012196D01*
X0302450Y0015394D02*
X0408111Y0015394D01*
X0408410Y0018593D02*
X0412018Y0018593D01*
X0411608Y0021791D02*
X0414568Y0021791D01*
X0412984Y0024990D02*
X0416237Y0024990D01*
X0417380Y0028188D02*
X0413305Y0028188D01*
X0412669Y0031387D02*
X0418110Y0031387D01*
X0418250Y0034585D02*
X0410755Y0034585D01*
X0128299Y0191312D02*
X0125651Y0191312D01*
X0126200Y0194511D02*
X0127750Y0194511D01*
X0114549Y0191312D02*
X0111901Y0191312D01*
X0112450Y0194511D02*
X0114000Y0194511D01*
X0110300Y0200908D02*
X0106651Y0200908D01*
D21*
X0277700Y0220300D02*
X0277700Y0169900D01*
X0277600Y0167600D02*
X0297600Y0147600D01*
X0297600Y0132600D01*
X0317600Y0190100D02*
X0317600Y0197600D01*
X0348289Y0228289D01*
X0348289Y0248850D01*
X0360100Y0248850D02*
X0360100Y0222600D01*
X0327600Y0190100D01*
X0337600Y0067600D02*
X0352600Y0067600D01*
X0337600Y0067600D02*
X0310100Y0040100D01*
X0296600Y0040100D01*
X0210600Y0040100D01*
D22*
X0352600Y0067600D02*
X0372800Y0067600D01*
X0383900Y0056500D01*
X0383900Y0027650D01*
X0383850Y0027600D01*
D23*
X0352600Y0078200D02*
X0292400Y0078200D01*
X0289600Y0081000D01*
X0288850Y0081350D02*
X0237600Y0132600D01*
X0247600Y0132600D02*
X0288850Y0091350D01*
X0289600Y0090800D02*
X0292400Y0088000D01*
X0352600Y0088000D01*
X0352600Y0097800D02*
X0345600Y0097800D01*
X0345100Y0097600D02*
X0292600Y0097600D01*
X0257600Y0132600D01*
X0267600Y0132600D02*
X0282600Y0117600D01*
X0297600Y0107600D02*
X0307600Y0117600D01*
X0357600Y0162600D01*
X0357600Y0197600D01*
X0362600Y0202600D01*
X0372600Y0202600D01*
X0367600Y0202600D01*
X0237600Y0222600D02*
X0237600Y0227600D01*
X0230100Y0235100D01*
X0222600Y0235100D01*
X0212600Y0235100D01*
X0106350Y0240100D02*
X0090100Y0240100D01*
X0077600Y0227600D01*
X0042600Y0217600D02*
X0037600Y0217600D01*
X0032600Y0222600D01*
X0032600Y0232600D01*
X0042600Y0242600D01*
X0042600Y0257600D01*
X0045100Y0260100D01*
X0055100Y0260100D01*
X0217600Y0132600D02*
X0217600Y0122600D01*
X0222600Y0117600D01*
X0222600Y0081100D01*
X0210600Y0070100D01*
X0210600Y0060100D02*
X0227600Y0076100D01*
X0227600Y0132600D01*
X0257600Y0102600D02*
X0252600Y0097600D01*
X0252600Y0067600D01*
X0182600Y0067600D02*
X0182600Y0053850D01*
X0182600Y0067600D02*
X0139145Y0067600D01*
X0066350Y0013850D02*
X0044150Y0036050D01*
X0044150Y0048700D01*
X0043850Y0048850D02*
X0018850Y0048850D01*
X0018850Y0066350D02*
X0043850Y0066350D01*
X0066350Y0013850D02*
X0223850Y0013850D01*
X0225100Y0015100D01*
D24*
X0288850Y0081350D02*
X0289600Y0081000D01*
X0289600Y0090800D02*
X0288850Y0091350D01*
X0345100Y0097600D02*
X0345600Y0097800D01*
X0352600Y0097800D02*
X0352600Y0097600D01*
X0352600Y0088000D02*
X0352600Y0087600D01*
X0352600Y0078200D02*
X0352600Y0077600D01*
X0207600Y0132600D02*
X0207000Y0132800D01*
X0205600Y0132800D01*
X0200000Y0138400D01*
X0078900Y0138400D01*
X0076800Y0136300D01*
X0076100Y0136300D01*
X0053000Y0105900D01*
X0044923Y0106148D01*
X0045300Y0106200D01*
X0067300Y0106300D02*
X0067000Y0095000D01*
X0077600Y0097100D02*
X0119500Y0097100D01*
X0120100Y0097600D01*
X0120200Y0097800D01*
X0120200Y0112500D01*
X0120100Y0112600D01*
X0077500Y0118100D02*
X0076100Y0116700D01*
X0075400Y0116700D01*
X0067300Y0106300D01*
X0077600Y0097100D02*
X0059900Y0075100D01*
X0060100Y0066350D01*
X0052600Y0062600D02*
X0052600Y0072600D01*
X0037600Y0072600D01*
X0032600Y0077600D01*
X0032600Y0205100D01*
X0037800Y0211200D01*
X0057550Y0211250D01*
X0058950Y0211250D01*
X0092600Y0177600D01*
X0092600Y0153850D01*
X0092200Y0154500D01*
X0106350Y0153850D02*
X0106900Y0154500D01*
X0113200Y0154500D01*
X0175500Y0216800D01*
X0191600Y0216800D01*
X0197200Y0222400D01*
X0197600Y0222600D01*
X0157600Y0227600D02*
X0157300Y0227300D01*
X0157300Y0217500D01*
X0134200Y0194400D01*
X0133850Y0193850D01*
X0120100Y0193850D02*
X0119500Y0194400D01*
X0113900Y0200000D01*
X0113900Y0206300D01*
X0113850Y0206350D01*
X0092600Y0193850D02*
X0091350Y0193850D01*
X0077600Y0207600D01*
X0077600Y0217600D01*
X0057550Y0211250D02*
X0057600Y0234100D01*
X0054600Y0239300D01*
X0055100Y0250100D01*
X0145100Y0167600D02*
X0144700Y0167100D01*
X0134200Y0156600D01*
X0134200Y0154500D01*
X0133850Y0153850D01*
X0181800Y0118100D02*
X0077500Y0118100D01*
X0112600Y0067600D02*
X0102600Y0057600D01*
X0057600Y0057600D01*
X0052600Y0062600D01*
X0112600Y0067600D02*
X0113555Y0067600D01*
X0160100Y0112600D02*
X0183850Y0112600D01*
X0181800Y0118100D02*
X0195800Y0132100D01*
X0197200Y0132100D01*
X0197600Y0132600D01*
D25*
X0257600Y0102600D03*
X0282600Y0117600D03*
X0297600Y0107600D03*
X0252600Y0067600D03*
X0106350Y0240100D03*
D26*
X0076100Y0136300D03*
X0075400Y0116700D03*
X0067000Y0095000D03*
M02*
